<?xml version="1.0" standalone="no"?>
<!DOCTYPE svg PUBLIC "-//W3C//DTD SVG 20010904//EN"
 "http://www.w3.org/TR/2001/REC-SVG-20010904/DTD/svg10.dtd">
<svg version="1.0" xmlns="http://www.w3.org/2000/svg"
 width="512.000000pt" height="512.000000pt" viewBox="0 0 512.000000 512.000000"
 preserveAspectRatio="xMidYMid meet">
<g transform="translate(0.000000,512.000000) scale(0.100000,-0.100000)"
fill="#000000" stroke="none">
<path d="M2393 5105 c-95 -17 -183 -48 -268 -93 -88 -47 -642 -449 -683 -496
-55 -63 -57 -179 -5 -243 50 -63 77 -77 151 -81 51 -2 75 1 102 15 19 10 152
106 294 212 143 106 280 207 305 223 139 88 346 95 502 17 63 -31 91 -53 1016
-791 460 -368 683 -552 706 -584 19 -25 43 -70 53 -98 18 -49 19 -95 19 -1161
0 -1049 -1 -1113 -18 -1170 -53 -172 -169 -312 -319 -383 -45 -22 -107 -45
-136 -51 -31 -6 -172 -11 -341 -11 -285 0 -288 0 -309 23 -20 22 -21 29 -24
552 l-3 530 -26 71 c-64 175 -201 304 -370 349 -43 12 -142 15 -477 15 l-423
0 -76 -25 c-188 -63 -318 -211 -359 -405 -12 -58 -15 -125 -12 -296 l3 -221
30 -48 c42 -68 100 -98 181 -93 69 4 116 30 153 83 36 53 41 91 41 311 0 314
-31 294 465 294 404 0 407 0 445 -63 19 -31 20 -54 20 -533 0 -299 4 -523 10
-555 31 -164 157 -307 326 -371 57 -22 70 -23 404 -22 342 0 346 0 445 27 119
32 275 106 366 175 146 111 270 278 335 451 66 176 65 144 62 1417 l-3 1149
-28 80 c-16 44 -42 106 -59 137 -70 131 -104 161 -932 822 -435 347 -816 650
-846 672 -204 151 -470 214 -717 169z"/>
<path d="M635 3815 c-59 -26 -261 -192 -318 -260 -71 -84 -130 -202 -157 -310
-20 -79 -20 -108 -18 -1245 l3 -1165 23 -80 c100 -356 373 -625 731 -723 l96
-26 605 -4 c428 -2 616 0 643 8 21 6 56 27 78 47 102 92 77 263 -48 324 l-48
24 -600 5 -600 5 -73 27 c-152 55 -279 167 -347 304 -67 134 -65 94 -65 1291
0 1024 1 1084 18 1141 30 94 72 145 199 239 90 67 119 95 134 127 35 77 16
179 -42 233 -54 50 -151 67 -214 38z"/>
</g>
</svg>
