<?xml version="1.0" standalone="no"?>
<!DOCTYPE svg PUBLIC "-//W3C//DTD SVG 20010904//EN"
 "http://www.w3.org/TR/2001/REC-SVG-20010904/DTD/svg10.dtd">
<svg version="1.0" xmlns="http://www.w3.org/2000/svg"
 width="2048.000000pt" height="2048.000000pt" viewBox="0 0 2048.000000 2048.000000"
 preserveAspectRatio="xMidYMid meet">
<g transform="translate(0.000000,2048.000000) scale(0.100000,-0.100000)"
fill="#000000" stroke="none">
<path d="M10177 20450 c-6 -30 -6 -30 -279 -30 -203 0 -287 -4 -326 -14 -29
-8 -83 -18 -120 -22 -37 -3 -78 -12 -92 -19 -14 -7 -49 -15 -79 -19 -30 -4
-66 -13 -80 -20 -14 -8 -46 -17 -71 -21 -25 -4 -52 -13 -60 -20 -8 -7 -35 -16
-60 -20 -25 -4 -52 -13 -60 -20 -8 -7 -34 -16 -57 -20 -23 -3 -47 -13 -53 -20
-6 -8 -26 -17 -43 -20 -18 -4 -39 -13 -47 -20 -8 -7 -26 -16 -40 -20 -24 -6
-97 -38 -130 -56 -8 -5 -28 -15 -45 -24 -16 -8 -37 -19 -45 -25 -8 -5 -26 -15
-40 -20 -14 -6 -43 -21 -65 -35 -22 -13 -53 -31 -70 -39 -39 -20 -64 -36 -98
-63 -16 -13 -34 -23 -42 -23 -7 0 -18 -6 -24 -14 -7 -8 -44 -36 -84 -62 -40
-27 -80 -55 -89 -64 -44 -38 -56 -47 -98 -75 -43 -29 -57 -40 -100 -77 -11
-10 -24 -18 -29 -18 -5 0 -42 -26 -82 -57 -80 -63 -135 -103 -219 -160 -30
-21 -59 -42 -65 -48 -5 -6 -30 -24 -55 -40 -25 -17 -74 -52 -110 -80 -36 -28
-85 -64 -110 -80 -25 -17 -49 -35 -55 -41 -5 -5 -30 -23 -55 -39 -25 -16 -49
-34 -55 -40 -5 -6 -35 -27 -65 -48 -30 -20 -82 -57 -115 -82 -33 -25 -66 -48
-74 -52 -8 -3 -22 -14 -32 -22 -42 -39 -72 -61 -82 -61 -5 0 -17 -7 -26 -15
-42 -38 -60 -52 -101 -79 -25 -17 -49 -35 -55 -41 -5 -5 -44 -33 -85 -60 -41
-28 -81 -56 -90 -63 -8 -7 -28 -24 -44 -37 -16 -14 -34 -25 -39 -25 -6 0 -17
-7 -26 -15 -42 -38 -60 -52 -101 -80 -130 -87 -250 -199 -306 -285 -39 -62
-84 -152 -84 -170 0 -9 -6 -25 -14 -36 -40 -56 -41 -407 -2 -482 8 -15 17 -44
21 -64 4 -21 13 -42 20 -48 8 -6 17 -25 20 -41 4 -16 11 -29 16 -29 5 0 14
-12 19 -26 11 -28 45 -68 127 -148 84 -82 132 -118 174 -131 13 -4 31 -13 39
-20 8 -8 29 -17 45 -20 17 -4 39 -13 51 -20 25 -16 278 -49 307 -41 12 4 57
11 99 16 43 5 88 15 100 23 13 8 39 18 60 21 20 4 39 13 42 21 3 8 13 15 22
15 16 0 138 76 174 107 8 8 42 34 75 58 93 69 106 79 124 95 9 8 37 28 61 45
46 30 59 40 95 72 11 10 41 31 65 47 25 16 52 35 60 42 8 7 24 21 35 31 12 10
41 31 65 47 25 17 50 35 55 40 6 6 30 25 54 41 25 17 89 64 143 105 54 41 123
93 153 115 31 22 103 76 160 120 131 100 223 169 401 300 49 36 405 303 510
383 31 23 60 42 65 42 5 0 35 18 66 40 32 22 65 40 74 40 9 0 19 6 22 14 3 8
19 17 36 21 16 3 35 13 41 20 7 8 27 17 46 21 18 3 38 12 44 19 6 8 29 16 50
20 21 4 44 13 50 20 7 8 33 17 58 21 26 3 56 12 68 19 11 7 43 16 70 20 27 4
67 13 89 21 22 8 85 19 140 24 55 5 141 14 191 19 55 6 128 7 190 1 246 -22
321 -31 354 -45 19 -7 56 -16 83 -19 26 -3 57 -12 70 -20 12 -7 43 -17 69 -20
25 -4 52 -14 58 -21 7 -8 22 -15 34 -15 12 0 39 -9 61 -20 22 -11 44 -20 51
-20 6 0 22 -8 35 -18 13 -11 39 -24 57 -30 18 -6 53 -25 78 -42 25 -16 48 -30
51 -30 10 0 146 -92 223 -151 41 -32 85 -66 98 -76 13 -10 31 -25 39 -33 14
-12 56 -46 161 -127 13 -10 34 -27 46 -38 66 -56 110 -91 134 -106 15 -9 50
-37 77 -62 28 -26 53 -47 56 -47 6 0 112 -82 142 -110 8 -8 26 -23 39 -33 72
-55 147 -114 161 -127 8 -8 26 -23 39 -33 72 -55 147 -114 161 -127 8 -8 26
-23 39 -33 37 -28 191 -150 208 -165 8 -7 53 -43 100 -80 46 -36 91 -72 100
-80 8 -7 42 -34 75 -60 34 -26 67 -53 75 -59 17 -15 674 -535 708 -561 12 -9
30 -24 39 -32 14 -12 60 -49 161 -127 13 -10 34 -28 48 -41 14 -12 51 -41 82
-64 32 -23 65 -48 74 -57 32 -30 97 -82 196 -158 13 -10 31 -25 39 -33 14 -12
56 -46 161 -127 13 -10 34 -27 47 -38 12 -11 34 -28 47 -38 63 -48 147 -114
161 -127 8 -8 26 -23 39 -33 46 -35 143 -112 159 -127 9 -8 27 -23 40 -33 56
-42 147 -114 162 -127 8 -8 26 -23 39 -33 72 -55 147 -114 161 -127 8 -8 27
-24 41 -35 14 -11 37 -30 51 -42 15 -13 29 -23 33 -23 4 0 26 -17 49 -37 23
-21 52 -45 63 -53 37 -25 144 -111 155 -123 6 -7 18 -16 26 -22 43 -27 76 -51
95 -70 25 -24 28 -27 384 -310 157 -125 290 -232 295 -238 6 -7 30 -25 55 -42
25 -16 53 -36 62 -45 36 -32 123 -102 196 -158 12 -9 30 -24 39 -32 15 -14
111 -90 161 -128 12 -9 30 -24 39 -32 9 -8 55 -45 102 -82 47 -37 93 -74 101
-80 15 -14 120 -96 159 -125 45 -34 258 -248 277 -278 10 -16 33 -48 51 -70
17 -22 37 -52 43 -65 6 -14 22 -43 35 -65 24 -39 32 -56 61 -120 39 -88 55
-132 60 -169 4 -23 12 -47 17 -55 6 -7 20 -63 31 -125 19 -109 19 -193 23
-4331 2 -2991 0 -4245 -7 -4305 -6 -47 -17 -135 -25 -197 -7 -61 -18 -120 -24
-130 -5 -11 -13 -44 -17 -74 -4 -30 -10 -59 -15 -65 -5 -6 -14 -35 -20 -65 -6
-29 -17 -63 -24 -74 -7 -11 -16 -36 -20 -55 -4 -19 -13 -44 -20 -55 -7 -11
-16 -35 -19 -52 -4 -17 -14 -37 -22 -44 -8 -6 -14 -17 -14 -25 0 -14 -84 -179
-102 -201 -12 -15 -41 -66 -57 -101 -6 -13 -35 -53 -64 -90 -29 -37 -66 -87
-82 -112 -30 -44 -350 -370 -364 -370 -4 0 -45 -29 -91 -65 -46 -36 -89 -65
-96 -65 -7 0 -17 -6 -21 -12 -9 -14 -47 -38 -100 -63 -18 -8 -33 -19 -33 -24
0 -5 -13 -12 -29 -16 -16 -3 -35 -12 -41 -20 -6 -8 -24 -17 -40 -20 -16 -3
-34 -13 -40 -20 -7 -8 -27 -17 -46 -21 -18 -3 -38 -12 -45 -20 -6 -7 -27 -16
-48 -20 -20 -3 -45 -12 -57 -19 -12 -8 -37 -17 -57 -20 -20 -4 -41 -13 -47
-20 -6 -8 -37 -17 -68 -21 -31 -3 -68 -12 -82 -19 -14 -7 -50 -16 -80 -20 -30
-4 -77 -13 -105 -21 -92 -27 -466 -35 -1415 -32 -848 3 -927 4 -955 20 -16 9
-39 21 -51 26 -24 12 -114 101 -114 114 0 5 -10 23 -22 39 -23 31 -23 31 -25
1947 -1 1686 -4 1940 -18 2107 -9 105 -23 208 -31 230 -7 22 -17 63 -20 90 -4
28 -12 59 -19 70 -6 11 -15 38 -19 59 -4 21 -13 48 -21 60 -7 12 -16 37 -20
56 -4 19 -13 42 -20 50 -7 8 -16 29 -20 47 -3 17 -12 37 -20 43 -8 6 -17 25
-20 41 -4 16 -11 31 -16 35 -5 3 -16 20 -25 37 -8 18 -26 50 -39 72 -14 22
-29 50 -35 63 -5 13 -34 53 -63 90 -29 37 -61 80 -72 97 -10 16 -82 92 -159
168 -158 155 -154 151 -216 192 -25 17 -47 33 -50 37 -11 14 -95 68 -107 68
-7 0 -13 4 -13 10 0 5 -15 17 -32 25 -62 30 -175 90 -189 102 -8 6 -30 14 -49
18 -19 4 -42 13 -50 20 -8 7 -31 15 -51 19 -21 4 -42 13 -48 20 -7 8 -35 17
-64 21 -29 4 -61 13 -72 20 -11 6 -46 15 -78 19 -32 4 -73 14 -91 21 -68 28
-397 35 -1746 35 -1336 0 -1636 -6 -1735 -34 -27 -8 -72 -18 -100 -22 -27 -4
-59 -13 -70 -19 -11 -7 -41 -16 -67 -19 -26 -4 -50 -11 -53 -16 -3 -5 -25 -14
-48 -20 -23 -6 -60 -20 -83 -31 -22 -10 -45 -19 -51 -19 -6 0 -16 -7 -23 -15
-7 -8 -20 -15 -29 -15 -9 0 -27 -7 -41 -15 -14 -7 -38 -21 -55 -29 -16 -9 -48
-27 -70 -41 -22 -13 -51 -30 -65 -37 -14 -7 -32 -19 -40 -25 -31 -26 -116 -90
-133 -99 -19 -11 -168 -145 -203 -184 -13 -14 -50 -53 -83 -88 -33 -35 -75
-87 -94 -115 -19 -29 -47 -65 -61 -80 -14 -15 -29 -39 -32 -53 -3 -13 -11 -28
-18 -32 -6 -4 -17 -18 -24 -32 -7 -14 -24 -43 -37 -65 -27 -44 -45 -82 -45
-94 0 -5 -6 -14 -14 -20 -8 -7 -17 -27 -20 -45 -4 -19 -13 -39 -20 -45 -8 -7
-17 -28 -21 -49 -3 -20 -13 -46 -20 -58 -7 -12 -17 -39 -21 -60 -4 -21 -13
-48 -20 -59 -6 -11 -15 -45 -19 -75 -4 -30 -12 -64 -18 -75 -6 -11 -17 -69
-24 -130 -7 -60 -18 -144 -23 -185 -16 -131 -13 -1651 4 -1702 8 -24 17 -64
21 -90 3 -26 10 -50 15 -53 5 -3 14 -25 21 -48 6 -23 16 -49 23 -57 7 -8 17
-27 24 -43 6 -15 16 -27 22 -27 5 0 10 -6 10 -14 0 -8 37 -52 83 -98 100 -100
120 -116 212 -163 17 -8 37 -19 45 -24 24 -15 111 -42 170 -53 82 -15 340 -5
370 14 14 9 41 19 61 22 21 4 42 13 49 21 6 7 24 17 40 20 16 3 34 13 41 21 6
8 16 14 21 14 11 0 158 120 158 129 0 3 15 22 33 42 40 44 87 112 87 126 0 6
6 16 14 22 8 7 18 27 22 44 3 17 13 41 20 52 7 11 18 50 23 85 5 36 14 78 20
94 9 21 11 257 10 835 -1 790 1 850 26 881 7 8 16 28 19 45 13 51 143 196 191
211 11 4 31 15 44 25 13 11 33 19 44 19 11 0 29 8 40 17 29 27 2947 28 2987 2
14 -9 42 -20 63 -23 20 -4 37 -11 37 -15 0 -5 13 -14 28 -20 44 -18 172 -149
172 -176 0 -7 6 -18 14 -24 8 -7 18 -27 21 -44 4 -18 14 -43 23 -57 16 -23 17
-190 22 -2065 4 -1466 8 -2047 16 -2065 6 -14 14 -59 18 -100 4 -41 13 -84 20
-95 7 -11 16 -42 20 -70 4 -27 13 -59 20 -70 8 -11 17 -36 21 -55 4 -19 13
-44 20 -55 7 -11 16 -35 19 -52 4 -17 13 -37 21 -43 8 -6 17 -24 20 -40 3 -16
12 -34 20 -40 8 -6 17 -25 20 -41 4 -16 11 -29 16 -29 5 0 12 -8 16 -17 36
-105 326 -441 476 -553 26 -19 73 -54 103 -78 31 -23 60 -42 65 -42 5 0 32
-16 59 -35 27 -19 53 -35 57 -35 5 0 48 -21 98 -45 49 -25 97 -45 106 -45 9 0
22 -6 28 -14 6 -7 30 -17 54 -20 23 -4 51 -13 62 -20 11 -7 46 -16 78 -20 32
-3 72 -13 87 -21 42 -22 2727 -23 2810 -1 30 8 93 18 140 21 47 4 96 13 110
20 14 7 52 16 85 20 33 4 69 13 80 20 11 7 45 16 75 20 30 4 64 13 75 20 11 7
40 16 65 20 25 4 54 13 65 20 11 7 36 16 55 20 19 4 44 14 55 21 11 8 26 14
35 14 9 0 33 9 55 20 22 11 43 20 48 20 4 0 34 12 65 26 31 14 77 34 102 45
25 11 52 24 60 30 8 5 26 14 40 19 14 6 32 15 40 20 8 6 26 15 40 21 14 6 32
15 40 20 8 5 30 16 48 24 17 9 32 19 32 24 0 5 12 12 26 15 14 4 48 22 75 42
28 19 61 39 75 44 13 5 24 14 24 20 0 5 6 10 14 10 8 0 28 11 44 25 17 14 35
25 41 25 6 0 11 4 11 8 0 5 24 24 53 42 28 18 60 41 69 49 10 9 28 24 40 33
55 42 147 116 183 148 59 52 396 391 428 431 63 77 184 237 212 279 17 24 38
52 48 62 9 10 17 25 17 33 0 9 6 18 14 21 8 3 17 16 20 30 4 13 11 24 16 24 5
0 17 15 25 32 8 18 26 51 40 73 13 22 31 54 40 70 18 34 32 59 56 95 9 14 20
37 24 50 4 14 13 32 20 40 7 8 16 26 20 40 4 14 13 32 20 40 7 8 16 29 20 47
3 17 12 37 20 43 8 6 17 26 20 43 4 18 13 39 20 47 7 8 16 31 20 50 4 19 13
44 20 55 7 11 16 36 20 55 4 19 13 42 20 50 7 8 16 36 19 62 4 25 13 51 21 58
7 6 16 34 20 63 4 29 13 63 20 77 7 14 16 48 20 75 4 28 13 61 20 75 7 14 16
56 20 95 4 38 13 83 20 100 7 16 16 70 20 119 4 50 14 115 23 145 12 49 16
607 24 4331 10 4364 9 4705 -26 4820 -7 25 -16 79 -20 120 -4 41 -13 86 -21
100 -7 14 -16 50 -20 80 -4 30 -13 64 -19 75 -7 11 -16 40 -20 65 -4 25 -13
54 -21 66 -7 12 -17 39 -21 60 -3 21 -12 46 -19 54 -7 8 -15 29 -19 45 -7 28
-16 49 -66 158 -11 24 -20 48 -20 54 0 6 -6 16 -14 22 -8 7 -17 24 -21 39 -4
15 -12 34 -20 42 -7 8 -16 26 -20 39 -4 14 -22 45 -39 70 -17 25 -37 57 -44
71 -30 58 -52 94 -59 99 -5 3 -31 40 -58 81 -28 41 -57 82 -65 91 -30 33 -85
102 -95 118 -27 46 -268 287 -375 376 -47 38 -92 75 -100 82 -27 24 -68 58
-92 76 -42 32 -144 112 -158 125 -8 6 -54 43 -101 80 -47 37 -93 74 -102 82
-8 8 -26 23 -39 33 -72 55 -147 114 -161 127 -8 8 -26 23 -39 32 -35 26 -341
269 -358 285 -8 7 -42 33 -75 58 -33 24 -67 50 -75 57 -8 7 -53 43 -100 80
-47 38 -92 74 -100 80 -16 14 -122 98 -158 126 -12 9 -30 24 -39 32 -15 14
-111 90 -161 128 -12 9 -30 24 -39 32 -14 13 -95 76 -161 127 -13 10 -31 25
-39 33 -14 13 -89 72 -161 127 -13 10 -31 25 -39 33 -14 13 -98 79 -161 127
-13 10 -35 27 -47 38 -13 11 -34 28 -47 38 -79 61 -146 114 -158 125 -8 7 -31
26 -50 43 -19 17 -51 41 -70 54 -19 13 -49 36 -67 51 -61 55 -108 93 -148 119
-22 15 -50 37 -62 48 -11 12 -32 30 -45 40 -66 50 -147 114 -161 127 -8 8 -26
23 -39 33 -37 28 -191 150 -208 165 -8 7 -52 42 -97 77 -45 35 -90 71 -100 80
-10 9 -54 44 -98 78 -44 34 -89 70 -100 80 -11 10 -81 65 -155 122 -74 58
-142 110 -150 117 -8 7 -53 43 -100 80 -47 37 -92 74 -100 82 -8 7 -53 43
-100 80 -47 36 -92 71 -100 78 -13 12 -107 86 -158 125 -13 10 -31 25 -39 33
-14 13 -89 72 -161 127 -13 10 -31 25 -39 33 -15 13 -106 85 -162 127 -13 10
-31 25 -40 33 -37 34 -133 110 -139 110 -4 0 -23 15 -42 33 -45 42 -151 127
-159 127 -3 0 -22 15 -41 33 -44 42 -151 127 -159 127 -3 0 -25 17 -48 38 -71
63 -124 107 -143 117 -18 10 -71 54 -133 109 -18 15 -43 35 -57 44 -14 9 -59
43 -100 75 -41 32 -85 66 -98 75 -12 9 -30 24 -39 32 -9 8 -24 19 -34 25 -9 5
-55 36 -102 68 -46 31 -89 57 -96 57 -6 0 -14 6 -17 14 -3 8 -17 17 -31 21
-14 3 -37 14 -52 23 -46 31 -65 42 -98 57 -17 8 -34 19 -37 24 -4 5 -19 12
-35 16 -16 3 -35 12 -41 20 -6 8 -24 17 -40 20 -16 3 -34 12 -40 20 -6 8 -26
17 -43 20 -18 4 -39 13 -47 20 -8 7 -29 16 -47 19 -17 4 -48 16 -69 27 -21 10
-45 19 -54 19 -9 0 -24 6 -35 14 -11 7 -38 16 -59 20 -21 4 -48 13 -60 21 -12
7 -41 16 -66 20 -25 4 -56 13 -70 20 -14 7 -45 15 -70 19 -25 4 -63 13 -85 20
-22 8 -74 19 -115 25 -41 6 -95 15 -120 20 -25 6 -152 10 -282 11 -247 0 -288
6 -288 40 0 17 -7 20 -39 20 -35 0 -39 -3 -44 -30z m52 -44 c6 -7 35 -17 63
-20 28 -4 60 -12 72 -18 19 -10 19 -11 1 -24 -10 -8 -27 -14 -38 -14 -30 0
-14 -25 19 -28 16 -2 34 -10 41 -19 7 -9 20 -13 33 -10 12 3 37 -1 57 -9 20
-9 46 -13 59 -10 13 4 29 0 38 -9 8 -8 26 -15 41 -15 14 0 42 -7 62 -15 19 -8
47 -15 62 -15 32 0 44 -8 60 -38 17 -33 84 -28 89 6 7 47 79 21 96 -35 6 -18
15 -23 44 -23 50 -1 116 -17 120 -29 2 -6 26 -11 53 -11 38 0 52 -4 61 -20 10
-15 24 -20 60 -20 37 0 50 -5 62 -21 13 -20 22 -21 79 -17 67 6 97 -3 97 -27
0 -11 12 -15 45 -15 37 0 51 -5 70 -26 14 -15 25 -31 25 -35 0 -15 49 -10 76
7 20 14 30 15 50 5 33 -15 28 -45 -9 -49 -42 -5 -35 -32 8 -32 22 0 38 -6 41
-15 4 -8 14 -15 23 -15 9 0 27 -7 41 -15 14 -8 43 -23 66 -34 23 -10 51 -31
62 -46 15 -19 28 -26 42 -22 13 3 23 0 26 -8 3 -8 19 -18 35 -24 16 -5 33 -21
39 -35 8 -23 11 -24 47 -14 24 6 38 7 41 0 10 -32 30 -46 46 -33 17 14 46 9
46 -9 0 -5 -7 -10 -15 -10 -10 0 -15 -11 -15 -35 0 -29 4 -35 20 -35 12 0 32
-12 45 -26 25 -26 25 -26 35 0 5 14 14 26 19 26 44 0 56 -45 16 -60 -14 -5
-25 -13 -25 -18 0 -18 13 -20 35 -6 28 19 53 9 62 -24 7 -29 52 -71 95 -89 15
-7 28 -19 28 -29 0 -12 6 -15 24 -10 19 5 29 0 46 -21 61 -78 172 -183 194
-183 15 0 42 -20 79 -58 43 -46 65 -61 98 -68 30 -6 47 -16 55 -32 20 -40 115
-132 136 -132 11 0 36 -16 55 -35 23 -23 42 -34 53 -30 11 4 23 -3 34 -20 9
-14 26 -25 37 -25 57 0 78 -42 28 -59 -39 -13 -29 -31 18 -31 30 0 45 -9 92
-56 67 -67 80 -75 104 -63 24 13 51 3 66 -24 29 -55 41 -71 71 -98 17 -16 37
-29 45 -29 23 0 29 22 10 36 -10 8 -15 17 -11 21 4 4 10 3 14 -3 4 -6 17 -14
30 -18 25 -8 30 -41 7 -50 -23 -9 -18 -36 10 -46 14 -5 30 -21 37 -35 12 -27
38 -34 38 -11 0 18 39 31 52 18 15 -15 1 -49 -22 -55 -11 -3 -20 -13 -20 -22
0 -9 3 -15 8 -13 4 2 19 10 34 17 34 17 58 2 58 -36 0 -13 7 -26 15 -29 8 -3
17 -14 20 -24 4 -12 17 -20 38 -22 23 -2 35 -10 45 -30 15 -33 37 -36 54 -8 7
11 21 20 30 20 26 0 23 -36 -3 -43 -24 -6 -21 -26 6 -41 10 -6 41 -33 69 -60
28 -27 65 -53 82 -58 20 -5 57 -35 99 -80 60 -65 69 -70 80 -55 18 24 40 21
53 -8 7 -15 20 -25 33 -25 17 0 20 -4 15 -24 -8 -31 72 -116 109 -116 15 0 36
-15 60 -42 32 -38 37 -41 46 -25 16 28 47 21 51 -10 2 -20 9 -29 26 -31 12 -2
22 -9 22 -16 0 -7 12 -26 28 -43 15 -16 44 -49 64 -72 21 -23 54 -47 75 -54
27 -9 42 -21 52 -44 17 -39 41 -43 41 -8 0 20 5 25 25 25 15 0 28 -7 32 -17 4
-10 14 -28 24 -41 14 -18 16 -29 8 -49 -5 -13 -7 -29 -3 -34 8 -14 34 -11 40
6 9 23 54 19 54 -5 0 -10 9 -24 20 -30 11 -6 20 -21 20 -33 1 -12 12 -35 26
-52 22 -27 26 -28 35 -12 5 9 19 17 29 17 27 0 26 -36 0 -50 -24 -13 -29 -80
-6 -80 10 0 14 9 13 26 -1 16 5 31 16 38 26 17 52 -5 51 -42 -2 -27 2 -31 31
-36 18 -4 40 -15 50 -26 10 -11 28 -20 40 -20 12 0 30 -9 39 -19 10 -11 24
-17 32 -14 10 3 14 -2 14 -19 0 -33 112 -148 144 -148 16 0 47 -25 100 -81 70
-74 78 -80 94 -66 37 32 59 30 97 -7 22 -22 33 -41 29 -51 -9 -23 -33 -18 -44
10 -5 14 -11 25 -14 25 -15 0 -36 -14 -36 -24 0 -21 40 -56 63 -56 12 0 30 -9
40 -20 9 -11 26 -20 38 -20 13 0 50 -28 93 -69 39 -38 80 -71 91 -73 10 -2 22
-14 25 -28 6 -25 6 -25 19 -2 15 28 51 14 51 -21 0 -31 84 -117 126 -129 19
-5 34 -13 34 -18 0 -5 13 -7 29 -4 32 7 51 -14 48 -51 -2 -15 5 -21 28 -23 31
-4 105 -67 105 -90 0 -8 8 -10 27 -6 30 8 54 -15 46 -45 -7 -28 42 -77 62 -61
19 16 49 5 41 -15 -4 -10 4 -19 24 -28 30 -12 90 -81 90 -102 0 -21 82 -27 96
-7 12 16 14 16 30 0 16 -16 16 -17 -9 -24 -33 -8 -35 -21 -4 -34 12 -5 42 -34
67 -64 33 -40 52 -55 71 -55 18 -1 44 -20 88 -66 35 -36 71 -65 82 -65 10 0
25 -12 32 -26 9 -17 17 -23 21 -15 11 17 56 13 63 -5 3 -8 17 -20 30 -25 21
-8 24 -14 18 -38 -7 -34 32 -81 68 -81 23 0 117 -86 117 -107 0 -24 20 -24 30
1 5 14 14 26 19 26 23 0 41 -14 41 -31 0 -14 7 -19 30 -19 33 0 52 -26 29 -40
-16 -10 -14 -12 29 -34 23 -12 32 -23 32 -41 0 -31 44 -75 74 -75 16 0 39 -17
70 -51 29 -31 59 -54 81 -60 19 -6 35 -14 35 -19 0 -6 16 -16 35 -24 19 -8 35
-21 35 -29 0 -8 8 -21 19 -31 12 -11 16 -25 13 -41 -4 -22 -1 -25 24 -25 21 0
46 -16 92 -60 38 -35 77 -62 95 -66 41 -8 57 -21 57 -45 0 -12 10 -23 25 -29
14 -5 25 -15 25 -23 0 -7 10 -21 22 -31 22 -19 22 -19 0 -37 -28 -22 -28 -32
0 -44 12 -6 29 -23 37 -40 8 -16 18 -37 23 -45 5 -8 11 -23 14 -32 7 -19 54
-26 54 -8 0 13 37 13 45 1 3 -5 -1 -15 -8 -23 -22 -24 -37 -67 -25 -74 6 -4
15 1 20 10 13 23 25 20 61 -15 31 -32 31 -32 9 -47 -30 -20 -28 -43 8 -77 35
-34 90 -138 90 -170 0 -34 60 -146 83 -154 22 -8 45 -74 52 -148 2 -23 10 -52
18 -65 23 -36 44 -141 29 -146 -7 -2 -12 -12 -12 -22 0 -25 47 -112 65 -123
18 -10 20 -48 4 -64 -9 -9 -9 -20 0 -44 12 -34 14 -8980 2 -9190 -3 -61 -11
-112 -19 -121 -6 -8 -15 -51 -18 -94 -4 -43 -12 -88 -19 -99 -7 -13 -11 -50
-9 -103 3 -79 2 -82 -17 -72 -16 9 -21 7 -29 -15 -13 -35 -13 -42 6 -70 17
-27 16 -76 -3 -83 -9 -2 -13 7 -13 28 0 25 -4 31 -17 28 -14 -2 -18 -14 -20
-46 -1 -24 -8 -54 -16 -66 -8 -12 -18 -41 -22 -64 -4 -23 -14 -49 -22 -58 -8
-8 -13 -24 -10 -34 3 -13 -3 -26 -19 -39 -27 -21 -32 -66 -9 -75 20 -7 19 -35
-1 -43 -10 -4 -20 0 -26 10 -14 26 -28 20 -28 -11 0 -21 7 -32 26 -41 32 -14
27 -35 -10 -39 -21 -3 -29 1 -33 17 -6 22 -27 28 -38 10 -11 -17 4 -59 21 -59
24 0 28 -28 9 -68 -10 -20 -21 -44 -25 -52 -4 -8 -18 -16 -32 -18 -28 -3 -38
-24 -38 -80 0 -22 -6 -35 -17 -39 -31 -11 -105 -96 -100 -115 3 -10 -7 -30
-24 -48 -16 -16 -29 -38 -29 -47 0 -27 -47 -137 -60 -141 -6 -2 -18 4 -25 14
-13 17 -14 14 -15 -29 0 -43 -2 -48 -19 -42 -24 7 -49 -50 -25 -59 16 -6 19
-32 4 -41 -5 -3 -25 1 -44 10 -39 19 -56 14 -56 -17 0 -11 -6 -32 -14 -46 -8
-15 -19 -40 -25 -55 -8 -20 -17 -27 -31 -25 -14 2 -25 -5 -33 -21 -7 -15 -26
-28 -44 -33 -35 -9 -45 -42 -21 -66 16 -16 -17 -28 -36 -13 -20 16 -106 -73
-106 -110 0 -42 -26 -57 -61 -37 -28 17 -29 17 -29 -6 0 -15 -14 -36 -35 -55
-22 -19 -35 -39 -35 -54 0 -29 -24 -52 -45 -43 -8 3 -15 15 -15 27 0 33 -25
16 -28 -19 -2 -24 -9 -33 -27 -38 -13 -3 -33 -17 -46 -30 -13 -14 -34 -24 -51
-24 -25 0 -33 -9 -29 -33 1 -4 -15 -5 -34 -1 -27 5 -35 3 -35 -9 0 -8 7 -17
15 -21 21 -8 19 -44 -4 -51 -10 -3 -21 -15 -24 -25 -6 -25 -31 -26 -54 -2 -13
13 -26 17 -43 12 -25 -6 -25 -6 -2 -18 12 -7 22 -19 22 -26 0 -24 -30 -26 -51
-5 -20 20 -20 20 -60 -24 -29 -33 -44 -44 -59 -40 -14 4 -27 -3 -40 -20 -14
-17 -26 -23 -41 -20 -14 4 -25 -1 -35 -16 -10 -13 -26 -21 -45 -21 -25 0 -29
-4 -29 -28 0 -29 -49 -82 -75 -82 -25 0 -29 23 -7 38 29 19 29 44 0 40 -14 -2
-24 -11 -26 -23 -6 -40 -103 -83 -138 -60 -23 15 -34 11 -34 -12 0 -7 9 -13
20 -13 25 0 36 -25 20 -45 -18 -21 -47 -19 -60 5 -15 27 -48 25 -71 -4 -16
-21 -25 -23 -60 -19 -33 5 -43 2 -55 -16 -12 -16 -25 -21 -60 -21 -27 0 -52
-6 -60 -15 -8 -8 -31 -17 -52 -21 -20 -3 -55 -15 -78 -25 -22 -11 -62 -19 -90
-19 -38 0 -52 -4 -62 -20 -9 -14 -23 -20 -51 -20 -21 0 -58 -9 -82 -19 -24
-11 -75 -22 -114 -26 -38 -4 -81 -13 -95 -20 -14 -7 -73 -16 -133 -20 -101 -7
-109 -9 -136 -36 -30 -29 -66 -38 -73 -18 -3 8 -56 11 -168 11 -91 0 -540 -1
-997 -2 -458 -1 -838 2 -843 5 -6 4 -17 4 -25 1 -17 -6 -85 20 -85 33 0 16
-36 22 -65 11 -42 -16 -143 -2 -169 24 -16 16 -34 21 -71 21 -50 0 -50 0 -53
38 -3 37 -3 37 -57 37 -45 0 -55 3 -60 20 -5 14 -15 20 -37 20 -41 0 -171 64
-197 96 -14 18 -27 25 -40 21 -12 -3 -28 4 -42 19 -28 30 -69 32 -76 4 -6 -23
-8 -24 -34 -10 -25 14 -24 37 1 45 26 8 25 35 -2 71 -28 36 -38 44 -62 44 -10
0 -46 27 -79 60 -50 49 -67 60 -95 60 -33 0 -92 44 -92 69 0 17 30 13 36 -4 4
-8 13 -15 21 -15 19 0 8 38 -18 63 -11 10 -19 21 -19 26 0 5 -29 37 -65 72
-36 35 -65 68 -65 75 0 6 -11 28 -25 48 -14 21 -25 51 -25 71 0 25 -11 46 -44
84 -33 39 -42 57 -38 76 3 17 -5 38 -23 64 -24 35 -26 45 -20 94 6 47 4 56
-11 65 -13 7 -20 29 -26 78 -4 38 -8 609 -8 1269 0 1048 -2 1202 -15 1220 -13
17 -15 125 -15 821 0 493 -3 811 -9 826 -5 14 -7 28 -4 31 3 3 -5 27 -18 54
-13 26 -22 58 -21 71 1 15 -8 32 -27 48 -16 13 -32 36 -35 50 -11 42 -47 84
-73 84 -42 0 -44 72 -2 83 12 3 18 10 15 16 -5 7 -15 7 -32 1 -14 -6 -36 -10
-50 -10 -17 0 -24 -6 -24 -19 0 -28 -17 -35 -29 -12 -16 29 -14 38 10 44 17 5
20 11 17 32 -3 14 -1 28 3 31 15 9 10 34 -6 34 -8 0 -15 -7 -15 -15 0 -8 -11
-17 -25 -21 -28 -7 -31 -14 -13 -32 6 -6 8 -15 4 -19 -4 -5 -13 -1 -19 8 -7 8
-20 18 -29 22 -20 7 -24 32 -8 42 23 14 11 35 -15 25 -25 -9 -46 2 -59 32 -3
10 -8 8 -16 -4 -16 -26 -28 -22 -64 17 -32 35 -32 35 -1532 35 -824 0 -1505 0
-1512 0 -10 0 -12 -8 -7 -28 5 -24 1 -31 -34 -54 -36 -24 -40 -24 -56 -9 -15
15 -17 14 -34 -8 -15 -19 -25 -23 -59 -19 -34 3 -42 0 -42 -13 0 -9 7 -19 15
-23 8 -3 15 -11 15 -17 0 -8 -16 -9 -54 -5 -51 7 -55 6 -61 -16 -4 -13 -16
-33 -27 -45 -21 -22 -17 -43 8 -43 8 0 14 -5 14 -11 0 -8 -16 -10 -50 -5 -57
8 -65 -4 -30 -44 19 -22 19 -25 5 -39 -15 -15 -18 -14 -30 3 -14 19 -15 18
-41 -9 -15 -17 -24 -35 -21 -46 3 -12 -3 -26 -17 -37 -18 -13 -25 -32 -30 -82
-4 -36 -14 -75 -22 -88 -12 -19 -15 -134 -15 -780 -1 -819 -1 -842 -30 -849
-26 -7 -24 -31 4 -35 16 -2 23 -11 25 -33 2 -24 -7 -40 -48 -85 -48 -50 -52
-59 -54 -107 -2 -59 -8 -70 -25 -49 -16 19 -41 10 -41 -14 0 -23 -46 -60 -74
-60 -12 0 -26 -8 -32 -18 -7 -10 -30 -24 -53 -30 -23 -7 -62 -32 -88 -57 -54
-52 -57 -52 -77 -23 -14 20 -22 22 -119 19 -100 -2 -157 9 -157 32 0 5 -11 6
-25 3 -32 -8 -65 9 -65 34 0 24 -19 26 -46 5 -19 -14 -19 -15 4 -21 26 -7 31
-44 6 -44 -35 0 -79 69 -54 85 22 13 9 34 -22 37 -28 2 -34 8 -36 31 -2 18
-19 43 -47 68 -30 28 -41 45 -38 59 3 11 -2 27 -11 35 -9 9 -16 24 -16 32 0 9
-16 35 -35 59 -39 47 -41 56 -21 73 13 11 15 517 8 1493 0 64 -4 80 -21 97
-27 27 -27 51 -1 58 13 3 20 14 20 29 0 13 9 33 20 44 25 25 25 32 0 48 -27
17 -25 54 5 90 29 34 31 48 10 56 -21 8 -19 29 5 44 27 17 28 72 1 72 -25 0
-36 29 -14 37 9 4 21 -1 29 -11 19 -27 34 -10 34 37 0 25 8 54 20 72 11 17 20
42 20 57 0 14 16 57 35 94 19 37 35 73 35 81 0 8 20 36 45 62 51 54 54 66 23
90 -12 10 -18 23 -14 29 10 17 36 15 42 -3 4 -8 12 -15 20 -15 18 0 19 61 2
78 -10 10 -6 11 19 6 25 -5 32 -2 37 14 4 11 54 66 112 122 100 98 105 104 93
127 -17 32 2 54 31 35 12 -7 20 -8 20 -2 0 5 -4 10 -10 10 -18 0 -10 32 9 37
11 3 21 13 24 24 6 23 20 24 41 4 25 -25 54 -17 92 25 25 27 45 40 63 40 15 0
31 8 39 20 7 11 23 20 36 20 14 0 39 15 60 35 20 19 41 35 46 35 16 0 12 30
-5 36 -17 7 -20 30 -5 39 11 7 85 -29 95 -46 5 -7 14 -3 26 10 11 12 26 21 34
21 8 0 15 5 15 10 0 6 -9 10 -20 10 -11 0 -20 6 -20 14 0 19 39 31 53 17 6 -6
27 -11 46 -10 32 0 33 1 14 9 -27 11 -31 45 -7 54 9 3 31 -3 49 -14 45 -28
125 -28 143 0 11 18 23 20 102 20 50 0 90 4 90 9 0 29 84 31 1625 31 1541 0
1625 -2 1625 -31 0 -5 31 -9 69 -9 69 0 131 -15 131 -31 0 -12 57 -11 65 1 8
13 48 13 62 -1 6 -6 43 -13 81 -14 76 -3 92 -8 92 -31 0 -9 -10 -14 -29 -14
-17 0 -33 -5 -36 -10 -4 -6 10 -10 34 -10 31 0 46 -7 69 -30 36 -35 42 -37 42
-10 0 11 -4 20 -10 20 -5 0 -10 7 -10 15 0 19 2 19 44 -6 24 -14 36 -28 36
-43 0 -27 18 -46 43 -46 10 0 35 -16 54 -35 19 -19 45 -35 58 -35 14 0 40 -20
73 -55 57 -61 87 -72 76 -29 -6 23 -4 25 17 22 15 -2 25 -12 29 -27 4 -17 15
-27 37 -33 44 -11 50 -36 12 -50 -39 -13 -36 -43 5 -43 27 -1 55 -27 207 -191
10 -12 19 -28 19 -37 0 -9 9 -21 20 -27 12 -6 25 -21 31 -33 23 -54 77 -140
92 -149 10 -5 17 -21 17 -37 0 -15 18 -64 40 -107 22 -43 40 -92 40 -108 0
-16 7 -37 16 -47 13 -14 18 -33 23 -86 0 -7 8 -13 16 -13 9 0 18 -12 22 -30 3
-17 14 -35 24 -41 25 -13 24 -46 -2 -54 -14 -5 -18 -12 -13 -23 4 -10 7 -28 7
-42 -1 -13 7 -30 18 -38 26 -18 24 -49 -8 -95 -28 -40 -28 -40 6 -68 34 -28
34 -28 8 -40 -32 -14 -32 -18 -11 -84 43 -134 43 -143 9 -183 -25 -30 -25 -30
-25 -1017 0 -863 2 -988 15 -1001 13 -13 15 -99 15 -652 0 -434 4 -661 11
-713 11 -67 10 -82 -5 -118 -15 -38 -15 -44 -1 -64 8 -12 15 -38 15 -58 0 -24
10 -49 29 -76 16 -22 36 -54 45 -70 8 -17 31 -38 51 -47 34 -17 45 -39 25 -51
-22 -14 -7 -46 46 -99 31 -31 65 -56 76 -56 11 0 36 -16 55 -35 29 -29 42 -35
78 -35 47 0 105 -17 105 -31 0 -14 2067 -12 2072 2 5 16 86 28 191 28 48 1 87
5 87 10 0 16 62 31 129 31 55 0 68 3 79 20 9 16 23 20 62 20 28 0 50 4 50 9 0
12 56 31 91 31 16 0 29 4 29 10 0 5 18 15 40 21 34 10 40 16 40 39 0 20 10 35
38 55 20 16 43 35 50 44 10 13 16 13 33 3 13 -8 32 -11 51 -7 21 5 35 2 49
-11 18 -16 19 -16 19 9 0 19 -6 26 -22 29 -12 2 -23 9 -26 16 -6 18 45 15 52
-3 13 -34 80 -7 81 33 0 27 33 39 49 17 13 -18 15 -17 48 18 20 20 45 37 57
37 26 0 74 52 81 88 6 31 46 44 56 18 5 -13 11 -11 34 12 15 15 82 81 149 147
66 66 121 127 121 136 0 9 9 24 20 34 25 22 25 34 3 51 -15 10 -16 15 -5 26
11 11 16 10 26 -4 8 -11 26 -18 44 -18 26 0 31 4 37 32 5 19 30 55 60 88 29
30 61 75 71 100 22 58 32 70 56 70 16 0 17 3 7 21 -9 17 -7 25 9 42 11 12 23
32 26 43 4 12 15 29 26 39 19 17 19 20 4 36 -17 19 -12 39 11 39 8 0 18 -7 23
-16 12 -22 32 -9 32 21 0 13 7 31 16 40 9 8 14 24 11 35 -6 22 92 225 118 243
16 12 15 14 -9 30 -34 22 -33 39 4 80 17 19 30 39 30 43 0 5 10 27 21 49 17
31 22 59 23 126 1 50 7 93 14 101 6 8 13 56 15 106 3 73 7 95 21 105 15 11 17
28 12 152 -3 77 -5 154 -5 170 0 17 4 310 7 652 5 477 10 625 20 635 18 18 18
5448 0 5466 -10 10 -14 161 -19 655 -3 353 -7 647 -8 652 0 6 2 27 5 48 4 23
2 43 -6 51 -8 11 -8 20 -1 35 16 30 14 158 -3 168 -8 5 -15 31 -18 64 -3 36
-11 63 -22 75 -12 12 -16 26 -12 46 21 99 22 91 -12 83 -39 -8 -54 25 -26 56
17 18 16 20 -4 42 -15 16 -22 36 -22 61 0 28 -6 43 -24 57 -16 13 -22 25 -19
43 4 17 0 26 -14 30 -17 6 -63 66 -63 84 0 4 -9 25 -20 47 -11 22 -20 45 -20
52 0 17 -62 17 -78 1 -6 -6 -14 -9 -17 -6 -8 7 24 67 42 76 12 8 10 11 -12 16
-19 5 -33 2 -46 -9 -19 -18 -39 -13 -39 10 0 7 7 15 15 19 23 8 19 53 -5 61
-11 3 -20 11 -20 16 0 11 -158 181 -174 188 -4 2 -12 -2 -16 -9 -5 -8 -15 -10
-26 -6 -17 7 -17 9 6 21 26 14 27 13 -25 30 -8 2 -15 15 -15 29 0 21 -4 24
-35 23 -19 0 -42 6 -52 15 -10 9 -27 18 -38 20 -14 2 -22 13 -25 35 -11 69
-113 146 -147 112 -7 -7 -19 -9 -29 -5 -13 5 -15 9 -6 18 14 14 16 58 2 58 -5
0 -18 9 -29 21 -11 12 -24 19 -29 15 -13 -8 -82 29 -99 54 -8 11 -21 20 -29
20 -8 0 -21 15 -29 33 -10 26 -25 38 -58 51 -25 9 -63 36 -86 61 -23 25 -47
45 -54 45 -6 0 -23 11 -37 25 -49 50 -104 90 -134 100 -25 8 -32 16 -34 42 -3
28 -8 34 -41 43 -26 7 -59 32 -111 85 -68 71 -76 75 -112 73 -52 -3 -71 17
-40 42 29 24 28 30 -8 30 -18 0 -33 -6 -36 -15 -9 -21 -42 -19 -49 4 -3 11
-12 22 -20 25 -20 7 -19 33 2 45 16 8 15 12 -10 35 -16 14 -38 26 -50 26 -14
0 -43 21 -77 55 -30 30 -59 55 -66 55 -6 0 -19 9 -29 20 -10 11 -26 20 -35 20
-9 0 -41 28 -71 61 -54 62 -125 105 -163 100 -12 -2 -35 15 -63 44 -30 33 -48
45 -59 41 -14 -5 -16 -1 -10 33 6 37 5 39 -26 45 -17 3 -38 16 -46 27 -15 22
-15 22 -32 -1 -29 -38 -55 -3 -29 39 15 23 -18 59 -66 72 -19 5 -53 31 -80 60
-28 30 -62 55 -81 61 -19 5 -51 29 -79 60 -42 47 -47 50 -59 33 -15 -21 -46
-14 -46 10 0 8 -7 15 -15 15 -24 0 -31 31 -11 46 23 16 12 34 -21 34 -20 0
-46 20 -101 75 -73 74 -104 89 -129 64 -17 -17 -41 -4 -45 23 -2 18 -10 24
-35 26 -25 3 -34 9 -39 28 -3 13 -13 24 -20 24 -24 0 -29 31 -9 46 17 13 17
15 -9 39 -15 14 -38 25 -51 25 -15 0 -36 15 -59 42 -35 40 -36 41 -55 24 -23
-21 -41 -14 -41 15 0 23 -27 36 -43 20 -17 -17 -37 -13 -37 9 0 11 5 20 10 20
18 0 11 28 -9 35 -10 3 -21 15 -24 26 -3 12 -10 18 -17 14 -6 -4 -27 -4 -46
-1 -41 8 -46 35 -11 59 22 15 22 15 -5 26 -16 6 -28 15 -28 21 0 5 -14 10 -30
10 -23 0 -33 6 -42 25 -14 30 -24 32 -33 5 -3 -11 -13 -20 -21 -20 -22 0 -29
29 -10 43 16 12 16 15 -1 45 -20 36 -43 42 -43 12 0 -25 -25 -36 -45 -20 -21
17 -19 37 5 45 29 9 25 25 -6 25 -19 0 -43 18 -87 61 -34 35 -75 65 -93 70
-18 5 -52 32 -79 60 -28 30 -62 55 -81 61 -20 5 -51 29 -79 60 -41 45 -48 50
-56 35 -13 -22 -48 -22 -56 0 -4 9 -2 18 3 20 36 13 38 22 9 49 -16 15 -43 31
-60 35 -18 5 -55 33 -84 64 -29 30 -61 55 -71 55 -11 0 -35 14 -53 30 -19 17
-44 30 -55 30 -14 0 -22 8 -24 23 -4 28 -44 36 -62 11 -14 -18 -36 -12 -36 11
0 7 7 15 15 19 9 3 15 18 15 35 0 27 -5 31 -39 41 -38 10 -121 86 -121 111 0
8 -7 6 -18 -4 -26 -23 -41 -21 -54 8 -6 13 -19 27 -30 30 -20 7 -25 44 -7 62
7 7 7 13 0 17 -5 4 -18 -2 -28 -12 -10 -11 -30 -22 -46 -26 -25 -6 -27 -5 -21
18 4 18 1 27 -15 36 -14 7 -21 21 -21 42 0 27 -3 30 -26 25 -19 -3 -29 2 -41
19 -15 24 -43 33 -43 14 0 -5 -9 -10 -19 -10 -11 0 -23 5 -26 10 -3 6 3 10 14
10 32 0 34 18 4 32 -18 9 -29 22 -31 39 -2 20 -11 29 -35 35 -18 5 -36 19 -42
32 -7 15 -15 20 -28 16 -10 -3 -43 5 -73 17 -56 23 -56 23 -52 66 3 42 3 43
-28 43 -24 0 -40 10 -69 41 -20 23 -51 45 -69 50 -20 6 -60 37 -105 84 -42 43
-82 75 -93 75 -11 0 -57 36 -103 80 -46 44 -91 80 -100 80 -9 0 -40 23 -69 50
-29 28 -57 50 -62 50 -5 0 -27 23 -49 50 -43 54 -78 66 -88 30 -3 -13 -10 -18
-21 -14 -21 8 -20 31 0 42 15 8 10 16 -31 56 -30 28 -58 46 -72 46 -13 0 -26
7 -29 15 -9 21 -37 19 -52 -5 -18 -29 -40 -26 -34 5 3 18 -1 26 -14 31 -11 3
-26 10 -34 15 -8 5 -30 16 -47 24 -18 9 -33 20 -33 25 0 6 -7 10 -15 10 -20 0
-36 32 -24 51 20 31 -9 42 -38 14 -14 -14 -17 -13 -38 7 -42 42 -56 50 -76 45
-12 -3 -26 3 -38 19 -13 17 -29 24 -52 24 -19 0 -49 9 -67 20 -18 11 -45 20
-60 20 -15 0 -42 9 -60 20 -20 13 -50 20 -80 20 -30 0 -59 8 -81 21 -28 17
-47 20 -110 18 -75 -3 -141 12 -141 32 0 14 -388 11 -392 -2 -5 -16 -86 -28
-190 -28 -49 -1 -88 -5 -88 -10 0 -14 -58 -31 -107 -31 -26 0 -51 -6 -59 -15
-8 -8 -31 -17 -52 -21 -20 -3 -55 -15 -78 -25 -22 -10 -55 -19 -72 -19 -18 0
-32 -5 -32 -10 0 -6 -12 -15 -27 -22 -93 -37 -112 -57 -76 -84 28 -20 5 -30
-26 -11 -40 23 -58 21 -65 -7 -4 -15 -16 -26 -33 -31 -16 -3 -40 -18 -55 -32
-34 -33 -58 -25 -59 19 -1 33 -1 33 -10 7 -6 -15 -20 -30 -32 -33 -22 -7 -22
-7 1 -16 31 -13 27 -54 -5 -58 -17 -3 -26 4 -34 25 -10 26 -12 27 -23 9 -28
-47 -59 -76 -81 -76 -35 0 -78 -46 -69 -73 6 -20 5 -20 -10 -8 -15 12 -19 11
-37 -7 -11 -12 -26 -22 -33 -22 -8 0 -16 -9 -19 -20 -3 -11 -14 -20 -24 -20
-10 0 -39 -20 -63 -45 -25 -26 -53 -45 -66 -45 -12 0 -44 -23 -76 -55 -38 -38
-63 -55 -81 -55 -30 0 -44 -17 -28 -33 16 -16 14 -37 -4 -37 -8 0 -15 5 -15
10 0 20 -20 9 -26 -15 -6 -24 -72 -65 -106 -65 -9 0 -21 -6 -27 -14 -7 -8 -26
-18 -42 -21 -24 -6 -28 -10 -23 -29 6 -26 -18 -56 -45 -56 -14 0 -17 -6 -14
-24 6 -31 -13 -42 -37 -21 -18 16 -20 16 -46 -4 -15 -12 -34 -21 -43 -22 -9 0
-36 -27 -61 -61 -60 -80 -77 -98 -94 -98 -8 0 -18 -9 -21 -20 -6 -20 -46 -37
-63 -26 -6 3 -26 -10 -45 -29 -19 -19 -44 -35 -56 -35 -21 0 -75 -52 -95 -91
-6 -12 -32 -28 -60 -38 -61 -21 -77 -47 -23 -37 46 9 56 -8 16 -28 -39 -20
-39 -20 -39 -1 0 31 -30 27 -63 -9 -19 -20 -44 -36 -55 -36 -12 0 -39 -20 -63
-45 -26 -28 -51 -45 -65 -45 -33 0 -77 -46 -68 -72 5 -17 3 -19 -15 -13 -18 5
-23 1 -32 -24 -11 -32 -43 -43 -52 -18 -3 8 -13 3 -30 -15 -14 -16 -30 -28
-35 -28 -16 0 -66 -53 -79 -82 -10 -23 -19 -28 -48 -28 -36 0 -47 -13 -20 -24
8 -3 15 -12 15 -21 0 -19 -36 -20 -44 0 -6 16 -95 11 -106 -6 -14 -21 -74 -29
-209 -29 -127 0 -152 3 -186 20 -22 11 -49 20 -61 20 -14 0 -25 8 -29 20 -8
24 -56 28 -75 5 -7 -8 -17 -15 -22 -15 -16 0 -21 32 -7 41 18 12 -26 48 -58
49 -26 0 -31 18 -8 26 8 4 15 12 15 20 0 16 -36 19 -45 4 -12 -20 -27 -10 -21
14 4 15 0 28 -9 36 -8 7 -15 24 -15 37 0 14 -9 38 -20 54 -19 26 -21 43 -21
229 0 157 3 206 15 228 8 15 24 46 35 70 14 30 30 47 51 55 35 13 39 34 8 39
-36 5 -32 52 5 56 22 3 27 -1 27 -17 0 -25 8 -26 32 -4 10 9 18 29 18 45 0 23
4 28 25 28 14 0 25 5 25 10 0 6 -7 10 -15 10 -20 0 -19 29 1 37 10 4 22 -1 29
-10 21 -30 51 -19 108 38 39 39 62 55 81 55 29 0 47 27 26 40 -7 5 -10 15 -6
25 6 17 7 17 26 0 19 -17 44 -12 37 8 -10 27 14 47 53 47 33 0 45 7 81 45 27
28 51 45 66 45 14 0 37 15 59 40 23 25 45 40 60 40 20 0 74 41 74 57 0 3 10
16 23 28 12 12 34 36 50 54 26 32 35 34 77 17 8 -3 22 -2 30 3 12 8 12 12 -3
29 -34 37 31 108 66 73 19 -19 41 -12 70 24 18 23 36 35 52 35 13 0 35 11 49
24 27 24 34 46 16 46 -5 0 -10 7 -10 15 0 8 4 15 10 15 5 0 12 11 16 25 3 14
12 25 19 25 7 0 18 7 25 15 14 17 30 20 30 5 0 -5 -7 -10 -15 -10 -17 0 -21
-25 -5 -35 5 -3 21 -3 35 1 28 7 36 50 10 60 -17 7 -20 30 -5 39 5 3 20 -1 32
-9 31 -22 61 -20 76 4 7 11 23 20 37 20 17 0 37 14 61 40 23 25 45 40 60 40
29 0 77 47 71 70 -6 22 10 50 27 50 8 0 19 7 26 15 7 8 23 15 37 15 30 0 93
32 115 59 10 12 25 21 33 21 18 0 85 69 85 87 0 20 29 41 50 36 40 -11 72 5
68 34 -3 23 2 28 32 37 46 12 46 12 30 41 -19 35 1 56 29 31 13 -12 27 -15 45
-10 25 6 26 7 10 25 -24 27 -11 36 66 44 56 6 70 11 75 26 4 13 16 19 37 19
20 0 37 8 50 25 16 21 121 78 180 98 10 4 18 19 20 39 3 30 6 33 38 34 19 1
53 5 76 9 31 5 44 3 56 -9 23 -22 26 -21 36 17 6 25 14 33 35 35 22 3 27 8 27
32 0 40 29 48 55 16 26 -32 39 -33 67 -1 17 20 31 25 67 25 35 0 49 5 59 20 9
16 23 20 62 20 28 0 50 4 50 9 0 15 59 31 111 31 27 0 49 4 49 9 0 5 14 14 30
20 17 5 38 17 46 26 21 20 50 19 59 -2 6 -17 7 -17 21 2 12 16 27 19 83 20 58
0 73 4 93 23 16 14 37 22 60 22 27 0 37 5 41 20 8 30 64 28 69 -2 2 -13 8 -23
13 -23 6 0 11 10 13 23 3 17 10 22 33 22 17 0 37 7 45 15 9 8 23 15 33 15 10
0 26 9 36 20 11 12 31 20 52 20 32 0 33 1 33 40 0 43 24 56 49 26z m646 -211
c0 -5 -10 -11 -22 -13 -16 -2 -23 2 -23 13 0 11 7 15 23 13 12 -2 22 -7 22
-13z m-2080 -235 c0 -18 -53 -26 -69 -10 -8 8 -7 13 4 21 22 14 65 7 65 -11z
m3142 -116 c8 -21 -13 -42 -28 -27 -13 13 -5 43 11 43 6 0 13 -7 17 -16z m308
-163 c7 -12 -31 -25 -45 -16 -6 4 -8 11 -5 16 8 12 42 12 50 0z m175 -166 c0
-19 -20 -29 -32 -17 -15 15 -2 43 17 36 8 -3 15 -12 15 -19z m259 -184 c20
-13 4 -31 -29 -31 -30 0 -45 13 -35 30 8 12 45 13 64 1z m-4442 -1238 c6 -16
-45 -29 -59 -15 -6 6 -7 15 -3 22 9 14 57 9 62 -7z m6028 -36 c21 -16 13 -37
-15 -37 -22 0 -34 15 -26 35 7 19 17 19 41 2z m-6328 -153 c1 -5 -2 -16 -7
-24 -12 -20 -35 2 -26 25 6 17 27 16 33 -1z m4768 -183 c0 -31 -21 -38 -35
-11 -13 24 -5 42 18 38 10 -2 17 -13 17 -27z m-5784 -572 c16 -8 18 -13 8 -25
-16 -19 -68 -18 -76 2 -11 29 31 43 68 23z m10536 -1625 c8 -21 -13 -42 -28
-27 -13 13 -5 43 11 43 6 0 13 -7 17 -16z m-1179 -671 c-2 -10 -12 -18 -23
-18 -11 0 -21 8 -23 18 -3 13 3 17 23 17 20 0 26 -4 23 -17z m-7820 -8640 c-5
-26 -38 -29 -38 -4 0 15 6 21 21 21 14 0 19 -5 17 -17z m5035 1 c9 -10 -4 -34
-19 -34 -8 0 -14 9 -14 20 0 19 19 27 33 14z m-5515 -2481 c5 -18 -28 -29 -38
-12 -5 7 -6 17 -3 22 7 12 35 5 41 -10z m9575 -1727 c3 -7 1 -18 -5 -24 -15
-15 -38 -3 -38 19 0 22 35 26 43 5z m-5075 -799 c2 -11 -3 -17 -17 -17 -23 0
-35 15 -26 31 10 15 39 6 43 -14z m470 -595 c2 -14 -2 -22 -12 -22 -19 0 -29
17 -22 36 8 22 30 12 34 -14z"/>
<path d="M11320 18815 c0 -17 43 -38 48 -23 5 12 -18 38 -34 38 -8 0 -14 -7
-14 -15z"/>
<path d="M14917 15976 c-7 -19 0 -25 24 -19 10 3 19 12 19 19 0 18 -36 18 -43
0z"/>
<path d="M18970 14136 c0 -8 7 -16 15 -20 8 -3 20 -17 25 -31 5 -14 16 -25 25
-25 22 0 18 27 -5 33 -12 3 -20 14 -20 25 0 11 -7 23 -16 26 -22 8 -24 8 -24
-8z"/>
<path d="M7000 5764 c0 -31 23 -28 28 4 2 15 -2 22 -12 22 -11 0 -16 -9 -16
-26z"/>
<path d="M16990 1642 c0 -11 -7 -22 -15 -26 -22 -8 -18 -36 4 -36 27 0 53 28
49 54 -4 28 -38 35 -38 8z"/>
<path d="M8623 20414 c-6 -16 15 -37 29 -28 4 3 8 14 8 25 0 23 -28 26 -37 3z"/>
<path d="M8030 20130 c0 -6 -12 -15 -26 -20 -16 -7 -24 -16 -22 -27 5 -29 37
-28 48 1 5 14 14 26 20 26 5 0 10 7 10 15 0 8 -7 15 -15 15 -8 0 -15 -5 -15
-10z"/>
<path d="M12304 20099 c-10 -17 23 -46 37 -32 7 7 9 19 6 27 -7 18 -33 21 -43
5z"/>
<path d="M13637 19144 c-14 -14 -7 -35 11 -32 9 2 17 10 17 17 0 16 -18 25
-28 15z"/>
<path d="M9150 18285 c0 -20 4 -26 18 -23 9 2 17 12 17 23 0 11 -8 21 -17 23
-14 3 -18 -3 -18 -23z"/>
<path d="M5507 18223 c-15 -14 -6 -33 17 -39 14 -3 27 -12 30 -21 3 -8 11 -11
17 -7 9 5 8 10 -3 18 -8 6 -18 21 -22 34 -7 21 -26 29 -39 15z"/>
<path d="M5423 18174 c-9 -23 13 -40 32 -24 12 10 13 16 4 26 -15 18 -28 18
-36 -2z"/>
<path d="M8906 17974 c-4 -10 -2 -22 3 -27 14 -14 43 0 39 20 -4 24 -34 28
-42 7z"/>
<path d="M8757 17963 c-13 -13 -7 -53 8 -53 10 0 15 10 15 30 0 29 -9 38 -23
23z"/>
<path d="M7910 17295 c-10 -11 -10 -19 -2 -27 15 -15 44 -2 40 19 -4 23 -22
27 -38 8z"/>
<path d="M7597 17124 c-4 -4 -7 -18 -7 -31 0 -28 23 -27 28 1 4 20 -11 40 -21
30z"/>
<path d="M7477 17003 c-4 -3 -7 -17 -7 -30 0 -33 24 -24 28 10 3 26 -7 35 -21
20z"/>
<path d="M16594 16875 c-3 -8 -3 -19 1 -25 11 -18 25 -11 25 15 0 27 -17 34
-26 10z"/>
<path d="M5784 16655 c-7 -18 3 -35 21 -35 15 0 28 27 19 41 -8 14 -34 11 -40
-6z"/>
<path d="M17147 16264 c-16 -16 -6 -34 19 -34 19 0 25 5 22 17 -3 19 -29 29
-41 17z"/>
<path d="M18145 15630 c-8 -24 1 -40 21 -40 9 0 14 11 14 30 0 35 -25 42 -35
10z"/>
<path d="M2676 15303 c-21 -2 -48 -10 -60 -18 -12 -7 -38 -16 -60 -20 -41 -7
-59 -18 -166 -100 -36 -28 -85 -64 -109 -80 -25 -17 -56 -41 -70 -54 -15 -13
-50 -39 -80 -59 -30 -20 -66 -47 -80 -60 -14 -13 -51 -41 -81 -61 -30 -20 -62
-42 -70 -49 -8 -8 -42 -33 -75 -58 -33 -24 -67 -50 -75 -56 -8 -7 -41 -34 -75
-60 -253 -198 -496 -479 -703 -813 -7 -11 -18 -31 -24 -45 -7 -14 -18 -29 -25
-33 -7 -4 -13 -16 -13 -26 0 -10 -8 -29 -19 -42 -10 -13 -22 -35 -26 -49 -4
-14 -13 -32 -20 -40 -8 -8 -16 -27 -20 -42 -4 -15 -13 -32 -21 -39 -8 -6 -14
-19 -14 -28 0 -9 -9 -33 -20 -54 -11 -20 -20 -43 -20 -50 0 -7 -9 -30 -19 -50
-11 -21 -22 -56 -26 -77 -4 -21 -12 -44 -20 -50 -7 -6 -16 -32 -20 -58 -4 -26
-13 -58 -20 -72 -7 -14 -16 -48 -20 -75 -4 -28 -13 -64 -20 -82 -7 -17 -16
-62 -20 -100 -3 -37 -12 -86 -20 -108 -33 -94 -35 -411 -35 -4577 0 -4137 3
-4501 35 -4633 7 -33 17 -94 21 -135 4 -41 13 -89 20 -105 7 -17 16 -60 20
-95 4 -36 13 -74 19 -85 7 -11 16 -42 20 -70 4 -27 13 -61 20 -75 7 -14 16
-45 20 -70 4 -25 13 -52 20 -60 7 -8 16 -35 20 -60 4 -25 13 -52 20 -60 7 -8
16 -31 20 -50 4 -19 16 -51 26 -70 11 -19 19 -44 19 -56 0 -12 7 -27 15 -34 8
-7 15 -17 15 -23 0 -6 9 -29 19 -51 11 -23 25 -52 30 -66 6 -14 15 -32 20 -40
5 -8 14 -26 20 -40 6 -14 15 -32 21 -40 5 -8 15 -26 20 -40 6 -14 21 -43 35
-65 13 -22 31 -53 39 -70 20 -38 20 -39 146 -230 58 -88 112 -167 120 -176 8
-9 23 -27 33 -40 160 -213 308 -370 601 -634 43 -38 85 -74 94 -79 9 -5 46
-33 82 -61 36 -28 89 -66 117 -85 29 -18 53 -37 53 -42 0 -4 6 -8 13 -8 6 0
41 -20 77 -45 36 -25 70 -45 77 -45 7 0 16 -6 20 -12 4 -7 33 -26 63 -42 30
-16 62 -34 70 -41 8 -7 26 -16 40 -20 14 -4 32 -13 40 -20 8 -7 26 -16 40 -20
14 -4 32 -13 40 -20 8 -7 26 -16 40 -20 14 -4 32 -13 40 -20 8 -7 29 -16 47
-20 17 -3 37 -12 43 -20 6 -8 24 -17 40 -20 15 -3 45 -15 66 -26 21 -10 44
-19 51 -19 8 0 24 -6 36 -14 12 -8 38 -17 57 -21 19 -4 44 -13 55 -19 11 -7
38 -16 60 -20 22 -4 49 -13 60 -20 11 -7 42 -16 70 -21 27 -4 62 -13 77 -21
14 -7 53 -17 85 -20 32 -4 67 -13 78 -19 11 -7 57 -16 101 -19 45 -4 103 -14
129 -22 36 -10 108 -14 286 -14 238 0 238 0 268 33 17 17 31 35 31 39 0 12
-18 19 -25 8 -15 -24 -74 -10 -109 25 -31 31 -41 35 -86 35 -48 0 -52 2 -61
30 -13 35 -35 39 -44 9 -11 -32 -105 -23 -164 16 -23 16 -55 30 -71 31 -42 3
-73 15 -93 35 -22 23 -53 25 -61 4 -4 -11 3 -19 20 -25 14 -6 22 -14 19 -20
-9 -15 -35 -12 -41 5 -4 9 -19 15 -40 15 -43 0 -56 25 -25 46 35 25 16 33 -63
27 -64 -5 -80 -3 -111 16 -20 11 -48 21 -63 21 -15 0 -42 10 -61 21 -24 15
-45 19 -68 16 -26 -5 -36 -1 -50 17 -24 29 -117 45 -127 21 -7 -19 -35 -20
-42 -1 -3 8 -22 21 -43 29 -20 9 -42 26 -48 40 -9 19 -17 23 -37 20 -15 -3
-29 -9 -32 -14 -7 -12 -44 -11 -44 1 0 6 7 13 15 16 8 4 15 15 15 25 0 28 -46
26 -53 -2 -4 -15 -12 -20 -29 -17 -34 5 -35 36 -1 49 27 10 27 11 8 24 -11 8
-26 19 -33 25 -7 6 -36 15 -64 19 -40 7 -59 16 -80 40 -16 18 -38 31 -51 31
-13 0 -33 11 -45 25 -14 16 -32 25 -50 25 -47 0 -93 21 -102 46 -11 27 -28 31
-36 9 -9 -21 -37 -19 -52 5 -7 11 -19 20 -27 20 -20 0 -19 36 0 44 36 13 -4
66 -50 66 -14 0 -25 4 -25 8 0 5 -6 17 -14 28 -14 18 -15 18 -25 -9 -8 -21
-17 -28 -34 -25 -34 5 -36 45 -2 58 14 5 24 14 21 19 -4 5 -18 5 -35 -2 -40
-15 -65 5 -57 45 5 23 2 28 -14 28 -11 0 -25 9 -32 20 -7 11 -23 20 -35 20
-13 0 -30 11 -40 26 -14 22 -22 25 -48 21 -32 -5 -32 -5 -28 37 5 39 3 44 -18
49 -17 5 -29 1 -41 -14 -10 -12 -24 -19 -33 -15 -19 7 -19 20 0 36 22 18 18
35 -10 54 -14 9 -25 22 -25 30 0 7 -9 21 -20 31 -12 11 -20 31 -20 52 0 31 -2
33 -21 23 -27 -15 -47 -6 -59 25 -6 15 -17 25 -29 25 -24 0 -43 23 -35 43 8
23 -15 31 -36 12 -13 -12 -20 -13 -26 -4 -4 7 0 17 9 24 25 18 21 27 -28 58
-37 23 -45 34 -45 58 0 29 -13 39 -25 19 -9 -15 -45 -12 -45 4 0 7 9 20 19 27
28 20 37 59 15 59 -10 0 -26 -8 -36 -17 -17 -15 -20 -15 -35 -1 -14 15 -14 19
6 44 11 14 21 32 21 40 0 7 6 15 12 17 7 3 4 6 -7 6 -31 1 -125 101 -125 133
0 27 -16 38 -55 38 -21 0 -24 5 -25 37 0 21 -1 47 -2 58 0 11 2 28 7 37 5 14
2 18 -13 18 -12 0 -22 -9 -25 -21 -3 -12 -10 -18 -16 -14 -14 8 -14 42 0 50 7
5 5 15 -5 31 -9 13 -16 30 -16 38 0 8 -8 23 -19 33 -10 10 -21 30 -25 46 -4
15 -25 46 -48 68 -42 41 -42 41 -18 60 25 19 25 19 -4 42 -17 14 -26 29 -22
35 4 7 -2 25 -13 41 -13 18 -21 45 -21 69 0 26 -5 42 -15 46 -10 4 -15 19 -15
49 0 43 -21 77 -48 77 -30 0 -44 97 -18 120 8 6 12 18 9 26 -4 11 -9 12 -16 5
-35 -35 -58 18 -32 73 16 33 16 38 2 54 -13 16 -27 70 -28 116 0 10 -6 28 -14
40 -7 11 -13 50 -14 85 -1 35 -3 67 -6 71 -10 16 -5 9198 4 9223 7 17 6 36 -2
57 -11 30 -10 33 16 54 26 21 28 27 22 68 -5 35 -2 53 14 84 24 44 26 65 9 82
-9 9 -9 15 0 24 9 9 15 8 26 -8 12 -15 17 -16 27 -7 10 10 9 14 -4 19 -21 8
-22 43 -2 50 11 5 15 21 15 60 0 43 4 56 21 68 32 22 59 67 59 99 0 16 6 41
14 55 8 15 19 38 25 52 6 14 25 50 41 80 17 30 30 60 30 67 0 7 11 19 23 28
28 18 51 62 48 91 -1 14 5 23 18 27 12 3 24 13 27 24 16 48 28 76 39 86 189
178 197 189 191 245 -6 48 3 68 19 42 3 -5 14 -10 25 -10 14 0 18 7 16 32 -1
25 4 35 22 43 12 5 22 18 22 28 0 23 26 33 46 16 13 -11 19 -8 40 19 15 18 41
36 62 42 40 11 71 45 78 87 7 35 12 43 30 43 17 0 19 37 2 43 -7 2 -10 7 -7
10 3 4 20 1 37 -5 27 -10 37 -10 61 5 16 9 36 17 44 17 9 0 35 20 58 45 27 29
51 45 66 45 15 0 37 15 61 42 73 83 89 96 124 106 21 6 53 29 83 61 26 28 61
55 79 59 17 5 47 25 68 46 20 20 45 36 57 36 11 0 35 16 52 35 43 47 92 56
118 24 15 -18 22 -21 31 -12 14 13 5 33 -16 33 -19 0 -18 26 2 34 26 10 51 7
63 -8 8 -10 37 -14 93 -15 68 -1 86 -5 104 -22 21 -20 23 -20 47 -4 14 9 36
15 49 13 29 -4 36 -34 8 -41 -11 -3 -20 -13 -20 -22 0 -14 6 -16 30 -11 23 4
33 1 42 -14 10 -15 24 -20 56 -20 53 0 112 -53 112 -100 0 -31 16 -81 29 -90
4 -3 17 -26 30 -52 39 -82 30 -408 -12 -408 -5 0 -7 -11 -5 -25 4 -20 -4 -33
-40 -66 -24 -23 -48 -53 -51 -67 -5 -18 -17 -29 -38 -34 -23 -6 -32 -15 -36
-37 -5 -22 -14 -32 -42 -41 -19 -6 -41 -20 -48 -31 -8 -10 -31 -23 -53 -28
-38 -9 -38 -9 -8 -10 46 -1 61 -24 34 -51 -25 -25 -41 -22 -56 8 -13 27 -37
13 -53 -31 -12 -30 -76 -73 -103 -69 -17 3 -85 -63 -102 -100 -8 -16 -18 -19
-59 -16 -50 3 -50 3 -64 -39 -8 -24 -21 -43 -28 -43 -7 0 -15 -6 -18 -14 -3
-8 -19 -17 -34 -20 -42 -10 -163 -130 -163 -161 0 -26 -54 -84 -77 -85 -8 0
-13 -15 -13 -40 0 -36 -3 -41 -40 -60 -22 -11 -40 -27 -40 -36 0 -8 -6 -17
-14 -20 -8 -3 -18 -19 -21 -35 -4 -17 -24 -50 -46 -75 -21 -25 -39 -51 -39
-59 0 -7 -7 -21 -16 -30 -9 -9 -14 -25 -11 -35 3 -13 -3 -26 -19 -39 -17 -13
-24 -29 -24 -53 0 -19 -7 -43 -15 -54 -11 -14 -13 -35 -8 -80 5 -57 4 -62 -22
-87 -27 -24 -28 -31 -31 -129 -2 -63 1 -112 7 -125 10 -18 8 -26 -10 -49 -13
-16 -21 -41 -21 -64 0 -20 -6 -50 -12 -66 -10 -23 -12 -190 -8 -769 3 -427 1
-748 -4 -760 -14 -30 -1 -6584 13 -6598 15 -15 14 -94 -1 -99 -15 -5 -13 -127
2 -142 15 -15 12 -53 -5 -60 -24 -9 -18 -56 10 -82 24 -22 31 -53 26 -111 -1
-12 3 -24 9 -28 5 -3 10 -14 10 -23 0 -9 12 -26 26 -37 20 -16 27 -32 30 -65
2 -25 14 -67 28 -95 21 -44 27 -80 8 -48 -4 7 -16 11 -27 9 -29 -4 -25 -38 7
-54 28 -13 44 -44 33 -62 -3 -6 3 -23 14 -39 13 -18 21 -45 21 -69 0 -22 3
-42 8 -44 14 -6 102 -189 102 -213 0 -32 16 -40 30 -15 14 27 50 27 50 0 0
-11 -7 -23 -15 -26 -23 -9 -18 -43 9 -56 14 -6 26 -20 28 -32 2 -14 12 -22 33
-26 27 -5 30 -9 29 -40 -1 -19 -5 -44 -8 -55 -6 -16 12 -39 93 -120 56 -55
110 -103 121 -107 13 -5 20 -16 20 -33 0 -21 6 -27 31 -32 29 -5 31 -8 27 -44
-2 -22 1 -39 6 -39 13 0 156 -145 156 -158 0 -7 16 -5 46 5 52 18 62 13 46
-22 -18 -40 -14 -53 19 -60 23 -5 34 -3 45 12 14 17 15 17 30 -5 9 -12 22 -22
29 -22 22 0 26 -29 5 -42 -29 -19 -25 -38 9 -38 32 0 91 -43 91 -66 0 -11 5
-11 24 -3 27 12 66 -2 66 -24 0 -8 13 -26 30 -42 30 -29 30 -29 36 4 8 37 19
36 42 -3 26 -43 70 -84 94 -88 13 -2 29 -15 36 -32 13 -26 17 -28 53 -22 32 5
41 3 51 -14 8 -12 24 -20 39 -20 34 0 89 -19 89 -31 0 -5 13 -9 29 -9 35 0 91
-19 91 -31 0 -5 13 -9 29 -9 35 0 91 -19 91 -31 0 -5 31 -9 69 -9 69 0 131
-15 131 -31 0 -5 46 -9 103 -10 162 -1 287 -13 295 -26 6 -10 439 -13 2056
-13 1127 0 2051 2 2054 5 3 3 15 5 27 5 12 0 34 9 48 21 22 16 30 18 48 9 12
-7 36 -9 55 -5 63 11 102 -35 47 -56 -20 -7 -23 -13 -15 -21 9 -9 18 -9 37 0
13 6 32 9 41 5 10 -4 20 0 26 10 16 29 45 20 57 -16 10 -30 242 -277 261 -277
11 0 20 -28 14 -44 -3 -8 -15 -16 -26 -19 -13 -4 -19 -11 -15 -21 9 -22 10
-326 2 -359 -5 -17 -2 -33 5 -42 7 -9 9 -19 5 -23 -4 -4 -10 -1 -12 6 -9 25
-33 11 -42 -25 -7 -26 -33 -60 -81 -108 -52 -52 -69 -75 -65 -90 3 -11 2 -14
-1 -7 -3 6 -19 12 -35 12 -24 0 -32 -6 -40 -27 -6 -16 -26 -41 -46 -57 -30
-25 -38 -28 -54 -17 -23 14 -39 7 -39 -18 0 -23 -17 -37 -55 -47 -17 -4 -42
-19 -57 -33 -15 -14 -39 -36 -53 -48 -35 -31 -34 -63 3 -63 15 0 32 4 38 10 5
5 65 12 134 16 92 5 134 12 160 26 19 10 42 18 51 18 9 0 22 7 29 15 7 8 18
15 25 15 48 0 294 256 295 306 0 6 6 17 14 23 8 7 18 27 22 44 3 17 12 41 20
52 7 11 15 43 19 70 3 28 14 83 23 123 15 68 15 79 0 155 -9 45 -20 102 -23
127 -4 25 -13 52 -20 60 -7 8 -16 29 -20 47 -3 17 -12 37 -20 43 -8 6 -17 25
-20 41 -4 16 -11 29 -16 29 -5 0 -14 10 -20 22 -35 80 -210 239 -290 263 -13
4 -31 13 -39 20 -40 32 -170 64 -267 65 -53 0 -74 4 -80 15 -8 13 -275 15
-2223 17 -1703 2 -2221 6 -2242 15 -15 7 -67 17 -115 24 -48 6 -97 16 -108 22
-11 7 -47 17 -80 23 -64 13 -141 36 -190 59 -16 7 -41 17 -55 20 -28 8 -107
41 -130 56 -8 5 -26 14 -40 19 -14 6 -32 15 -40 20 -8 6 -22 13 -30 16 -8 3
-26 11 -40 19 -14 8 -37 20 -52 26 -16 6 -28 15 -28 20 0 5 -15 16 -32 24 -66
31 -94 49 -138 85 -25 21 -63 50 -85 64 -182 122 -498 479 -580 653 -8 18 -19
33 -24 33 -5 0 -14 12 -20 27 -6 16 -15 35 -21 43 -5 8 -14 26 -20 40 -5 14
-14 32 -20 40 -5 8 -14 26 -20 40 -5 14 -14 32 -19 40 -17 26 -50 104 -57 133
-3 15 -15 44 -25 64 -10 21 -19 48 -19 60 0 13 -6 34 -14 46 -8 12 -17 47 -21
77 -4 30 -13 66 -20 80 -7 14 -16 52 -19 85 -4 33 -15 92 -24 130 -26 107 -26
8702 0 8780 9 28 19 72 22 99 3 27 13 60 21 72 8 13 15 34 15 46 0 13 8 39 19
58 10 19 21 49 25 67 4 17 13 37 21 43 8 6 17 24 20 40 3 16 13 34 21 41 8 6
14 16 14 22 0 10 79 133 108 167 130 156 173 199 290 287 13 10 31 25 40 33
10 9 37 29 62 45 46 30 59 40 95 72 12 10 41 31 65 48 25 16 53 36 62 45 35
31 101 79 243 177 60 41 116 92 181 164 8 9 14 20 14 26 0 6 8 21 19 34 10 13
22 35 26 49 4 14 13 32 20 40 7 8 17 33 21 55 4 22 14 51 23 65 24 36 23 371
0 415 -9 17 -19 46 -23 66 -4 21 -13 42 -20 48 -8 7 -17 23 -20 36 -22 85
-245 325 -303 325 -6 0 -13 6 -16 14 -3 8 -19 17 -36 21 -16 3 -35 12 -41 20
-6 7 -30 16 -53 20 -23 4 -53 14 -65 22 -24 15 -272 27 -356 16z m-706 -11542
c15 -28 12 -51 -6 -58 -21 -8 -31 11 -26 47 5 35 17 38 32 11z m485 -1202 c0
-7 -8 -15 -17 -17 -18 -3 -25 18 -11 32 10 10 28 1 28 -15z m1045 -879 c0 -21
-33 -29 -45 -10 -9 15 4 30 26 30 12 0 19 -7 19 -20z m-1752 -261 c-4 -28 -31
-32 -36 -6 -5 23 18 51 30 39 6 -6 8 -20 6 -33z m6918 -28 c-10 -15 -46 -14
-46 2 0 7 5 18 12 25 15 15 45 -9 34 -27z m-6601 -251 c8 -13 -4 -50 -16 -50
-13 0 -22 27 -15 45 6 17 22 20 31 5z"/>
<path d="M19432 14337 c-14 -16 -6 -27 20 -27 13 0 18 6 16 17 -4 22 -22 27
-36 10z"/>
<path d="M16392 14083 c2 -10 10 -18 18 -18 8 0 16 8 18 18 2 12 -3 17 -18 17
-15 0 -20 -5 -18 -17z"/>
<path d="M2790 13159 c0 -25 33 -22 38 4 2 12 -3 17 -17 17 -15 0 -21 -6 -21
-21z"/>
<path d="M7350 7545 c0 -17 5 -25 13 -22 6 2 12 12 12 22 0 10 -6 20 -12 23
-8 2 -13 -6 -13 -23z"/>
<path d="M7092 7284 c-12 -8 -22 -24 -22 -35 0 -24 18 -25 27 -1 4 9 13 22 21
28 24 17 -2 25 -26 8z"/>
<path d="M13630 6928 c0 -7 14 -29 30 -48 26 -32 29 -33 36 -16 5 14 2 24 -14
34 -12 8 -22 21 -22 28 0 8 -7 14 -15 14 -8 0 -15 -6 -15 -12z"/>
<path d="M6740 3570 c0 -11 -7 -23 -15 -26 -16 -7 -21 -44 -5 -44 5 0 14 9 20
20 6 11 17 20 25 20 21 0 28 19 15 35 -18 22 -40 18 -40 -5z"/>
<path d="M3114 2535 c-9 -22 5 -38 22 -24 18 15 18 25 -1 33 -9 3 -18 -1 -21
-9z"/>
<path d="M17310 2525 c0 -11 7 -15 23 -13 12 2 22 8 22 13 0 6 -10 11 -22 13
-16 2 -23 -2 -23 -13z"/>
<path d="M17270 2465 c0 -17 5 -25 13 -22 6 2 12 12 12 22 0 10 -6 20 -12 23
-8 2 -13 -6 -13 -23z"/>
<path d="M3144 2459 c-10 -17 23 -46 37 -32 7 7 9 19 6 27 -7 18 -33 21 -43 5z"/>
<path d="M19430 1615 c-10 -11 -10 -19 -2 -27 15 -15 44 -2 40 19 -4 23 -22
27 -38 8z"/>
<path d="M3150 490 c0 -14 7 -20 21 -20 15 0 19 4 15 16 -3 9 -6 18 -6 20 0 2
-7 4 -15 4 -8 0 -15 -9 -15 -20z"/>
<path d="M9506 54 c-4 -10 -2 -22 3 -27 14 -14 43 0 39 20 -4 24 -34 28 -42 7z"/>
</g>
</svg>
