<?xml version="1.0" standalone="no"?>
<!DOCTYPE svg PUBLIC "-//W3C//DTD SVG 20010904//EN"
 "http://www.w3.org/TR/2001/REC-SVG-20010904/DTD/svg10.dtd">
<svg version="1.0" xmlns="http://www.w3.org/2000/svg"
 width="2048.000000pt" height="2048.000000pt" viewBox="0 0 2048.000000 2048.000000"
 preserveAspectRatio="xMidYMid meet">
<g transform="translate(0.000000,2048.000000) scale(0.100000,-0.100000)"
fill="#000000" stroke="none">
<path d="M9487 19914 c-21 -8 -48 -21 -60 -29 -12 -8 -29 -15 -38 -15 -9 0
-27 -8 -40 -19 -13 -10 -35 -22 -48 -26 -22 -7 -81 -42 -108 -65 -7 -5 -15
-10 -19 -10 -16 0 -163 -106 -271 -196 -125 -104 -360 -382 -404 -476 -5 -13
-21 -41 -34 -63 -47 -80 -125 -245 -125 -266 0 -8 -7 -22 -15 -32 -7 -11 -17
-38 -20 -60 -4 -23 -13 -51 -20 -63 -7 -11 -16 -43 -20 -70 -4 -27 -13 -67
-20 -89 -16 -44 -45 -318 -45 -415 0 -87 29 -369 42 -405 5 -16 16 -59 23 -95
15 -74 39 -152 61 -193 7 -16 14 -33 14 -39 0 -32 125 -277 198 -388 80 -121
139 -192 282 -339 49 -50 178 -155 289 -236 19 -14 39 -25 43 -25 5 0 30 -15
56 -33 44 -31 67 -43 202 -104 30 -14 69 -31 85 -39 17 -7 44 -16 60 -20 17
-4 39 -13 50 -20 11 -7 43 -16 70 -20 28 -3 61 -12 75 -19 14 -7 67 -16 118
-20 147 -11 133 43 133 -523 1 -335 -2 -487 -10 -496 -8 -9 -58 -15 -171 -20
-88 -4 -184 -13 -213 -21 -28 -7 -83 -16 -122 -20 -38 -4 -81 -13 -95 -20 -14
-7 -52 -16 -85 -20 -33 -4 -71 -13 -85 -20 -14 -7 -48 -16 -75 -20 -28 -5 -59
-14 -70 -20 -11 -7 -38 -16 -59 -20 -21 -3 -48 -12 -60 -20 -12 -7 -37 -16
-57 -19 -19 -3 -53 -15 -74 -26 -22 -11 -45 -20 -53 -20 -8 0 -26 -6 -40 -13
-59 -30 -118 -56 -142 -62 -14 -4 -32 -13 -40 -20 -8 -7 -26 -16 -40 -20 -14
-4 -32 -13 -40 -20 -8 -7 -26 -16 -40 -20 -14 -4 -32 -13 -40 -20 -8 -7 -26
-16 -40 -20 -14 -4 -32 -13 -40 -20 -8 -8 -26 -18 -40 -24 -28 -12 -39 -19
-131 -78 -36 -24 -69 -43 -73 -43 -8 0 -65 -39 -81 -56 -5 -5 -30 -23 -55 -39
-25 -17 -74 -52 -110 -80 -36 -28 -76 -58 -90 -67 -14 -9 -41 -31 -60 -48 -19
-18 -73 -66 -120 -108 -146 -131 -368 -366 -456 -483 -14 -19 -52 -69 -84
-112 -33 -43 -62 -87 -65 -98 -4 -10 -10 -19 -15 -19 -9 0 -47 -58 -67 -102
-6 -16 -16 -28 -20 -28 -5 0 -14 -12 -21 -27 -7 -16 -24 -46 -37 -68 -14 -22
-32 -53 -40 -70 -9 -16 -27 -48 -40 -70 -13 -22 -29 -51 -34 -65 -6 -14 -16
-32 -21 -40 -6 -8 -15 -26 -21 -40 -11 -26 -44 -101 -97 -220 -11 -25 -26 -64
-32 -87 -6 -23 -14 -45 -19 -47 -5 -3 -12 -22 -16 -42 -3 -20 -12 -46 -20 -58
-7 -12 -16 -39 -20 -61 -4 -21 -13 -51 -20 -65 -7 -14 -16 -45 -20 -70 -4 -25
-13 -56 -20 -70 -7 -14 -16 -50 -20 -80 -4 -30 -13 -69 -20 -86 -7 -17 -16
-60 -20 -95 -3 -35 -13 -89 -20 -119 -8 -30 -19 -109 -25 -175 -6 -66 -15
-147 -19 -180 -5 -33 -12 -109 -16 -170 -9 -152 -13 -148 140 -135 164 13
7556 13 7720 0 152 -13 148 -16 140 130 -3 58 -12 150 -20 205 -8 55 -17 140
-21 190 -4 49 -11 103 -16 120 -5 16 -16 71 -23 120 -8 50 -21 115 -30 145 -8
30 -15 65 -15 78 0 13 -6 35 -14 50 -7 15 -17 47 -21 72 -4 25 -13 56 -20 70
-7 14 -17 44 -21 65 -4 22 -13 49 -20 60 -6 11 -15 34 -19 52 -3 17 -15 48
-26 69 -10 21 -19 48 -19 61 0 12 -4 24 -9 28 -5 3 -15 22 -22 43 -6 20 -17
44 -24 52 -7 8 -16 29 -20 47 -3 17 -12 37 -20 43 -8 6 -17 24 -20 40 -3 16
-12 34 -20 40 -8 6 -17 24 -20 40 -3 16 -12 34 -20 40 -8 6 -17 25 -20 41 -4
16 -11 32 -17 35 -5 4 -17 21 -25 38 -8 17 -22 45 -31 61 -33 58 -230 351
-281 415 -28 36 -58 75 -68 88 -70 90 -414 441 -514 524 -24 20 -55 46 -69 58
-50 42 -176 137 -227 170 -29 18 -53 37 -53 41 0 3 -8 9 -17 13 -10 3 -38 19
-63 36 -25 16 -56 35 -70 42 -14 7 -46 27 -72 45 -26 18 -52 33 -57 33 -4 0
-19 8 -32 19 -13 10 -35 22 -49 26 -14 4 -32 13 -40 20 -8 7 -26 16 -40 20
-14 4 -32 13 -40 20 -8 7 -26 16 -40 20 -14 4 -32 13 -40 20 -8 7 -29 16 -47
20 -17 3 -37 13 -44 21 -6 8 -19 14 -28 14 -9 0 -34 9 -55 19 -21 11 -52 23
-69 27 -18 4 -41 12 -52 19 -11 7 -36 16 -55 20 -19 4 -44 13 -55 20 -11 7
-40 16 -65 20 -25 4 -54 13 -65 20 -11 7 -42 16 -70 20 -27 4 -61 13 -75 20
-14 7 -52 16 -85 20 -33 4 -71 13 -85 20 -14 7 -59 15 -100 19 -41 4 -100 14
-130 21 -31 8 -122 16 -204 19 -82 3 -153 9 -158 14 -6 6 -9 205 -9 498 0 572
-17 510 148 526 59 6 119 16 133 23 14 7 48 16 75 20 28 4 59 13 70 20 11 7
34 15 52 19 17 4 48 16 69 27 21 10 46 19 55 19 9 0 22 6 28 14 7 8 26 18 42
21 16 4 31 11 35 16 3 5 20 16 37 24 18 8 50 26 72 40 22 13 50 29 62 34 13 6
45 27 72 48 28 21 69 52 93 70 118 87 270 241 353 358 11 15 27 35 35 44 19
20 91 127 108 161 7 14 24 43 37 65 14 22 28 48 32 59 3 10 17 39 30 63 12 24
23 49 23 54 0 6 9 22 20 36 29 38 28 122 -2 150 -62 56 -125 45 -217 -37 -34
-30 -81 -67 -104 -82 -23 -15 -49 -34 -57 -42 -9 -8 -27 -20 -40 -25 -14 -6
-52 -27 -85 -46 -33 -19 -67 -34 -76 -35 -9 0 -22 -7 -29 -15 -7 -8 -28 -17
-49 -21 -20 -4 -52 -15 -71 -25 -19 -11 -45 -19 -58 -19 -12 0 -39 -7 -59 -15
-20 -8 -61 -18 -92 -21 -31 -3 -78 -12 -105 -20 -70 -20 -356 -19 -422 1 -27
8 -69 15 -94 15 -25 1 -63 8 -85 16 -22 9 -62 20 -89 26 -27 5 -58 16 -70 23
-12 7 -38 17 -58 20 -21 4 -42 13 -48 20 -6 8 -24 17 -40 20 -16 3 -34 12 -40
20 -6 8 -24 17 -40 20 -16 3 -34 13 -41 21 -6 8 -17 14 -23 14 -6 0 -43 23
-81 50 -39 28 -81 58 -95 67 -42 29 -139 122 -236 225 -44 47 -142 178 -162
218 -7 14 -24 43 -37 65 -27 44 -45 82 -45 94 0 5 -6 14 -14 20 -8 7 -18 25
-21 41 -3 15 -15 45 -26 66 -10 21 -19 47 -19 57 0 10 -6 30 -14 45 -8 15 -17
46 -21 67 -3 22 -14 65 -23 95 -25 81 -25 569 0 650 9 30 21 75 27 100 13 59
38 138 57 173 7 16 14 33 14 38 0 12 53 121 85 174 13 22 30 54 38 70 8 17 21
36 30 44 10 7 17 19 17 26 0 8 4 15 9 17 15 5 114 130 135 170 l20 37 -27 39
c-43 62 -84 73 -160 46z m-709 -1536 c7 -7 12 -24 12 -38 0 -14 8 -30 20 -38
16 -9 20 -23 20 -62 0 -28 4 -50 9 -50 14 0 31 -59 31 -109 0 -36 5 -49 21
-59 18 -11 21 -20 16 -54 -4 -33 -1 -43 19 -61 14 -12 24 -32 24 -46 0 -16 8
-31 21 -39 13 -9 19 -20 16 -32 -3 -13 8 -33 34 -60 21 -22 39 -48 39 -56 0
-9 9 -27 20 -41 11 -14 20 -34 20 -44 0 -10 12 -29 26 -43 17 -15 25 -30 21
-40 -4 -11 14 -36 59 -78 40 -39 63 -69 62 -80 -4 -25 458 -489 478 -481 10 3
32 -12 60 -40 29 -30 50 -44 60 -40 10 4 25 -4 40 -20 15 -16 30 -24 40 -20
10 4 25 -4 40 -20 15 -16 30 -24 40 -20 10 4 25 -4 40 -20 15 -16 30 -24 40
-20 10 4 25 -4 40 -20 15 -16 30 -24 40 -20 10 4 25 -4 40 -20 21 -23 28 -25
80 -20 51 6 58 4 81 -21 15 -16 31 -25 40 -22 26 10 43 -14 43 -59 0 -45 -19
-71 -44 -62 -15 6 -104 -76 -153 -140 -23 -30 -53 -36 -53 -9 0 21 -61 77 -78
72 -11 -4 -32 10 -60 39 -28 29 -48 42 -58 38 -10 -4 -25 4 -40 20 -15 16 -30
24 -40 20 -10 -4 -25 4 -40 20 -20 22 -30 25 -60 20 -30 -5 -40 -2 -60 20 -20
22 -30 25 -60 20 -30 -5 -40 -2 -60 20 -15 16 -30 24 -40 20 -10 -4 -25 4 -40
21 -21 22 -31 25 -62 20 -31 -5 -40 -2 -59 20 -14 16 -28 23 -38 19 -11 -4
-31 10 -61 40 -29 30 -50 44 -60 40 -10 -4 -31 11 -60 40 -29 30 -50 44 -60
40 -25 -9 -164 134 -164 169 0 27 -8 33 -38 29 -21 -3 -42 19 -42 45 0 15 -15
37 -40 60 -27 25 -40 45 -40 63 0 15 -8 31 -20 39 -12 7 -20 23 -20 40 0 16
-8 32 -20 40 -12 7 -20 23 -20 40 0 16 -8 32 -20 40 -15 9 -20 23 -20 60 0 36
-5 50 -20 60 -15 9 -20 23 -20 60 0 36 -5 50 -20 60 -19 12 -20 23 -20 350 0
399 2 412 63 412 24 0 48 -5 55 -12z m1370 -2126 c3 -18 -2 -22 -22 -22 -33 0
-44 20 -20 37 24 17 38 12 42 -15z m-3 -1483 c8 -12 -2 -59 -13 -59 -13 1 -43
50 -37 60 8 13 42 13 50 -1z m89 -34 c9 -25 -5 -45 -30 -45 -26 0 -40 20 -30
45 3 8 16 15 30 15 13 0 26 -7 30 -15z m76 -15 c0 -25 -4 -30 -24 -30 -26 0
-39 20 -30 45 12 30 54 18 54 -15z m2 -79 c10 -12 25 -18 34 -14 10 4 31 -10
60 -40 29 -30 50 -44 60 -40 10 3 25 -4 40 -20 21 -23 28 -25 80 -20 51 5 58
4 80 -20 23 -25 26 -26 120 -20 94 5 97 5 121 -21 22 -24 29 -26 82 -21 52 5
59 3 79 -20 20 -23 27 -25 80 -20 53 5 60 3 79 -19 20 -22 27 -24 78 -19 52 5
59 4 81 -20 20 -22 30 -25 60 -20 30 5 40 2 60 -20 15 -16 30 -24 40 -20 10 4
25 -4 40 -21 21 -22 31 -25 62 -20 31 5 40 2 59 -20 14 -16 28 -23 39 -19 10
4 25 -4 40 -20 15 -16 30 -24 40 -20 10 4 25 -4 40 -20 15 -16 30 -24 40 -20
10 4 25 -4 40 -20 15 -16 30 -24 40 -20 10 4 25 -4 40 -20 15 -16 30 -24 40
-20 10 4 31 -10 60 -40 29 -30 50 -44 60 -40 10 4 31 -11 60 -40 29 -30 50
-44 60 -40 10 4 31 -11 60 -40 28 -29 50 -44 60 -40 10 4 49 -29 119 -100 72
-72 110 -104 123 -101 23 6 247 -218 239 -239 -8 -22 169 -199 207 -206 36 -8
46 -30 17 -38 -31 -8 -26 -24 20 -62 28 -24 39 -41 35 -53 -3 -13 10 -32 40
-61 29 -28 44 -50 44 -67 0 -15 9 -31 21 -38 14 -9 19 -20 16 -33 -4 -14 7
-32 39 -62 29 -28 44 -50 44 -67 0 -14 9 -31 20 -38 12 -7 20 -23 20 -40 0
-16 8 -32 20 -40 12 -7 20 -23 20 -38 0 -14 6 -32 14 -40 8 -8 18 -36 22 -62
4 -28 14 -52 25 -60 11 -8 19 -25 19 -43 0 -16 4 -29 9 -29 14 0 31 -59 31
-109 0 -35 5 -49 20 -59 15 -9 20 -23 20 -60 0 -36 5 -50 20 -59 18 -12 19
-25 19 -237 0 -233 -4 -255 -42 -240 -10 3 -24 -4 -38 -20 l-23 -26 -2822 0
-2823 0 -14 21 c-14 20 -23 20 -322 20 -299 0 -308 0 -322 -20 -13 -20 -23
-21 -217 -21 l-202 0 -23 26 c-14 16 -28 23 -38 20 -37 -15 -43 10 -43 173 0
151 11 231 30 231 6 0 10 22 10 49 0 52 16 111 31 111 5 0 9 13 9 29 0 35 19
91 31 91 5 0 9 13 9 28 0 20 12 39 40 65 25 23 40 45 40 60 0 64 21 49 228
-158 138 -138 209 -202 219 -198 9 3 25 -5 39 -20 15 -16 30 -24 42 -20 13 3
25 -3 35 -18 25 -35 130 -36 162 -1 14 15 29 22 39 19 10 -4 25 4 40 20 15 16
30 24 40 20 11 -4 36 14 78 59 51 52 67 64 86 59 29 -7 42 21 17 39 -20 15
-12 36 13 36 28 0 171 146 165 169 -3 13 2 24 16 33 13 8 21 23 21 40 0 17 8
33 20 40 12 8 20 24 20 40 0 17 8 33 20 40 11 7 20 24 20 38 0 43 62 94 104
86 31 -6 38 -2 79 40 30 31 51 45 61 41 10 -4 25 4 40 20 15 16 30 24 40 20
10 -4 31 10 60 40 29 29 50 44 60 40 10 -4 37 16 80 60 43 44 70 64 80 60 10
-4 25 4 40 20 15 16 30 24 40 20 10 -4 31 10 60 40 30 30 50 44 61 40 10 -4
24 3 38 19 19 22 28 25 59 20 32 -5 41 -2 60 19 14 16 28 23 39 20 11 -4 27 4
42 21 15 16 31 25 41 21 10 -4 37 16 80 60 42 42 70 63 80 60 21 -8 166 137
160 161 -4 11 16 38 60 79 47 45 63 68 59 82 -3 11 3 24 15 32 12 9 22 32 26
61 4 26 14 54 22 62 25 25 20 267 -6 284 -12 7 -20 23 -20 40 0 17 -8 32 -21
40 -14 9 -19 20 -16 33 4 15 -11 36 -59 81 -59 57 -64 66 -64 104 0 52 18 69
64 60 29 -6 38 -2 59 20 23 25 30 27 81 21 52 -5 59 -3 80 20 15 16 30 23 40
20 10 -4 31 10 60 40 30 30 50 44 61 40 9 -4 23 2 35 16 26 30 143 29 172 -2z
m-972 -476 c9 -8 21 -15 27 -15 6 0 31 -22 56 -49 50 -55 65 -116 51 -206 -9
-65 -74 -139 -136 -156 -20 -5 -40 -13 -42 -18 -3 -5 -23 -12 -43 -16 -21 -3
-47 -13 -59 -20 -12 -7 -37 -17 -57 -20 -20 -4 -41 -13 -48 -21 -6 -8 -16 -14
-22 -14 -11 0 -112 -44 -137 -60 -8 -5 -28 -17 -45 -25 -16 -8 -48 -26 -70
-40 -22 -13 -51 -30 -65 -37 -30 -15 -198 -127 -220 -146 -8 -7 -33 -27 -55
-43 -34 -26 -117 -97 -174 -150 -60 -55 -191 -80 -230 -45 -10 9 -23 16 -30
16 -28 0 -96 88 -114 148 -35 112 15 190 225 355 138 108 306 227 321 227 4 0
30 16 58 35 27 20 60 40 72 46 12 5 40 20 62 34 51 30 83 45 99 45 8 0 19 6
25 14 7 8 25 18 41 21 16 3 34 12 40 20 6 8 24 17 40 20 15 3 45 15 66 26 21
10 46 19 55 19 9 0 22 6 28 14 7 8 28 17 49 21 20 3 46 12 57 20 45 28 143 29
175 0z m-1637 -1246 c143 -48 206 -193 140 -322 -15 -28 -30 -54 -34 -57 -3
-3 -13 -18 -22 -35 -77 -142 -266 -171 -375 -57 -37 39 -72 114 -72 155 0 37
41 140 61 152 5 4 16 21 23 40 21 50 87 106 148 126 69 22 59 22 131 -2z"/>
<path d="M3063 19583 c-12 -2 -27 -11 -33 -19 -7 -8 -18 -14 -25 -14 -14 0
-76 -65 -97 -102 -10 -18 -12 -96 -10 -375 4 -392 8 -373 -65 -373 -16 0 -38
-7 -49 -15 -10 -8 -25 -15 -33 -15 -24 0 -101 -39 -176 -89 -130 -86 -270
-246 -332 -381 -56 -121 -63 -139 -63 -162 0 -14 -7 -43 -16 -64 -14 -33 -17
-84 -18 -332 l-1 -293 974 0 c535 0 976 3 980 6 9 10 1 461 -10 520 -5 28 -14
79 -19 115 -6 35 -16 73 -24 85 -7 11 -16 36 -20 56 -3 21 -13 42 -20 48 -8 7
-17 22 -20 36 -27 107 -288 377 -397 410 -13 4 -31 13 -39 20 -19 15 -105 45
-150 52 -66 10 -64 -7 -57 368 6 288 5 344 -8 365 -8 14 -18 34 -24 45 -35 74
-154 126 -248 108z m205 -1299 c40 -40 68 -61 78 -57 9 3 54 -34 129 -109
l115 -115 0 -80 c0 -48 -5 -84 -12 -91 -9 -9 -128 -12 -473 -12 -345 0 -464 3
-473 12 -21 21 -15 136 8 150 11 7 20 24 20 38 1 32 102 135 124 127 10 -4 39
17 80 60 43 43 70 64 80 60 10 -4 31 9 58 38 l43 45 80 -2 80 -1 63 -63z"/>
<path d="M17245 19566 c-57 -28 -94 -64 -124 -121 -21 -39 -22 -45 -15 -377 8
-374 9 -368 -55 -368 -20 0 -45 -6 -56 -14 -11 -7 -34 -17 -52 -20 -17 -4 -37
-13 -43 -21 -6 -7 -22 -16 -36 -19 -102 -26 -365 -295 -399 -408 -4 -13 -13
-30 -20 -38 -25 -31 -53 -133 -84 -305 -11 -59 -19 -510 -10 -520 4 -3 445 -6
980 -6 l974 0 -1 293 c0 207 -4 300 -12 315 -7 12 -17 46 -22 75 -6 29 -16 67
-24 83 -46 103 -64 137 -105 199 -54 81 -178 209 -248 254 -26 18 -57 39 -68
47 -10 8 -27 15 -36 15 -9 0 -22 6 -28 14 -7 8 -27 18 -44 22 -18 3 -41 13
-52 20 -11 8 -32 14 -48 14 -72 0 -68 -19 -66 373 2 265 -1 358 -10 376 -18
32 -81 101 -94 101 -6 0 -18 7 -28 16 -31 28 -117 28 -174 0z m203 -1261 c27
-28 48 -42 58 -38 10 4 37 -17 80 -60 43 -44 70 -64 80 -60 22 8 84 -55 84
-87 0 -14 8 -30 20 -38 22 -13 28 -163 7 -189 -14 -18 -927 -19 -945 -1 -15
15 -16 87 -2 124 16 40 256 278 274 271 10 -4 37 16 77 57 l62 63 81 1 81 1
43 -44z"/>
<path d="M2030 16886 c-14 -7 -41 -16 -61 -20 -21 -4 -42 -13 -49 -21 -7 -8
-18 -15 -25 -15 -15 0 -131 -112 -161 -155 -87 -125 -108 -353 -44 -472 11
-21 20 -42 20 -47 0 -11 65 -91 100 -124 39 -37 105 -79 163 -104 l52 -23
1100 0 c1004 0 1102 1 1125 16 14 10 36 20 50 24 35 11 76 41 141 105 62 62
79 88 125 200 26 61 26 255 1 293 -9 15 -17 35 -17 45 0 10 -11 33 -25 52 -14
19 -25 38 -25 43 0 5 -27 36 -59 68 -63 62 -106 89 -211 130 -51 20 -2162 25
-2200 5z"/>
<path d="M16240 16885 c-14 -8 -32 -14 -42 -15 -56 -1 -220 -130 -261 -206
-62 -114 -72 -151 -72 -270 0 -116 0 -115 63 -239 39 -77 189 -215 233 -215 8
0 26 -8 39 -17 23 -17 93 -18 1125 -18 l1100 0 54 24 c113 49 243 167 266 241
4 14 14 35 22 48 21 33 33 170 24 254 -22 185 -145 328 -351 409 -54 21 -2164
25 -2200 4z"/>
<path d="M2149 15449 c-1 -8 -2 -359 -3 -781 -1 -680 0 -768 14 -768 86 -3
735 2 739 5 2 3 2 87 0 187 -2 101 -4 282 -4 404 l0 220 43 52 c116 138 303
117 389 -43 l24 -46 -7 -388 c-7 -371 -6 -389 11 -392 10 -2 182 -2 382 1
l364 5 0 764 c0 630 -3 767 -14 778 -11 11 -34 12 -128 3 -126 -13 -1719 -8
-1776 5 -25 5 -33 4 -34 -6z"/>
<path d="M16362 15447 c-10 -11 -13 -190 -13 -778 l0 -764 364 -5 c200 -3 371
-4 380 -2 15 3 16 36 10 396 l-6 393 23 39 c29 48 84 104 102 104 8 0 24 7 37
17 69 48 209 -8 276 -111 16 -24 21 -405 11 -791 l-1 -40 370 -5 c204 -3 376
-3 383 -1 14 4 18 1526 4 1548 -6 9 -37 10 -136 2 -139 -11 -1695 -6 -1757 6
-25 5 -39 3 -47 -8z"/>
<path d="M2153 13458 c-9 -13 -12 -1784 -3 -1790 3 -2 171 -2 373 0 l368 3 7
22 c5 12 4 171 0 352 -12 463 -9 483 99 555 106 72 255 28 328 -96 l28 -48 -7
-387 c-6 -290 -5 -389 4 -394 11 -7 741 -8 747 -1 6 5 4 1768 -1 1774 -3 2
-432 5 -953 6 -521 0 -955 5 -964 9 -10 5 -20 3 -26 -5z m586 -521 c8 -11 5
-19 -15 -36 -15 -13 -23 -28 -20 -39 8 -24 -57 -87 -71 -70 -14 17 -14 129 -1
146 14 16 93 16 107 -1z m838 1 c13 -16 14 -130 2 -149 -17 -27 -79 48 -79 96
0 58 48 90 77 53z"/>
<path d="M18175 13459 c-55 -5 -486 -8 -957 -7 -472 1 -860 0 -863 -4 -6 -5
-8 -1768 -3 -1774 7 -6 737 -6 747 1 8 5 10 114 5 398 l-6 392 37 55 c98 147
291 153 389 12 33 -49 33 -50 27 -540 -2 -168 0 -307 5 -312 10 -10 732 -16
741 -6 11 10 10 1769 0 1784 -5 6 -12 11 -16 10 -3 0 -51 -5 -106 -9z m-1237
-521 c25 -25 14 -90 -20 -125 -59 -61 -98 -40 -98 52 0 72 10 85 65 85 23 0
46 -5 53 -12z m840 0 c16 -16 15 -93 -1 -107 -18 -14 -37 5 -37 39 0 15 -9 31
-21 38 -16 11 -18 16 -9 28 15 17 52 18 68 2z"/>
<path d="M2145 10344 l1 -886 373 0 c205 0 376 4 380 8 4 5 4 164 -1 354 -9
389 -6 446 25 488 113 152 308 142 401 -22 l28 -49 -3 -389 -4 -390 373 0
c205 0 375 2 378 5 3 3 7 1522 4 1755 0 9 -202 12 -978 12 l-977 0 0 -886z
m572 373 l33 -34 -25 -21 c-15 -13 -22 -28 -18 -37 8 -22 -56 -88 -72 -75 -15
13 -18 170 -3 187 18 22 52 14 85 -20z m861 21 c14 -14 16 -126 3 -147 -14
-22 -41 4 -41 38 0 16 -8 31 -21 40 l-22 13 27 24 c14 14 26 29 26 34 0 14 14
12 28 -2z"/>
<path d="M16350 11223 c-3 -86 1 -1757 4 -1760 2 -3 172 -5 378 -5 l373 -1 -4
389 -4 389 26 50 c29 54 79 100 121 111 14 3 29 10 32 15 16 27 144 -4 198
-49 84 -69 85 -74 77 -527 -4 -198 -4 -364 0 -369 4 -4 175 -8 380 -8 l373 0
0 884 0 883 -977 3 c-537 1 -977 -1 -977 -5z m567 -506 l33 -34 -25 -21 c-15
-13 -22 -28 -19 -37 14 -35 -46 -61 -74 -33 -7 7 -12 39 -12 73 0 92 38 113
97 52z m861 21 c14 -14 16 -126 3 -147 -14 -22 -41 4 -41 38 0 16 -8 31 -21
40 l-22 13 27 24 c14 14 26 29 26 34 0 14 14 12 28 -2z"/>
<path d="M5475 10541 c-32 -7 -100 -35 -125 -51 -8 -5 -30 -16 -48 -24 -37
-17 -187 -164 -202 -198 -5 -13 -14 -30 -19 -38 -60 -97 -82 -231 -64 -392 7
-64 17 -106 27 -117 9 -10 16 -24 16 -33 0 -8 9 -27 20 -41 11 -14 20 -29 20
-34 0 -11 63 -87 104 -124 50 -48 65 -58 122 -89 32 -17 62 -34 68 -40 43 -35
16 -35 4831 -35 4935 0 4756 -2 4841 44 21 12 43 21 47 21 5 0 21 9 35 20 15
11 38 28 50 38 72 53 144 140 183 222 42 88 48 112 55 205 14 211 -38 355
-178 497 -42 43 -92 85 -110 93 -18 9 -40 19 -48 24 -8 5 -35 20 -60 33 l-45
23 -4745 1 c-2610 1 -4758 -2 -4775 -5z m9273 -495 c19 -22 26 -24 76 -19 110
11 170 -101 93 -175 -31 -30 -34 -31 -111 -28 -72 3 -80 2 -99 -20 l-21 -24
-4461 0 -4461 0 -21 24 c-19 22 -27 23 -99 20 -76 -3 -78 -2 -111 29 -76 74
-19 183 91 172 51 -5 58 -3 78 20 l22 25 4501 0 4501 0 22 -24z"/>
<path d="M3490 9009 c-2276 -6 -2298 -6 -2341 -44 -8 -8 -23 -15 -31 -15 -21
0 -112 -70 -166 -129 -42 -45 -59 -70 -82 -121 -7 -14 -19 -40 -28 -59 -14
-28 -17 -65 -17 -185 1 -164 -4 -145 75 -297 41 -79 197 -201 274 -216 17 -3
43 -12 57 -19 22 -11 441 -13 2289 -14 l2263 -2 0 545 c-1 300 -4 550 -7 556
-4 6 -24 10 -44 9 -20 -2 -1029 -5 -2242 -9z m1766 -510 c20 -16 18 -93 -3
-110 -9 -8 -18 -10 -20 -4 -2 6 -7 16 -11 23 -7 10 -391 12 -1912 12 -1393 0
-1907 3 -1917 11 -23 20 5 39 56 39 35 0 49 5 59 20 12 19 29 20 1873 20 1372
0 1865 -3 1875 -11z"/>
<path d="M14673 9007 c-3 -5 -5 -254 -5 -554 l-1 -545 2263 2 c1856 1 2267 3
2289 14 14 7 42 16 62 20 21 4 42 13 49 21 7 8 18 15 24 15 51 1 172 128 227
239 l44 86 3 134 c4 137 -18 235 -65 292 -7 8 -13 20 -13 25 -1 28 -165 176
-210 189 -14 4 -32 13 -41 21 -49 43 -106 44 -2422 47 -1210 1 -2201 -2 -2204
-6z m4269 -517 c10 -15 24 -20 59 -20 51 0 79 -19 56 -39 -10 -8 -524 -11
-1917 -11 -1895 0 -1903 0 -1917 -20 -16 -22 -53 -26 -71 -8 -16 16 -16 90 0
106 9 9 435 12 1895 12 1866 0 1883 -1 1895 -20z"/>
<path d="M6228 8863 c-2 -5 -1 -1605 2 -3558 3 -1952 2 -3556 -1 -3564 -7 -15
-436 -24 -445 -9 -3 5 -3 5279 0 5651 l1 78 -2250 0 c-2251 -1 -2316 0 -2407
35 -33 13 -51 15 -58 8 -12 -12 -15 -5382 -3 -5626 l6 -137 -24 -9 c-13 -6
-62 -15 -108 -21 -46 -6 -91 -17 -100 -25 -9 -7 -26 -17 -38 -20 -26 -8 -127
-107 -147 -145 -65 -117 -64 -110 -69 -567 -3 -231 -2 -426 2 -432 5 -9 38 -9
132 -2 170 13 18838 13 19008 0 94 -7 127 -7 132 2 4 6 5 201 2 432 -5 458 -4
450 -69 568 -16 29 -143 148 -158 148 -5 0 -17 7 -26 15 -10 9 -54 20 -101 26
-46 6 -95 15 -108 21 l-24 9 7 132 c11 234 8 5619 -4 5631 -7 7 -25 5 -58 -8
-91 -35 -156 -36 -2407 -35 l-2250 0 1 -83 c3 -485 3 -5642 -1 -5646 -14 -14
-437 -7 -443 8 -4 8 -5 1613 -2 3565 3 1953 4 3553 2 3558 -2 4 -1800 7 -3997
7 -2197 0 -3995 -3 -3997 -7z m7490 -507 l32 -33 0 -3243 c0 -2468 3 -3245 11
-3251 7 -4 18 -5 26 -2 25 10 43 -18 43 -66 0 -36 5 -49 21 -59 14 -9 19 -20
16 -33 -4 -14 8 -32 40 -64 29 -27 44 -49 40 -59 -8 -21 178 -207 199 -199 10
4 32 -11 60 -40 l44 -46 56 6 c51 5 58 4 79 -20 33 -35 87 -35 120 0 21 24 28
25 79 20 l56 -6 44 46 c28 29 50 44 60 40 20 -8 167 139 159 159 -4 10 11 32
40 60 30 29 44 50 40 60 -4 10 10 31 40 59 42 41 45 48 40 83 -4 32 -1 42 16
54 l21 15 0 2543 c0 1873 3 2546 11 2556 17 21 3811 21 3828 0 8 -10 11 -680
11 -2547 0 -1394 0 -2539 0 -2546 0 -6 9 -15 20 -18 17 -5 20 -15 20 -58 0
-42 4 -55 21 -65 14 -9 19 -20 16 -33 -4 -14 8 -32 40 -64 29 -27 44 -49 40
-59 -4 -10 32 -53 109 -130 129 -129 130 -131 132 -270 3 -133 10 -128 -165
-125 -138 3 -144 2 -159 -19 -23 -33 -454 -34 -477 -2 -22 32 -3022 32 -3044
0 -22 -31 -494 -31 -516 0 -23 32 -1101 32 -1124 0 -22 -31 -294 -31 -316 0
-23 32 -1101 32 -1124 0 -22 -31 -294 -31 -316 0 -22 32 -3742 32 -3764 0 -22
-31 -294 -31 -316 0 -23 32 -1141 32 -1164 0 -22 -31 -294 -31 -316 0 -14 20
-23 21 -562 21 -539 0 -548 -1 -562 -21 -22 -31 -454 -31 -476 0 -22 32 -3022
32 -3044 0 -23 -32 -454 -31 -477 2 -15 21 -21 21 -179 19 -198 -3 -188 -9
-186 125 l2 99 143 143 c97 97 141 148 137 158 -4 10 11 32 40 60 30 29 44 50
40 60 -4 10 4 25 20 40 l26 24 1 2595 c0 1427 3 2601 6 2610 9 22 3845 23
3863 1 8 -10 11 -680 11 -2547 0 -1394 0 -2539 0 -2546 0 -6 9 -15 20 -18 17
-5 20 -15 20 -58 0 -42 4 -55 21 -65 14 -9 19 -20 16 -33 -4 -15 12 -36 59
-82 44 -41 64 -68 60 -79 -6 -24 139 -169 160 -161 10 4 32 -11 60 -40 l44
-46 56 6 c51 5 58 4 79 -20 33 -35 87 -35 120 0 21 24 28 25 79 20 l56 -6 44
46 c28 29 50 44 60 40 22 -9 166 137 159 161 -3 12 9 31 36 55 25 22 41 46 41
59 0 14 18 40 44 65 41 39 44 45 39 81 -4 32 -1 42 16 54 l21 15 0 3243 0
3243 32 33 33 34 3480 0 3480 0 33 -34z"/>
<path d="M10073 7132 c-7 -7 -13 -18 -13 -23 0 -7 -39 -10 -102 -9 -133 2
-126 3 -133 -21 -6 -18 -14 -20 -76 -17 -63 2 -71 0 -85 -21 -14 -20 -23 -22
-56 -18 -33 4 -43 1 -61 -19 -12 -14 -32 -24 -46 -24 -15 0 -31 -8 -39 -20 -7
-12 -23 -20 -40 -20 -16 0 -32 -8 -40 -20 -7 -12 -23 -20 -40 -20 -17 0 -32
-8 -40 -21 -9 -14 -20 -19 -33 -16 -14 4 -32 -8 -64 -40 -26 -28 -49 -43 -58
-40 -22 8 -563 -536 -559 -562 2 -12 -5 -25 -17 -33 -13 -8 -21 -23 -21 -40 0
-17 -8 -33 -20 -40 -12 -8 -20 -24 -20 -40 0 -17 -8 -33 -20 -40 -12 -8 -20
-24 -20 -40 0 -17 -8 -33 -20 -40 -12 -8 -20 -24 -20 -40 0 -17 -8 -33 -20
-40 -12 -8 -20 -24 -20 -40 0 -17 -8 -33 -20 -40 -12 -8 -20 -24 -20 -40 0
-16 -9 -33 -22 -42 -20 -14 -22 -23 -20 -81 3 -56 1 -66 -17 -77 l-21 -13 0
-1890 c0 -1879 0 -1890 20 -1903 12 -7 20 -23 20 -40 0 -17 8 -32 21 -40 12
-8 19 -21 17 -33 -4 -27 296 -331 319 -322 9 3 25 -5 38 -20 20 -21 30 -24 63
-20 32 4 42 1 54 -16 l15 -21 1388 0 1388 0 15 21 c12 17 22 20 54 16 33 -4
43 -1 63 20 13 15 29 23 38 20 23 -9 323 295 319 322 -2 12 5 25 17 33 13 8
21 23 21 40 0 17 8 33 20 40 20 13 20 24 20 1845 0 1349 -3 1832 -11 1835 -13
4 -28 81 -28 148 -1 34 -6 48 -21 58 -15 9 -20 23 -20 60 0 36 -5 50 -20 60
-13 8 -20 23 -20 42 0 17 -4 30 -9 30 -12 0 -31 55 -31 89 0 15 -8 31 -20 39
-12 7 -20 23 -20 40 0 16 -8 32 -20 40 -11 7 -20 23 -20 37 0 17 -14 37 -40
61 -25 23 -40 45 -40 60 0 15 -15 37 -41 61 -26 24 -39 43 -36 54 7 25 -414
445 -441 441 -12 -2 -33 13 -55 38 -24 25 -46 40 -61 40 -15 0 -37 15 -60 40
-24 26 -44 40 -61 40 -14 0 -30 9 -37 20 -8 12 -24 20 -40 20 -17 0 -33 8 -40
20 -8 12 -24 20 -39 20 -14 0 -34 10 -46 24 -18 20 -28 23 -61 19 -33 -4 -42
-2 -56 18 -14 21 -22 23 -85 21 -62 -3 -70 -1 -76 17 -7 24 -1 23 -132 21 -94
-1 -102 0 -108 19 -3 12 -9 21 -13 22 -90 7 -288 2 -299 -9z m452 -482 c17 -7
57 -18 90 -25 67 -15 139 -38 200 -65 22 -10 47 -20 55 -24 8 -3 22 -10 30
-15 8 -5 26 -14 40 -20 14 -6 43 -22 65 -36 22 -13 50 -29 62 -34 12 -6 30
-17 40 -26 10 -9 47 -39 83 -66 102 -79 245 -224 274 -277 5 -9 24 -35 41 -57
32 -39 49 -68 79 -132 9 -17 20 -34 25 -37 5 -4 12 -19 16 -35 3 -16 13 -35
20 -41 8 -7 17 -27 21 -46 3 -19 15 -51 25 -71 11 -21 19 -46 19 -56 0 -10 7
-31 15 -47 8 -15 17 -55 21 -87 3 -32 12 -78 20 -103 16 -53 24 -3605 8 -3619
-5 -4 -54 -4 -109 0 -130 9 -2750 9 -2880 0 -55 -4 -104 -4 -109 0 -16 14 -8
3566 8 3619 8 25 17 71 20 103 4 32 13 71 20 85 8 15 17 46 21 69 4 24 11 45
16 48 4 3 13 25 20 48 6 23 17 49 24 57 7 8 16 25 19 37 4 13 19 43 34 69 15
25 34 58 42 73 14 26 39 61 113 159 59 77 239 252 259 252 6 0 18 7 27 15 9 8
26 23 39 35 12 11 33 25 45 31 12 5 40 21 62 34 72 43 217 111 260 121 17 4
39 13 50 20 11 7 45 16 75 20 30 4 64 11 74 17 56 28 557 35 621 7z"/>
<path d="M3193 5692 c-7 -7 -13 -18 -13 -23 0 -5 -33 -9 -73 -9 -61 0 -74 -3
-85 -20 -9 -15 -23 -20 -60 -20 -36 0 -50 -5 -60 -20 -7 -12 -23 -20 -40 -20
-16 0 -32 -8 -40 -20 -7 -12 -23 -20 -40 -20 -16 0 -32 -8 -40 -20 -7 -12 -23
-20 -40 -20 -17 0 -32 -8 -40 -21 -9 -14 -20 -19 -33 -16 -15 4 -36 -12 -82
-59 -41 -44 -68 -64 -79 -61 -25 7 -288 -256 -281 -281 3 -12 -9 -31 -36 -55
-26 -24 -41 -46 -41 -61 0 -15 -15 -37 -40 -60 -26 -24 -40 -44 -40 -61 0 -14
-9 -30 -20 -37 -12 -8 -20 -24 -20 -40 0 -17 -8 -33 -20 -40 -12 -8 -20 -24
-20 -40 0 -17 -8 -33 -20 -40 -15 -10 -20 -24 -20 -60 0 -37 -5 -51 -20 -60
-15 -10 -20 -24 -20 -60 0 -48 -14 -98 -31 -108 -5 -4 -9 -515 -9 -1294 0
-1282 0 -1289 20 -1303 12 -8 20 -25 20 -41 0 -17 8 -32 21 -40 14 -9 19 -20
16 -32 -7 -26 296 -332 320 -323 9 3 24 -5 38 -20 20 -21 30 -24 63 -20 32 4
42 1 54 -16 l15 -21 1028 0 1028 0 15 21 c12 17 21 20 53 15 35 -6 41 -3 83
40 28 30 50 45 60 41 21 -8 207 178 199 199 -4 10 11 32 40 59 32 32 44 50 40
64 -3 13 2 24 16 33 l21 13 0 1370 c0 1359 0 1370 -20 1383 -15 9 -20 23 -20
60 0 36 -5 50 -20 60 -12 7 -20 23 -20 40 0 16 -8 32 -20 40 -12 7 -20 23 -20
40 0 16 -8 32 -20 40 -12 7 -20 23 -20 40 0 16 -8 32 -20 40 -11 7 -20 23 -20
37 0 17 -14 37 -40 62 -25 22 -40 43 -38 55 4 25 -418 449 -439 441 -9 -3 -32
12 -58 40 -32 32 -50 44 -64 40 -13 -3 -24 2 -33 16 -8 13 -23 21 -40 21 -17
0 -33 8 -40 20 -8 12 -24 20 -39 20 -14 0 -34 10 -46 24 -18 20 -28 23 -61 19
-33 -4 -42 -2 -55 18 -16 21 -22 23 -106 20 -83 -2 -90 -1 -96 18 -3 12 -9 21
-13 21 -190 7 -408 3 -419 -8z m441 -461 c43 -7 91 -18 107 -26 15 -8 36 -15
45 -15 17 0 59 -17 154 -63 97 -46 219 -135 305 -222 86 -85 205 -246 220
-297 4 -13 13 -30 20 -38 7 -8 18 -34 24 -57 7 -23 16 -45 21 -48 5 -3 12 -27
16 -53 4 -26 14 -60 23 -77 14 -27 17 -154 22 -1285 3 -690 9 -1264 13 -1275
18 -50 -7 -54 -269 -43 -185 7 -1857 4 -2053 -4 -18 -1 -36 3 -40 8 -4 5 -4
556 -1 1224 6 1230 10 1354 44 1420 8 16 15 39 15 50 0 20 19 66 74 180 74
154 242 340 401 445 86 56 249 135 279 135 9 0 29 6 44 14 16 8 70 19 121 25
52 6 96 13 100 17 8 8 220 -2 315 -15z"/>
<path d="M16833 5692 c-7 -7 -13 -18 -13 -23 0 -6 -35 -9 -90 -8 -85 3 -91 1
-107 -20 -13 -20 -22 -22 -55 -18 -33 4 -43 1 -61 -19 -12 -14 -32 -24 -46
-24 -15 0 -31 -8 -39 -20 -7 -12 -23 -20 -40 -20 -17 0 -32 -8 -40 -21 -9 -14
-20 -19 -33 -16 -14 4 -32 -8 -64 -40 -28 -30 -49 -44 -59 -40 -11 4 -36 -15
-78 -59 -42 -44 -69 -64 -80 -60 -23 5 -129 -99 -121 -120 7 -18 -15 -45 -36
-43 -34 3 -41 -2 -41 -29 0 -21 -15 -43 -65 -90 -43 -42 -62 -67 -58 -78 4
-10 -10 -31 -40 -59 -31 -31 -44 -50 -40 -64 3 -11 -3 -24 -15 -32 -12 -9 -22
-32 -26 -62 -6 -36 -17 -57 -46 -89 -31 -32 -38 -46 -34 -65 9 -33 -4 -89 -24
-109 -16 -16 -17 -110 -19 -1395 l-3 -1378 66 -65 c43 -42 64 -70 61 -80 -8
-21 179 -207 199 -199 10 4 32 -11 60 -41 42 -43 48 -46 83 -40 32 5 41 2 53
-15 l15 -21 1028 0 1028 0 15 21 c12 17 22 20 54 16 33 -4 43 -1 63 20 14 15
29 23 38 20 22 -8 288 258 280 279 -4 10 11 32 40 60 l47 45 -3 1379 -2 1380
-22 15 c-18 13 -23 26 -23 63 0 36 -5 50 -20 60 -13 8 -20 23 -20 42 0 17 -4
30 -10 30 -11 0 -33 77 -25 90 3 5 -15 28 -40 52 -30 29 -45 51 -45 68 0 15
-9 31 -21 38 -13 9 -19 20 -16 32 3 13 -11 35 -43 69 -54 57 -57 58 -76 34
-10 -15 -15 -16 -26 -5 -11 11 -10 15 3 25 43 32 34 49 -86 170 -79 79 -121
114 -133 111 -11 -4 -38 16 -79 60 -46 47 -67 63 -82 59 -13 -3 -24 2 -33 16
-8 13 -23 21 -40 21 -17 0 -33 8 -40 20 -8 12 -24 20 -40 20 -17 0 -33 8 -40
20 -8 12 -24 20 -40 20 -17 0 -33 8 -40 20 -10 15 -24 20 -60 20 -37 0 -51 5
-60 20 -11 17 -24 20 -85 20 -63 0 -72 2 -78 20 -3 11 -9 20 -13 20 -156 8
-408 3 -419 -8z m405 -461 c46 -6 96 -18 112 -26 16 -8 37 -15 46 -15 17 0 59
-17 154 -63 127 -61 316 -215 414 -337 25 -31 87 -131 102 -162 8 -18 18 -40
24 -48 22 -36 60 -131 60 -150 0 -11 7 -34 15 -50 39 -74 43 -234 47 -1807 3
-824 3 -832 -17 -841 -11 -5 -100 -5 -200 -1 -249 10 -1698 10 -1930 -1 -238
-10 -226 -17 -214 125 4 55 9 613 9 1240 1 627 5 1160 10 1185 15 76 40 164
54 190 8 14 17 39 20 57 4 17 13 37 21 43 7 6 16 22 19 36 4 14 21 46 39 73
18 26 37 54 42 63 37 57 59 83 139 163 87 87 209 176 306 222 95 46 137 63
154 63 9 0 29 6 44 14 15 8 67 19 116 25 49 6 92 13 95 17 8 8 217 -2 319 -15z"/>
<path d="M7451 5143 c-80 -3 -97 -7 -108 -23 -8 -12 -26 -20 -41 -20 -16 0
-32 -8 -40 -20 -7 -11 -22 -20 -35 -20 -32 0 -363 -331 -359 -359 2 -12 -5
-25 -17 -33 l-21 -13 0 -1470 0 -1470 21 -13 c14 -9 19 -20 16 -33 -4 -14 12
-37 60 -84 42 -41 64 -69 60 -79 -8 -20 99 -127 119 -119 10 4 38 -18 80 -60
l64 -66 56 6 c51 5 58 4 79 -20 33 -35 87 -35 120 0 21 24 28 25 79 20 l56 -6
44 46 c28 29 50 44 60 40 10 -4 47 26 110 89 l95 95 -6 49 c-7 56 9 71 53 52
23 -11 24 -10 24 23 0 24 7 39 23 50 l22 15 0 1465 0 1465 -23 16 c-15 10 -22
23 -19 35 3 11 -6 30 -23 49 -28 31 -50 33 -50 4 0 -19 -24 -18 -41 2 -11 14
-10 18 9 33 l23 17 -150 149 c-100 100 -156 149 -169 147 -10 -1 -28 9 -40 23
-12 14 -25 24 -29 23 -5 -1 -50 -4 -102 -5z m131 -460 c22 -15 43 -34 46 -43
3 -8 14 -26 24 -40 17 -24 18 -98 19 -1443 0 -780 -2 -1421 -5 -1424 -7 -7
-434 -8 -441 -1 -3 3 -5 641 -5 1419 0 1398 0 1414 20 1441 11 15 20 31 20 37
0 16 79 73 113 82 63 16 166 3 209 -28z"/>
<path d="M12864 5121 c-13 -14 -28 -21 -38 -18 -11 4 -36 -14 -78 -59 -43 -44
-69 -64 -80 -60 -24 6 -88 -58 -82 -82 4 -12 -21 -43 -80 -99 -63 -62 -83 -88
-79 -102 3 -13 -2 -24 -16 -33 -13 -8 -21 -23 -21 -40 0 -17 -8 -33 -20 -40
-20 -13 -20 -24 -20 -1385 0 -832 4 -1373 9 -1373 15 0 34 -70 28 -105 -5 -29
0 -39 43 -84 52 -54 70 -63 70 -32 0 28 17 35 29 12 8 -15 7 -23 -3 -33 -37
-37 -30 -52 69 -151 64 -63 101 -94 111 -90 10 4 32 -11 60 -40 l44 -46 56 6
c51 5 58 4 79 -20 33 -35 87 -35 120 0 21 24 28 25 79 20 l56 -6 64 66 c42 42
70 64 80 60 20 -8 127 99 119 119 -4 10 11 32 40 60 30 29 44 50 40 60 -4 10
9 29 36 55 l41 39 0 1447 c0 1432 0 1446 -20 1460 -12 8 -20 26 -20 41 0 17
-8 32 -21 40 -12 8 -19 21 -17 33 4 29 -296 329 -322 322 -12 -3 -23 3 -32 16
-8 13 -23 21 -40 21 -15 0 -33 8 -40 19 -23 33 -214 34 -244 2z m208 -410 c49
-11 96 -52 130 -112 l28 -48 -2 -1412 -3 -1412 -220 0 -220 0 -11 24 c-7 16
-8 66 -3 154 5 72 8 703 7 1403 l0 1273 26 38 c60 86 154 118 268 92z"/>
</g>
</svg>
