<?xml version="1.0" standalone="no"?>
<!DOCTYPE svg PUBLIC "-//W3C//DTD SVG 20010904//EN"
 "http://www.w3.org/TR/2001/REC-SVG-20010904/DTD/svg10.dtd">
<svg version="1.0" xmlns="http://www.w3.org/2000/svg"
 width="512.000000pt" height="512.000000pt" viewBox="0 0 512.000000 512.000000"
 preserveAspectRatio="xMidYMid meet">
<g transform="translate(0.000000,512.000000) scale(0.100000,-0.100000)"
fill="#000000" stroke="none">
<path d="M2321 4955 c-148 -85 -237 -215 -261 -383 -35 -250 138 -500 385
-557 l50 -11 3 -127 3 -127 -44 0 c-71 0 -233 -46 -331 -94 -318 -155 -528
-462 -561 -818 l-7 -78 1002 0 1002 0 -7 78 c-16 174 -78 346 -175 486 -60 86
-189 214 -273 269 -123 81 -286 141 -420 154 l-68 6 3 126 3 125 44 8 c78 13
187 72 250 136 60 59 127 173 117 198 -7 19 -40 18 -57 -2 -23 -28 -125 -73
-193 -85 -156 -29 -325 48 -415 189 -89 141 -79 341 24 476 45 59 5 76 -74 31z
m27 -1421 c24 -17 30 -65 9 -82 -6 -6 -36 -20 -66 -32 -51 -20 -153 -83 -214
-132 -26 -21 -30 -22 -55 -7 -34 18 -41 62 -15 91 35 39 145 111 221 144 89
39 90 39 120 18z m-394 -320 c20 -19 20 -37 1 -73 -23 -46 -74 -56 -99 -19
-20 29 -20 36 4 76 15 24 27 32 49 32 16 0 37 -7 45 -16z"/>
<path d="M752 4884 c-20 -14 -22 -23 -22 -105 l0 -89 -45 -21 c-56 -26 -117
-94 -133 -147 -7 -22 -12 -71 -12 -111 l0 -71 245 0 245 0 0 63 c0 127 -54
226 -145 263 l-45 19 0 88 c0 74 -3 90 -20 107 -24 24 -38 25 -68 4z"/>
<path d="M4300 4880 c-17 -17 -20 -33 -20 -107 l0 -88 -45 -19 c-91 -37 -145
-136 -145 -263 l0 -63 245 0 245 0 0 78 c-1 122 -44 198 -142 248 l-48 24 0
90 c0 81 -2 90 -22 104 -30 21 -44 20 -68 -4z"/>
<path d="M484 4211 c-18 -11 -39 -30 -48 -42 -20 -29 -21 -91 -1 -129 30 -57
46 -60 353 -60 268 0 280 1 306 21 56 44 70 110 36 167 -35 58 -59 62 -352 62
-241 0 -266 -2 -294 -19z"/>
<path d="M4033 4210 c-74 -45 -83 -139 -19 -197 l36 -33 282 0 c211 1 289 4
306 14 60 33 82 128 41 180 -42 54 -56 56 -346 56 -248 0 -270 -2 -300 -20z"/>
<path d="M540 3670 l0 -190 95 0 95 0 0 104 c0 97 2 106 22 120 30 21 44 20
68 -4 17 -17 20 -33 20 -120 l0 -100 95 0 95 0 0 190 0 190 -245 0 -245 0 0
-190z"/>
<path d="M4090 3670 l0 -190 95 0 95 0 0 100 c0 87 3 103 20 120 24 24 38 25
68 4 20 -14 22 -23 22 -120 l0 -104 95 0 95 0 0 190 0 190 -245 0 -245 0 0
-190z"/>
<path d="M540 3145 l0 -226 93 3 92 3 5 108 c5 113 11 127 56 127 43 0 54 -29
54 -139 l0 -102 93 3 92 3 0 220 0 220 -242 3 -243 2 0 -225z"/>
<path d="M4094 3357 c-2 -7 -3 -107 -2 -222 l3 -210 93 -3 92 -3 0 104 c0 88
3 106 18 120 21 19 49 22 72 7 11 -7 16 -36 20 -117 l5 -108 93 -3 92 -3 0
226 0 225 -240 0 c-186 0 -242 -3 -246 -13z"/>
<path d="M540 2590 l0 -220 95 0 95 0 0 105 c0 99 1 105 24 120 27 18 69 7 80
-20 3 -9 6 -59 6 -111 l0 -94 95 0 95 0 0 220 0 220 -245 0 -245 0 0 -220z"/>
<path d="M4090 2590 l0 -220 95 0 95 0 0 98 c0 109 10 135 53 135 50 0 57 -16
57 -129 l0 -104 95 0 95 0 0 220 0 220 -245 0 -245 0 0 -220z"/>
<path d="M1332 2620 c-52 -32 -74 -75 -70 -140 4 -62 25 -97 73 -127 29 -17
86 -18 1203 -21 757 -1 1187 1 1211 8 20 5 52 25 71 45 29 30 34 43 37 92 5
68 -16 111 -69 143 -32 20 -53 20 -1228 20 -1175 0 -1196 0 -1228 -20z"/>
<path d="M311 2250 c-85 -20 -129 -128 -82 -203 42 -69 26 -67 655 -67 l567 0
-3 138 -3 137 -550 2 c-302 0 -565 -3 -584 -7z"/>
<path d="M3677 2254 c-4 -4 -7 -67 -7 -141 l0 -133 566 0 c627 0 613 -1 654
65 38 62 17 150 -47 192 -25 17 -67 18 -593 21 -311 1 -569 0 -573 -4z"/>
<path d="M1560 1330 l0 -890 -55 0 -55 0 0 715 0 715 -574 0 c-316 0 -581 3
-590 6 -15 6 -16 -62 -16 -715 l0 -722 -29 -5 c-16 -4 -42 -19 -58 -36 -27
-28 -28 -34 -31 -144 l-4 -114 2412 0 2412 0 -4 114 c-3 110 -4 116 -31 144
-16 17 -42 32 -58 36 l-29 6 0 721 c0 653 -1 721 -16 715 -9 -3 -274 -6 -590
-6 l-574 0 0 -715 0 -715 -55 0 -55 0 0 890 0 890 -1000 0 -1000 0 0 -890z
m1165 305 c79 -38 149 -109 188 -193 l32 -67 3 -467 3 -468 -391 0 -391 0 3
468 3 467 31 65 c51 108 119 171 227 211 79 30 212 22 292 -16z m-1738 -351
c29 -14 70 -45 92 -70 68 -78 71 -96 71 -456 l0 -318 -295 0 -295 0 2 323 c3
312 4 324 26 372 73 158 244 222 399 149z m3393 4 c60 -25 124 -89 152 -152
22 -49 23 -62 26 -373 l3 -323 -296 0 -295 0 0 318 c0 356 3 377 66 451 88
102 220 133 344 79z m-2470 -127 c6 -13 10 -148 10 -370 l0 -351 -55 0 -55 0
0 354 c0 309 2 357 16 370 22 23 71 20 84 -3z m1384 3 c14 -13 16 -61 16 -370
l0 -354 -55 0 -55 0 0 358 c0 265 3 361 12 370 17 17 64 15 82 -4z"/>
</g>
</svg>
