<?xml version="1.0" standalone="no"?>
<!DOCTYPE svg PUBLIC "-//W3C//DTD SVG 20010904//EN"
 "http://www.w3.org/TR/2001/REC-SVG-20010904/DTD/svg10.dtd">
<svg version="1.0" xmlns="http://www.w3.org/2000/svg"
 width="512.000000pt" height="512.000000pt" viewBox="0 0 512.000000 512.000000"
 preserveAspectRatio="xMidYMid meet">
<g transform="translate(0.000000,512.000000) scale(0.100000,-0.100000)"
fill="#000000" stroke="none">
<path d="M2527 4888 c-34 -34 -657 -1130 -657 -1155 0 -26 25 -53 48 -53 9 0
158 36 331 79 l314 79 314 -79 c172 -43 320 -79 328 -79 20 0 45 29 45 53 0
24 -624 1121 -657 1155 -12 12 -27 22 -33 22 -6 0 -21 -10 -33 -22z"/>
<path d="M1705 3336 c-451 -128 -826 -235 -834 -237 -13 -5 1660 -479 1691
-479 17 0 1690 469 1697 476 2 2 2 4 -2 4 -3 0 -382 106 -841 235 -460 129
-848 234 -864 234 -15 -1 -396 -106 -847 -233z"/>
<path d="M800 2811 c0 -105 2 -191 4 -191 2 0 379 -117 838 -260 458 -143 841
-263 851 -266 16 -5 17 10 17 210 0 196 -2 215 -17 220 -10 3 -386 109 -837
235 -450 127 -827 233 -837 236 -18 6 -19 -2 -19 -184z"/>
<path d="M3465 2759 c-462 -131 -843 -238 -847 -238 -5 -1 -8 -98 -8 -217 0
-200 1 -215 18 -210 9 3 386 120 837 261 451 141 828 258 838 261 15 5 17 23
17 195 0 104 -3 188 -7 188 -5 -1 -386 -109 -848 -240z"/>
<path d="M800 2185 c0 -52 4 -97 10 -100 6 -3 10 -19 10 -35 0 -16 -4 -32 -10
-35 -6 -4 -10 -231 -10 -649 0 -555 2 -645 15 -656 12 -10 1663 -480 1687
-480 4 0 8 274 8 609 l0 609 -26 16 c-33 22 -31 76 4 91 20 9 22 16 22 97 0
48 -4 89 -9 92 -5 3 -384 123 -842 266 -459 143 -840 263 -846 265 -10 3 -13
-19 -13 -90z m241 -161 c30 -9 62 -23 72 -32 25 -22 21 -59 -8 -78 -23 -15
-29 -14 -90 6 -93 31 -116 60 -78 102 20 22 34 22 104 2z m298 -93 c67 -21
101 -44 101 -69 0 -23 -30 -52 -55 -52 -31 0 -138 38 -147 53 -15 23 -8 56 14
71 12 9 23 16 23 16 0 0 29 -9 64 -19z m309 -97 c67 -19 92 -38 92 -70 0 -25
-24 -54 -44 -54 -20 0 -127 39 -142 51 -20 16 -17 66 4 78 23 14 25 14 90 -5z
m318 -100 c78 -23 98 -48 74 -95 -13 -24 -50 -25 -116 -3 -80 27 -105 62 -68
98 19 20 42 20 110 0z m306 -95 c82 -24 102 -50 74 -94 -9 -14 -24 -25 -34
-25 -27 0 -128 34 -146 49 -21 17 -21 49 1 73 20 22 21 22 105 -3z"/>
<path d="M3463 2011 l-853 -266 0 -90 c0 -84 2 -91 23 -100 34 -15 36 -69 3
-91 l-26 -16 0 -609 c0 -335 4 -609 8 -609 5 0 384 106 843 235 581 163 837
239 846 251 10 14 13 154 13 647 0 608 -1 630 -19 654 -20 25 -19 45 6 74 10
12 13 40 11 101 l-3 85 -852 -266z m713 4 c27 -41 7 -69 -67 -94 -76 -25 -87
-26 -111 -4 -22 19 -24 56 -3 73 16 13 121 49 147 49 10 1 25 -10 34 -24z
m-308 -87 c16 -16 15 -63 0 -75 -20 -15 -108 -43 -138 -43 -33 0 -50 17 -50
51 0 32 7 37 70 61 54 20 102 22 118 6z m-308 -98 c40 -40 19 -71 -64 -100
-74 -25 -88 -25 -111 0 -15 16 -17 26 -9 48 7 22 22 31 74 49 82 27 86 27 110
3z m-301 -94 c7 -8 11 -27 9 -43 -3 -31 -21 -42 -104 -66 -46 -14 -54 -14 -73
-1 -24 17 -29 65 -8 82 16 14 106 40 138 41 15 1 32 -5 38 -13z m-309 -96 c42
-42 21 -74 -69 -102 -72 -23 -84 -22 -106 2 -15 16 -17 26 -9 48 8 22 22 31
74 49 82 27 86 27 110 3z"/>
</g>
</svg>
