<?xml version="1.0" standalone="no"?>
<!DOCTYPE svg PUBLIC "-//W3C//DTD SVG 20010904//EN"
 "http://www.w3.org/TR/2001/REC-SVG-20010904/DTD/svg10.dtd">
<svg version="1.0" xmlns="http://www.w3.org/2000/svg"
 width="2048.000000pt" height="2048.000000pt" viewBox="0 0 2048.000000 2048.000000"
 preserveAspectRatio="xMidYMid meet">
<g transform="translate(0.000000,2048.000000) scale(0.100000,-0.100000)"
fill="#000000" stroke="none">
<path d="M10166 19605 c-15 -8 -34 -15 -42 -15 -7 0 -31 -21 -54 -47 -40 -47
-54 -68 -84 -128 -8 -16 -36 -66 -61 -110 -25 -44 -52 -93 -61 -110 -8 -16
-26 -48 -40 -70 -13 -22 -31 -53 -40 -70 -8 -16 -25 -46 -37 -66 -12 -20 -37
-63 -56 -95 -19 -33 -40 -66 -46 -74 -7 -8 -16 -26 -20 -40 -4 -14 -13 -31
-19 -39 -11 -14 -77 -127 -98 -171 -7 -14 -16 -27 -20 -30 -4 -3 -14 -21 -23
-40 -9 -19 -26 -51 -38 -71 -71 -118 -87 -148 -87 -158 0 -6 -4 -11 -9 -11 -5
0 -16 -17 -26 -37 -19 -45 -40 -81 -79 -142 -16 -25 -35 -58 -43 -75 -8 -17
-25 -49 -38 -71 -14 -22 -30 -51 -37 -65 -7 -14 -23 -40 -35 -58 -12 -18 -31
-52 -43 -75 -12 -23 -33 -60 -46 -82 -13 -22 -29 -51 -36 -65 -6 -14 -17 -32
-24 -40 -7 -8 -26 -42 -44 -75 -17 -33 -42 -78 -56 -100 -13 -22 -31 -54 -41
-72 -10 -18 -41 -72 -69 -120 -28 -48 -54 -95 -58 -103 -4 -8 -18 -33 -31 -55
-14 -22 -32 -53 -41 -70 -8 -16 -26 -48 -40 -70 -13 -22 -31 -53 -40 -70 -8
-16 -25 -46 -37 -66 -12 -20 -37 -63 -56 -95 -19 -33 -40 -66 -46 -74 -7 -8
-16 -26 -20 -40 -4 -14 -13 -31 -19 -39 -11 -14 -77 -127 -98 -171 -7 -14 -16
-27 -20 -30 -4 -3 -14 -21 -23 -40 -9 -19 -26 -51 -38 -71 -71 -118 -87 -148
-87 -158 0 -6 -4 -11 -9 -11 -5 0 -16 -17 -26 -37 -19 -45 -40 -81 -79 -142
-16 -25 -35 -58 -43 -75 -8 -17 -25 -49 -39 -71 -13 -22 -30 -53 -38 -70 -8
-16 -18 -34 -23 -38 -8 -8 -67 -110 -99 -172 -8 -16 -25 -46 -37 -66 -71 -118
-87 -148 -87 -158 0 -6 -4 -11 -10 -11 -5 0 -17 -15 -25 -32 -18 -37 -43 -81
-67 -118 -107 -166 82 -385 272 -315 25 9 72 22 105 29 33 7 69 17 80 23 11 6
45 14 75 18 30 4 66 13 80 20 14 7 50 16 80 20 30 4 66 13 80 20 14 7 50 16
80 20 30 4 64 12 75 18 11 6 49 16 85 23 75 15 182 41 225 56 17 6 59 16 95
24 89 18 186 42 240 59 25 8 68 19 95 24 69 14 170 39 230 57 28 8 70 19 95
24 72 15 171 40 220 55 25 8 68 19 95 24 75 15 176 40 210 53 17 5 57 16 90
22 33 7 70 18 82 24 28 15 88 15 116 0 12 -6 51 -17 87 -23 36 -7 79 -17 95
-23 31 -12 128 -36 205 -52 25 -5 68 -16 95 -24 62 -19 159 -42 245 -60 36 -8
79 -19 95 -25 34 -12 136 -37 210 -52 28 -5 70 -16 95 -24 52 -16 148 -40 235
-59 33 -7 70 -18 82 -24 12 -7 32 -12 45 -12 13 0 48 -7 78 -15 30 -9 82 -22
115 -29 33 -7 69 -17 80 -23 11 -6 45 -14 75 -18 30 -4 66 -13 80 -20 14 -7
50 -16 80 -20 30 -4 66 -13 80 -20 14 -7 50 -16 80 -20 30 -4 64 -12 75 -18
11 -6 47 -16 80 -23 33 -7 80 -20 105 -29 95 -35 192 -6 260 79 46 59 51 186
9 240 -11 13 -19 27 -19 32 0 4 -16 32 -37 62 -20 30 -50 80 -66 111 -16 31
-35 63 -42 71 -7 8 -16 26 -20 38 -4 13 -20 44 -37 68 -16 25 -43 70 -60 102
-17 31 -36 64 -42 72 -7 8 -18 26 -24 40 -7 14 -23 43 -36 65 -13 22 -33 58
-45 80 -11 22 -31 56 -43 75 -12 19 -35 60 -51 90 -16 30 -35 62 -42 70 -7 8
-15 24 -19 35 -3 11 -22 44 -41 74 -19 29 -38 64 -41 77 -3 13 -10 24 -15 24
-5 0 -15 16 -24 36 -8 19 -28 56 -45 80 -16 25 -30 47 -30 50 0 4 -149 266
-207 362 -12 20 -28 51 -36 68 -8 17 -27 50 -43 75 -30 47 -37 60 -98 172 -21
40 -51 91 -67 115 -16 24 -29 47 -29 51 0 5 -9 19 -19 33 -11 13 -23 37 -26
51 -4 15 -11 27 -16 27 -5 0 -16 15 -24 33 -20 42 -87 161 -101 178 -6 8 -15
25 -19 37 -4 13 -20 44 -37 68 -16 25 -43 70 -60 102 -17 31 -36 64 -42 72 -7
8 -18 26 -24 40 -7 14 -23 43 -36 65 -13 22 -33 58 -45 80 -11 22 -31 56 -43
75 -12 19 -35 60 -51 90 -16 30 -35 62 -42 70 -7 8 -15 24 -19 35 -3 11 -22
44 -41 74 -19 29 -38 64 -41 77 -3 13 -10 24 -15 24 -5 0 -15 16 -24 36 -8 19
-28 56 -45 80 -16 25 -30 47 -30 50 0 4 -149 266 -207 362 -12 20 -28 51 -36
68 -8 17 -27 50 -43 75 -33 52 -46 74 -98 171 -21 40 -49 91 -62 113 -13 22
-28 50 -34 63 -44 100 -185 168 -264 127z m133 -790 c34 -35 51 -60 48 -70 -4
-9 10 -30 38 -57 30 -29 45 -51 45 -68 0 -14 9 -31 20 -38 12 -7 20 -23 20
-40 0 -17 8 -32 21 -40 14 -9 19 -20 16 -33 -4 -14 7 -32 39 -62 29 -28 44
-50 44 -67 0 -14 9 -31 20 -38 12 -7 20 -23 20 -40 0 -17 8 -32 21 -40 14 -9
19 -20 16 -33 -4 -14 7 -32 39 -62 29 -28 44 -50 44 -67 0 -14 9 -31 20 -38
12 -7 20 -23 20 -40 0 -16 8 -32 20 -40 11 -7 20 -23 20 -36 0 -14 15 -39 35
-60 19 -20 35 -45 35 -56 0 -11 11 -30 25 -42 15 -13 25 -32 25 -47 0 -16 8
-31 21 -39 14 -9 19 -20 16 -33 -4 -14 7 -32 39 -62 29 -28 44 -50 44 -67 0
-14 9 -31 20 -38 11 -7 20 -23 20 -37 0 -17 14 -37 40 -61 27 -25 40 -45 40
-63 0 -15 8 -31 20 -39 12 -7 20 -23 20 -40 0 -16 8 -32 20 -40 11 -7 20 -23
20 -37 0 -17 14 -37 40 -61 27 -25 40 -45 40 -63 0 -15 8 -31 20 -39 12 -7 20
-23 20 -40 0 -16 8 -32 20 -40 12 -7 20 -23 20 -40 0 -17 8 -32 21 -40 14 -9
19 -20 16 -33 -4 -14 7 -32 39 -62 29 -28 44 -50 44 -67 0 -14 9 -31 20 -38
12 -7 20 -23 20 -40 0 -17 8 -32 21 -40 14 -9 19 -20 16 -33 -4 -14 7 -32 39
-62 29 -28 44 -50 44 -67 0 -14 9 -31 20 -38 12 -7 20 -23 20 -40 0 -17 8 -32
21 -40 14 -9 19 -20 16 -33 -4 -14 7 -32 39 -62 29 -28 44 -50 44 -67 0 -14 9
-31 20 -38 12 -7 20 -23 20 -40 0 -17 8 -32 21 -40 14 -9 19 -20 16 -33 -4
-14 7 -32 39 -62 29 -28 44 -50 44 -67 0 -14 9 -31 20 -38 12 -7 20 -23 20
-40 0 -16 8 -32 20 -40 11 -7 20 -23 20 -36 0 -14 15 -39 35 -60 19 -20 35
-45 35 -56 0 -11 11 -30 25 -42 28 -24 37 -132 13 -156 -23 -23 -135 -15 -153
11 -14 20 -22 22 -99 19 -78 -3 -85 -2 -100 20 -14 20 -23 22 -80 20 -57 -3
-66 -1 -80 20 -14 20 -23 22 -80 20 -57 -3 -66 -1 -80 20 -14 20 -23 22 -80
20 -57 -3 -66 -1 -80 20 -14 20 -23 22 -80 20 -57 -3 -66 -1 -80 20 -14 20
-23 22 -80 20 -57 -3 -66 -1 -80 20 -14 20 -23 22 -80 20 -57 -3 -66 -1 -80
20 -14 20 -23 22 -80 20 -57 -3 -66 -1 -80 20 -14 20 -23 22 -80 20 -57 -3
-66 -1 -80 19 -14 21 -22 23 -100 20 -77 -2 -85 0 -99 20 -15 20 -139 29 -269
20 -4 -1 -10 -10 -13 -21 -6 -18 -15 -20 -98 -20 -81 0 -94 -2 -105 -20 -10
-17 -23 -20 -80 -20 -57 0 -69 -3 -80 -21 -12 -18 -21 -20 -98 -18 -78 3 -86
1 -100 -20 -14 -20 -23 -22 -80 -19 -57 2 -66 0 -80 -20 -14 -21 -23 -23 -80
-20 -57 2 -66 0 -80 -20 -14 -21 -23 -23 -80 -20 -57 2 -66 0 -80 -20 -14 -21
-23 -23 -80 -20 -57 2 -66 0 -80 -20 -14 -21 -23 -23 -80 -20 -57 2 -66 0 -80
-20 -14 -21 -23 -23 -80 -20 -57 2 -66 0 -80 -20 -15 -22 -22 -23 -100 -20
-77 3 -85 1 -99 -19 -14 -21 -24 -23 -98 -21 -45 0 -88 5 -94 11 -20 15 -15
55 7 69 12 8 20 24 20 40 0 17 8 33 20 40 12 8 20 24 20 40 0 17 8 33 20 40
12 8 20 24 20 39 0 18 13 38 40 63 26 24 40 44 40 61 0 14 9 30 20 37 12 8 20
24 20 40 0 17 8 33 20 40 12 8 20 24 20 40 0 17 8 33 20 40 12 8 20 24 20 39
0 18 13 38 40 63 26 24 40 44 40 61 0 14 9 30 20 37 11 7 20 24 20 38 0 17 15
39 44 67 32 30 43 48 39 62 -3 13 2 24 16 33 13 8 21 23 21 40 0 17 8 33 20
40 12 8 20 24 20 40 0 17 8 33 20 40 12 8 20 24 20 39 0 18 13 38 40 63 26 24
40 44 40 61 0 14 9 30 20 37 11 7 20 24 20 38 0 17 15 39 44 67 32 30 43 48
39 62 -3 13 2 24 16 33 13 8 21 23 21 40 0 17 8 33 20 40 12 8 20 24 20 40 0
17 8 33 20 40 11 7 20 24 20 38 0 17 15 39 44 67 32 30 43 48 39 62 -3 13 2
24 16 33 13 8 21 23 21 40 0 17 8 33 20 40 11 7 20 24 20 38 0 17 15 39 44 67
32 30 43 48 39 62 -3 13 2 24 16 33 12 7 21 23 21 38 0 17 15 39 44 67 32 30
43 48 39 62 -3 13 2 24 16 33 13 8 21 23 21 40 0 17 8 33 20 40 12 8 20 24 20
39 0 18 13 38 40 63 26 24 40 44 40 61 0 14 9 30 20 37 12 8 20 24 20 40 0 17
8 33 20 40 12 8 20 24 20 40 0 17 8 33 20 40 12 8 20 24 20 39 0 18 13 38 40
63 26 24 40 44 40 61 0 14 9 30 20 37 11 7 20 24 20 38 0 17 15 39 44 67 32
30 43 48 39 62 -3 13 2 24 16 33 12 7 21 23 21 38 0 17 15 39 44 67 32 30 43
48 39 62 -3 13 2 24 16 33 12 7 21 23 21 38 0 73 84 71 159 -5z m599 -833 c3
-27 0 -32 -17 -32 -14 0 -21 6 -21 19 0 56 33 67 38 13z m1280 -2240 c3 -27 0
-32 -17 -32 -14 0 -21 6 -21 19 0 56 33 67 38 13z"/>
<path d="M10150 14266 c-30 -7 -64 -17 -75 -23 -11 -6 -40 -14 -65 -18 -25 -4
-56 -13 -70 -20 -14 -7 -45 -16 -70 -20 -25 -4 -56 -13 -70 -20 -14 -7 -45
-16 -70 -20 -25 -4 -56 -13 -70 -20 -14 -7 -48 -16 -75 -20 -28 -4 -59 -13
-71 -20 -11 -7 -43 -16 -70 -20 -27 -4 -60 -13 -74 -20 -14 -7 -45 -16 -70
-20 -25 -4 -56 -13 -70 -20 -14 -7 -45 -16 -70 -20 -25 -4 -56 -13 -70 -20
-14 -7 -48 -16 -75 -20 -28 -5 -59 -14 -70 -21 -11 -7 -42 -16 -70 -19 -27 -4
-59 -12 -70 -18 -11 -6 -45 -16 -75 -23 -30 -7 -73 -19 -95 -28 -22 -8 -50
-15 -63 -16 -13 0 -35 -6 -50 -14 -15 -7 -47 -17 -72 -21 -25 -4 -56 -13 -70
-20 -14 -7 -48 -16 -75 -20 -28 -4 -59 -13 -71 -20 -11 -7 -43 -16 -70 -20
-27 -4 -60 -13 -74 -20 -14 -7 -45 -16 -70 -20 -25 -4 -56 -13 -70 -20 -14 -7
-45 -16 -70 -20 -25 -4 -54 -13 -65 -20 -11 -7 -45 -16 -75 -20 -30 -4 -64
-13 -75 -20 -11 -7 -42 -16 -70 -20 -27 -4 -61 -13 -75 -20 -14 -7 -45 -16
-70 -20 -25 -4 -56 -13 -70 -20 -14 -7 -45 -16 -70 -20 -25 -4 -56 -13 -70
-20 -14 -7 -45 -16 -70 -20 -25 -4 -56 -13 -70 -20 -14 -7 -48 -16 -75 -20
-28 -4 -62 -14 -76 -21 -15 -7 -46 -16 -70 -20 -24 -4 -55 -12 -69 -19 -14 -7
-45 -16 -70 -20 -25 -4 -56 -13 -70 -20 -14 -7 -45 -16 -70 -20 -25 -4 -56
-13 -70 -20 -14 -7 -48 -16 -75 -20 -28 -5 -59 -14 -70 -20 -11 -7 -42 -16
-70 -20 -27 -4 -61 -13 -75 -20 -14 -7 -45 -16 -70 -20 -25 -4 -56 -13 -70
-20 -14 -7 -45 -16 -70 -20 -25 -4 -56 -13 -70 -20 -14 -7 -48 -16 -75 -20
-28 -5 -59 -14 -70 -20 -11 -7 -42 -16 -70 -20 -27 -3 -59 -12 -70 -19 -11 -7
-42 -16 -70 -21 -27 -4 -61 -13 -75 -20 -14 -7 -45 -16 -70 -20 -25 -4 -56
-13 -70 -20 -14 -7 -45 -16 -70 -20 -25 -4 -56 -13 -70 -20 -14 -7 -48 -16
-75 -20 -28 -4 -59 -13 -70 -20 -11 -6 -42 -15 -70 -20 -27 -4 -61 -13 -75
-20 -14 -7 -45 -16 -70 -20 -25 -4 -56 -13 -70 -20 -14 -7 -45 -16 -70 -20
-25 -4 -56 -13 -70 -20 -14 -7 -48 -16 -75 -20 -28 -4 -59 -13 -71 -20 -11 -7
-43 -16 -70 -20 -27 -4 -60 -13 -74 -20 -14 -7 -45 -16 -70 -20 -25 -4 -56
-13 -70 -20 -14 -7 -45 -16 -70 -20 -25 -4 -56 -13 -70 -20 -14 -7 -47 -16
-74 -20 -27 -4 -59 -13 -70 -20 -12 -7 -44 -16 -73 -19 -28 -4 -64 -13 -80
-21 -15 -8 -40 -15 -54 -15 -14 0 -55 -8 -90 -19 -35 -10 -86 -23 -114 -29
-116 -23 -150 -36 -150 -57 0 -16 10 -22 55 -31 30 -7 68 -17 83 -23 16 -6 44
-11 62 -11 19 0 57 -9 85 -20 28 -11 64 -20 81 -20 16 0 42 -6 57 -14 15 -8
50 -17 77 -21 28 -4 62 -14 76 -21 15 -7 46 -16 70 -20 24 -4 55 -12 69 -19
14 -7 47 -16 74 -20 27 -4 59 -13 70 -20 12 -7 43 -16 70 -20 27 -4 59 -13 70
-20 12 -7 46 -16 76 -20 30 -4 61 -12 67 -17 7 -6 43 -17 80 -24 36 -8 71 -18
77 -23 6 -5 31 -12 56 -16 25 -4 56 -13 70 -20 14 -7 48 -16 75 -19 28 -4 59
-13 70 -20 11 -7 42 -16 70 -21 27 -4 61 -13 75 -20 14 -7 45 -16 70 -20 25
-4 56 -13 70 -20 14 -7 45 -16 70 -20 25 -4 56 -13 70 -20 14 -7 47 -16 75
-20 27 -4 62 -13 76 -21 15 -7 46 -16 70 -20 24 -4 55 -12 69 -19 14 -7 45
-16 70 -20 25 -4 54 -12 65 -18 11 -6 47 -16 80 -23 56 -12 119 -30 190 -55
17 -6 55 -15 85 -21 30 -5 64 -15 75 -22 11 -7 42 -16 70 -21 27 -4 61 -13 75
-20 14 -7 48 -16 75 -20 28 -5 59 -14 70 -21 11 -6 40 -15 65 -19 25 -4 56
-13 70 -20 14 -7 48 -16 75 -19 28 -4 59 -13 70 -20 11 -7 42 -16 70 -21 27
-4 61 -13 75 -20 14 -7 45 -16 70 -20 25 -4 56 -13 70 -20 14 -7 48 -16 75
-20 28 -4 61 -13 75 -20 24 -12 98 -32 212 -59 32 -7 64 -18 70 -23 7 -6 35
-14 63 -18 27 -4 61 -13 75 -20 14 -7 48 -16 75 -20 28 -5 59 -14 70 -21 11
-6 40 -15 65 -19 25 -4 56 -13 70 -20 14 -7 48 -16 75 -19 28 -4 59 -13 70
-20 11 -7 42 -16 70 -21 27 -4 61 -13 75 -20 14 -7 45 -16 70 -20 25 -4 56
-13 70 -20 14 -7 45 -16 70 -20 25 -4 56 -13 70 -20 14 -7 45 -16 70 -20 25
-4 56 -13 70 -20 14 -7 48 -16 75 -19 28 -4 59 -13 70 -20 11 -7 42 -16 70
-21 27 -4 61 -13 75 -20 14 -7 48 -16 75 -20 28 -5 59 -14 70 -21 11 -6 40
-15 65 -19 25 -4 56 -13 70 -20 14 -7 47 -16 75 -20 27 -4 61 -13 75 -20 14
-7 45 -16 70 -20 25 -4 56 -13 70 -20 14 -7 45 -16 70 -20 25 -4 56 -13 70
-20 14 -7 48 -16 75 -20 28 -4 59 -13 70 -20 11 -6 40 -15 64 -19 24 -3 55
-13 70 -20 14 -7 48 -17 75 -21 27 -4 59 -13 70 -20 60 -38 214 -38 272 0 11
7 43 16 70 20 27 4 60 13 74 20 14 8 48 18 75 23 28 6 68 17 90 26 22 8 50 15
63 16 13 0 35 6 50 14 15 8 50 17 77 21 28 5 59 14 71 21 11 8 43 17 70 21 27
3 58 12 69 19 11 7 43 16 70 19 28 4 55 12 61 17 7 5 40 15 75 23 35 7 82 21
104 29 22 8 53 15 68 16 15 0 38 6 50 14 12 8 42 17 67 21 25 3 59 12 75 20
17 7 57 20 90 28 33 8 94 25 135 37 41 12 100 27 131 34 30 7 64 18 75 24 10
5 39 13 64 17 25 4 54 12 65 18 11 6 45 16 75 23 30 7 73 19 95 28 22 8 53 15
68 16 15 0 41 7 56 15 16 8 48 17 72 21 24 3 53 12 65 19 11 7 43 16 70 20 27
4 60 13 74 20 14 7 45 16 70 19 25 4 59 13 75 21 17 7 59 21 95 30 36 9 90 22
120 30 30 8 73 21 95 29 22 8 51 15 65 16 14 0 35 6 46 14 11 8 42 17 69 21
28 4 61 13 75 20 14 7 48 16 75 20 28 4 56 12 63 18 7 6 41 16 75 23 34 7 80
19 102 28 22 8 51 15 65 16 14 0 35 6 46 14 11 8 42 17 69 21 28 4 61 13 75
20 14 7 48 16 75 20 28 4 60 14 72 21 13 8 44 17 70 21 27 3 59 12 73 19 14 7
48 17 75 22 28 6 68 17 90 26 22 8 51 15 65 16 14 0 35 6 46 14 11 8 42 17 69
21 28 4 61 13 75 20 14 7 48 16 75 20 28 5 59 14 70 21 11 7 45 17 75 23 30 5
73 16 95 25 22 8 50 15 63 16 13 0 36 7 51 15 16 8 48 17 72 21 24 4 55 12 69
19 14 7 48 16 75 20 28 5 59 14 70 21 11 7 45 17 75 23 30 5 73 16 95 25 22 8
50 15 63 16 13 0 36 7 51 15 16 8 48 17 72 21 24 4 55 12 69 19 14 7 48 16 75
20 28 5 59 14 70 21 11 7 43 16 70 20 28 4 59 13 70 20 11 7 43 16 70 20 28 3
61 12 75 19 14 7 45 16 70 20 25 4 56 13 70 20 14 7 50 16 80 20 30 4 64 13
75 20 11 7 43 15 70 18 28 3 64 13 80 21 17 9 47 16 68 16 21 0 53 6 71 14 18
7 51 17 74 21 39 6 57 23 44 41 -11 14 -134 54 -167 54 -17 0 -56 9 -88 20
-31 11 -69 20 -84 20 -16 0 -41 7 -56 15 -16 8 -52 18 -80 21 -29 4 -61 13
-72 20 -11 7 -42 16 -70 20 -27 3 -61 12 -75 19 -14 7 -45 16 -70 20 -25 4
-56 13 -70 20 -14 7 -45 16 -70 20 -25 4 -56 13 -70 20 -14 7 -47 16 -75 19
-27 4 -59 13 -70 20 -11 7 -42 16 -70 21 -27 4 -61 13 -75 20 -14 7 -45 16
-70 20 -25 4 -56 13 -70 20 -14 7 -45 16 -70 20 -25 4 -56 13 -70 20 -14 7
-47 16 -74 20 -27 4 -59 13 -70 20 -12 7 -43 16 -71 20 -27 4 -61 13 -75 20
-14 7 -45 16 -70 20 -25 4 -56 13 -70 20 -14 7 -45 16 -70 20 -25 4 -56 13
-70 20 -14 7 -47 16 -74 20 -27 4 -59 13 -70 20 -12 7 -43 16 -71 20 -27 3
-59 12 -70 19 -11 7 -42 16 -70 21 -27 4 -61 13 -75 20 -14 7 -45 16 -70 20
-25 4 -56 13 -70 20 -14 7 -47 16 -74 20 -27 4 -59 13 -70 20 -12 7 -43 16
-71 20 -27 3 -59 12 -70 19 -11 7 -42 16 -70 21 -27 4 -61 13 -75 20 -14 7
-45 16 -70 20 -25 4 -56 13 -70 20 -14 7 -45 16 -70 20 -25 4 -56 13 -70 20
-14 7 -47 16 -74 20 -27 4 -59 13 -70 20 -12 7 -43 16 -71 20 -27 4 -61 13
-75 20 -14 7 -45 16 -70 20 -25 4 -54 12 -65 18 -11 6 -45 16 -75 23 -134 32
-187 47 -210 59 -14 7 -47 16 -75 20 -27 3 -59 12 -70 19 -11 7 -42 16 -70 21
-27 4 -61 13 -75 20 -14 7 -45 16 -70 20 -25 4 -56 13 -70 20 -14 7 -45 15
-69 19 -24 4 -55 13 -70 20 -14 7 -48 17 -75 21 -27 4 -59 13 -70 20 -12 7
-43 16 -71 20 -27 4 -61 13 -75 20 -14 7 -45 16 -70 20 -25 4 -56 13 -70 20
-14 7 -45 16 -70 20 -25 4 -56 13 -70 20 -14 7 -47 16 -74 20 -27 4 -59 13
-70 20 -12 7 -43 16 -71 20 -27 3 -59 12 -70 19 -11 7 -42 16 -70 21 -27 4
-62 13 -77 21 -15 8 -37 14 -50 14 -13 1 -41 8 -63 16 -22 9 -62 20 -90 26
-27 5 -61 15 -75 23 -14 7 -47 16 -75 19 -27 4 -59 13 -70 20 -11 7 -42 16
-70 21 -27 4 -61 13 -75 20 -14 7 -45 16 -70 20 -25 4 -57 14 -72 21 -15 8
-37 14 -50 14 -13 1 -41 8 -63 16 -22 9 -65 22 -95 29 -30 7 -73 20 -95 28
-59 21 -143 27 -205 13z m238 -541 c19 -21 26 -23 77 -18 52 5 59 4 81 -20 21
-23 28 -25 80 -20 51 6 58 4 80 -21 21 -22 31 -25 62 -20 31 5 40 2 59 -19 20
-24 27 -25 78 -20 52 6 59 4 81 -21 21 -22 31 -25 62 -20 31 5 40 2 59 -19 20
-24 27 -25 78 -20 52 6 59 4 81 -21 21 -22 31 -25 62 -20 31 5 40 2 59 -19 20
-24 27 -25 78 -20 52 6 59 4 81 -21 21 -22 31 -25 62 -20 31 5 40 2 60 -20 20
-24 27 -26 80 -21 53 5 60 3 79 -19 20 -22 27 -24 78 -19 52 6 59 4 81 -21 21
-22 31 -25 62 -20 31 5 40 2 59 -19 20 -24 27 -25 78 -20 52 6 59 4 81 -21 21
-22 31 -25 62 -20 31 5 40 2 59 -19 20 -24 27 -25 78 -20 52 6 59 4 81 -21 21
-22 31 -25 62 -20 31 5 40 2 60 -20 20 -24 27 -26 80 -21 53 5 60 3 80 -20 19
-21 28 -24 60 -19 31 5 40 2 60 -20 20 -24 27 -26 80 -21 53 5 60 3 79 -19 20
-22 27 -24 78 -19 52 6 59 4 81 -21 21 -22 31 -25 62 -20 31 5 40 2 59 -19 20
-24 27 -25 78 -20 52 6 59 4 81 -21 21 -22 31 -25 62 -20 31 5 40 2 59 -19 20
-24 27 -25 78 -20 52 6 59 4 81 -21 21 -22 31 -25 62 -20 31 5 40 2 60 -20 20
-24 27 -26 80 -21 53 5 60 3 79 -19 20 -22 27 -24 78 -19 52 6 59 4 81 -21 21
-22 31 -25 62 -20 31 5 40 2 59 -19 20 -24 27 -25 78 -20 52 6 59 4 81 -21 21
-22 31 -25 62 -20 31 5 40 2 59 -19 20 -24 27 -25 78 -20 52 6 59 4 81 -21 21
-22 31 -25 62 -20 31 5 40 2 60 -21 19 -22 28 -25 58 -19 30 5 39 2 69 -27
l34 -33 -55 -55 -54 -54 -56 6 c-50 5 -57 3 -77 -20 -19 -21 -28 -24 -59 -19
-31 5 -41 2 -62 -20 -22 -25 -29 -27 -81 -21 -51 5 -58 4 -78 -20 -19 -21 -28
-24 -59 -19 -31 5 -41 2 -62 -20 -22 -25 -29 -27 -80 -21 -52 5 -59 3 -80 -20
-15 -16 -30 -24 -40 -20 -11 4 -25 -3 -39 -19 -19 -23 -28 -25 -84 -22 -55 2
-65 0 -79 -20 -12 -17 -25 -22 -62 -22 -37 0 -50 -5 -60 -21 -11 -18 -21 -20
-77 -17 -58 2 -67 0 -81 -20 -12 -17 -25 -22 -62 -22 -37 0 -50 -5 -60 -21
-11 -18 -21 -20 -77 -17 -58 2 -67 0 -81 -20 -12 -17 -25 -22 -62 -22 -37 0
-50 -5 -60 -21 -11 -18 -21 -20 -77 -17 -58 2 -67 0 -81 -20 -12 -17 -25 -22
-62 -22 -37 0 -50 -5 -60 -21 -11 -18 -21 -20 -77 -17 -58 2 -67 0 -81 -20
-14 -21 -23 -23 -80 -20 -57 2 -66 0 -80 -21 -14 -20 -23 -22 -56 -18 -38 5
-68 -10 -68 -34 0 -6 -28 -9 -70 -7 -63 2 -72 0 -86 -20 -12 -17 -25 -22 -62
-22 -37 0 -50 -5 -60 -21 -11 -18 -21 -20 -77 -17 -58 2 -67 0 -81 -20 -12
-17 -25 -22 -62 -22 -37 0 -50 -5 -60 -21 -11 -18 -21 -20 -77 -17 -58 2 -67
0 -81 -20 -14 -21 -23 -23 -80 -20 -57 2 -66 0 -80 -21 -14 -20 -23 -22 -56
-18 -33 4 -43 1 -61 -19 -19 -22 -28 -25 -84 -22 -55 2 -65 0 -79 -20 -12 -17
-25 -22 -62 -22 -37 0 -50 -5 -60 -21 -11 -18 -21 -20 -77 -17 -58 2 -67 0
-81 -20 -12 -17 -25 -22 -62 -22 -37 0 -50 -5 -60 -21 -11 -18 -21 -20 -77
-17 -58 2 -67 0 -81 -20 -12 -17 -25 -22 -62 -22 -37 0 -50 -5 -60 -21 -11
-18 -21 -20 -77 -17 -58 2 -67 0 -81 -20 -12 -17 -25 -22 -62 -22 -37 0 -50
-5 -60 -21 -12 -18 -21 -20 -98 -18 -77 3 -86 1 -100 -19 -23 -34 -215 -34
-238 0 -14 20 -23 22 -80 20 -57 -3 -66 -1 -80 20 -14 20 -23 22 -86 20 -42
-2 -70 1 -70 7 0 24 -30 39 -68 34 -33 -4 -42 -2 -56 18 -14 21 -22 23 -85 21
-62 -3 -70 -1 -76 17 -7 24 -9 24 -87 21 -48 -1 -59 1 -70 19 -10 16 -23 21
-60 21 -37 0 -50 5 -62 22 -14 20 -23 22 -81 20 -56 -3 -66 -1 -77 17 -10 16
-23 21 -60 21 -37 0 -50 5 -62 22 -14 20 -23 22 -81 20 -56 -3 -66 -1 -77 17
-10 16 -23 21 -60 21 -37 0 -50 5 -62 22 -14 20 -23 22 -86 20 -42 -2 -70 1
-70 7 0 24 -30 39 -68 34 -33 -4 -42 -2 -56 18 -14 21 -23 23 -80 21 -57 -3
-66 -1 -80 20 -14 20 -23 22 -81 20 -56 -3 -66 -1 -77 17 -10 16 -23 21 -60
21 -37 0 -50 5 -62 22 -14 20 -23 22 -81 20 -56 -3 -66 -1 -77 17 -10 16 -23
21 -60 21 -37 0 -50 5 -62 22 -14 20 -23 22 -81 20 -56 -3 -66 -1 -77 17 -10
16 -23 21 -60 21 -37 0 -50 5 -62 22 -14 20 -23 22 -81 20 -56 -3 -66 -1 -77
17 -10 16 -23 21 -60 21 -37 0 -50 5 -62 22 -14 20 -23 22 -80 20 -57 -3 -66
-1 -80 20 -14 20 -23 22 -81 20 -56 -3 -66 -1 -77 17 -10 16 -23 21 -60 21
-37 0 -50 5 -62 22 -14 20 -23 22 -81 20 -56 -3 -66 -1 -77 17 -10 16 -23 21
-60 21 -37 0 -50 5 -62 22 -14 20 -23 22 -81 20 -56 -3 -66 -1 -77 17 -8 13
-23 21 -39 21 -15 0 -34 10 -47 25 -19 21 -28 24 -60 19 -31 -5 -40 -2 -60 20
-20 24 -27 26 -80 21 -53 -5 -60 -3 -79 19 -20 22 -27 24 -78 19 -52 -6 -59
-4 -81 21 -21 22 -31 25 -62 20 -31 -5 -40 -2 -59 19 -20 23 -27 25 -77 20
l-56 -6 -54 54 -55 55 34 33 c30 29 39 32 69 27 30 -6 39 -3 58 19 20 23 29
26 60 21 31 -5 41 -2 62 20 22 25 29 27 81 21 51 -5 58 -3 78 19 19 22 26 24
79 19 53 -5 60 -3 80 21 20 22 29 25 60 20 31 -5 41 -2 62 20 22 25 29 27 81
21 51 -5 58 -4 78 20 19 21 28 24 59 19 31 -5 41 -2 62 20 22 25 29 27 81 21
51 -5 58 -4 78 20 19 21 28 24 59 19 31 -5 41 -2 62 20 22 25 29 27 81 21 51
-5 58 -3 78 19 19 22 26 24 79 19 53 -5 60 -3 80 21 20 22 29 25 60 20 32 -5
41 -2 60 19 20 23 27 25 80 20 53 -5 60 -3 80 21 20 22 29 25 60 20 31 -5 41
-2 62 20 22 25 29 27 81 21 51 -5 58 -4 78 20 19 21 28 24 59 19 31 -5 41 -2
62 20 22 25 29 27 81 21 51 -5 58 -3 78 19 19 22 26 24 79 19 53 -5 60 -3 80
21 20 22 29 25 60 20 32 -5 41 -2 60 19 20 23 27 25 80 20 53 -5 60 -3 80 21
20 22 29 25 60 20 32 -5 41 -2 60 19 20 23 27 25 80 20 53 -5 60 -3 80 21 20
22 29 25 60 20 31 -5 41 -2 62 20 22 25 29 27 81 21 51 -5 58 -4 78 20 19 21
28 24 59 19 31 -5 41 -2 62 20 22 25 29 27 81 21 51 -5 58 -4 78 20 19 21 28
24 59 19 31 -5 41 -2 62 20 22 25 29 27 81 21 51 -5 58 -3 78 19 19 22 26 24
79 19 53 -5 60 -3 80 21 20 22 29 25 60 20 32 -5 41 -2 60 19 20 23 27 25 80
20 53 -5 60 -3 80 21 20 22 29 25 60 20 31 -5 41 -2 62 20 22 25 29 27 81 21
51 -5 58 -3 77 18 20 23 26 24 163 24 137 0 143 -1 163 -24z"/>
<path d="M3187 11983 c-2 -5 -3 -348 -2 -763 l1 -755 35 -5 c19 -4 41 -10 48
-15 8 -4 39 -14 70 -21 31 -6 70 -17 86 -23 58 -20 131 -42 182 -55 29 -7 58
-18 65 -24 7 -5 33 -13 58 -17 25 -4 56 -13 70 -20 14 -7 44 -17 65 -21 22 -4
49 -13 60 -20 11 -6 40 -15 65 -19 25 -4 54 -13 65 -19 11 -7 38 -16 60 -20
21 -4 51 -13 65 -21 14 -7 43 -16 65 -19 22 -4 49 -13 60 -20 11 -7 38 -16 60
-20 22 -4 56 -13 75 -20 57 -23 132 -47 180 -57 25 -5 56 -16 70 -23 14 -8 45
-17 70 -21 24 -4 54 -13 65 -20 11 -7 38 -16 60 -20 22 -3 49 -12 60 -19 11
-8 41 -17 65 -21 25 -4 56 -13 70 -20 14 -7 44 -17 65 -21 22 -4 49 -13 60
-19 11 -7 38 -16 60 -20 21 -4 51 -13 65 -20 14 -7 45 -16 70 -20 24 -4 54
-13 65 -20 11 -7 40 -16 65 -20 25 -4 52 -13 60 -20 8 -7 35 -16 60 -20 25 -4
56 -13 70 -20 14 -7 44 -16 65 -20 22 -4 49 -13 60 -20 11 -7 40 -16 65 -20
25 -4 54 -13 65 -20 11 -7 40 -16 65 -20 24 -4 54 -13 65 -20 11 -7 40 -16 65
-20 25 -4 52 -13 60 -20 8 -7 35 -16 60 -20 25 -4 56 -13 70 -20 14 -7 44 -17
65 -20 22 -4 45 -12 52 -17 7 -5 36 -15 65 -23 29 -7 67 -18 83 -24 70 -24
133 -43 180 -53 28 -6 57 -16 65 -23 8 -7 35 -16 60 -20 25 -4 54 -13 65 -20
11 -7 40 -16 65 -20 25 -4 54 -13 65 -20 11 -7 40 -16 65 -20 25 -4 54 -13 65
-20 11 -7 40 -16 65 -20 25 -4 54 -13 65 -21 11 -7 40 -16 65 -20 25 -4 52
-12 60 -19 8 -7 35 -16 60 -20 25 -4 56 -13 70 -20 14 -7 44 -17 65 -20 22 -4
49 -13 60 -19 11 -6 40 -16 65 -22 25 -7 59 -17 75 -23 69 -24 133 -43 180
-53 28 -6 57 -16 65 -23 8 -7 35 -16 60 -20 25 -4 56 -13 70 -20 14 -7 44 -17
65 -21 22 -4 49 -13 60 -20 11 -6 40 -15 65 -19 25 -4 54 -14 65 -21 11 -8 29
-14 40 -14 11 -1 38 -8 60 -16 22 -8 64 -21 92 -28 29 -7 58 -18 65 -24 7 -5
33 -13 58 -17 25 -4 56 -13 70 -20 14 -7 44 -17 65 -21 22 -4 49 -13 60 -20
11 -6 40 -15 65 -19 25 -4 54 -13 65 -19 11 -7 38 -16 60 -20 21 -4 51 -13 65
-21 14 -7 43 -16 65 -19 22 -4 49 -13 60 -20 11 -7 38 -16 60 -20 22 -4 56
-13 75 -20 51 -20 127 -45 185 -61 28 -7 64 -20 80 -29 17 -9 38 -16 49 -16
10 0 34 -9 52 -21 20 -12 46 -19 65 -17 l31 3 -1 855 c-1 470 -5 858 -9 861
-16 13 -100 39 -147 45 -27 4 -59 13 -70 19 -11 7 -42 16 -70 20 -27 4 -61 13
-75 20 -14 7 -48 16 -75 20 -28 4 -55 12 -62 17 -7 5 -38 16 -70 23 -32 8 -92
23 -133 35 -41 12 -102 29 -135 37 -33 8 -69 20 -80 26 -11 6 -49 16 -85 23
-59 11 -114 27 -195 55 -16 6 -58 16 -92 23 -34 7 -68 17 -75 23 -7 6 -35 14
-63 18 -27 4 -62 13 -77 21 -15 8 -37 14 -50 14 -13 1 -41 8 -63 16 -22 9 -62
20 -90 26 -27 5 -62 16 -77 24 -15 8 -37 14 -50 14 -13 1 -41 8 -63 16 -22 9
-64 20 -93 25 -30 5 -63 16 -75 23 -12 8 -44 17 -72 21 -27 3 -59 12 -70 19
-11 7 -42 16 -70 21 -27 4 -61 13 -75 20 -14 7 -45 15 -69 19 -24 4 -55 13
-70 20 -14 7 -48 17 -75 21 -27 4 -59 13 -70 20 -12 7 -43 15 -70 19 -27 3
-59 12 -70 20 -12 7 -43 16 -71 21 -27 4 -61 13 -75 20 -14 7 -45 16 -70 20
-25 4 -56 13 -70 20 -14 7 -45 16 -70 20 -25 4 -57 14 -72 21 -15 8 -37 14
-50 14 -13 1 -41 8 -63 16 -22 9 -64 20 -93 25 -30 5 -63 16 -75 23 -12 8 -44
17 -72 21 -27 4 -61 13 -75 20 -14 7 -47 16 -75 19 -27 4 -59 13 -70 20 -11 7
-42 16 -70 20 -27 5 -58 14 -69 22 -11 8 -34 14 -51 14 -16 1 -48 8 -70 16
-22 9 -65 21 -95 28 -30 7 -65 18 -77 24 -12 7 -32 12 -45 12 -13 1 -41 8 -63
16 -22 9 -62 20 -90 26 -27 5 -61 15 -75 23 -14 7 -47 16 -75 20 -27 4 -61 13
-75 20 -14 7 -45 15 -70 19 -25 4 -54 13 -65 20 -11 7 -42 16 -70 21 -27 4
-61 13 -75 20 -14 7 -45 15 -69 19 -24 4 -56 13 -72 21 -15 8 -38 15 -51 15
-13 1 -41 8 -63 16 -22 9 -65 20 -95 25 -30 6 -64 16 -75 23 -11 7 -42 16 -70
21 -27 4 -61 13 -75 20 -14 7 -47 16 -75 20 -27 4 -58 13 -69 21 -11 8 -32 14
-46 14 -14 1 -43 8 -65 16 -22 9 -62 20 -90 26 -27 5 -61 15 -75 22 -14 7 -46
16 -73 19 -26 4 -57 13 -70 21 -12 7 -44 17 -72 21 -27 4 -61 13 -75 20 -14 7
-45 16 -70 20 -25 4 -57 14 -72 21 -15 8 -37 14 -50 14 -13 1 -41 8 -63 16
-22 9 -65 21 -95 28 -30 8 -68 21 -85 30 -16 9 -43 16 -60 16 -16 0 -43 9 -60
20 -30 20 -70 26 -78 13z m513 -642 c0 -27 31 -39 86 -34 51 5 58 4 80 -21 21
-22 31 -25 62 -20 31 5 40 2 59 -19 20 -24 27 -25 78 -20 52 6 59 4 81 -21 21
-22 31 -25 62 -20 31 5 40 2 59 -19 20 -24 27 -25 78 -20 52 6 59 4 81 -21 21
-22 31 -25 62 -20 31 5 40 2 60 -20 20 -24 27 -26 80 -21 53 5 60 3 80 -20 19
-21 28 -24 60 -19 31 5 40 2 60 -20 20 -24 27 -26 80 -21 53 5 60 3 79 -19 20
-22 27 -24 78 -19 52 6 59 4 81 -21 21 -22 31 -25 62 -20 31 5 40 2 59 -19 20
-24 27 -25 78 -20 52 6 59 4 81 -21 21 -22 31 -25 62 -20 31 5 40 2 59 -19 20
-24 27 -25 78 -20 52 6 59 4 81 -21 21 -22 31 -25 62 -20 31 5 40 2 60 -20 20
-24 27 -26 80 -21 53 5 60 3 80 -20 19 -21 28 -24 60 -19 31 5 40 2 60 -20 20
-24 27 -26 80 -21 53 5 60 3 79 -19 20 -22 27 -24 78 -19 52 6 59 4 81 -21 21
-22 31 -25 62 -20 31 5 40 2 59 -19 20 -24 27 -25 78 -20 52 6 59 4 81 -21 21
-22 31 -25 62 -20 31 5 40 2 59 -19 20 -24 27 -25 78 -20 52 6 59 4 81 -21 21
-22 31 -25 62 -20 31 5 40 2 60 -20 20 -24 27 -26 80 -21 53 5 60 3 80 -20 19
-21 28 -24 60 -19 31 5 40 2 60 -20 20 -24 27 -26 80 -21 53 5 60 3 79 -19 20
-22 27 -24 78 -19 52 6 59 4 81 -21 21 -22 31 -25 62 -20 31 5 40 2 59 -19 20
-24 27 -25 78 -20 52 6 59 4 81 -21 21 -22 31 -25 62 -20 31 5 40 2 59 -19 20
-24 27 -25 78 -20 52 6 59 4 81 -21 21 -22 31 -25 62 -20 31 5 40 2 59 -19 20
-24 27 -25 78 -20 52 6 59 4 81 -21 21 -22 31 -25 62 -20 31 5 40 2 60 -20 20
-24 27 -26 80 -21 53 5 60 3 79 -19 20 -22 27 -24 78 -19 52 6 59 4 81 -21 21
-22 31 -25 62 -20 31 5 40 2 59 -19 20 -24 27 -25 78 -20 52 6 59 4 81 -21 21
-22 31 -25 62 -20 31 5 40 2 60 -21 19 -22 28 -25 57 -19 64 12 63 19 64 -358
1 -245 -2 -344 -10 -354 -18 -21 -53 -17 -76 10 -18 20 -28 23 -61 19 -33 -4
-42 -2 -56 18 -14 21 -23 23 -81 21 -56 -3 -66 -1 -77 17 -10 17 -23 21 -60
21 -37 0 -51 5 -60 20 -10 15 -24 20 -60 20 -37 0 -51 5 -60 20 -10 15 -24 20
-59 20 -36 0 -50 5 -66 24 -18 20 -28 23 -61 19 -33 -4 -42 -2 -56 18 -14 21
-23 23 -81 21 -56 -3 -66 -1 -77 17 -10 17 -23 21 -60 21 -37 0 -51 5 -60 20
-10 15 -24 20 -59 20 -36 0 -50 5 -67 24 -17 21 -27 24 -57 19 -31 -5 -41 -2
-61 20 -20 22 -30 25 -60 20 -30 -5 -40 -2 -59 20 -20 21 -30 24 -63 20 -33
-4 -42 -2 -56 18 -14 21 -23 23 -81 21 -56 -3 -66 -1 -77 17 -10 17 -23 21
-60 21 -37 0 -51 5 -60 20 -10 15 -24 20 -59 20 -36 0 -50 5 -66 24 -18 20
-28 23 -61 19 -33 -4 -42 -2 -56 18 -14 21 -23 23 -81 21 -56 -3 -66 -1 -77
17 -10 17 -23 21 -60 21 -37 0 -51 5 -60 20 -10 15 -24 20 -60 20 -37 0 -51 5
-60 20 -10 15 -24 20 -59 20 -36 0 -50 5 -66 24 -18 20 -28 23 -61 19 -33 -4
-42 -2 -56 18 -14 21 -23 23 -81 21 -56 -3 -66 -1 -77 17 -10 17 -23 21 -60
21 -37 0 -51 5 -60 20 -10 15 -24 20 -59 20 -36 0 -50 5 -67 24 -17 21 -27 24
-57 19 -31 -5 -41 -2 -61 20 -20 22 -30 25 -60 20 -30 -5 -40 -2 -60 20 -20
22 -30 25 -60 20 -30 -5 -40 -2 -60 20 -15 16 -30 24 -43 20 -13 -3 -23 2 -30
16 -15 27 -38 27 -46 1 -3 -11 -11 -20 -16 -20 -5 0 -14 9 -21 20 -10 16 -24
20 -65 20 -43 0 -53 3 -58 20 -6 20 -15 24 -45 21 -9 -1 -26 10 -38 24 -19 21
-28 24 -60 19 -31 -5 -40 -2 -60 20 -19 22 -28 25 -60 20 -31 -5 -40 -2 -60
20 -19 22 -28 25 -60 20 -31 -5 -40 -2 -59 19 -20 24 -27 25 -78 20 -52 -6
-59 -4 -81 21 -21 22 -31 25 -62 20 -31 -5 -40 -2 -60 20 -19 22 -28 25 -60
20 -31 -5 -40 -2 -60 20 -19 22 -28 25 -60 20 -31 -5 -40 -2 -60 20 -19 22
-28 25 -60 20 -31 -5 -40 -2 -59 19 -20 24 -27 25 -78 20 -52 -6 -59 -4 -81
21 -21 22 -31 25 -62 20 -31 -5 -40 -2 -60 20 -19 22 -28 25 -60 20 -31 -5
-40 -2 -60 20 -19 22 -28 25 -60 20 -31 -5 -40 -2 -60 20 -19 22 -28 25 -60
20 -31 -5 -40 -2 -59 19 -20 24 -27 25 -78 20 -52 -5 -59 -4 -81 20 -20 21
-30 25 -59 20 -30 -5 -40 -1 -70 28 l-35 34 1 240 c1 146 5 245 11 253 12 14
28 16 28 3z"/>
<path d="M17185 11970 c-16 -11 -41 -20 -55 -20 -14 0 -38 -7 -55 -16 -16 -9
-55 -22 -85 -30 -30 -7 -73 -19 -95 -28 -22 -8 -51 -15 -65 -16 -14 0 -34 -6
-45 -14 -11 -7 -42 -17 -70 -21 -27 -4 -61 -13 -75 -20 -14 -7 -48 -16 -75
-20 -28 -4 -59 -13 -71 -20 -11 -7 -43 -16 -70 -20 -27 -4 -58 -13 -69 -20
-11 -7 -41 -16 -65 -20 -25 -4 -56 -13 -70 -20 -14 -7 -47 -16 -75 -20 -27 -4
-61 -13 -75 -20 -14 -7 -45 -16 -70 -20 -25 -4 -56 -13 -70 -20 -14 -7 -47
-16 -75 -20 -27 -4 -56 -12 -63 -18 -7 -6 -41 -16 -75 -23 -34 -7 -80 -19
-102 -28 -22 -8 -50 -15 -63 -16 -13 0 -35 -6 -50 -14 -15 -7 -47 -17 -72 -21
-25 -4 -56 -13 -70 -20 -14 -7 -47 -16 -74 -20 -27 -4 -59 -13 -70 -20 -12 -7
-43 -17 -71 -20 -27 -4 -61 -13 -75 -21 -14 -7 -45 -18 -70 -23 -109 -25 -177
-43 -205 -56 -16 -8 -50 -17 -75 -21 -25 -3 -56 -12 -70 -19 -14 -7 -48 -16
-75 -20 -28 -4 -59 -13 -71 -20 -11 -7 -43 -16 -70 -20 -27 -4 -61 -14 -75
-21 -15 -7 -46 -16 -70 -20 -24 -3 -53 -12 -64 -19 -11 -7 -42 -15 -70 -20
-27 -4 -61 -13 -75 -20 -14 -7 -48 -16 -75 -20 -28 -5 -59 -14 -70 -21 -11 -7
-42 -16 -70 -19 -27 -4 -59 -13 -71 -20 -11 -7 -43 -17 -70 -21 -27 -4 -58
-13 -69 -19 -11 -7 -42 -16 -70 -20 -27 -4 -61 -13 -75 -20 -14 -7 -45 -16
-70 -20 -25 -4 -56 -13 -70 -20 -14 -7 -48 -16 -75 -20 -28 -4 -56 -12 -63
-18 -7 -6 -41 -16 -75 -23 -34 -7 -80 -19 -102 -28 -22 -8 -50 -15 -63 -16
-13 0 -35 -6 -50 -14 -15 -7 -47 -17 -72 -21 -25 -4 -56 -13 -70 -20 -14 -7
-48 -16 -75 -20 -28 -4 -56 -12 -63 -18 -7 -6 -41 -16 -75 -23 -34 -7 -80 -19
-102 -28 -22 -8 -50 -15 -63 -16 -12 0 -33 -6 -45 -14 -12 -8 -44 -17 -72 -21
-27 -4 -61 -13 -75 -20 -14 -7 -45 -16 -70 -20 -25 -4 -54 -12 -65 -18 -11 -6
-47 -16 -80 -23 -33 -7 -78 -19 -100 -28 -22 -8 -51 -15 -65 -16 -14 0 -35 -6
-46 -14 -11 -8 -42 -17 -69 -21 -28 -4 -61 -13 -75 -20 -14 -7 -45 -16 -70
-20 -25 -4 -56 -13 -70 -20 -14 -7 -48 -16 -75 -20 -28 -4 -59 -13 -71 -20
-11 -7 -43 -16 -70 -20 -27 -4 -58 -13 -70 -20 -11 -7 -43 -16 -70 -20 -27 -4
-60 -13 -74 -20 -14 -7 -45 -16 -70 -20 -25 -4 -56 -13 -70 -20 -14 -7 -45
-16 -70 -20 -25 -4 -56 -13 -70 -20 -14 -7 -47 -16 -75 -20 -27 -4 -61 -13
-75 -20 -14 -7 -45 -15 -70 -19 -25 -4 -71 -16 -102 -28 l-58 -21 -2 -813 c-1
-448 -2 -833 -3 -856 0 -43 0 -43 38 -46 26 -2 45 3 63 17 15 12 39 21 53 21
14 0 42 8 61 19 19 10 53 21 75 25 22 4 49 13 60 20 11 7 38 16 60 20 21 4 51
14 65 21 14 7 44 16 65 20 22 4 49 13 60 20 11 7 40 16 65 20 25 4 54 13 65
20 11 7 40 16 65 20 25 4 55 13 67 21 12 7 41 17 65 20 24 4 52 13 63 20 11 8
29 14 40 14 11 1 38 8 60 16 22 9 64 22 93 29 29 7 58 18 65 23 7 5 32 13 57
17 25 4 56 13 70 20 14 7 44 17 65 20 22 4 45 12 52 17 7 5 36 15 65 23 29 7
67 18 83 24 60 21 131 43 183 56 29 7 58 18 65 23 7 5 32 13 57 17 25 4 54 13
65 20 11 7 40 16 65 20 25 4 54 13 65 20 11 7 40 16 65 20 25 4 54 14 65 21
11 8 29 14 40 14 11 1 38 8 60 16 22 9 64 22 93 29 29 7 58 18 65 23 7 5 32
13 57 17 25 4 54 13 65 20 11 7 41 16 65 20 25 4 51 12 58 17 7 6 36 16 65 24
28 7 66 17 82 23 78 27 134 44 181 54 28 7 57 17 65 23 8 7 34 15 59 19 25 4
54 13 65 20 11 7 41 16 65 20 25 4 50 12 57 17 7 5 36 15 65 23 29 7 67 18 83
24 60 21 131 43 183 56 29 7 58 18 65 23 7 5 32 13 57 17 25 4 55 13 67 21 12
7 41 17 65 20 24 4 52 13 63 20 11 6 40 15 65 19 25 4 54 13 66 20 12 8 39 17
60 21 21 3 50 12 64 19 14 7 43 16 65 19 22 4 49 13 60 20 11 8 41 17 65 21
25 4 54 13 65 20 11 7 41 16 65 20 25 4 51 12 58 17 7 6 36 16 65 24 28 7 66
17 82 23 65 22 133 43 183 56 29 7 58 18 65 23 7 5 32 13 57 17 25 4 54 13 65
20 11 7 41 16 65 20 25 4 54 13 66 20 12 8 39 17 60 20 21 4 49 13 61 21 12 8
33 14 45 14 13 1 41 8 63 16 22 9 64 22 93 29 29 7 58 18 65 23 7 5 32 13 57
17 24 4 54 13 65 20 11 7 40 16 65 20 25 4 55 13 67 21 12 7 41 17 65 20 24 4
48 11 55 16 7 5 36 16 65 23 29 7 71 20 93 29 22 8 49 15 60 16 11 0 29 6 40
14 11 7 40 17 65 21 25 4 56 13 70 20 14 7 44 17 65 21 22 4 49 13 60 19 11 7
43 16 70 20 28 4 55 11 61 16 6 5 28 12 49 17 l39 8 0 759 1 760 -25 3 c-14 1
-38 -7 -55 -18z m-447 -672 c16 -16 17 -426 1 -482 -10 -38 -11 -38 -49 -32
-34 5 -43 2 -64 -20 -20 -23 -30 -26 -60 -21 -30 5 -40 2 -60 -20 -22 -24 -29
-25 -81 -20 -51 5 -58 4 -78 -20 -19 -21 -28 -24 -59 -19 -32 5 -41 2 -60 -20
-20 -22 -29 -25 -60 -20 -32 5 -41 2 -60 -20 -20 -22 -29 -25 -60 -20 -31 5
-41 2 -62 -20 -20 -23 -30 -26 -60 -21 -30 5 -40 2 -60 -20 -22 -24 -29 -25
-81 -20 -51 5 -58 4 -78 -20 -19 -21 -28 -24 -59 -19 -32 5 -41 2 -60 -20 -20
-22 -29 -25 -60 -20 -32 5 -41 2 -60 -20 -20 -22 -29 -25 -60 -20 -32 5 -41 2
-60 -20 -20 -22 -29 -25 -60 -20 -31 5 -41 2 -62 -20 -22 -25 -29 -27 -81 -21
-51 5 -58 4 -78 -20 -19 -21 -28 -24 -59 -19 -32 5 -41 2 -60 -20 -20 -22 -29
-25 -60 -20 -32 5 -41 2 -60 -20 -20 -22 -29 -25 -60 -20 -32 5 -41 2 -60 -19
-13 -15 -32 -25 -47 -25 -15 0 -31 -8 -39 -20 -9 -15 -23 -20 -60 -20 -36 0
-50 -5 -60 -20 -7 -11 -16 -20 -21 -20 -5 0 -13 9 -16 20 -9 30 -26 24 -64
-21 -35 -40 -35 -40 -98 -37 -56 2 -65 0 -79 -21 -14 -20 -23 -22 -56 -18 -33
4 -43 1 -63 -20 -19 -22 -29 -25 -60 -20 -30 5 -40 2 -57 -19 -17 -19 -31 -24
-67 -24 -36 0 -49 -5 -59 -21 -11 -18 -21 -20 -77 -17 -58 2 -67 0 -81 -21
-14 -20 -23 -22 -56 -18 -33 4 -43 1 -63 -20 -19 -22 -29 -25 -60 -20 -30 5
-40 2 -57 -19 -17 -19 -31 -24 -67 -24 -35 0 -49 -5 -59 -20 -9 -15 -23 -20
-60 -20 -37 0 -50 -4 -60 -21 -11 -18 -21 -20 -77 -17 -58 2 -67 0 -81 -21
-14 -20 -23 -22 -56 -18 -33 4 -43 1 -63 -20 -19 -22 -29 -25 -60 -20 -30 5
-40 2 -57 -19 -17 -19 -31 -24 -67 -24 -35 0 -49 -5 -59 -20 -9 -15 -23 -20
-60 -20 -37 0 -50 -4 -60 -21 -11 -18 -21 -20 -77 -17 -58 2 -67 0 -81 -21
-14 -20 -23 -22 -56 -18 -33 4 -43 1 -63 -20 -19 -22 -29 -25 -59 -20 -30 5
-40 2 -60 -20 -20 -22 -30 -25 -61 -20 -30 5 -40 2 -57 -19 -17 -19 -31 -24
-67 -24 -36 0 -49 -5 -59 -21 -11 -18 -21 -20 -77 -17 -58 2 -67 0 -81 -21
-14 -20 -23 -22 -56 -18 -33 4 -43 1 -63 -20 -19 -22 -29 -25 -60 -20 -30 5
-40 2 -57 -19 -17 -19 -31 -24 -67 -24 -35 0 -49 -5 -59 -20 -9 -15 -23 -20
-60 -20 -37 0 -50 -4 -60 -21 -11 -18 -21 -20 -77 -17 -58 2 -67 0 -81 -21
-14 -20 -23 -22 -56 -18 -33 4 -43 1 -61 -19 -23 -27 -93 -34 -115 -12 -9 9
-12 96 -12 332 l0 321 35 34 c30 29 39 32 69 27 30 -6 39 -3 58 19 20 23 29
26 60 21 31 -5 41 -2 62 20 22 25 29 27 81 21 51 -5 58 -3 78 19 19 22 26 24
79 19 53 -5 60 -3 80 21 20 22 29 25 60 20 31 -5 41 -2 62 20 22 25 29 27 81
21 51 -5 58 -4 78 20 19 21 28 24 59 19 31 -5 41 -2 62 20 22 25 29 27 81 21
51 -5 58 -4 78 20 19 21 28 24 59 19 31 -5 41 -2 62 20 22 25 29 27 81 21 51
-5 58 -4 78 20 19 21 28 24 59 19 31 -5 41 -2 62 20 22 25 29 27 81 21 51 -5
58 -3 78 19 19 22 26 24 79 19 53 -5 60 -3 80 21 20 22 29 25 60 20 31 -5 41
-2 62 20 22 25 29 27 81 21 51 -5 58 -4 78 20 19 21 28 24 59 19 31 -5 41 -2
62 20 22 25 29 27 81 21 51 -5 58 -4 78 20 19 21 28 24 59 19 31 -5 41 -2 62
20 22 25 29 27 81 21 51 -5 58 -4 78 20 19 21 28 24 59 19 31 -5 41 -2 62 20
22 25 29 27 81 21 51 -5 58 -3 78 19 19 22 26 24 79 19 53 -5 60 -3 80 21 20
22 29 25 60 20 31 -5 41 -2 62 20 22 25 29 27 81 21 51 -5 58 -4 78 20 19 21
28 24 59 19 31 -5 41 -2 62 20 22 25 29 27 81 21 51 -5 58 -4 78 20 19 21 28
24 59 19 31 -5 41 -2 62 20 22 25 29 27 81 21 51 -5 58 -3 78 19 19 22 26 24
79 19 53 -5 60 -3 80 21 20 22 29 25 60 20 32 -5 41 -2 60 19 20 23 27 25 80
20 53 -5 60 -3 80 21 20 22 29 25 60 20 31 -5 41 -2 62 20 22 25 29 27 81 21
51 -5 58 -4 78 20 19 21 28 24 59 19 31 -5 41 -2 62 20 22 25 29 27 81 21 51
-5 58 -4 78 20 19 21 28 24 59 19 31 -5 41 -2 62 20 22 25 29 27 81 21 51 -5
58 -3 78 19 19 22 26 24 79 19 53 -5 60 -3 80 21 20 22 29 25 60 20 32 -5 41
-2 60 19 20 23 27 25 80 20 53 -5 60 -3 80 20 24 28 93 36 116 13z"/>
<path d="M3187 9103 c-4 -4 -7 -170 -7 -369 l1 -362 43 -43 c74 -75 75 -198 4
-275 l-39 -42 0 -2556 c0 -2412 1 -2557 17 -2583 44 -70 121 -118 209 -129 28
-4 61 -12 75 -19 14 -7 45 -16 70 -20 25 -4 56 -13 70 -20 14 -7 45 -16 70
-20 25 -4 56 -13 70 -20 14 -7 48 -16 75 -20 28 -5 59 -14 70 -20 11 -7 42
-16 70 -20 27 -4 61 -13 75 -20 14 -7 45 -16 70 -20 25 -4 56 -13 70 -20 14
-7 45 -16 70 -20 25 -4 56 -13 70 -20 14 -7 48 -16 75 -20 28 -5 59 -14 70
-20 11 -7 42 -16 70 -20 27 -4 61 -13 75 -20 14 -7 45 -16 70 -20 25 -4 56
-13 70 -20 14 -7 45 -16 70 -20 25 -4 56 -13 70 -20 14 -7 45 -16 70 -20 25
-4 56 -13 70 -20 14 -7 48 -16 75 -20 28 -5 59 -14 70 -20 11 -7 42 -16 70
-20 27 -4 61 -13 75 -20 14 -7 45 -16 70 -20 25 -4 56 -13 70 -20 14 -7 45
-16 70 -20 25 -4 56 -13 70 -20 14 -7 45 -16 70 -20 25 -4 56 -13 70 -20 14
-7 48 -16 75 -20 28 -5 59 -14 70 -20 11 -7 42 -16 70 -20 27 -4 61 -13 75
-20 14 -7 45 -16 70 -20 25 -4 56 -13 70 -20 14 -7 45 -16 70 -20 25 -4 56
-13 70 -20 14 -7 48 -16 75 -20 28 -5 59 -14 70 -20 11 -7 42 -16 70 -20 27
-4 61 -13 75 -20 14 -7 45 -16 70 -20 25 -4 56 -13 70 -20 14 -7 45 -16 70
-20 25 -4 56 -13 70 -20 14 -7 48 -16 75 -20 28 -4 61 -13 75 -20 14 -7 45
-16 70 -20 25 -4 54 -13 65 -19 11 -7 49 -18 84 -24 35 -6 68 -16 75 -21 6 -5
34 -12 61 -17 28 -4 59 -13 70 -20 11 -6 40 -15 65 -19 25 -4 56 -13 70 -20
14 -7 48 -16 75 -20 28 -4 61 -13 75 -20 14 -7 45 -16 70 -20 25 -4 56 -13 70
-20 14 -7 45 -16 70 -20 25 -4 56 -13 70 -20 14 -7 45 -16 70 -20 25 -4 56
-13 70 -20 14 -7 45 -16 70 -20 25 -3 59 -12 75 -20 17 -7 50 -16 75 -20 25
-4 56 -13 70 -20 14 -7 45 -16 70 -20 25 -4 56 -13 70 -20 14 -7 45 -16 70
-20 25 -4 56 -13 70 -20 14 -7 49 -16 77 -20 29 -4 55 -11 58 -15 3 -5 31 -14
63 -20 31 -6 68 -17 82 -24 14 -7 47 -17 75 -21 27 -4 61 -13 75 -20 14 -7 45
-16 70 -20 25 -4 56 -13 70 -20 14 -7 48 -16 75 -20 28 -4 56 -12 63 -18 7 -6
41 -16 75 -23 34 -7 80 -19 102 -28 22 -8 51 -15 65 -16 14 0 35 -6 46 -14 11
-8 38 -18 60 -21 21 -4 58 -16 80 -26 54 -24 119 -34 128 -21 12 20 7 4884 -6
4899 -6 7 -30 18 -53 24 -212 53 -190 368 28 404 l37 6 0 369 c0 409 3 390
-65 390 -14 0 -38 6 -53 14 -15 7 -47 17 -72 21 -25 4 -54 13 -65 20 -11 7
-40 16 -65 20 -25 4 -54 13 -65 20 -11 7 -40 16 -65 20 -25 4 -54 14 -65 21
-11 8 -29 14 -40 14 -11 1 -38 8 -60 16 -22 8 -64 21 -92 28 -29 7 -58 18 -65
23 -7 6 -33 13 -58 17 -25 4 -54 13 -65 20 -11 8 -40 17 -65 21 -25 4 -54 13
-65 20 -11 7 -40 16 -65 20 -25 4 -54 14 -65 21 -11 8 -29 14 -40 14 -11 1
-38 8 -60 16 -22 8 -64 21 -92 28 -29 7 -58 18 -65 23 -7 6 -33 13 -58 17 -25
4 -54 13 -65 20 -11 7 -40 16 -65 20 -25 4 -54 13 -65 20 -11 8 -40 17 -65 21
-25 4 -54 13 -65 20 -11 7 -40 16 -65 20 -25 4 -54 14 -65 21 -11 8 -29 14
-40 14 -11 1 -38 8 -60 16 -22 8 -64 21 -92 28 -29 7 -58 18 -65 24 -7 5 -33
13 -58 17 -24 4 -54 13 -65 20 -11 7 -40 16 -65 20 -25 4 -54 13 -65 20 -11 7
-41 16 -65 20 -25 4 -50 12 -57 17 -7 5 -36 15 -65 23 -29 7 -66 18 -83 24
-60 21 -131 43 -183 56 -29 7 -58 18 -65 23 -7 5 -32 13 -57 17 -24 4 -54 13
-65 20 -11 7 -40 16 -65 20 -25 4 -54 14 -65 21 -11 8 -29 14 -40 14 -11 1
-38 8 -60 16 -22 8 -64 21 -92 28 -29 7 -58 18 -65 24 -7 5 -33 13 -58 17 -24
4 -54 13 -65 20 -11 7 -40 16 -65 20 -24 4 -54 13 -65 20 -11 7 -40 16 -65 20
-25 4 -54 14 -65 21 -11 8 -29 14 -40 14 -11 1 -38 8 -60 16 -22 8 -64 21 -92
28 -29 7 -58 18 -65 24 -7 5 -33 13 -58 17 -25 4 -54 13 -65 20 -11 7 -40 16
-65 20 -25 4 -54 13 -65 20 -11 7 -38 16 -60 20 -22 3 -49 12 -60 19 -11 8
-40 17 -65 21 -25 4 -54 13 -65 20 -11 7 -41 16 -66 19 -26 4 -55 13 -65 21
-11 8 -28 15 -39 15 -11 1 -38 8 -60 16 -22 8 -62 21 -90 29 -27 7 -63 18 -80
24 -57 20 -130 42 -182 55 -29 7 -58 18 -65 23 -7 6 -33 13 -57 17 -24 4 -53
13 -64 21 -12 8 -31 15 -42 15 -11 1 -38 8 -60 16 -22 8 -62 21 -90 29 -27 7
-63 18 -80 24 -60 21 -131 43 -183 56 -29 7 -58 18 -65 23 -7 5 -32 12 -57 16
-25 4 -54 13 -65 20 -11 7 -38 16 -60 20 -21 4 -51 14 -66 22 -15 7 -46 17
-70 20 -24 4 -53 13 -64 19 -11 7 -38 16 -60 20 -22 3 -49 12 -60 19 -11 8
-40 17 -65 21 -25 4 -54 13 -65 21 -11 7 -38 16 -60 20 -22 4 -56 15 -75 25
-19 11 -44 19 -55 19 -11 0 -33 9 -50 20 -31 20 -56 25 -68 13z m808 -969 c17
-9 53 -22 80 -29 28 -7 68 -20 90 -29 22 -8 51 -15 65 -16 14 0 34 -7 44 -15
11 -8 30 -15 42 -15 50 0 119 -43 160 -101 43 -59 49 -175 12 -225 -39 -50
-75 -84 -90 -84 -8 0 -23 -7 -34 -15 -24 -18 -113 -19 -139 -1 -11 7 -38 16
-59 20 -21 4 -48 13 -60 21 -12 7 -39 16 -61 20 -21 4 -51 13 -65 20 -14 7
-45 16 -70 20 -25 4 -55 13 -67 21 -12 8 -28 14 -36 14 -53 0 -147 128 -147
201 0 43 44 134 75 156 14 10 35 26 47 36 29 23 169 24 213 1z m1179 -370 c28
-9 74 -25 101 -35 28 -9 66 -21 85 -24 19 -4 44 -13 55 -19 11 -7 40 -16 64
-20 24 -3 56 -13 72 -21 15 -8 36 -15 45 -15 62 0 161 -147 149 -221 -28 -164
-205 -245 -362 -166 -15 8 -46 18 -67 21 -21 4 -48 13 -60 21 -12 7 -39 16
-61 20 -21 4 -52 13 -67 21 -15 8 -39 14 -54 14 -37 0 -118 55 -149 101 -35
54 -37 179 -2 225 32 45 78 84 96 84 9 1 27 7 41 15 33 19 52 18 114 -1z
m1270 -397 c14 -10 36 -17 49 -17 12 0 40 -9 60 -19 21 -11 57 -22 80 -26 23
-4 51 -13 62 -19 11 -7 37 -16 58 -19 150 -24 242 -154 203 -288 -36 -122
-184 -195 -286 -140 -19 10 -53 21 -74 25 -21 4 -48 13 -60 21 -12 7 -41 16
-66 20 -25 4 -54 13 -65 19 -11 7 -40 16 -64 20 -24 4 -53 13 -64 21 -12 8
-29 15 -37 15 -28 0 -88 73 -110 133 l-21 57 20 59 c22 65 52 102 109 138 45
29 162 28 206 0z m-2695 -102 c11 3 25 -4 39 -20 19 -21 28 -24 60 -19 31 5
40 2 60 -20 19 -23 27 -25 61 -20 33 5 41 3 55 -17 24 -35 379 -33 404 2 12
18 21 20 53 15 33 -5 42 -3 61 19 34 40 55 32 140 -55 69 -70 84 -80 114 -80
40 0 52 -19 36 -56 -9 -18 -9 -24 1 -24 6 0 31 -20 55 -45 28 -29 48 -42 58
-38 10 4 25 -4 40 -20 15 -16 30 -24 40 -20 10 4 25 -4 40 -20 20 -22 30 -25
60 -20 30 5 40 2 60 -21 21 -22 30 -25 63 -20 32 5 41 3 54 -16 24 -34 300
-35 324 0 10 14 22 20 35 17 12 -4 27 3 40 18 17 19 29 23 81 23 l62 -1 163
-163 c112 -112 168 -161 178 -157 10 4 26 -5 41 -21 15 -17 31 -25 42 -21 11
3 25 -4 38 -19 20 -22 27 -24 78 -19 52 5 59 4 81 -20 21 -23 28 -25 80 -20
50 5 58 4 79 -19 32 -35 137 -34 162 1 13 20 22 22 55 18 33 -4 43 -1 63 20
14 16 29 24 39 20 11 -4 24 3 38 18 37 43 52 34 225 -139 113 -114 169 -163
179 -159 10 3 25 -5 40 -20 15 -16 30 -24 40 -20 10 4 25 -4 40 -20 20 -22 30
-25 60 -20 30 5 40 2 60 -21 21 -22 30 -25 63 -20 32 5 41 3 54 -17 26 -36
329 -36 363 0 14 15 28 21 38 18 11 -4 24 3 38 18 16 19 32 25 61 25 38 0 47
-7 184 -144 97 -98 149 -143 159 -139 10 4 32 -11 60 -41 42 -42 48 -46 82
-40 31 5 40 2 59 -20 14 -16 28 -23 39 -19 10 4 25 -4 40 -20 23 -25 28 -26
103 -21 73 6 80 4 94 -17 25 -34 172 -35 202 -1 17 20 26 23 57 18 32 -5 41
-2 60 19 25 28 97 36 117 12 20 -25 15 -4131 -6 -4148 -10 -8 -18 -10 -20 -4
-12 35 -23 40 -87 37 -57 -3 -66 -1 -80 20 -14 20 -23 22 -81 20 -56 -3 -66
-1 -77 17 -10 16 -23 21 -60 21 -37 0 -50 5 -62 22 -14 20 -23 22 -81 20 -56
-3 -66 -1 -77 17 -10 16 -23 21 -60 21 -37 0 -50 5 -62 22 -14 20 -23 22 -81
20 -56 -3 -66 -1 -77 17 -10 16 -23 21 -60 21 -37 0 -50 5 -62 22 -14 20 -23
22 -86 20 -42 -2 -70 1 -70 7 0 24 -30 39 -68 34 -33 -4 -42 -2 -56 18 -14 21
-23 23 -80 21 -57 -3 -66 -1 -80 20 -14 20 -23 22 -81 20 -56 -3 -66 -1 -77
17 -10 16 -23 21 -60 21 -37 0 -50 5 -62 22 -14 20 -23 22 -81 20 -56 -3 -66
-1 -77 17 -10 16 -23 21 -60 21 -37 0 -50 5 -62 22 -14 20 -23 22 -81 20 -56
-3 -66 -1 -77 17 -10 16 -23 21 -60 21 -37 0 -50 5 -62 22 -14 20 -23 22 -80
20 -57 -3 -66 -1 -80 20 -14 20 -23 22 -81 20 -56 -3 -66 -1 -77 17 -10 16
-23 21 -60 21 -37 0 -50 5 -62 22 -14 20 -23 22 -81 20 -56 -3 -66 -1 -77 17
-10 16 -23 21 -60 21 -37 0 -50 5 -62 22 -14 20 -23 22 -81 20 -56 -3 -66 -1
-77 17 -10 16 -23 21 -60 21 -37 0 -50 5 -62 22 -14 20 -23 22 -86 20 -42 -2
-70 1 -70 7 0 24 -30 39 -68 34 -33 -4 -42 -2 -56 18 -14 21 -23 23 -80 21
-57 -3 -66 -1 -80 20 -14 20 -23 22 -81 20 -56 -3 -66 -1 -77 17 -10 16 -23
21 -60 21 -37 0 -50 5 -62 22 -14 20 -23 22 -81 20 -56 -3 -66 -1 -77 17 -10
16 -23 21 -60 21 -37 0 -50 5 -62 22 -14 20 -23 22 -81 20 -56 -3 -66 -1 -77
17 -10 16 -23 21 -60 21 -37 0 -50 5 -62 22 -14 20 -23 22 -86 20 -42 -2 -70
1 -70 7 0 24 -30 39 -68 34 -33 -4 -42 -2 -56 18 -14 21 -23 23 -80 21 -57 -3
-66 -1 -80 20 -14 20 -23 22 -81 20 -56 -3 -66 -1 -77 17 -10 16 -23 21 -60
21 -37 0 -50 5 -62 22 -14 20 -23 22 -81 20 -56 -3 -66 -1 -77 17 -10 16 -23
21 -60 21 -37 0 -50 5 -62 22 -14 20 -23 22 -81 20 -56 -3 -66 -1 -77 17 -8
13 -23 21 -39 21 -15 0 -32 6 -38 13 -16 20 -16 4125 1 4144 9 12 15 10 35
-12 16 -16 31 -24 42 -20z m3905 -275 c27 -5 59 -16 70 -24 12 -7 39 -16 61
-20 21 -4 51 -14 65 -21 14 -7 45 -16 70 -20 24 -4 54 -13 65 -20 11 -7 34
-15 51 -18 92 -17 154 -101 154 -209 0 -81 -13 -108 -80 -168 -39 -35 -132
-57 -173 -41 -16 6 -38 11 -50 11 -12 0 -35 7 -52 16 -16 9 -52 22 -80 29 -27
7 -63 18 -80 24 -52 18 -129 42 -168 52 -21 5 -44 14 -50 19 -137 109 -152
245 -40 349 63 58 115 67 237 41z m1228 -383 c12 -8 41 -18 63 -22 22 -3 49
-12 60 -19 11 -7 38 -16 60 -20 21 -4 51 -14 65 -21 14 -7 45 -16 70 -20 25
-4 54 -14 65 -21 11 -8 27 -14 36 -14 44 0 129 -126 129 -193 0 -47 -42 -129
-84 -162 -17 -14 -38 -31 -46 -37 -24 -21 -144 -23 -182 -3 -18 9 -55 23 -83
30 -27 7 -63 18 -80 24 -57 20 -130 42 -170 52 -84 20 -142 59 -188 129 -27
39 -23 155 6 202 62 100 197 146 279 95z"/>
<path d="M17191 9090 c-13 -11 -33 -20 -45 -20 -12 0 -37 -8 -56 -19 -19 -10
-53 -21 -75 -25 -22 -4 -49 -13 -60 -20 -11 -7 -39 -16 -63 -20 -24 -3 -53
-13 -65 -20 -12 -8 -40 -18 -62 -21 -22 -4 -49 -13 -60 -20 -11 -7 -41 -16
-65 -20 -25 -4 -54 -13 -65 -20 -11 -7 -41 -16 -65 -20 -25 -4 -54 -13 -65
-20 -11 -7 -40 -16 -65 -20 -25 -4 -54 -13 -65 -20 -11 -7 -40 -16 -65 -20
-24 -4 -54 -13 -65 -21 -11 -7 -38 -16 -60 -19 -22 -4 -49 -13 -60 -20 -11 -7
-41 -16 -65 -20 -25 -4 -56 -13 -70 -20 -14 -7 -44 -16 -65 -20 -22 -4 -49
-13 -60 -20 -11 -7 -41 -16 -65 -20 -25 -4 -50 -12 -57 -17 -7 -5 -36 -16 -65
-23 -29 -7 -71 -20 -93 -29 -22 -8 -49 -15 -60 -16 -11 0 -29 -6 -40 -14 -11
-7 -40 -17 -65 -21 -25 -4 -54 -13 -65 -20 -11 -7 -40 -16 -65 -20 -25 -4 -54
-13 -65 -20 -11 -7 -40 -16 -65 -20 -24 -4 -54 -13 -65 -20 -11 -7 -40 -16
-65 -20 -25 -4 -54 -13 -65 -20 -11 -7 -41 -16 -65 -20 -25 -4 -50 -12 -57
-17 -7 -5 -36 -16 -65 -23 -29 -7 -71 -20 -93 -29 -22 -8 -49 -15 -60 -16 -11
0 -29 -6 -40 -14 -11 -7 -40 -17 -65 -21 -25 -4 -54 -13 -65 -20 -11 -7 -41
-16 -65 -20 -25 -4 -55 -13 -67 -21 -12 -7 -41 -17 -65 -20 -24 -4 -52 -13
-63 -20 -11 -8 -29 -14 -40 -14 -11 -1 -38 -8 -60 -16 -22 -8 -64 -21 -92 -28
-29 -7 -58 -18 -65 -24 -7 -5 -33 -13 -58 -17 -25 -4 -54 -13 -65 -20 -11 -7
-41 -16 -65 -20 -25 -4 -54 -13 -65 -20 -11 -7 -41 -16 -65 -20 -25 -4 -54
-14 -65 -21 -11 -8 -29 -14 -40 -14 -11 -1 -38 -8 -60 -16 -22 -8 -64 -21 -92
-28 -29 -7 -58 -18 -65 -24 -7 -5 -33 -13 -58 -17 -25 -4 -54 -13 -65 -20 -11
-7 -41 -16 -65 -20 -25 -4 -55 -13 -67 -21 -12 -7 -41 -17 -65 -20 -24 -4 -48
-11 -55 -16 -7 -5 -36 -16 -65 -23 -52 -13 -123 -35 -183 -56 -16 -6 -54 -17
-83 -24 -29 -8 -58 -18 -65 -23 -7 -5 -32 -13 -57 -17 -25 -4 -55 -13 -67 -21
-12 -7 -41 -17 -65 -20 -24 -4 -52 -13 -63 -20 -11 -6 -40 -15 -65 -19 -24 -4
-54 -13 -65 -20 -11 -7 -38 -16 -60 -20 -22 -3 -49 -12 -60 -19 -11 -8 -41
-17 -65 -21 -25 -4 -54 -13 -65 -20 -11 -7 -41 -16 -65 -20 -25 -4 -55 -13
-67 -21 -12 -7 -41 -17 -65 -20 -24 -4 -52 -13 -63 -20 -11 -8 -29 -14 -40
-14 -11 -1 -38 -8 -60 -16 -22 -8 -64 -21 -92 -28 -29 -7 -58 -18 -65 -24 -7
-5 -35 -13 -63 -17 -27 -4 -57 -13 -65 -20 -8 -7 -35 -16 -60 -20 -24 -4 -54
-13 -65 -21 -11 -7 -40 -16 -65 -20 -25 -4 -50 -11 -57 -16 -7 -5 -36 -16 -65
-23 -51 -13 -122 -35 -183 -56 -16 -6 -55 -17 -85 -24 -30 -7 -68 -18 -85 -23
-16 -6 -43 -14 -60 -19 l-30 -8 -3 -365 c-3 -400 -4 -390 56 -390 64 0 138
-73 147 -146 16 -130 -37 -227 -138 -253 -24 -6 -49 -17 -55 -24 -14 -16 -18
-4885 -4 -4899 10 -10 109 7 127 22 6 5 36 15 66 21 30 6 63 17 74 24 11 6 43
15 70 20 28 4 59 12 70 18 11 6 45 16 75 23 30 7 73 19 95 28 22 8 50 15 63
16 13 0 35 6 50 14 15 7 47 17 72 21 25 4 56 13 70 20 14 7 48 16 75 20 28 4
59 13 71 20 11 7 43 16 70 20 27 4 61 14 75 21 15 7 46 16 70 20 24 4 55 12
69 19 14 7 45 16 70 20 25 4 56 13 70 20 14 7 48 16 75 20 28 4 56 12 63 18 7
6 41 16 75 23 34 7 80 19 102 28 22 8 50 15 63 16 13 0 35 6 50 14 15 7 47 17
72 21 25 4 56 13 70 20 14 7 45 16 70 20 25 4 56 13 70 20 14 7 48 16 75 20
28 4 59 13 71 20 11 7 43 16 70 20 27 4 61 14 75 21 15 7 46 16 70 20 24 4 55
12 69 19 14 7 45 16 70 20 25 4 56 13 70 20 14 7 48 16 75 20 28 4 56 12 63
18 7 6 41 16 75 23 34 7 80 19 102 28 22 8 50 15 63 16 13 0 35 6 50 14 15 7
47 17 72 21 25 4 56 13 70 20 14 7 45 16 70 20 25 4 56 13 70 20 14 7 48 16
75 20 28 4 59 13 70 20 11 6 42 15 70 20 27 4 61 13 75 20 14 7 45 16 70 20
25 4 54 13 66 20 11 7 43 16 70 20 27 4 60 13 74 20 14 7 48 16 75 20 28 4 59
13 71 20 11 7 43 16 70 20 27 4 58 12 69 18 11 6 45 16 75 23 30 7 73 19 95
28 22 8 50 15 63 16 13 0 35 6 50 14 15 8 50 17 77 21 28 5 59 14 70 21 11 7
43 16 70 19 28 4 59 13 71 20 11 7 43 16 70 20 27 4 60 13 74 20 14 7 45 16
70 20 25 4 56 13 70 20 14 7 48 16 75 20 28 4 59 13 71 20 11 7 43 16 70 20
27 4 58 13 70 20 11 7 43 16 70 20 27 4 60 13 74 20 14 7 45 16 70 20 25 4 56
13 70 20 14 7 48 16 75 20 28 5 59 14 70 21 11 7 43 16 70 20 28 4 59 13 70
20 11 7 43 16 70 20 28 3 61 12 75 19 14 7 45 16 70 20 25 4 56 13 70 20 14 7
45 16 70 20 25 4 56 13 70 20 14 7 48 16 75 20 28 4 59 13 70 20 11 6 43 15
70 19 28 4 60 14 72 22 12 8 29 14 37 14 18 0 76 54 100 93 27 44 27 5108 -1
5118 -59 22 -142 151 -130 201 18 76 71 158 102 158 6 0 21 10 33 23 22 23 22
28 22 380 l0 357 -27 0 c-16 -1 -39 -10 -52 -20z m-591 -955 c14 -8 32 -17 40
-21 47 -23 110 -133 110 -194 0 -97 -100 -199 -211 -216 -24 -3 -53 -12 -64
-19 -11 -7 -40 -17 -65 -23 -58 -14 -136 -39 -180 -59 -243 -109 -454 192
-254 361 18 14 38 26 46 26 7 0 22 6 33 14 11 7 40 17 65 21 25 4 55 13 67 21
12 7 41 16 65 20 24 3 52 12 64 19 12 8 39 17 60 20 21 4 48 13 59 20 44 27
127 32 165 10z m-1233 -379 c57 -15 127 -78 141 -126 19 -68 7 -174 -23 -213
-17 -20 -35 -37 -40 -37 -6 0 -18 -9 -28 -20 -9 -11 -28 -20 -42 -20 -14 0
-39 -7 -54 -15 -16 -8 -48 -18 -72 -21 -24 -4 -53 -13 -64 -20 -11 -7 -38 -16
-60 -19 -22 -4 -50 -14 -63 -21 -12 -8 -41 -19 -65 -24 -23 -5 -55 -12 -71
-16 -138 -33 -290 140 -240 272 19 51 62 114 78 114 5 0 18 7 27 16 10 9 35
20 56 25 36 7 102 27 168 50 17 6 48 15 70 21 22 5 49 14 60 20 18 10 133 44
160 47 6 0 34 -6 62 -13z m-1192 -387 c105 -56 166 -199 120 -279 -8 -14 -17
-32 -21 -40 -22 -45 -104 -97 -169 -106 -22 -4 -49 -12 -60 -19 -11 -7 -41
-16 -65 -20 -25 -4 -54 -13 -66 -20 -12 -8 -39 -17 -60 -21 -21 -4 -55 -15
-74 -25 -140 -75 -319 38 -320 203 0 111 73 184 225 224 28 7 68 20 90 28 22
8 49 15 60 16 12 0 38 9 60 20 22 11 47 20 56 20 9 0 36 9 60 20 57 26 115 25
164 -1z m2569 -74 c3 -9 6 -942 6 -2073 l0 -2058 -34 -33 c-31 -30 -37 -32
-95 -29 -54 2 -63 0 -76 -20 -13 -17 -26 -22 -63 -22 -37 0 -50 -5 -60 -21
-11 -18 -21 -20 -77 -17 -58 2 -67 0 -81 -20 -12 -17 -25 -22 -62 -22 -37 0
-50 -5 -60 -21 -11 -18 -21 -20 -77 -17 -58 2 -67 0 -81 -20 -14 -21 -23 -23
-80 -20 -57 2 -66 0 -80 -21 -14 -20 -23 -22 -56 -18 -38 5 -68 -10 -68 -34 0
-6 -28 -9 -70 -7 -63 2 -72 0 -86 -20 -12 -17 -25 -22 -62 -22 -37 0 -50 -5
-60 -21 -11 -18 -21 -20 -77 -17 -58 2 -67 0 -81 -20 -12 -17 -25 -22 -62 -22
-37 0 -50 -5 -60 -21 -11 -18 -21 -20 -77 -17 -58 2 -67 0 -81 -20 -12 -17
-25 -22 -62 -22 -37 0 -50 -5 -60 -21 -11 -18 -21 -20 -77 -17 -58 2 -67 0
-81 -20 -14 -21 -23 -23 -80 -20 -57 2 -66 0 -80 -20 -12 -17 -25 -22 -62 -22
-37 0 -50 -5 -60 -21 -11 -18 -21 -20 -77 -17 -58 2 -67 0 -81 -20 -12 -17
-25 -22 -62 -22 -37 0 -50 -5 -60 -21 -11 -18 -21 -20 -77 -17 -58 2 -67 0
-81 -20 -12 -17 -25 -22 -62 -22 -37 0 -50 -5 -60 -21 -11 -18 -21 -20 -77
-17 -58 2 -67 0 -81 -20 -12 -17 -25 -22 -62 -22 -37 0 -50 -5 -60 -21 -11
-18 -21 -20 -77 -17 -58 2 -67 0 -81 -20 -14 -21 -23 -23 -80 -20 -57 2 -66 0
-80 -20 -12 -17 -25 -22 -62 -22 -37 0 -50 -5 -60 -21 -11 -18 -21 -20 -77
-17 -58 2 -67 0 -81 -20 -12 -17 -25 -22 -62 -22 -37 0 -50 -5 -60 -21 -11
-18 -21 -20 -77 -17 -58 2 -67 0 -81 -20 -12 -17 -25 -22 -62 -22 -37 0 -50
-5 -60 -21 -11 -18 -21 -20 -77 -17 -58 2 -67 0 -81 -20 -14 -21 -23 -23 -80
-20 -57 2 -66 0 -80 -21 -14 -20 -23 -22 -56 -18 -33 4 -43 1 -61 -19 -19 -22
-28 -25 -84 -22 -55 2 -65 0 -79 -20 -12 -17 -25 -22 -62 -22 -37 0 -50 -5
-60 -21 -11 -18 -21 -20 -77 -17 -58 2 -67 0 -81 -20 -12 -17 -25 -22 -62 -22
-37 0 -50 -5 -60 -21 -11 -18 -21 -20 -77 -17 -58 2 -67 0 -81 -20 -12 -17
-25 -22 -62 -22 -37 0 -50 -5 -60 -21 -11 -18 -21 -20 -77 -17 -58 2 -67 0
-81 -20 -14 -21 -23 -23 -80 -20 -57 2 -66 0 -80 -20 -16 -24 -53 -29 -72 -10
-16 16 -17 4063 -2 4119 l10 37 64 0 c55 0 68 -4 85 -24 16 -19 26 -22 56 -17
30 5 41 2 59 -18 32 -35 178 -35 203 0 14 21 21 23 94 17 75 -5 80 -4 103 21
15 16 30 24 40 20 11 -4 25 3 39 19 19 22 28 25 59 20 34 -6 40 -2 82 40 28
30 50 45 60 41 10 -4 62 41 159 139 152 152 168 162 205 119 19 -22 28 -24 61
-19 32 5 41 3 54 -16 24 -35 331 -37 362 -2 17 20 26 23 57 18 31 -5 41 -2 62
20 20 23 30 26 60 21 30 -5 40 -2 60 20 15 16 30 23 40 20 10 -4 31 10 60 40
28 29 50 44 60 40 10 -4 55 34 138 117 l123 123 62 1 c52 0 64 -4 81 -23 17
-19 27 -22 60 -18 33 4 42 2 55 -17 25 -36 170 -36 203 -1 20 22 28 23 78 18
52 -5 59 -3 80 20 20 22 30 25 61 20 30 -5 40 -2 58 19 19 22 28 25 59 20 34
-6 40 -2 82 40 28 30 50 45 60 41 10 -4 62 41 159 139 137 137 146 144 184
144 29 0 45 -6 60 -24 14 -16 28 -23 41 -19 13 3 25 -3 35 -17 24 -35 332 -36
362 -2 17 20 26 23 57 18 32 -5 41 -2 60 20 20 22 29 25 60 20 31 -5 41 -2 62
20 15 17 30 25 40 21 10 -4 31 10 60 40 27 28 50 43 59 40 15 -5 77 42 77 58
0 4 -8 14 -17 21 -25 18 -5 36 45 40 34 2 49 12 98 62 l59 59 62 1 c52 0 64
-4 81 -23 17 -19 27 -22 60 -18 33 4 42 2 55 -17 25 -36 170 -36 203 -1 20 22
28 23 79 18 51 -5 58 -4 78 20 19 21 28 24 59 19 31 -5 41 -2 62 20 15 17 30
25 40 21 10 -4 25 4 40 20 15 16 30 24 40 20 11 -4 24 3 38 18 25 29 34 31 42
10z m-3751 -331 c72 -61 98 -135 83 -238 -10 -62 -90 -146 -140 -146 -12 0
-34 -7 -49 -15 -15 -8 -45 -17 -65 -21 -20 -4 -48 -12 -62 -19 -14 -8 -44 -17
-65 -20 -22 -4 -51 -14 -65 -21 -167 -89 -332 -37 -380 119 -35 114 44 247
158 264 20 3 48 12 62 19 14 7 45 17 70 23 46 10 116 32 183 59 100 40 219 39
270 -4z m-1263 -357 c119 -58 176 -201 119 -297 -27 -45 -69 -90 -85 -90 -6 0
-17 -6 -23 -14 -6 -8 -33 -17 -59 -21 -26 -4 -56 -12 -67 -18 -11 -6 -42 -16
-70 -23 -54 -14 -124 -37 -197 -66 -106 -41 -239 -10 -282 67 -6 11 -19 31
-28 44 -26 35 -25 140 2 174 11 14 20 29 20 33 0 14 73 74 90 74 8 0 24 6 35
14 11 7 40 17 65 21 25 4 56 13 70 20 14 7 44 16 65 20 22 4 49 13 61 20 12 8
39 17 60 20 21 4 48 13 59 20 49 30 107 31 165 2z"/>
</g>
</svg>
