<?xml version="1.0" standalone="no"?>
<!DOCTYPE svg PUBLIC "-//W3C//DTD SVG 20010904//EN"
 "http://www.w3.org/TR/2001/REC-SVG-20010904/DTD/svg10.dtd">
<svg version="1.0" xmlns="http://www.w3.org/2000/svg"
 width="2048.000000pt" height="2048.000000pt" viewBox="0 0 2048.000000 2048.000000"
 preserveAspectRatio="xMidYMid meet">
<g transform="translate(0.000000,2048.000000) scale(0.100000,-0.100000)"
fill="#000000" stroke="none">
<path d="M5373 17263 c-7 -2 -35 -32 -62 -66 -27 -34 -70 -84 -96 -112 -82
-87 -309 -327 -342 -361 -18 -19 -72 -78 -121 -132 -49 -54 -107 -116 -128
-139 -22 -22 -100 -105 -174 -184 -74 -78 -142 -150 -150 -159 -32 -33 -159
-170 -255 -274 -55 -60 -129 -138 -164 -175 -57 -59 -157 -166 -366 -390 -38
-41 -83 -90 -100 -109 -16 -19 -110 -115 -207 -214 -98 -99 -178 -182 -178
-185 0 -9 55 -63 64 -63 4 0 22 -11 40 -25 17 -14 36 -29 42 -34 26 -21 181
-142 202 -158 13 -10 33 -26 45 -35 12 -10 49 -38 82 -62 33 -24 68 -52 77
-60 10 -9 21 -16 25 -16 3 0 21 -11 39 -25 18 -14 37 -25 43 -25 6 0 11 -4 11
-8 0 -5 28 -27 63 -50 73 -49 157 -108 174 -122 7 -5 15 -10 19 -10 4 0 59
-35 123 -77 63 -43 127 -84 141 -91 14 -7 43 -23 65 -37 22 -13 51 -30 65 -37
14 -7 47 -27 73 -46 26 -18 58 -37 70 -43 12 -5 40 -20 62 -34 22 -13 54 -31
70 -39 17 -9 37 -20 45 -26 8 -5 26 -15 40 -21 14 -5 43 -21 65 -34 22 -14 51
-29 65 -35 14 -5 32 -15 40 -20 8 -6 47 -26 85 -45 39 -19 77 -40 85 -45 8 -6
26 -14 40 -20 14 -5 32 -14 40 -20 8 -5 26 -14 40 -20 14 -5 32 -14 40 -20 8
-5 45 -23 83 -41 37 -17 69 -35 72 -39 3 -5 18 -11 34 -15 16 -3 35 -12 41
-20 6 -7 26 -16 44 -19 19 -4 39 -13 46 -21 7 -8 18 -15 24 -15 6 0 34 -11 61
-25 28 -13 55 -25 61 -25 6 0 17 -6 23 -14 7 -8 27 -17 45 -20 19 -4 39 -13
46 -21 7 -8 20 -15 29 -15 9 0 39 -12 66 -25 28 -14 55 -25 61 -25 6 0 17 -6
23 -14 7 -8 27 -17 45 -20 19 -4 39 -13 46 -21 7 -8 20 -15 29 -15 9 0 39 -11
66 -25 28 -13 55 -25 62 -25 6 0 24 -7 40 -15 46 -23 119 -55 127 -55 8 0 104
-42 149 -65 16 -8 34 -15 40 -15 7 0 35 -11 62 -25 28 -13 57 -25 65 -25 8 0
24 -7 34 -15 11 -8 27 -15 36 -15 8 0 32 -9 53 -20 20 -11 43 -20 50 -20 7 0
29 -9 50 -20 20 -11 43 -20 50 -20 7 0 28 -8 47 -18 19 -11 49 -22 65 -26 17
-4 44 -13 60 -21 79 -37 123 -54 150 -61 17 -4 37 -12 45 -19 8 -7 29 -16 47
-19 17 -4 48 -16 69 -27 21 -10 45 -19 54 -19 8 0 24 -7 34 -15 11 -8 27 -15
36 -15 9 0 33 -9 53 -19 21 -11 56 -22 77 -26 21 -4 44 -13 51 -21 6 -8 19
-14 28 -14 9 0 34 -9 55 -19 21 -11 51 -23 66 -26 15 -3 45 -15 66 -26 21 -10
45 -19 54 -19 8 0 24 -7 34 -15 11 -8 27 -15 36 -15 8 0 31 -8 50 -19 19 -10
49 -21 67 -25 17 -4 37 -13 43 -21 6 -7 27 -16 48 -20 20 -4 48 -13 62 -21 14
-8 36 -18 50 -24 14 -5 32 -14 40 -19 14 -9 77 -38 130 -60 14 -6 32 -15 40
-21 8 -5 44 -23 80 -40 95 -45 123 -60 140 -71 8 -5 29 -16 45 -25 17 -8 48
-26 70 -39 22 -13 51 -30 65 -37 14 -7 29 -18 33 -25 4 -7 13 -13 19 -13 11 0
195 -119 228 -147 8 -7 53 -43 100 -79 186 -147 378 -346 475 -494 17 -25 33
-46 37 -48 4 -2 12 -19 18 -38 21 -62 97 -61 86 2 -24 126 -28 285 -36 1389
-5 783 -12 1214 -19 1240 -5 22 -15 103 -21 180 -7 77 -18 165 -25 195 -7 30
-16 84 -20 120 -4 36 -13 88 -20 115 -20 74 -44 173 -56 230 -5 28 -16 61 -23
75 -8 14 -17 46 -21 73 -4 26 -11 50 -15 52 -5 3 -16 30 -24 60 -9 30 -21 57
-26 60 -6 3 -10 13 -10 22 0 16 -41 113 -60 143 -6 8 -15 26 -20 40 -6 14 -15
32 -20 40 -6 8 -16 26 -22 40 -23 45 -131 204 -192 280 -101 127 -253 272
-406 388 -47 36 -193 134 -214 143 -12 6 -39 21 -61 34 -22 13 -53 31 -70 39
-16 9 -37 20 -45 26 -8 5 -26 14 -40 20 -14 5 -32 14 -40 20 -8 5 -26 14 -40
20 -14 5 -32 14 -40 20 -8 5 -42 21 -75 35 -33 15 -67 30 -75 36 -8 5 -22 12
-30 15 -8 3 -33 13 -55 24 -22 10 -51 22 -65 25 -14 4 -32 13 -40 20 -8 7 -32
16 -52 20 -21 4 -42 13 -49 21 -6 8 -19 14 -28 14 -9 0 -38 12 -66 25 -27 14
-57 25 -65 25 -8 0 -24 7 -34 15 -11 8 -27 15 -36 15 -8 0 -31 8 -50 19 -19
10 -51 22 -70 26 -19 4 -42 13 -50 20 -8 7 -31 16 -50 20 -19 4 -42 13 -50 20
-8 7 -31 16 -50 20 -19 4 -44 14 -55 21 -11 8 -26 14 -35 14 -9 0 -33 9 -55
20 -22 11 -44 20 -50 20 -6 0 -28 9 -50 20 -22 11 -44 20 -50 20 -6 0 -28 9
-50 20 -22 11 -44 20 -50 20 -6 0 -28 9 -50 20 -22 11 -45 20 -53 20 -12 0
-63 21 -168 71 -23 10 -48 19 -56 19 -9 0 -21 7 -28 15 -7 8 -20 15 -29 15 -9
0 -34 9 -55 19 -21 11 -51 23 -66 26 -16 3 -34 12 -40 20 -6 7 -29 16 -50 20
-21 4 -44 13 -50 20 -6 8 -24 17 -40 20 -16 3 -34 12 -40 20 -6 7 -26 16 -44
19 -19 4 -39 13 -46 21 -7 8 -18 15 -24 15 -6 0 -33 11 -61 25 -27 13 -55 25
-61 25 -6 0 -17 6 -23 14 -7 8 -27 17 -45 20 -19 4 -39 13 -46 21 -7 8 -20 15
-29 15 -9 0 -27 7 -41 14 -14 8 -72 37 -130 66 -58 28 -112 56 -120 61 -8 5
-28 16 -45 25 -16 8 -48 26 -70 40 -22 13 -54 30 -71 38 -17 8 -36 22 -44 30
-12 16 -33 19 -57 9z m256 -659 c13 -15 27 -21 37 -17 10 4 25 -4 40 -20 15
-16 30 -24 40 -20 10 4 25 -4 40 -20 15 -16 30 -24 40 -20 10 4 25 -4 41 -21
15 -17 31 -25 42 -21 11 3 25 -4 40 -20 14 -17 28 -24 40 -20 11 3 25 -4 39
-20 19 -21 28 -24 60 -19 31 5 40 2 59 -20 14 -16 28 -23 39 -19 10 4 25 -4
40 -20 15 -16 30 -24 40 -20 10 4 25 -4 41 -21 15 -17 31 -25 42 -21 11 3 25
-4 39 -20 19 -21 28 -24 60 -19 31 5 40 2 59 -20 14 -16 28 -23 39 -19 10 4
25 -4 40 -21 21 -22 31 -25 62 -20 31 5 40 2 59 -20 14 -16 28 -23 39 -19 10
4 25 -4 40 -20 20 -22 30 -25 60 -20 30 5 40 2 60 -20 15 -16 30 -24 40 -20
10 4 25 -4 40 -21 21 -22 31 -25 62 -20 31 5 40 2 59 -20 14 -16 28 -23 39
-19 10 4 25 -4 40 -21 21 -22 31 -25 62 -20 31 5 40 2 59 -20 14 -16 28 -23
39 -19 10 4 25 -4 40 -21 21 -22 31 -25 62 -20 31 5 40 2 59 -20 14 -16 28
-23 39 -19 10 4 25 -4 40 -21 21 -22 31 -25 62 -20 31 5 40 2 59 -20 14 -16
28 -23 39 -19 10 4 25 -4 40 -21 21 -22 31 -25 62 -20 31 5 40 2 59 -20 14
-16 28 -23 39 -19 10 4 25 -4 41 -21 15 -17 31 -25 42 -21 11 3 25 -4 39 -20
19 -21 28 -24 60 -19 31 5 40 2 59 -20 14 -16 28 -23 39 -19 10 4 25 -4 40
-20 15 -16 30 -24 40 -20 10 4 25 -4 40 -20 15 -16 30 -24 40 -20 10 4 25 -4
40 -20 15 -16 30 -24 40 -20 10 4 31 -10 60 -40 29 -30 50 -44 60 -40 10 4 25
-4 40 -20 15 -16 30 -24 40 -20 10 4 37 -16 80 -60 41 -42 70 -64 79 -60 23 8
325 -295 325 -327 0 -14 9 -31 20 -38 12 -7 20 -23 20 -40 0 -17 8 -32 21 -40
13 -9 19 -20 16 -32 -3 -13 8 -33 33 -59 29 -31 40 -52 46 -88 4 -29 14 -53
25 -61 14 -10 19 -26 19 -60 0 -36 5 -50 20 -60 15 -9 20 -23 20 -60 0 -36 5
-50 20 -60 17 -10 20 -23 20 -80 0 -56 3 -69 20 -80 18 -11 20 -23 20 -120 0
-96 2 -108 20 -120 20 -12 20 -23 20 -941 0 -669 -3 -932 -11 -937 -6 -3 -22
5 -35 19 -15 16 -30 24 -40 20 -10 -4 -25 4 -40 20 -15 16 -30 24 -40 20 -10
-4 -31 10 -60 40 -29 30 -50 44 -60 40 -10 -3 -25 4 -40 20 -15 16 -30 24 -43
20 -13 -3 -24 2 -33 16 -7 12 -23 21 -38 21 -17 0 -39 15 -68 45 -28 29 -48
42 -58 38 -10 -4 -25 4 -40 20 -15 16 -30 24 -40 20 -10 -4 -25 4 -40 20 -15
16 -30 24 -40 20 -10 -4 -25 4 -40 20 -15 16 -30 24 -40 20 -10 -4 -25 4 -39
20 -20 21 -30 24 -64 20 -33 -5 -42 -2 -53 16 -8 13 -23 21 -40 21 -17 0 -33
8 -40 20 -8 12 -24 20 -39 20 -14 0 -34 10 -46 24 -18 20 -28 23 -61 19 -34
-5 -43 -2 -54 16 -8 12 -23 21 -39 21 -14 0 -34 10 -46 24 -18 20 -28 23 -61
19 -34 -5 -43 -2 -54 16 -8 12 -23 21 -39 21 -14 0 -34 10 -46 24 -18 20 -28
23 -61 19 -34 -5 -43 -2 -54 16 -8 12 -23 21 -39 21 -14 0 -34 10 -47 24 -17
21 -27 24 -57 19 -31 -5 -41 -2 -60 20 -20 21 -30 24 -64 20 -33 -5 -42 -2
-53 16 -8 12 -23 21 -39 21 -14 0 -34 10 -46 24 -18 20 -28 23 -61 19 -34 -5
-43 -2 -54 16 -8 12 -23 21 -39 21 -14 0 -34 10 -46 24 -18 20 -28 23 -61 19
-34 -5 -43 -2 -54 16 -8 12 -23 21 -39 21 -14 0 -34 10 -46 24 -18 20 -28 23
-61 19 -34 -5 -43 -2 -54 16 -8 12 -23 21 -39 21 -14 0 -34 10 -46 24 -18 20
-28 23 -61 19 -34 -5 -43 -2 -54 16 -8 12 -23 21 -39 21 -14 0 -34 10 -46 24
-18 20 -28 23 -61 19 -34 -5 -43 -2 -54 16 -8 13 -23 21 -40 21 -17 0 -33 8
-40 20 -8 12 -24 20 -39 20 -14 0 -34 10 -46 24 -18 20 -28 23 -61 19 -34 -5
-43 -2 -54 16 -8 12 -23 21 -39 21 -14 0 -34 10 -46 24 -18 20 -28 23 -61 19
-34 -5 -43 -2 -54 16 -8 13 -23 21 -40 21 -17 0 -33 8 -40 20 -8 12 -24 20
-39 20 -15 0 -34 10 -47 25 -14 15 -27 22 -38 18 -10 -4 -25 4 -40 20 -15 16
-30 24 -40 20 -10 -4 -25 4 -40 20 -15 16 -30 24 -40 20 -10 -4 -25 4 -40 20
-15 16 -30 24 -40 20 -10 -4 -25 4 -39 20 -20 21 -30 24 -64 20 -33 -5 -42 -2
-53 16 -8 13 -23 21 -40 21 -17 0 -33 8 -40 20 -8 12 -24 20 -40 20 -17 0 -33
8 -40 20 -8 12 -24 20 -40 20 -17 0 -33 8 -40 20 -8 12 -24 20 -40 20 -17 0
-33 8 -40 20 -7 11 -24 20 -38 20 -17 0 -39 15 -68 45 -28 29 -48 42 -58 38
-10 -4 -25 4 -40 20 -15 16 -30 24 -40 20 -10 -4 -25 4 -40 20 -15 16 -30 24
-43 20 -13 -3 -24 2 -33 16 -8 13 -23 21 -40 21 -17 0 -33 8 -40 20 -7 11 -24
20 -38 20 -17 0 -39 15 -67 44 -30 32 -48 43 -62 39 -13 -3 -24 2 -33 16 -7
12 -23 21 -38 21 -17 0 -39 15 -68 45 -27 29 -48 42 -58 38 -10 -4 -31 10 -60
40 -29 30 -50 44 -60 40 -10 -4 -31 11 -60 40 -28 30 -50 44 -60 40 -10 -4
-37 17 -80 60 -43 44 -70 64 -80 60 -10 -4 -31 11 -60 40 -29 30 -50 44 -60
40 -9 -3 -29 7 -50 28 -31 30 -34 38 -34 93 l0 61 245 243 c163 162 242 248
238 257 -8 23 16 45 48 45 25 0 29 4 29 28 0 27 442 482 469 482 23 0 20 21
-4 32 -38 17 -31 52 12 56 39 4 496 453 486 478 -8 20 17 46 39 41 13 -4 32 9
61 39 l42 44 102 -2 c93 -1 104 -3 122 -24z m-1154 -864 c8 -25 -1 -40 -25
-40 -11 0 -24 -9 -30 -20 -12 -23 -42 -26 -59 -7 -14 18 -4 27 28 27 20 0 29
7 38 30 13 34 39 40 48 10z m-335 -340 c0 -5 -4 -10 -10 -10 -5 0 -10 -8 -10
-19 0 -24 -23 -43 -44 -35 -21 8 -21 43 2 50 9 3 24 9 32 14 20 12 30 12 30 0z"/>
<path d="M15135 17260 c-6 -10 -23 -20 -120 -70 -22 -11 -58 -31 -80 -45 -22
-13 -51 -29 -65 -34 -14 -6 -32 -16 -40 -21 -8 -6 -26 -15 -40 -20 -14 -6 -32
-15 -40 -20 -8 -6 -26 -15 -40 -20 -14 -6 -32 -15 -40 -20 -8 -6 -26 -15 -40
-21 -14 -5 -43 -19 -66 -30 -22 -10 -45 -19 -51 -19 -6 0 -16 -6 -22 -14 -7
-8 -27 -17 -45 -20 -19 -4 -39 -13 -46 -21 -7 -8 -18 -15 -24 -15 -6 0 -33
-11 -61 -25 -27 -13 -55 -25 -61 -25 -6 0 -17 -7 -24 -15 -7 -8 -20 -15 -29
-15 -9 0 -37 -11 -63 -25 -26 -14 -53 -25 -61 -25 -8 0 -20 -6 -26 -14 -7 -8
-30 -17 -51 -21 -21 -4 -44 -13 -51 -21 -6 -8 -18 -14 -26 -14 -13 0 -49 -15
-158 -65 -16 -7 -47 -19 -67 -25 -21 -6 -40 -16 -43 -21 -4 -5 -14 -9 -23 -9
-10 0 -35 -9 -57 -20 -22 -11 -44 -20 -50 -20 -6 0 -28 -9 -50 -20 -22 -11
-44 -20 -50 -20 -6 0 -28 -9 -50 -20 -22 -11 -44 -20 -50 -20 -6 0 -28 -9 -49
-19 -21 -11 -51 -23 -66 -26 -15 -3 -45 -15 -66 -26 -21 -10 -44 -19 -51 -19
-7 0 -30 -9 -50 -20 -21 -11 -45 -20 -53 -20 -9 0 -24 -6 -35 -14 -11 -7 -34
-17 -52 -20 -17 -4 -48 -16 -69 -27 -21 -10 -46 -19 -55 -19 -9 0 -22 -6 -28
-14 -7 -8 -30 -17 -51 -21 -21 -4 -44 -13 -51 -21 -6 -8 -19 -14 -28 -14 -9 0
-32 -9 -52 -19 -20 -11 -52 -23 -72 -26 -20 -4 -41 -13 -48 -21 -6 -8 -18 -14
-26 -14 -9 0 -32 -9 -52 -19 -55 -29 -149 -71 -159 -71 -5 0 -15 -6 -21 -14
-7 -8 -27 -17 -45 -20 -19 -4 -39 -13 -46 -21 -6 -7 -24 -17 -40 -20 -16 -3
-34 -12 -40 -20 -6 -8 -25 -17 -41 -20 -16 -4 -32 -11 -35 -17 -4 -5 -21 -16
-38 -24 -17 -8 -62 -35 -101 -59 -38 -25 -84 -51 -101 -59 -17 -8 -36 -22 -44
-30 -7 -9 -17 -16 -22 -16 -7 0 -76 -50 -126 -91 -7 -6 -41 -33 -75 -61 -92
-76 -171 -154 -240 -238 -34 -41 -66 -79 -72 -85 -6 -5 -40 -55 -76 -110 -88
-137 -88 -136 -104 -172 -8 -17 -19 -34 -24 -37 -5 -4 -12 -19 -16 -35 -3 -16
-13 -35 -21 -42 -8 -6 -14 -19 -14 -28 0 -9 -12 -38 -25 -66 -14 -27 -25 -55
-25 -62 0 -6 -7 -24 -14 -40 -25 -48 -83 -237 -100 -323 -7 -36 -17 -74 -23
-85 -6 -11 -14 -49 -18 -85 -3 -36 -12 -85 -20 -110 -8 -25 -17 -79 -20 -120
-4 -41 -12 -106 -20 -145 -7 -38 -16 -128 -20 -200 -4 -71 -13 -202 -21 -290
-11 -123 -14 -375 -15 -1095 0 -514 -4 -1016 -8 -1115 -8 -179 -4 -215 23
-215 13 0 51 52 68 93 15 34 177 235 255 314 92 94 394 337 463 373 14 7 27
16 30 19 9 11 69 51 92 62 13 5 41 21 63 34 22 13 54 31 71 38 17 8 50 27 75
43 24 15 71 41 104 57 33 15 67 32 75 37 8 6 26 15 40 21 54 22 131 62 135 69
3 4 17 11 32 14 26 7 48 16 156 66 24 11 48 20 54 20 6 0 16 6 22 14 7 8 30
17 51 21 21 4 44 13 51 21 6 8 19 14 28 14 9 0 39 11 66 25 28 13 55 25 60 25
6 0 28 9 50 20 22 11 46 20 55 20 9 0 24 6 35 14 11 7 36 17 55 21 19 4 44 14
55 21 11 8 26 14 35 14 9 0 33 9 54 19 21 11 52 23 69 27 18 3 39 12 47 19 8
7 29 16 47 19 17 4 48 16 69 27 21 10 44 19 51 19 7 0 30 9 50 20 21 11 43 20
50 20 7 0 30 9 50 20 21 11 48 20 60 20 12 0 25 4 28 10 3 5 30 17 60 26 30 8
57 20 60 25 4 5 14 9 23 9 9 0 40 12 67 25 28 14 60 25 71 25 12 0 27 7 34 15
7 8 27 17 46 21 19 3 36 10 39 14 3 5 22 14 43 20 36 12 98 37 157 66 17 7 45
17 62 20 18 4 38 13 44 20 6 8 19 14 28 14 9 0 39 11 66 25 28 13 57 25 66 25
9 0 22 7 29 15 7 8 17 15 23 15 11 0 58 20 153 66 28 13 58 24 66 24 9 0 21 6
27 14 7 8 27 18 44 22 18 3 43 12 57 20 14 7 52 25 85 39 33 14 67 30 75 36 8
5 22 12 30 15 8 4 38 17 67 30 28 13 58 24 66 24 8 0 20 6 26 14 7 8 25 18 41
21 16 3 34 12 40 20 6 8 24 17 40 20 16 3 34 12 40 20 6 8 24 17 40 20 16 3
34 12 40 20 6 8 24 17 40 20 16 3 34 12 40 20 6 8 24 17 40 20 16 3 34 12 40
20 6 8 24 17 40 20 16 3 34 12 40 20 6 8 25 17 41 20 16 4 31 10 34 15 3 5 36
24 73 44 37 19 87 46 112 59 25 14 77 42 115 62 39 20 88 48 110 61 22 13 54
31 70 39 17 9 62 36 100 60 39 24 81 50 95 57 14 7 45 26 70 43 25 17 52 34
60 37 12 5 73 44 233 151 11 6 33 22 50 35 17 12 36 22 43 22 6 0 17 6 23 14
7 8 44 36 84 62 40 26 77 52 82 58 6 6 30 24 55 41 25 16 74 53 110 81 36 28
72 55 81 60 9 5 34 24 55 41 22 18 66 53 99 77 33 25 66 51 74 58 8 7 40 33
70 56 81 64 84 54 -57 198 -70 71 -180 185 -244 254 -64 69 -145 155 -180 192
-34 36 -108 115 -163 174 -210 227 -241 260 -290 312 -27 30 -77 82 -110 117
-79 83 -145 153 -230 245 -145 157 -312 336 -370 396 -33 34 -85 88 -114 120
-30 33 -84 91 -120 129 -160 172 -285 308 -351 383 -43 50 -72 64 -85 42z m13
-655 c14 -16 27 -22 38 -18 22 8 327 -295 320 -320 -3 -12 76 -97 280 -300
204 -202 283 -287 280 -300 -3 -12 87 -108 320 -340 233 -231 324 -327 320
-340 -3 -11 17 -38 60 -80 35 -35 64 -72 64 -82 0 -26 -145 -169 -164 -162
-10 4 -38 -17 -80 -60 -43 -43 -70 -64 -80 -60 -10 4 -32 -10 -60 -40 -30 -30
-50 -44 -61 -40 -9 4 -22 -1 -32 -13 -10 -11 -23 -20 -30 -20 -24 0 -23 -20 2
-30 20 -7 26 -16 23 -33 -5 -33 -45 -36 -58 -3 -14 37 -33 32 -82 -19 -29 -30
-51 -45 -68 -45 -15 0 -31 -9 -38 -21 -9 -14 -20 -19 -33 -16 -14 4 -32 -7
-62 -39 -28 -29 -50 -44 -67 -44 -15 0 -31 -9 -38 -21 -9 -14 -20 -19 -33 -16
-13 4 -28 -4 -43 -20 -15 -16 -30 -24 -40 -20 -10 4 -30 -9 -58 -38 -29 -30
-51 -45 -68 -45 -14 0 -31 -9 -38 -20 -7 -12 -23 -20 -40 -20 -16 0 -32 -8
-40 -20 -7 -12 -23 -20 -40 -20 -16 0 -32 -8 -40 -20 -7 -12 -23 -20 -40 -20
-17 0 -32 -8 -40 -21 -9 -14 -20 -19 -33 -16 -13 4 -28 -4 -43 -20 -15 -16
-30 -24 -40 -20 -10 4 -25 -4 -40 -20 -15 -16 -30 -24 -40 -20 -10 4 -25 -4
-40 -20 -15 -16 -30 -24 -40 -20 -10 4 -25 -4 -40 -20 -15 -16 -30 -24 -40
-20 -11 4 -24 -3 -38 -18 -13 -15 -32 -25 -47 -25 -15 0 -31 -8 -39 -20 -7
-12 -23 -20 -40 -20 -16 0 -32 -8 -40 -20 -7 -12 -23 -20 -40 -20 -17 0 -32
-8 -40 -21 -11 -18 -20 -21 -53 -16 -34 4 -44 1 -64 -20 -14 -16 -29 -24 -39
-20 -10 4 -25 -4 -40 -20 -15 -16 -30 -24 -40 -20 -11 4 -24 -3 -38 -18 -13
-15 -32 -25 -47 -25 -16 0 -31 -9 -39 -21 -11 -18 -20 -21 -53 -16 -34 4 -44
1 -64 -20 -14 -16 -29 -24 -39 -20 -11 4 -24 -3 -38 -18 -13 -15 -32 -25 -47
-25 -16 0 -31 -9 -39 -21 -11 -18 -20 -21 -54 -16 -33 4 -43 1 -61 -19 -12
-14 -32 -24 -46 -24 -15 0 -31 -8 -39 -20 -7 -12 -23 -20 -40 -20 -17 0 -32
-8 -40 -21 -11 -18 -20 -21 -54 -16 -33 4 -43 1 -61 -19 -12 -14 -32 -24 -46
-24 -16 0 -31 -9 -39 -21 -11 -18 -20 -21 -53 -16 -34 4 -44 1 -64 -20 -19
-22 -29 -25 -60 -20 -30 5 -40 2 -57 -19 -13 -14 -33 -24 -47 -24 -16 0 -31
-9 -39 -21 -11 -18 -20 -21 -54 -16 -33 4 -43 1 -61 -19 -12 -14 -32 -24 -46
-24 -16 0 -31 -9 -39 -21 -11 -18 -20 -21 -54 -16 -33 4 -43 1 -61 -19 -12
-14 -32 -24 -46 -24 -16 0 -31 -9 -39 -21 -11 -18 -20 -21 -53 -16 -34 4 -44
1 -64 -20 -19 -22 -29 -25 -60 -20 -30 5 -40 2 -57 -19 -13 -14 -33 -24 -47
-24 -16 0 -31 -9 -39 -21 -11 -18 -20 -21 -54 -16 -33 4 -43 1 -61 -19 -12
-14 -32 -24 -46 -24 -15 0 -31 -8 -39 -20 -7 -12 -23 -20 -40 -20 -17 0 -32
-8 -40 -21 -11 -18 -20 -21 -54 -16 -33 4 -43 1 -61 -19 -12 -14 -32 -24 -46
-24 -15 0 -31 -8 -39 -20 -7 -12 -23 -20 -40 -20 -17 0 -32 -8 -40 -21 -11
-18 -20 -21 -53 -16 -34 4 -44 1 -64 -20 -14 -16 -29 -24 -39 -20 -10 4 -25
-4 -40 -20 -15 -16 -30 -24 -40 -20 -10 4 -25 -4 -40 -20 -15 -16 -30 -24 -40
-20 -10 4 -25 -4 -40 -20 -15 -16 -30 -24 -40 -20 -10 4 -30 -9 -58 -38 -29
-30 -51 -45 -68 -45 -15 0 -31 -9 -38 -21 -9 -14 -20 -19 -33 -16 -13 4 -28
-4 -43 -20 -15 -16 -30 -23 -40 -20 -10 4 -31 -10 -60 -40 -29 -29 -50 -44
-60 -40 -10 4 -31 -10 -60 -40 -29 -29 -50 -44 -60 -40 -15 6 -41 -12 -48 -35
-2 -6 -12 -9 -21 -5 -16 6 -17 71 -16 914 0 878 4 1003 28 1011 7 2 11 30 12
70 0 86 13 165 28 170 6 2 11 25 11 51 0 50 16 111 30 111 4 0 11 32 15 70 4
39 13 77 21 85 8 7 14 25 14 39 0 15 8 31 20 38 12 8 20 24 20 40 0 17 8 33
20 40 12 8 20 24 20 40 0 17 8 33 20 40 12 8 20 24 20 40 0 17 8 33 20 40 11
7 20 24 20 38 0 19 27 51 105 128 71 70 102 107 98 118 -8 21 56 87 79 80 13
-3 45 23 103 81 56 57 89 84 99 80 10 -4 32 10 60 40 29 30 50 44 60 40 10 -4
25 4 40 20 15 16 30 24 40 20 10 -4 25 4 40 20 15 16 30 24 40 20 10 -4 25 4
40 20 15 16 30 24 40 20 10 -4 25 4 40 20 15 16 30 24 40 20 10 -4 25 4 40 20
15 16 30 24 40 20 10 -4 25 4 40 20 15 16 30 24 40 20 10 -4 25 4 40 20 15 16
30 24 40 20 11 -4 25 3 39 19 19 22 28 25 59 20 31 -5 41 -2 62 20 15 17 30
25 40 21 11 -4 25 3 39 19 19 22 28 25 59 20 31 -5 41 -2 62 20 15 17 30 25
40 21 11 -4 25 3 39 19 19 22 28 25 59 20 31 -5 41 -2 62 20 15 17 30 25 40
21 11 -4 25 3 39 19 19 22 28 25 59 20 31 -5 41 -2 62 20 15 17 30 25 40 21
11 -4 25 3 39 19 19 22 28 25 59 20 32 -5 41 -2 60 20 20 22 29 25 60 20 31
-5 41 -2 62 20 15 17 30 25 40 21 11 -4 25 3 39 19 19 22 28 25 59 20 31 -5
41 -2 62 20 15 17 30 25 40 21 10 -4 25 4 40 20 15 16 30 24 40 20 11 -4 25 3
39 19 19 22 28 25 59 20 31 -5 41 -2 62 20 15 17 30 25 40 21 10 -4 25 4 40
20 15 16 30 24 40 20 11 -4 25 3 39 19 19 22 28 25 59 20 32 -5 41 -2 60 19
14 16 28 23 39 20 11 -4 27 4 42 21 16 17 31 25 41 21 10 -4 25 4 40 20 15 16
30 24 40 20 10 -4 25 4 40 20 15 16 30 24 40 20 10 -4 25 4 40 20 15 16 30 24
40 20 10 -4 25 4 40 20 15 16 30 24 40 20 11 -4 25 3 39 19 19 22 28 25 59 20
32 -5 41 -2 58 17 32 37 177 38 208 2z"/>
<path d="M2689 14287 c-8 -12 -30 -51 -48 -87 -18 -36 -44 -83 -57 -105 -13
-22 -30 -53 -39 -70 -8 -16 -26 -48 -39 -70 -14 -22 -32 -53 -40 -70 -9 -16
-27 -48 -40 -70 -14 -22 -32 -53 -41 -70 -8 -16 -27 -48 -40 -70 -14 -22 -32
-53 -41 -70 -39 -74 -54 -99 -61 -104 -9 -7 -36 -53 -57 -97 -8 -17 -22 -36
-30 -44 -9 -7 -16 -17 -16 -23 0 -6 -9 -20 -20 -32 -29 -31 -13 -73 30 -82 17
-3 33 -10 36 -14 3 -5 20 -16 37 -24 18 -8 39 -19 47 -25 8 -5 26 -15 40 -21
14 -5 43 -21 65 -34 22 -14 54 -32 70 -40 17 -8 48 -26 70 -40 22 -14 54 -32
70 -41 17 -8 48 -26 70 -39 22 -14 51 -30 65 -37 14 -6 32 -17 40 -24 8 -7 40
-26 70 -41 30 -16 74 -42 98 -57 24 -15 55 -32 70 -39 15 -6 47 -25 72 -42 25
-17 60 -37 78 -44 17 -7 32 -16 32 -20 0 -4 12 -12 28 -19 15 -6 45 -23 67
-36 22 -14 54 -32 70 -40 17 -9 48 -27 70 -40 22 -14 54 -32 70 -40 17 -9 48
-27 70 -41 22 -13 54 -31 70 -40 17 -9 48 -27 70 -40 22 -13 54 -31 70 -40 17
-8 48 -27 70 -40 22 -14 54 -32 70 -41 17 -8 48 -26 70 -40 22 -13 54 -31 70
-40 17 -8 48 -26 70 -40 22 -13 51 -30 65 -37 14 -7 44 -24 67 -39 23 -15 70
-43 105 -61 35 -18 83 -47 108 -63 25 -16 56 -34 70 -41 14 -7 43 -24 65 -37
22 -14 54 -32 70 -40 17 -9 48 -27 70 -40 22 -14 54 -32 70 -41 17 -8 48 -27
70 -40 22 -13 54 -31 70 -40 17 -8 48 -26 70 -40 22 -13 54 -31 70 -40 17 -9
48 -27 70 -40 22 -13 54 -31 70 -39 17 -8 34 -18 38 -23 9 -8 121 -72 167 -95
14 -7 29 -18 33 -25 4 -7 13 -13 19 -13 12 0 163 -85 188 -106 8 -7 28 -16 43
-20 16 -3 31 -12 34 -19 2 -7 15 -16 28 -19 13 -3 30 -12 37 -19 7 -7 24 -18
38 -25 14 -7 43 -23 65 -37 22 -13 54 -31 70 -39 17 -9 48 -27 70 -40 22 -14
54 -32 70 -40 17 -9 48 -27 70 -40 22 -14 54 -32 70 -41 17 -8 48 -27 70 -40
22 -13 54 -31 70 -40 17 -9 48 -27 70 -40 22 -14 54 -32 70 -41 63 -33 92 -50
137 -81 25 -17 57 -34 70 -38 12 -4 34 -16 47 -26 13 -11 27 -19 31 -19 5 0
32 -16 62 -35 29 -19 62 -38 72 -41 11 -4 41 -22 67 -40 26 -18 60 -36 74 -40
15 -4 29 -13 32 -20 3 -8 10 -14 15 -14 10 0 40 -17 157 -87 20 -12 50 -29 66
-37 17 -9 48 -27 70 -40 22 -14 54 -32 70 -40 17 -9 48 -27 70 -41 22 -13 54
-32 70 -40 17 -9 48 -27 70 -41 22 -13 54 -31 70 -39 17 -9 48 -27 70 -40 22
-13 54 -32 70 -40 17 -9 48 -27 70 -41 22 -13 54 -31 70 -40 17 -8 46 -25 66
-37 20 -12 82 -49 139 -82 56 -33 118 -70 138 -82 20 -12 51 -29 67 -37 17 -9
48 -27 70 -40 22 -14 54 -32 70 -40 17 -9 48 -27 70 -41 22 -13 47 -27 55 -31
16 -8 97 -54 158 -91 21 -12 51 -29 67 -37 17 -9 48 -27 70 -41 22 -13 54 -31
70 -40 17 -9 48 -27 70 -40 22 -13 54 -32 70 -40 17 -9 48 -27 70 -41 22 -13
54 -31 70 -40 17 -8 46 -25 66 -37 20 -12 67 -40 104 -62 37 -22 83 -50 103
-62 21 -12 48 -28 62 -35 14 -7 41 -23 60 -36 19 -12 42 -27 50 -32 8 -5 39
-25 67 -45 62 -41 71 -43 82 -12 10 27 -3 184 -23 287 -8 41 -17 114 -21 162
-3 49 -12 109 -20 135 -7 27 -16 76 -20 111 -3 34 -12 79 -19 100 -7 20 -16
61 -20 91 -4 30 -12 64 -18 75 -6 12 -17 46 -24 76 -16 71 -41 147 -60 183 -7
16 -14 36 -14 44 0 54 -225 474 -308 574 -17 21 -52 63 -97 115 -39 46 -211
216 -270 267 -16 15 -37 32 -45 40 -26 23 -106 86 -141 111 -43 31 -217 147
-244 163 -11 7 -47 28 -80 48 -33 19 -67 40 -75 45 -8 6 -26 14 -40 20 -14 5
-32 14 -40 20 -8 5 -26 14 -40 20 -14 5 -32 14 -40 19 -28 18 -209 101 -219
101 -6 0 -28 9 -48 20 -21 11 -45 20 -54 20 -9 0 -22 6 -28 14 -7 8 -28 17
-49 21 -20 3 -46 12 -57 19 -11 8 -36 17 -55 21 -19 4 -39 11 -45 15 -10 8
-92 39 -177 66 -26 8 -50 19 -53 24 -3 6 -16 10 -28 10 -13 0 -39 8 -60 19
-20 10 -52 22 -70 25 -18 3 -51 15 -72 26 -22 11 -46 20 -55 20 -9 0 -25 7
-36 15 -10 8 -28 15 -39 15 -11 0 -34 9 -51 19 -17 10 -44 22 -61 25 -17 4
-48 16 -69 27 -21 10 -46 19 -56 19 -9 0 -20 4 -23 10 -3 5 -30 17 -60 26 -30
8 -57 20 -60 25 -4 5 -14 9 -23 9 -10 0 -35 9 -57 20 -22 11 -44 20 -50 20 -6
0 -28 9 -50 20 -21 11 -54 23 -72 26 -18 3 -37 12 -44 20 -6 8 -18 14 -27 14
-9 0 -34 8 -56 19 -127 59 -156 71 -169 71 -8 0 -20 7 -27 15 -7 8 -20 15 -29
15 -9 0 -38 11 -66 25 -27 13 -55 25 -62 25 -6 0 -24 7 -40 15 -59 30 -142 65
-156 65 -8 0 -20 7 -27 15 -7 8 -27 17 -46 21 -18 3 -38 12 -44 19 -6 8 -24
17 -40 20 -16 3 -34 13 -41 21 -6 8 -18 14 -27 14 -16 0 -40 11 -198 86 -50
24 -95 44 -101 44 -6 0 -16 6 -22 14 -7 8 -25 18 -41 21 -16 3 -34 13 -41 21
-6 8 -19 14 -28 14 -9 0 -27 6 -41 14 -14 8 -75 39 -137 70 -61 31 -114 60
-117 65 -4 5 -21 13 -39 16 -17 4 -37 11 -43 16 -6 5 -37 23 -70 40 -32 17
-66 37 -74 44 -8 8 -27 16 -42 20 -15 4 -32 13 -39 21 -6 8 -15 14 -20 14 -12
0 -49 18 -94 45 -22 13 -53 31 -70 39 -16 9 -48 27 -70 40 -22 13 -73 41 -112
61 -40 21 -73 40 -73 44 0 4 -12 12 -27 19 -16 6 -46 23 -68 37 -22 13 -52 30
-67 37 -16 7 -28 16 -28 20 0 4 -15 15 -32 23 -55 27 -88 47 -209 128 -64 42
-119 77 -122 77 -7 0 -79 48 -87 58 -3 4 -12 12 -21 17 -41 25 -218 146 -251
171 -21 16 -74 56 -118 89 -143 106 -303 235 -362 291 -64 60 -76 64 -99 31z
m220 -742 c11 3 25 -4 39 -20 13 -15 28 -22 37 -18 11 4 31 -10 61 -40 29 -30
50 -44 60 -40 10 4 31 -11 60 -40 29 -30 50 -44 60 -40 10 4 31 -11 60 -40 29
-30 50 -44 60 -40 10 4 31 -11 60 -40 29 -30 50 -44 60 -40 10 4 31 -11 60
-40 29 -30 50 -44 60 -40 10 4 31 -11 60 -40 29 -30 50 -44 60 -40 10 4 25 -4
40 -20 15 -16 30 -24 40 -20 10 4 31 -10 60 -40 29 -30 50 -44 60 -40 10 4 31
-11 61 -41 30 -31 51 -45 62 -41 11 3 25 -4 39 -20 14 -15 27 -22 38 -18 10 4
25 -4 40 -20 15 -16 30 -24 40 -20 10 4 25 -4 40 -20 15 -16 30 -24 40 -20 10
4 25 -4 40 -20 15 -16 30 -24 40 -20 10 4 31 -10 60 -40 29 -30 50 -44 60 -40
10 4 25 -4 40 -20 15 -16 30 -24 40 -20 10 4 25 -4 40 -20 15 -16 30 -24 40
-20 10 4 25 -4 40 -20 15 -16 30 -24 40 -20 10 4 25 -4 40 -20 15 -16 30 -24
40 -20 10 4 25 -4 40 -20 15 -16 30 -24 40 -20 10 4 25 -4 40 -20 15 -16 30
-24 40 -20 10 4 25 -4 40 -20 15 -16 30 -24 40 -20 10 4 25 -4 40 -20 15 -16
30 -24 40 -20 10 4 25 -4 40 -20 15 -16 30 -24 40 -20 10 4 25 -4 40 -20 15
-16 30 -24 40 -20 10 4 25 -4 40 -20 15 -16 30 -24 40 -20 10 4 25 -4 41 -21
15 -17 31 -25 42 -21 11 3 25 -4 39 -20 19 -21 28 -24 60 -19 31 5 40 2 59
-20 14 -16 28 -23 39 -19 10 4 25 -4 40 -20 15 -16 30 -24 40 -20 10 4 25 -4
41 -21 15 -17 31 -25 42 -21 11 3 25 -4 39 -20 19 -21 28 -24 60 -19 31 5 40
2 59 -20 14 -16 28 -23 39 -19 10 4 25 -4 41 -21 15 -17 31 -25 42 -21 11 3
25 -4 39 -20 19 -21 28 -24 60 -19 31 5 40 2 59 -20 14 -16 28 -23 39 -19 10
4 25 -4 40 -21 21 -22 31 -25 62 -20 31 5 40 2 59 -20 14 -16 28 -23 39 -19
10 4 25 -4 41 -21 15 -17 31 -25 42 -21 11 3 25 -4 39 -20 19 -21 28 -24 60
-19 31 5 40 2 60 -20 19 -22 28 -25 60 -20 31 5 40 2 59 -20 14 -16 28 -23 39
-19 10 4 25 -4 40 -21 21 -22 31 -25 62 -20 31 5 40 2 59 -20 14 -16 28 -23
39 -19 10 4 25 -4 40 -21 21 -22 31 -25 62 -20 31 5 40 2 60 -20 19 -22 28
-25 60 -20 31 5 40 2 59 -20 14 -16 28 -23 39 -19 10 4 25 -4 40 -21 21 -22
31 -25 62 -20 31 5 40 2 60 -20 19 -22 28 -25 60 -20 32 5 40 2 60 -21 15 -17
29 -24 41 -20 11 3 25 -4 39 -20 19 -21 28 -24 60 -19 31 5 40 2 60 -20 19
-22 28 -25 60 -20 31 5 40 2 59 -20 14 -16 28 -23 39 -19 10 4 25 -4 40 -20
15 -16 30 -24 40 -20 10 4 25 -4 40 -20 15 -16 30 -24 40 -20 10 4 25 -4 40
-20 15 -16 30 -24 40 -20 10 4 25 -4 40 -20 15 -16 30 -24 40 -20 10 4 31 -11
61 -41 30 -31 51 -45 62 -41 11 3 25 -4 39 -20 13 -15 28 -22 37 -19 11 5 37
-15 81 -59 42 -43 70 -64 80 -60 10 3 50 -30 120 -100 68 -69 110 -104 120
-100 20 8 46 -17 41 -39 -4 -13 20 -43 80 -103 57 -56 84 -89 80 -99 -4 -10
10 -31 38 -58 30 -29 45 -51 45 -68 0 -14 9 -31 20 -38 12 -7 20 -23 20 -40 0
-16 8 -32 20 -40 13 -8 20 -23 20 -42 0 -17 4 -30 10 -30 18 0 29 -75 27 -177
-3 -117 -8 -127 -42 -90 -16 16 -31 24 -41 20 -10 -4 -25 4 -40 20 -15 16 -30
24 -40 20 -10 -4 -31 10 -60 40 -29 30 -50 44 -60 40 -10 -3 -25 4 -40 20 -20
21 -30 25 -59 20 -33 -5 -40 -2 -81 40 -29 30 -50 44 -60 40 -10 -3 -25 4 -40
20 -15 16 -30 24 -43 20 -13 -3 -24 2 -33 16 -7 12 -23 21 -38 21 -17 0 -39
15 -67 44 -30 32 -48 43 -62 39 -13 -3 -24 2 -33 16 -7 12 -23 21 -38 21 -17
0 -39 15 -68 45 -28 29 -48 42 -58 38 -10 -4 -25 4 -40 20 -15 16 -30 24 -43
20 -13 -3 -24 2 -33 16 -7 12 -23 21 -38 21 -17 0 -39 15 -68 45 -28 29 -48
42 -58 38 -10 -4 -25 4 -40 20 -15 16 -30 24 -43 20 -13 -3 -24 2 -33 16 -7
12 -23 21 -38 21 -17 0 -39 15 -67 44 -30 32 -48 43 -62 39 -13 -3 -24 2 -33
16 -8 13 -23 21 -40 21 -17 0 -33 8 -40 20 -7 11 -24 20 -37 20 -17 0 -44 20
-88 65 -43 43 -69 62 -79 58 -10 -3 -25 4 -40 20 -15 16 -30 24 -40 20 -10 -4
-25 4 -40 20 -15 16 -30 24 -40 20 -10 -4 -31 10 -60 40 -29 30 -50 44 -60 40
-10 -4 -25 4 -40 20 -15 16 -30 24 -40 20 -10 -4 -31 10 -60 40 -29 30 -50 44
-60 40 -10 -4 -25 4 -40 20 -15 16 -30 24 -40 20 -10 -4 -25 4 -40 20 -15 16
-30 24 -40 20 -10 -4 -31 11 -61 41 -30 31 -51 45 -62 41 -11 -3 -25 4 -39 20
-14 15 -27 22 -38 18 -10 -4 -25 4 -40 20 -15 16 -30 24 -40 20 -10 -4 -31 11
-61 41 -30 31 -51 45 -62 41 -11 -3 -25 4 -39 20 -13 15 -28 22 -37 18 -11 -4
-31 10 -62 41 -30 31 -51 45 -62 41 -11 -3 -25 4 -39 20 -14 15 -27 22 -38 18
-10 -4 -25 4 -40 20 -15 16 -30 24 -40 20 -10 -4 -25 4 -40 20 -15 16 -30 24
-40 20 -10 -4 -31 10 -60 40 -29 30 -50 44 -60 40 -10 -4 -25 4 -40 20 -15 16
-30 24 -40 20 -10 -4 -31 11 -61 41 -30 31 -51 45 -62 41 -11 -3 -25 4 -39 20
-14 15 -27 22 -38 18 -10 -4 -25 4 -40 20 -15 16 -30 24 -40 20 -10 -4 -31 10
-60 40 -29 30 -50 44 -60 40 -10 -4 -25 4 -40 20 -15 16 -30 24 -40 20 -10 -4
-31 11 -61 41 -30 31 -51 45 -62 41 -11 -3 -25 4 -39 20 -14 15 -27 22 -38 18
-10 -4 -25 4 -40 20 -15 16 -30 24 -40 20 -10 -4 -25 4 -40 20 -15 16 -30 24
-40 20 -10 -4 -31 10 -60 40 -29 30 -50 44 -60 40 -10 -4 -25 4 -40 20 -15 16
-30 24 -40 20 -10 -4 -31 11 -61 41 -30 31 -51 45 -62 41 -11 -3 -25 4 -39 20
-14 15 -27 22 -38 18 -10 -4 -25 4 -40 20 -15 16 -30 24 -40 20 -10 -4 -25 4
-40 20 -15 16 -30 24 -40 20 -10 -4 -31 10 -60 40 -29 30 -50 44 -60 40 -10
-4 -25 4 -40 20 -15 16 -30 24 -40 20 -10 -4 -31 10 -60 40 -29 30 -50 44 -60
40 -10 -4 -25 4 -40 20 -15 16 -30 24 -40 20 -10 -4 -25 4 -40 20 -15 16 -30
24 -40 20 -10 -4 -25 4 -40 20 -15 16 -30 24 -40 20 -10 -4 -31 10 -60 40 -29
30 -50 44 -60 40 -10 -4 -25 4 -40 20 -15 16 -30 24 -40 20 -10 -4 -31 10 -60
40 -29 30 -50 44 -60 40 -10 -4 -25 4 -40 20 -15 16 -30 24 -40 20 -10 -4 -25
4 -40 20 -15 16 -30 24 -40 20 -10 -4 -31 10 -60 40 -29 30 -50 44 -60 40 -10
-4 -25 4 -40 20 -15 16 -30 24 -40 20 -10 -4 -31 10 -60 40 -29 30 -50 44 -60
40 -10 -4 -25 4 -40 20 -15 16 -30 24 -40 20 -10 -4 -25 4 -40 20 -14 16 -30
24 -39 20 -18 -6 -124 93 -125 117 0 49 21 90 48 90 17 0 32 8 41 21 l13 22
25 -27 c15 -17 31 -25 42 -21z m321 -76 c0 -4 12 -9 27 -11 34 -4 41 -24 12
-33 -17 -6 -27 -2 -40 14 -9 11 -24 21 -33 21 -19 0 -22 36 -3 43 11 5 37 -19
37 -34z"/>
<path d="M17800 14289 c-30 -25 -109 -93 -153 -133 -18 -15 -43 -35 -57 -44
-14 -9 -54 -39 -90 -67 -36 -28 -76 -58 -90 -68 -14 -9 -72 -51 -130 -92 -138
-98 -420 -288 -440 -296 -13 -6 -140 -87 -165 -106 -21 -17 -71 -49 -95 -61
-14 -7 -43 -24 -65 -37 -22 -14 -53 -32 -70 -41 -16 -8 -48 -26 -70 -39 -22
-14 -51 -30 -65 -37 -14 -7 -45 -26 -70 -43 -25 -17 -56 -36 -70 -43 -14 -6
-32 -16 -40 -22 -8 -5 -26 -15 -40 -21 -14 -5 -43 -21 -65 -34 -22 -14 -51
-29 -65 -35 -14 -5 -32 -15 -40 -20 -8 -6 -28 -17 -45 -25 -16 -9 -37 -20 -45
-25 -8 -6 -26 -15 -40 -21 -14 -5 -43 -21 -65 -34 -22 -14 -51 -29 -65 -35
-14 -5 -32 -15 -40 -20 -8 -6 -26 -15 -40 -20 -14 -6 -32 -15 -40 -20 -8 -6
-26 -15 -40 -20 -14 -6 -32 -15 -40 -20 -8 -6 -26 -15 -40 -21 -28 -11 -117
-56 -140 -69 -28 -16 -129 -60 -138 -60 -5 0 -15 -7 -22 -15 -7 -8 -27 -17
-46 -21 -18 -3 -38 -12 -45 -20 -6 -8 -17 -14 -23 -14 -6 0 -33 -11 -61 -25
-27 -13 -55 -25 -61 -25 -6 0 -17 -7 -24 -15 -7 -8 -19 -15 -27 -15 -8 0 -40
-12 -71 -26 -31 -14 -77 -35 -102 -46 -25 -10 -58 -25 -75 -33 -16 -7 -41 -17
-55 -20 -14 -4 -32 -13 -40 -20 -8 -8 -28 -17 -45 -21 -16 -3 -37 -12 -45 -19
-8 -7 -29 -16 -47 -20 -17 -3 -37 -12 -43 -20 -6 -7 -29 -16 -50 -20 -21 -4
-44 -13 -50 -20 -6 -7 -28 -16 -50 -20 -21 -4 -46 -13 -57 -20 -10 -8 -25 -15
-33 -15 -9 0 -33 -9 -55 -20 -22 -11 -44 -20 -50 -20 -6 0 -28 -9 -49 -19 -21
-11 -51 -23 -66 -26 -15 -3 -45 -15 -66 -26 -21 -10 -46 -19 -56 -19 -9 0 -20
-4 -23 -10 -3 -5 -27 -16 -53 -24 -26 -8 -60 -21 -77 -30 -16 -9 -36 -16 -43
-16 -6 0 -29 -9 -49 -20 -21 -11 -45 -20 -53 -20 -9 0 -24 -6 -35 -14 -11 -7
-34 -17 -52 -20 -17 -4 -48 -16 -69 -27 -21 -10 -45 -19 -54 -19 -8 0 -24 -7
-34 -15 -11 -8 -27 -15 -36 -15 -8 0 -32 -9 -53 -20 -20 -11 -43 -20 -50 -20
-7 0 -30 -9 -51 -19 -21 -11 -52 -23 -69 -27 -18 -3 -39 -12 -47 -19 -8 -7
-29 -16 -47 -19 -17 -4 -48 -16 -69 -27 -21 -10 -44 -19 -51 -19 -7 0 -30 -9
-50 -20 -21 -11 -45 -20 -54 -20 -9 0 -22 -6 -28 -14 -7 -8 -30 -17 -51 -21
-21 -4 -44 -13 -51 -21 -6 -8 -18 -14 -27 -14 -9 0 -34 -8 -56 -19 -23 -10
-68 -31 -101 -46 -71 -32 -233 -112 -255 -126 -8 -5 -26 -14 -40 -19 -14 -6
-43 -21 -65 -35 -22 -13 -51 -30 -65 -37 -14 -7 -46 -27 -72 -45 -26 -18 -52
-33 -57 -33 -5 0 -31 -17 -58 -38 -26 -20 -68 -51 -93 -67 -49 -33 -43 -29
-154 -123 -141 -119 -406 -412 -406 -448 0 -5 -17 -34 -38 -64 -20 -30 -52
-84 -70 -120 -18 -36 -37 -72 -42 -80 -17 -30 -60 -129 -60 -139 0 -6 -9 -28
-20 -48 -11 -21 -20 -46 -20 -56 0 -10 -6 -28 -14 -40 -8 -12 -17 -42 -21 -67
-4 -24 -13 -54 -21 -65 -7 -11 -16 -45 -20 -75 -4 -30 -12 -66 -19 -80 -7 -14
-16 -52 -20 -85 -3 -33 -13 -80 -20 -105 -7 -25 -17 -76 -20 -115 -4 -38 -13
-102 -20 -140 -8 -39 -17 -117 -20 -175 -4 -58 -15 -151 -27 -206 -24 -122
-17 -153 30 -128 15 7 32 14 38 14 6 0 19 9 29 20 10 11 23 20 30 20 7 0 20 9
29 19 10 11 28 22 42 25 13 4 24 11 24 16 0 5 15 17 33 25 17 9 50 27 72 40
22 14 54 32 70 41 17 8 46 25 67 37 138 83 201 119 223 127 14 5 25 14 25 20
0 5 5 10 11 10 10 0 48 21 158 87 20 12 47 27 61 33 14 6 32 17 40 25 8 7 26
16 40 20 14 4 33 16 43 26 10 11 22 19 26 19 8 0 57 27 139 77 21 12 51 30 67
38 17 9 48 27 70 41 22 13 54 31 70 40 17 8 48 26 70 40 22 13 54 31 70 40 17
8 48 26 70 40 22 13 54 31 70 40 17 8 46 25 66 37 141 85 211 126 309 178 36
19 85 48 110 64 56 37 95 59 140 80 19 8 37 19 40 23 3 4 16 13 30 20 14 7 43
24 65 37 22 13 54 31 70 40 17 8 48 26 70 40 22 13 54 31 70 40 17 9 48 27 70
40 22 13 54 31 70 39 17 8 34 18 38 23 10 10 130 78 175 98 17 8 32 19 32 24
0 5 11 12 25 15 13 3 44 19 67 35 24 16 74 45 113 66 38 20 72 40 75 44 3 3
16 12 30 19 46 23 157 87 172 99 7 6 25 17 38 23 14 6 43 22 65 35 22 14 54
32 70 41 17 8 48 26 70 39 22 13 54 31 70 40 17 9 48 27 70 40 22 14 54 32 70
41 17 8 48 26 70 39 22 14 51 30 65 37 14 7 40 23 58 35 18 12 52 31 75 43 23
12 59 32 79 44 20 11 94 54 165 95 70 41 135 80 143 86 8 7 26 16 39 20 14 4
45 22 70 39 25 17 57 37 71 44 14 7 43 23 65 37 22 13 54 31 70 40 17 8 48 27
70 40 22 13 54 31 70 40 17 9 48 27 70 40 22 14 54 32 70 41 17 8 48 26 70 40
22 13 54 31 70 40 17 8 48 26 70 40 22 13 54 31 70 40 17 8 48 26 70 40 22 13
54 31 70 40 17 8 47 25 67 37 20 12 82 49 138 82 56 33 118 70 138 82 20 12
51 29 67 37 17 9 37 20 45 25 8 6 41 25 73 43 33 18 75 43 95 55 21 12 51 29
67 38 17 8 48 27 70 40 22 14 54 32 70 41 17 8 48 26 70 39 22 13 54 31 70 40
17 9 48 27 70 40 22 14 54 32 70 41 17 8 48 26 70 39 22 14 51 30 65 37 14 7
46 27 71 44 25 17 56 35 70 39 13 4 31 13 39 20 8 6 57 36 109 66 51 30 110
64 130 75 20 12 64 36 98 54 35 18 85 48 113 66 27 18 59 35 70 39 11 3 26 12
32 18 7 7 59 35 115 62 114 56 133 81 96 132 -10 14 -23 34 -29 44 -6 10 -17
27 -25 36 -9 10 -21 29 -28 43 -6 14 -23 43 -36 65 -14 22 -32 54 -41 70 -8
17 -26 48 -39 70 -14 22 -30 51 -37 65 -7 14 -26 45 -43 70 -17 25 -36 56 -43
70 -7 14 -23 43 -37 65 -13 22 -28 49 -33 60 -6 11 -32 58 -59 105 -49 85 -96
180 -107 213 -7 23 -35 21 -66 -4z m-44 -731 c55 -53 46 -196 -11 -175 -9 4
-31 -11 -59 -40 -29 -30 -50 -44 -60 -40 -10 4 -25 -4 -40 -20 -15 -16 -30
-24 -40 -20 -10 4 -25 -4 -40 -20 -15 -16 -30 -24 -40 -20 -10 4 -31 -10 -60
-40 -29 -30 -50 -44 -60 -40 -10 4 -25 -4 -40 -20 -15 -16 -30 -24 -40 -20
-10 4 -25 -4 -40 -20 -15 -16 -30 -24 -40 -20 -10 4 -31 -10 -60 -40 -29 -30
-50 -44 -60 -40 -10 4 -25 -4 -40 -20 -15 -16 -30 -24 -40 -20 -10 4 -25 -4
-40 -20 -15 -16 -30 -24 -40 -20 -10 4 -31 -10 -60 -40 -29 -30 -50 -44 -60
-40 -10 4 -25 -4 -40 -20 -15 -16 -30 -24 -40 -20 -11 4 -24 -3 -38 -18 -14
-16 -28 -23 -39 -20 -11 4 -32 -10 -62 -41 -30 -30 -51 -45 -61 -41 -10 4 -25
-4 -40 -20 -15 -16 -30 -24 -40 -20 -10 4 -25 -4 -40 -20 -15 -16 -30 -24 -40
-20 -10 4 -31 -10 -60 -40 -29 -30 -50 -44 -60 -40 -10 4 -25 -4 -40 -20 -15
-16 -30 -24 -40 -20 -11 4 -24 -3 -38 -18 -14 -16 -28 -23 -39 -20 -11 4 -32
-10 -62 -41 -31 -31 -51 -45 -62 -41 -9 4 -24 -3 -37 -18 -14 -16 -28 -23 -39
-20 -11 4 -32 -10 -62 -41 -30 -30 -51 -45 -61 -41 -10 4 -25 -4 -40 -20 -15
-16 -30 -24 -40 -20 -11 4 -24 -3 -38 -18 -14 -16 -28 -23 -39 -20 -11 4 -32
-10 -62 -41 -30 -30 -51 -45 -61 -41 -10 4 -25 -4 -40 -20 -15 -16 -30 -24
-40 -20 -11 4 -24 -3 -38 -18 -14 -16 -28 -23 -39 -20 -11 4 -32 -10 -62 -41
-30 -30 -51 -45 -61 -41 -10 4 -25 -4 -40 -20 -15 -16 -30 -24 -40 -20 -11 4
-24 -3 -38 -18 -14 -16 -28 -23 -39 -20 -11 4 -32 -10 -62 -41 -30 -30 -51
-45 -61 -41 -10 4 -25 -4 -40 -20 -15 -16 -30 -24 -40 -20 -11 4 -24 -3 -38
-18 -14 -16 -28 -23 -39 -20 -11 4 -32 -10 -62 -41 -31 -31 -51 -45 -62 -41
-9 4 -24 -3 -37 -18 -14 -16 -28 -23 -39 -20 -11 4 -32 -10 -62 -41 -30 -30
-51 -45 -61 -41 -10 4 -25 -4 -40 -20 -15 -16 -30 -24 -40 -20 -11 4 -24 -3
-38 -18 -14 -16 -28 -23 -39 -20 -11 4 -32 -10 -62 -41 -30 -30 -51 -45 -61
-41 -10 4 -25 -4 -40 -20 -15 -16 -30 -24 -40 -20 -11 4 -24 -3 -38 -18 -14
-16 -28 -23 -39 -20 -11 4 -32 -10 -62 -41 -30 -30 -51 -45 -61 -41 -10 4 -25
-4 -40 -20 -15 -16 -30 -24 -40 -20 -10 4 -31 -10 -60 -40 -29 -30 -50 -44
-60 -40 -10 4 -25 -4 -40 -20 -15 -16 -30 -24 -40 -20 -10 4 -25 -4 -40 -20
-14 -15 -30 -23 -39 -20 -16 6 -77 -42 -77 -60 0 -6 7 -13 15 -17 8 -3 15 -10
15 -16 0 -12 -37 -14 -42 -1 -9 24 -47 21 -71 -5 -16 -17 -31 -25 -41 -21 -10
4 -25 -4 -40 -20 -15 -16 -30 -24 -40 -20 -10 4 -25 -4 -40 -20 -15 -16 -30
-24 -40 -20 -20 8 -47 -19 -39 -38 8 -22 -15 -45 -46 -45 -15 0 -31 -8 -39
-20 -7 -12 -23 -20 -40 -20 -17 0 -32 -8 -40 -21 -9 -14 -20 -19 -33 -16 -14
4 -32 -7 -62 -39 -28 -29 -50 -44 -67 -44 -15 0 -31 -9 -38 -21 -9 -14 -20
-19 -33 -16 -13 4 -28 -4 -43 -20 -15 -16 -30 -24 -40 -20 -10 4 -30 -9 -58
-38 -29 -30 -51 -45 -68 -45 -15 0 -31 -9 -38 -21 -9 -14 -20 -19 -33 -16 -13
4 -28 -4 -43 -20 -15 -16 -30 -24 -40 -20 -10 4 -30 -9 -58 -38 -29 -30 -51
-45 -68 -45 -15 0 -31 -9 -38 -21 -9 -14 -20 -19 -33 -16 -13 4 -28 -4 -43
-20 -15 -16 -30 -24 -40 -20 -10 4 -30 -9 -58 -38 -29 -30 -51 -45 -68 -45
-15 0 -31 -9 -38 -21 -9 -14 -20 -19 -33 -16 -14 4 -32 -7 -62 -39 -28 -29
-50 -44 -67 -44 -15 0 -31 -9 -38 -21 -9 -14 -20 -19 -33 -16 -13 4 -28 -4
-43 -20 -15 -16 -30 -23 -40 -20 -10 4 -31 -10 -60 -40 -41 -42 -48 -45 -80
-40 -33 5 -40 2 -80 -40 -29 -30 -50 -44 -60 -40 -10 4 -25 -4 -40 -20 -15
-16 -30 -24 -40 -20 -10 4 -25 -4 -40 -20 -36 -39 -46 -23 -46 76 0 87 13 151
31 151 5 0 9 13 9 29 0 35 19 91 31 91 5 0 9 13 9 30 0 19 7 34 20 42 12 8 20
24 20 40 0 17 8 33 20 40 11 7 20 24 20 37 0 17 20 44 65 88 42 42 62 69 58
79 -8 21 261 289 282 281 9 -4 38 18 79 60 43 43 70 64 80 60 10 -4 32 10 60
40 30 30 50 44 61 40 9 -4 24 3 37 18 14 16 28 23 39 20 11 -4 32 10 62 41 30
30 51 45 61 41 10 -4 25 4 40 20 15 16 30 24 40 20 11 -4 25 3 39 19 19 22 28
25 59 20 32 -5 41 -2 60 19 14 16 28 23 39 20 11 -4 27 4 42 21 16 17 31 25
41 21 11 -4 25 3 39 19 19 22 28 25 59 20 32 -5 41 -2 60 19 14 16 28 23 39
20 12 -4 26 3 41 20 20 23 29 26 60 21 31 -5 41 -2 62 20 15 17 30 25 40 21
11 -4 25 3 39 19 19 22 28 25 59 20 31 -5 41 -2 62 20 15 17 30 25 40 21 11
-4 25 3 39 19 19 22 28 25 59 20 31 -5 41 -2 62 20 15 17 30 25 40 21 11 -4
25 3 39 19 19 22 28 25 59 20 31 -5 41 -2 62 20 15 17 30 25 40 21 11 -4 25 3
39 19 19 22 28 25 59 20 31 -5 41 -2 62 20 15 17 30 25 40 21 11 -4 25 3 39
19 19 22 28 25 59 20 31 -5 41 -2 62 20 15 17 30 25 40 21 11 -4 25 3 39 19
19 22 28 25 59 20 32 -5 41 -2 60 20 20 22 29 25 60 20 31 -5 41 -2 62 20 15
17 30 25 40 21 11 -4 25 3 39 19 19 22 28 25 59 20 31 -5 41 -2 62 20 15 17
30 25 40 21 10 -4 25 4 40 20 15 16 30 24 40 20 11 -4 25 3 39 19 19 22 28 25
59 20 32 -5 41 -2 60 19 14 16 28 23 39 20 11 -4 27 4 42 21 16 17 31 25 41
21 10 -4 25 4 40 20 15 16 30 24 40 20 11 -4 25 3 39 19 19 22 28 25 59 20 32
-5 41 -2 60 19 14 16 28 23 39 20 11 -4 27 4 42 21 16 17 31 25 41 21 10 -4
25 4 40 20 15 16 30 24 40 20 10 -4 25 4 40 20 15 16 30 24 40 20 10 -4 25 4
40 20 15 16 30 24 40 20 10 -4 25 4 40 20 15 16 30 24 40 20 10 -4 25 4 40 20
15 16 30 24 40 20 10 -4 25 4 40 20 15 16 30 24 40 20 10 -4 25 4 40 20 15 16
30 24 40 20 10 -4 25 4 40 20 15 16 30 24 40 20 10 -4 25 4 40 20 15 16 30 24
40 20 10 -4 25 4 40 20 15 16 30 24 40 20 10 -4 25 4 40 20 15 16 30 24 40 20
11 -4 24 3 38 18 14 16 28 23 39 20 11 -4 32 10 62 41 30 30 51 45 61 41 10
-4 25 4 40 20 15 16 30 24 40 20 10 -4 25 4 40 20 15 16 30 24 40 20 10 -4 31
10 60 40 29 30 50 44 60 40 10 -4 25 4 40 20 15 16 30 24 40 20 10 -4 31 10
60 40 29 30 50 44 60 40 10 -4 25 4 40 20 15 16 30 24 40 20 10 -4 31 10 60
40 29 29 50 44 60 40 10 -4 31 10 60 40 29 29 50 44 60 40 10 -4 31 10 60 40
29 29 50 44 60 40 10 -4 31 10 60 40 29 29 50 44 60 40 10 -4 31 10 60 40 29
29 50 44 60 40 10 -4 31 10 60 40 30 30 50 44 61 40 9 -4 24 3 37 18 14 16 28
23 39 20 12 -4 26 3 40 19 30 34 55 33 95 -6z"/>
<path d="M1120 13090 c-11 -11 -20 -26 -20 -33 0 -7 -13 -37 -30 -67 -16 -30
-37 -68 -46 -85 -8 -16 -26 -48 -40 -70 -13 -22 -31 -53 -40 -70 -33 -62 -50
-92 -87 -146 -20 -31 -37 -60 -37 -64 0 -5 -9 -19 -21 -31 -25 -27 -31 -83 -9
-94 8 -4 40 -20 70 -35 102 -50 222 -117 379 -212 20 -12 50 -29 66 -37 17 -9
48 -27 70 -41 22 -13 54 -31 70 -40 17 -9 48 -27 70 -40 22 -13 54 -32 70 -40
17 -9 46 -26 66 -38 20 -12 65 -39 100 -60 35 -21 71 -42 79 -47 8 -6 26 -15
40 -21 31 -13 72 -36 130 -74 46 -30 82 -51 135 -79 17 -9 48 -27 70 -41 22
-13 54 -32 70 -40 17 -9 46 -26 66 -38 20 -12 79 -46 130 -76 52 -29 101 -59
109 -66 8 -7 26 -16 39 -20 14 -4 45 -22 70 -39 25 -17 57 -37 71 -44 14 -7
43 -23 65 -37 22 -13 54 -31 70 -39 17 -9 48 -27 70 -41 22 -13 54 -31 70 -40
17 -9 48 -27 70 -40 22 -13 54 -31 70 -40 17 -9 55 -31 85 -50 30 -19 61 -35
68 -35 6 0 12 -4 12 -10 0 -5 15 -16 33 -25 17 -8 39 -19 47 -24 8 -6 41 -25
73 -43 33 -18 75 -43 95 -55 21 -12 51 -29 67 -38 17 -9 48 -27 70 -40 22 -13
54 -32 70 -40 17 -9 48 -27 70 -40 22 -14 51 -30 65 -37 14 -7 45 -26 70 -43
25 -17 74 -45 110 -64 36 -18 97 -53 135 -76 39 -24 84 -51 100 -60 17 -8 48
-26 70 -39 22 -14 54 -32 70 -40 17 -9 48 -27 70 -41 22 -13 54 -32 70 -40 17
-9 48 -27 70 -41 22 -13 54 -31 70 -40 17 -8 48 -26 70 -40 22 -13 55 -31 73
-39 17 -8 32 -19 32 -23 0 -4 12 -13 28 -20 15 -6 45 -23 67 -36 22 -14 54
-32 70 -40 17 -9 48 -27 70 -40 22 -14 54 -32 70 -41 17 -8 48 -27 70 -40 22
-13 54 -31 70 -40 17 -9 48 -27 70 -40 65 -40 108 -64 138 -77 15 -7 27 -16
27 -20 0 -4 15 -15 33 -23 17 -8 50 -26 72 -39 22 -14 54 -32 70 -40 17 -9 48
-27 70 -40 22 -14 54 -32 70 -40 17 -9 48 -27 70 -40 22 -14 54 -32 70 -41 17
-8 48 -27 70 -40 22 -13 54 -31 70 -40 17 -9 48 -27 70 -40 22 -14 55 -32 73
-40 17 -8 32 -19 32 -24 0 -5 13 -12 30 -16 16 -4 32 -10 35 -15 3 -5 35 -26
71 -47 37 -21 83 -48 103 -60 20 -12 50 -29 66 -37 17 -9 48 -27 70 -41 22
-13 54 -32 70 -40 17 -9 48 -27 70 -41 22 -13 54 -31 70 -40 17 -8 48 -26 70
-39 22 -14 51 -30 65 -37 14 -7 46 -27 72 -45 26 -18 52 -33 57 -33 4 0 19 -8
32 -19 13 -10 35 -22 48 -26 14 -4 29 -11 35 -16 30 -25 89 -59 111 -65 14 -3
29 -11 33 -18 4 -6 18 -17 32 -24 14 -7 43 -23 65 -37 22 -13 54 -31 70 -40
17 -8 48 -27 70 -40 22 -14 54 -32 70 -41 17 -8 48 -26 70 -40 22 -13 54 -31
70 -40 17 -8 48 -26 70 -39 22 -14 51 -30 65 -37 14 -7 45 -26 70 -43 25 -17
57 -36 72 -42 15 -7 46 -25 70 -40 24 -15 54 -33 68 -40 14 -7 43 -24 65 -37
22 -14 54 -32 70 -41 17 -8 48 -27 70 -40 22 -14 54 -32 70 -40 17 -9 47 -26
67 -38 39 -24 147 -88 206 -124 21 -12 51 -29 67 -37 17 -9 48 -27 70 -40 22
-14 54 -32 70 -40 17 -9 48 -27 70 -40 22 -14 54 -32 70 -41 17 -8 48 -27 70
-40 22 -14 54 -32 70 -41 17 -8 47 -25 67 -37 20 -12 82 -49 138 -82 56 -33
118 -70 138 -82 20 -12 51 -29 67 -38 17 -8 48 -27 70 -40 22 -14 51 -29 65
-35 14 -6 32 -17 40 -25 8 -7 41 -26 72 -43 32 -17 77 -43 100 -59 24 -16 58
-35 76 -42 17 -7 32 -16 32 -20 0 -4 12 -12 28 -19 15 -6 45 -23 67 -37 22
-13 54 -32 70 -40 17 -9 48 -27 70 -41 22 -13 54 -31 70 -40 51 -27 88 -49
135 -79 25 -16 70 -42 100 -58 30 -15 62 -34 70 -41 8 -7 26 -18 40 -24 14 -7
43 -23 65 -37 22 -13 54 -31 70 -40 17 -8 48 -27 70 -40 22 -14 51 -30 65 -37
14 -6 32 -17 40 -24 8 -6 40 -25 70 -41 30 -16 75 -42 100 -58 25 -17 56 -35
70 -42 14 -7 43 -24 65 -37 22 -14 54 -32 70 -40 17 -9 48 -27 70 -41 22 -13
54 -32 70 -40 17 -9 48 -27 70 -41 22 -13 54 -31 70 -40 17 -8 46 -25 66 -37
20 -12 67 -40 104 -62 37 -22 83 -50 103 -62 21 -12 51 -29 67 -37 17 -9 48
-27 70 -41 22 -13 51 -30 65 -37 14 -7 28 -18 33 -25 4 -6 21 -14 37 -18 16
-4 32 -11 35 -16 3 -4 35 -25 71 -46 36 -21 82 -48 102 -60 21 -12 51 -29 67
-37 17 -9 48 -27 70 -40 22 -14 54 -32 70 -40 17 -9 48 -27 70 -41 22 -13 51
-30 65 -37 14 -7 45 -26 69 -42 25 -16 58 -35 75 -43 17 -8 47 -24 67 -36 20
-12 67 -40 104 -62 37 -22 83 -50 103 -62 21 -12 51 -29 67 -38 17 -9 48 -27
70 -40 22 -13 54 -32 70 -40 17 -9 47 -26 67 -38 20 -12 79 -46 130 -76 51
-30 100 -60 108 -66 8 -7 26 -16 40 -20 14 -4 33 -16 43 -26 10 -11 22 -19 26
-19 8 0 57 -27 139 -77 21 -12 51 -30 67 -38 17 -9 48 -27 70 -41 22 -13 54
-31 70 -40 17 -8 47 -25 67 -37 20 -12 82 -49 138 -82 56 -33 118 -70 138 -82
20 -12 51 -29 67 -38 17 -8 48 -27 70 -40 22 -13 54 -31 70 -40 17 -9 48 -27
70 -40 22 -14 54 -32 70 -41 17 -8 47 -25 67 -37 20 -12 82 -49 138 -82 56
-33 118 -70 138 -82 20 -12 51 -29 67 -38 17 -9 48 -27 70 -40 22 -13 54 -31
70 -40 17 -8 48 -27 70 -40 22 -14 54 -32 70 -41 17 -8 48 -26 70 -39 22 -13
54 -31 70 -40 17 -9 48 -27 70 -40 22 -14 51 -30 65 -37 14 -7 46 -27 71 -44
25 -17 56 -35 69 -39 13 -4 45 -22 70 -40 25 -18 55 -35 66 -39 10 -3 43 -21
71 -40 29 -19 63 -38 75 -41 13 -4 30 -13 38 -20 8 -8 26 -19 40 -25 14 -6 43
-22 65 -35 22 -14 54 -32 70 -41 49 -26 88 -49 115 -66 23 -15 99 -17 770 -19
l745 -3 3 22 c3 16 -4 25 -25 33 -68 29 -234 114 -273 142 -13 9 -30 17 -37
17 -6 0 -32 14 -57 30 -24 17 -59 37 -78 46 -18 8 -51 26 -73 40 -22 13 -53
31 -70 40 -51 27 -88 49 -134 78 -25 16 -58 35 -75 43 -17 8 -47 24 -67 36
-20 12 -67 40 -104 62 -37 22 -83 50 -103 62 -21 12 -50 29 -67 37 -16 9 -48
27 -70 41 -22 13 -53 31 -70 40 -16 9 -48 27 -70 40 -22 13 -53 32 -70 40 -16
9 -48 27 -70 40 -22 14 -54 32 -72 42 -35 19 -282 164 -342 200 -20 12 -49 29
-66 37 -16 9 -48 27 -70 40 -22 14 -53 32 -70 41 -16 8 -48 27 -70 40 -22 14
-51 30 -65 37 -14 7 -27 16 -30 20 -3 4 -21 14 -40 23 -19 9 -53 27 -75 40
-70 43 -109 64 -137 77 -16 7 -28 16 -28 20 0 4 -15 15 -32 23 -35 17 -78 41
-143 80 -22 13 -53 31 -70 39 -16 9 -48 27 -70 40 -22 14 -53 32 -70 40 -16 9
-48 27 -70 41 -22 13 -53 31 -70 40 -16 9 -47 26 -67 38 -20 12 -66 39 -102
60 -36 21 -68 42 -71 47 -3 5 -19 11 -35 15 -17 4 -30 11 -30 16 0 5 -15 16
-32 24 -18 8 -51 26 -73 39 -22 14 -53 32 -70 40 -16 9 -48 27 -70 40 -22 14
-53 32 -70 41 -16 8 -48 27 -70 40 -22 13 -53 31 -70 40 -16 9 -46 26 -67 38
-20 12 -62 37 -95 55 -32 18 -65 37 -73 43 -8 5 -30 16 -47 24 -18 9 -33 20
-33 25 0 6 -5 10 -11 10 -10 0 -115 59 -297 167 -20 12 -50 29 -67 38 -16 8
-48 27 -70 40 -22 14 -53 32 -70 40 -37 19 -55 30 -126 76 -31 20 -67 40 -80
44 -13 4 -31 13 -39 20 -8 6 -57 36 -108 66 -51 30 -110 64 -130 76 -20 12
-50 29 -67 37 -16 9 -48 27 -70 40 -22 14 -53 32 -70 40 -16 9 -48 27 -70 41
-22 13 -53 32 -70 40 -16 9 -48 27 -70 41 -22 13 -53 31 -70 40 -16 8 -46 25
-67 37 -20 12 -66 39 -102 60 -36 21 -68 42 -71 46 -3 5 -19 12 -35 16 -17 4
-30 11 -30 16 0 5 -15 16 -32 24 -18 9 -51 27 -73 40 -22 13 -53 31 -70 40
-16 8 -48 26 -70 39 -22 14 -53 32 -70 41 -16 8 -48 27 -70 40 -22 14 -53 32
-70 41 -16 8 -46 25 -67 37 -20 12 -66 39 -102 60 -36 21 -68 42 -71 46 -3 5
-19 12 -35 16 -16 4 -33 12 -37 18 -5 7 -19 18 -33 25 -14 7 -43 23 -65 37
-22 13 -53 31 -70 40 -16 9 -48 27 -70 40 -22 13 -53 31 -70 40 -16 8 -48 27
-70 40 -22 14 -53 32 -70 41 -63 33 -92 50 -138 81 -26 18 -59 36 -72 39 -14
3 -25 9 -25 13 0 4 -15 15 -32 24 -18 10 -51 28 -73 42 -22 13 -53 31 -70 39
-16 9 -48 27 -70 40 -22 14 -53 32 -70 41 -16 8 -48 27 -70 40 -22 13 -53 31
-70 39 -30 15 -37 20 -105 63 -19 12 -56 33 -82 46 -26 14 -68 39 -93 56 -25
17 -57 34 -70 37 -14 3 -25 10 -25 15 0 5 -15 16 -32 24 -18 8 -51 26 -73 39
-22 14 -53 32 -70 40 -16 9 -48 27 -70 40 -22 14 -53 32 -70 40 -16 9 -48 27
-70 41 -22 13 -51 30 -65 37 -14 7 -43 25 -65 39 -22 14 -69 41 -105 61 -36
19 -85 47 -110 63 -25 17 -56 35 -70 42 -14 7 -43 24 -65 37 -22 14 -53 32
-70 40 -16 9 -48 27 -70 40 -22 14 -53 32 -70 40 -16 9 -48 27 -70 40 -22 14
-53 32 -70 41 -16 8 -46 26 -66 38 -104 63 -148 87 -158 87 -6 0 -11 4 -11 9
0 5 -15 14 -32 22 -18 7 -36 18 -41 25 -4 7 -21 15 -37 19 -17 4 -30 10 -30
15 0 4 -20 18 -45 30 -24 12 -59 31 -77 43 -18 12 -44 28 -58 35 -14 7 -43 23
-65 37 -22 13 -53 31 -70 39 -16 9 -48 27 -70 41 -22 13 -53 32 -70 40 -16 9
-48 27 -70 40 -22 13 -53 31 -70 40 -16 9 -48 27 -70 40 -22 14 -53 32 -70 40
-16 9 -61 36 -100 60 -38 24 -83 51 -100 60 -16 8 -48 26 -70 39 -22 14 -53
32 -70 40 -16 9 -48 27 -70 41 -22 13 -53 32 -70 40 -16 9 -48 27 -70 40 -22
14 -51 30 -65 37 -14 7 -28 18 -33 25 -4 6 -21 14 -37 18 -17 4 -30 11 -30 16
0 5 -8 13 -17 16 -16 6 -132 71 -231 130 -20 12 -50 29 -67 37 -16 9 -48 27
-70 40 -22 14 -53 32 -70 40 -16 9 -48 27 -70 41 -22 13 -53 31 -70 40 -16 9
-48 27 -70 40 -22 13 -53 32 -70 41 -58 31 -90 50 -135 79 -25 16 -56 35 -70
42 -14 7 -43 24 -65 37 -22 14 -53 32 -70 40 -16 9 -48 27 -70 40 -22 14 -53
32 -70 40 -16 9 -48 27 -70 41 -22 13 -53 31 -70 40 -16 9 -48 27 -70 40 -22
13 -53 32 -70 40 -16 9 -46 26 -67 38 -20 12 -65 39 -100 60 -34 20 -70 42
-78 47 -8 6 -26 15 -40 21 -31 13 -72 36 -130 74 -47 30 -83 52 -135 79 -16 9
-43 25 -60 36 -16 11 -48 29 -70 40 -22 12 -58 32 -80 45 -22 14 -53 32 -70
41 -16 8 -48 26 -70 39 -65 39 -108 63 -142 80 -18 8 -33 19 -33 23 0 4 -12
13 -27 20 -37 15 -159 85 -170 95 -4 5 -21 15 -38 23 -16 8 -48 25 -70 39 -22
13 -51 30 -65 37 -14 7 -27 16 -30 19 -3 4 -21 14 -40 23 -19 9 -53 28 -75 41
-22 14 -51 30 -65 37 -14 7 -46 27 -71 44 -25 17 -56 35 -69 39 -14 4 -36 15
-50 24 -14 9 -34 22 -45 29 -11 6 -49 29 -83 49 -35 21 -80 48 -100 60 -21 12
-50 29 -67 37 -16 9 -48 27 -70 40 -22 14 -53 32 -70 41 -16 8 -48 27 -70 40
-22 13 -53 31 -70 40 -16 9 -48 27 -70 40 -22 14 -51 30 -65 37 -14 7 -45 26
-70 43 -25 17 -57 36 -72 42 -15 7 -46 25 -70 40 -24 15 -54 33 -68 40 -14 7
-43 24 -65 38 -22 13 -53 31 -70 40 -16 9 -48 27 -70 40 -22 13 -53 31 -70 40
-16 8 -48 27 -70 40 -22 13 -53 31 -70 40 -16 9 -48 27 -70 40 -22 14 -53 32
-70 40 -16 9 -61 36 -100 60 -38 24 -83 51 -100 60 -16 8 -48 26 -70 39 -22
14 -53 32 -70 40 -16 9 -48 27 -70 41 -22 13 -53 31 -70 40 -16 9 -43 24 -60
35 -16 11 -46 28 -65 37 -19 10 -56 33 -82 50 -26 18 -51 33 -55 33 -5 0 -37
20 -73 45 -36 25 -70 45 -76 45 -6 0 -19 9 -29 20 -10 11 -24 20 -32 20 -7 0
-22 -9 -33 -20z"/>
<path d="M19263 13090 c-10 -11 -22 -20 -29 -20 -6 0 -19 -9 -29 -20 -10 -11
-24 -20 -31 -20 -7 0 -21 -9 -31 -19 -10 -11 -30 -22 -45 -26 -16 -4 -28 -10
-28 -14 0 -4 -15 -15 -32 -24 -18 -10 -51 -28 -73 -42 -22 -13 -53 -32 -70
-40 -16 -9 -48 -27 -70 -40 -22 -14 -51 -30 -65 -37 -14 -6 -32 -17 -40 -24
-14 -12 -105 -63 -177 -101 -18 -9 -33 -20 -33 -25 0 -4 -5 -8 -11 -8 -10 0
-40 -16 -158 -87 -20 -12 -49 -29 -66 -38 -16 -8 -48 -27 -70 -40 -22 -13 -53
-31 -70 -40 -16 -9 -46 -26 -67 -38 -20 -12 -62 -37 -95 -55 -32 -18 -65 -37
-73 -43 -8 -5 -28 -16 -45 -25 -16 -8 -46 -25 -67 -37 -20 -12 -66 -40 -103
-62 -37 -22 -84 -50 -104 -62 -20 -12 -49 -29 -66 -37 -16 -9 -48 -27 -70 -40
-22 -14 -53 -32 -70 -41 -16 -8 -48 -27 -70 -40 -22 -14 -53 -32 -70 -41 -16
-8 -48 -26 -70 -39 -22 -14 -51 -30 -65 -37 -14 -7 -46 -27 -72 -45 -26 -18
-51 -33 -54 -33 -6 0 -69 -36 -222 -127 -20 -12 -50 -29 -67 -37 -16 -9 -48
-27 -70 -40 -22 -14 -53 -32 -70 -41 -16 -8 -48 -27 -70 -40 -22 -13 -53 -31
-70 -40 -16 -9 -48 -27 -70 -40 -22 -14 -53 -31 -70 -39 -16 -8 -34 -18 -38
-23 -11 -10 -133 -80 -169 -95 -16 -7 -28 -16 -28 -20 0 -4 -15 -15 -32 -23
-35 -17 -78 -41 -143 -80 -22 -13 -53 -31 -70 -39 -16 -9 -48 -27 -70 -41 -22
-13 -52 -29 -67 -36 -16 -6 -28 -15 -28 -19 0 -4 -17 -15 -37 -25 -21 -9 -55
-26 -75 -38 -155 -92 -217 -127 -227 -127 -6 0 -11 -4 -11 -10 0 -5 -15 -16
-33 -24 -18 -7 -53 -26 -78 -42 -24 -16 -55 -35 -69 -42 -14 -7 -43 -24 -65
-37 -22 -13 -53 -31 -70 -40 -16 -8 -48 -26 -70 -39 -22 -14 -53 -32 -70 -41
-16 -8 -48 -27 -70 -40 -22 -14 -53 -32 -70 -40 -16 -9 -61 -36 -100 -60 -38
-24 -83 -51 -100 -60 -16 -8 -48 -26 -70 -39 -22 -14 -53 -32 -70 -40 -16 -9
-48 -27 -70 -41 -22 -13 -53 -31 -70 -40 -16 -9 -48 -27 -70 -40 -22 -13 -53
-31 -70 -40 -16 -8 -48 -27 -70 -40 -22 -14 -51 -30 -65 -37 -14 -7 -46 -27
-72 -45 -26 -18 -59 -35 -73 -39 -15 -4 -29 -12 -32 -20 -2 -7 -18 -16 -34
-19 -16 -4 -31 -11 -34 -16 -3 -4 -35 -25 -71 -46 -36 -21 -82 -48 -102 -60
-20 -12 -50 -29 -67 -38 -16 -8 -48 -26 -70 -39 -22 -14 -53 -32 -70 -41 -16
-8 -46 -26 -67 -38 -20 -12 -62 -37 -95 -55 -32 -18 -65 -37 -73 -42 -8 -6
-26 -16 -40 -22 -14 -7 -46 -27 -72 -45 -26 -18 -51 -33 -54 -33 -6 0 -42 -21
-153 -87 -20 -12 -49 -29 -66 -38 -16 -8 -48 -27 -70 -40 -22 -14 -53 -32 -70
-41 -16 -8 -47 -25 -67 -37 -87 -52 -214 -125 -228 -131 -8 -4 -31 -17 -52
-29 -20 -12 -66 -40 -103 -62 -37 -22 -84 -50 -104 -62 -20 -12 -49 -29 -66
-37 -16 -9 -48 -27 -70 -40 -22 -14 -53 -32 -70 -41 -16 -8 -46 -26 -66 -38
-20 -12 -63 -37 -95 -55 -33 -18 -66 -38 -74 -43 -8 -5 -26 -15 -40 -21 -14
-7 -45 -26 -70 -43 -25 -17 -56 -36 -70 -43 -14 -7 -43 -23 -65 -37 -22 -13
-51 -29 -65 -35 -14 -6 -32 -17 -40 -25 -8 -7 -26 -16 -38 -20 -13 -4 -43 -20
-65 -35 -23 -15 -58 -35 -77 -44 -19 -9 -53 -27 -75 -41 -22 -13 -47 -27 -55
-30 -20 -9 -59 -28 -82 -40 -30 -16 -23 -52 11 -60 16 -3 35 -13 42 -21 6 -8
16 -14 22 -14 11 0 91 -40 152 -76 22 -13 54 -31 70 -40 17 -8 48 -26 70 -40
22 -13 54 -31 70 -40 17 -8 48 -26 70 -39 22 -13 53 -32 70 -41 16 -9 35 -23
43 -30 7 -8 19 -14 26 -14 7 0 21 -9 31 -20 29 -32 71 -25 144 23 90 58 102
66 131 80 14 7 45 25 70 42 25 16 70 42 100 58 30 16 62 35 70 41 8 7 26 18
40 25 14 6 43 23 65 36 22 13 54 31 70 40 17 9 48 27 70 40 22 14 54 32 70 41
17 8 46 25 66 37 118 71 148 87 158 87 6 0 11 4 11 10 0 5 15 16 33 25 17 8
39 19 47 24 8 5 41 25 74 43 32 18 75 43 95 55 20 12 50 30 66 38 17 9 48 27
70 41 22 13 54 31 70 40 17 8 48 26 70 39 22 14 51 30 65 37 14 7 46 27 71 44
25 17 56 35 70 39 13 4 31 13 39 20 8 6 41 27 74 46 32 19 75 44 95 56 20 12
50 29 66 38 17 8 48 27 70 40 22 14 54 32 70 41 17 8 48 26 70 40 22 13 54 31
70 40 17 8 48 26 70 40 22 13 51 30 65 37 14 7 45 25 70 42 25 16 70 42 100
58 30 16 62 35 70 42 8 7 24 15 35 19 11 3 44 22 74 41 29 19 64 38 78 41 13
4 27 12 30 20 2 7 17 17 31 23 15 6 45 22 67 36 22 13 51 30 65 36 14 7 32 18
40 25 8 6 41 25 72 42 32 17 77 44 102 60 24 17 54 33 66 37 12 4 43 21 68 38
45 31 74 48 137 81 17 9 48 27 70 41 22 13 54 32 70 40 17 9 48 27 70 40 22
13 54 31 70 40 17 9 48 27 70 40 22 14 51 30 65 37 14 7 28 18 32 24 4 7 20
15 35 19 14 3 38 15 51 26 14 10 28 19 33 19 4 0 29 14 54 31 25 17 71 44 103
61 31 17 64 36 72 42 8 7 30 18 48 26 17 7 32 16 32 20 0 5 12 13 28 19 15 6
45 22 67 36 22 13 54 32 70 41 55 29 90 50 134 78 25 16 58 35 75 43 17 8 47
24 67 36 118 71 148 87 158 87 6 0 11 4 11 10 0 5 15 17 33 25 17 8 50 26 72
40 22 13 54 31 70 40 17 9 48 27 70 40 22 13 54 32 70 41 69 37 92 51 137 81
25 17 57 34 70 38 12 4 34 16 47 26 13 11 28 19 32 19 5 0 31 15 57 33 26 18
58 38 72 45 14 7 43 24 65 37 22 13 54 31 70 40 17 9 48 27 70 40 22 14 54 32
70 41 17 8 48 26 70 40 22 13 54 31 70 40 17 8 48 26 70 40 22 13 55 31 73 39
17 8 32 19 32 24 0 5 13 12 30 16 16 4 32 11 35 16 3 4 35 25 71 46 36 21 82
48 102 60 21 12 51 29 67 37 17 9 48 27 70 41 22 13 54 32 70 40 17 9 48 27
70 40 22 13 54 31 70 40 17 9 48 27 70 40 22 14 54 32 72 40 17 8 33 18 35 22
1 5 30 22 63 38 33 17 80 44 105 60 25 17 56 36 70 43 14 7 43 24 65 37 22 13
54 31 70 40 17 9 48 27 70 40 22 14 54 32 70 41 17 8 48 26 70 40 22 13 54 31
70 40 17 8 48 26 70 40 22 13 54 31 70 40 17 8 48 26 70 39 22 13 73 40 114
60 80 40 90 68 41 120 -11 12 -20 25 -20 30 0 4 -17 33 -37 64 -36 54 -51 79
-87 146 -9 17 -28 48 -41 70 -13 22 -31 54 -40 70 -8 17 -29 55 -45 85 -17 30
-30 60 -30 67 0 18 -37 53 -55 53 -8 0 -23 -9 -32 -20z"/>
<path d="M6713 8330 c-10 -11 -22 -20 -28 -20 -5 0 -35 -17 -65 -38 -30 -20
-66 -43 -80 -50 -14 -7 -43 -23 -65 -37 -22 -13 -53 -31 -70 -40 -16 -8 -48
-27 -70 -40 -22 -14 -53 -32 -70 -41 -16 -8 -48 -26 -70 -40 -22 -13 -53 -31
-70 -40 -16 -8 -46 -25 -67 -37 -20 -12 -66 -40 -103 -62 -37 -22 -84 -50
-104 -62 -20 -12 -49 -29 -66 -37 -16 -9 -48 -27 -70 -40 -22 -14 -53 -32 -70
-40 -16 -9 -48 -27 -70 -41 -22 -13 -53 -31 -70 -40 -16 -9 -61 -36 -100 -60
-38 -24 -81 -49 -95 -55 -32 -14 -38 -17 -82 -43 -20 -12 -66 -40 -103 -62
-37 -22 -84 -50 -104 -62 -20 -12 -49 -29 -66 -37 -16 -9 -48 -27 -70 -41 -22
-13 -53 -31 -70 -40 -32 -16 -49 -26 -105 -61 -41 -26 -134 -79 -170 -96 -14
-7 -46 -27 -72 -45 -26 -18 -50 -33 -53 -33 -5 0 -120 -66 -223 -127 -20 -12
-50 -29 -67 -37 -16 -9 -48 -27 -70 -41 -22 -13 -53 -32 -70 -40 -16 -9 -48
-27 -70 -40 -65 -39 -108 -63 -142 -80 -18 -8 -33 -20 -33 -25 0 -6 -5 -10
-10 -10 -9 0 -121 -62 -229 -127 -20 -12 -49 -29 -66 -37 -16 -9 -48 -27 -70
-40 -22 -14 -53 -32 -70 -41 -16 -8 -48 -27 -70 -40 -22 -14 -53 -32 -70 -41
-16 -8 -48 -26 -70 -39 -22 -13 -53 -31 -70 -40 -110 -58 -155 -91 -155 -114
0 -10 -6 -24 -14 -30 -8 -7 -17 -27 -20 -45 -4 -19 -13 -39 -20 -45 -8 -7 -17
-27 -20 -45 -4 -19 -13 -39 -20 -45 -8 -7 -17 -27 -20 -45 -4 -19 -13 -39 -21
-46 -8 -7 -17 -27 -21 -46 -3 -18 -12 -38 -20 -45 -7 -6 -16 -26 -20 -45 -3
-18 -12 -38 -20 -45 -8 -6 -14 -16 -14 -21 0 -5 -12 -35 -26 -66 -47 -103 -53
-116 -79 -177 -15 -33 -35 -78 -46 -101 -10 -22 -19 -45 -19 -51 0 -6 -6 -16
-14 -22 -8 -7 -17 -27 -20 -45 -4 -19 -13 -39 -21 -46 -8 -7 -17 -27 -21 -46
-3 -18 -12 -38 -20 -45 -8 -6 -14 -16 -14 -22 0 -6 -8 -29 -19 -51 -19 -42
-57 -125 -93 -206 -11 -25 -26 -58 -33 -75 -55 -122 -65 -145 -65 -153 0 -5
-7 -15 -15 -22 -8 -7 -17 -27 -21 -46 -3 -18 -12 -38 -20 -45 -8 -6 -14 -16
-14 -22 0 -9 -15 -45 -71 -163 -10 -22 -19 -45 -19 -51 0 -6 -7 -16 -15 -23
-8 -7 -17 -27 -21 -46 -3 -18 -12 -38 -19 -44 -8 -6 -17 -24 -20 -40 -3 -16
-13 -34 -21 -41 -8 -6 -14 -16 -14 -22 0 -15 -69 -155 -80 -162 -6 -3 -10 -14
-10 -24 0 -9 -11 -32 -25 -51 -49 -67 -15 -117 45 -66 16 13 39 27 50 31 11 3
20 10 20 15 0 5 10 12 23 16 12 3 30 13 40 22 9 8 25 20 36 26 48 28 99 59
133 79 100 59 174 104 207 124 20 12 50 30 66 38 17 9 48 27 70 41 22 13 54
31 70 40 17 8 46 25 66 37 20 12 83 49 139 82 56 33 119 70 139 82 20 12 50
30 66 38 17 9 48 27 70 40 22 13 54 31 70 40 17 9 48 27 70 40 61 37 107 63
143 80 17 8 32 19 32 24 0 5 13 12 30 16 16 4 32 11 35 15 3 5 51 35 107 67
55 32 117 68 137 80 20 12 50 29 66 37 17 9 48 27 70 41 22 13 54 32 70 40 17
9 48 27 70 41 22 13 54 31 70 40 17 8 48 26 70 40 22 13 54 31 70 40 17 8 46
25 66 37 20 12 67 40 104 62 37 22 83 50 103 62 21 12 51 29 67 38 17 8 48 27
70 40 46 28 97 57 140 80 17 9 48 27 70 41 22 13 55 31 73 39 17 8 32 19 32
24 0 5 12 12 27 16 14 3 38 15 51 26 14 10 29 19 35 19 6 0 18 6 26 14 9 7 43
28 76 45 32 18 62 35 65 39 3 4 16 13 30 20 14 6 32 16 40 21 8 5 41 25 74 43
32 18 75 43 95 55 20 12 50 30 66 38 17 9 48 27 70 40 22 13 54 31 70 40 17 9
48 27 70 40 22 14 54 32 70 41 17 8 48 26 70 40 22 13 55 31 73 39 17 8 32 19
32 23 0 4 12 13 28 20 15 6 45 23 67 36 22 14 54 32 70 40 17 9 48 27 70 40
22 14 54 32 70 41 17 8 48 27 70 40 22 14 54 32 70 41 17 8 48 26 70 40 22 13
54 31 70 40 63 33 92 50 137 81 25 17 56 34 68 38 12 4 42 20 66 37 25 16 70
43 102 60 31 17 64 36 72 42 8 7 26 18 40 25 14 6 43 23 65 36 22 14 54 32 70
41 17 8 48 26 70 40 22 13 54 31 70 40 17 8 48 26 70 40 22 13 52 30 68 36 15
7 27 16 27 20 0 4 15 14 33 22 18 7 53 26 78 42 24 15 69 41 99 57 30 16 66
38 79 48 13 11 30 19 37 19 7 0 19 6 26 13 7 7 24 18 38 25 14 7 43 24 65 37
22 14 54 32 70 41 17 8 48 26 70 40 22 13 54 31 70 39 34 18 59 32 96 57 15 9
39 20 53 24 14 3 26 9 26 13 0 3 34 22 75 41 41 19 75 40 75 46 0 18 -47 64
-65 64 -9 0 -28 9 -42 20 -14 11 -34 20 -44 20 -10 0 -21 5 -25 11 -3 6 -21
18 -38 25 -17 8 -49 26 -71 39 -22 13 -53 31 -70 39 -16 9 -48 27 -70 40 -22
14 -53 32 -70 40 -16 9 -48 27 -70 40 -22 14 -53 32 -70 41 -16 8 -48 27 -70
40 -22 14 -49 29 -60 35 -11 6 -42 24 -70 40 -27 17 -65 37 -82 45 -18 8 -33
19 -33 24 0 5 -13 12 -30 16 -16 4 -32 10 -35 15 -3 5 -35 26 -71 47 -37 21
-83 48 -103 60 -20 12 -49 29 -66 38 -16 8 -48 27 -70 40 -22 14 -51 30 -65
37 -14 7 -50 30 -80 50 -30 21 -60 38 -65 38 -6 0 -18 9 -28 20 -10 12 -29 20
-47 20 -18 0 -37 -8 -47 -20z m157 -608 c18 -19 28 -21 56 -16 32 6 39 3 80
-39 29 -30 50 -44 60 -40 10 4 25 -4 40 -20 15 -16 30 -24 40 -20 10 4 25 -4
40 -20 14 -16 30 -24 39 -20 10 3 41 -20 89 -69 l74 -73 -54 -54 c-35 -35 -59
-51 -69 -47 -9 3 -24 -4 -37 -19 -14 -16 -28 -23 -39 -20 -11 4 -32 -10 -62
-41 -30 -30 -51 -45 -61 -41 -10 4 -25 -4 -40 -20 -15 -16 -30 -23 -40 -20
-10 4 -36 -15 -79 -58 -44 -45 -71 -65 -88 -65 -14 0 -30 -9 -37 -21 -9 -14
-20 -19 -33 -16 -13 4 -28 -4 -43 -20 -15 -16 -30 -24 -40 -20 -10 4 -30 -9
-58 -38 -29 -30 -51 -45 -68 -45 -15 0 -31 -9 -38 -21 -9 -14 -20 -19 -33 -16
-14 4 -32 -7 -62 -39 -28 -29 -50 -44 -67 -44 -15 0 -31 -9 -38 -21 -9 -14
-20 -19 -33 -16 -13 4 -28 -4 -43 -20 -15 -16 -30 -24 -40 -20 -10 4 -30 -9
-58 -38 -29 -30 -51 -45 -68 -45 -15 0 -31 -9 -38 -21 -9 -14 -20 -19 -33 -16
-13 4 -28 -4 -43 -20 -15 -16 -30 -24 -40 -20 -10 4 -30 -9 -58 -38 -29 -30
-51 -45 -68 -45 -15 0 -31 -9 -38 -21 -9 -14 -20 -19 -33 -16 -13 4 -28 -4
-43 -20 -15 -16 -30 -24 -40 -20 -10 4 -30 -9 -58 -38 -29 -30 -51 -45 -68
-45 -15 0 -31 -9 -38 -21 -9 -14 -20 -19 -33 -16 -14 4 -32 -7 -62 -39 -28
-29 -50 -44 -67 -44 -15 0 -31 -9 -38 -21 -9 -14 -20 -19 -33 -16 -13 4 -28
-4 -43 -20 -15 -16 -30 -24 -40 -20 -10 4 -30 -9 -58 -38 -29 -30 -51 -45 -68
-45 -15 0 -31 -9 -38 -21 -9 -14 -20 -19 -33 -16 -13 4 -28 -4 -43 -20 -15
-16 -30 -24 -40 -20 -10 4 -30 -9 -58 -38 -29 -30 -51 -45 -68 -45 -15 0 -31
-9 -38 -21 -9 -14 -20 -19 -33 -16 -14 4 -32 -7 -62 -39 -28 -29 -50 -44 -67
-44 -14 0 -31 -9 -38 -20 -7 -12 -23 -20 -40 -20 -17 0 -32 -8 -40 -21 -9 -14
-20 -19 -33 -16 -14 4 -32 -7 -62 -39 -28 -29 -50 -44 -67 -44 -15 0 -31 -9
-38 -21 -9 -14 -20 -19 -33 -16 -14 4 -32 -7 -62 -39 -28 -29 -50 -44 -67 -44
-14 0 -31 -9 -38 -20 -7 -12 -23 -20 -40 -20 -17 0 -32 -8 -40 -21 -9 -14 -20
-19 -33 -16 -13 4 -28 -4 -43 -20 -15 -16 -30 -23 -40 -20 -10 4 -31 -10 -60
-40 -29 -30 -50 -44 -60 -40 -10 4 -25 -4 -40 -20 -15 -16 -30 -24 -40 -20
-10 4 -30 -9 -58 -38 -29 -30 -51 -45 -68 -45 -15 0 -31 -9 -38 -21 -9 -14
-20 -19 -33 -16 -14 4 -32 -7 -62 -39 -28 -29 -50 -44 -67 -44 -14 0 -31 -9
-38 -20 -7 -12 -23 -20 -40 -20 -17 0 -32 -8 -40 -21 -9 -14 -20 -19 -33 -16
-13 4 -28 -4 -43 -20 -15 -16 -30 -24 -40 -20 -10 4 -25 -4 -40 -20 -15 -16
-30 -24 -40 -20 -11 4 -24 -3 -38 -18 -14 -16 -28 -23 -39 -20 -12 4 -31 -9
-61 -40 -44 -46 -76 -56 -98 -30 -15 18 -4 89 16 109 8 8 14 25 14 39 0 32 20
87 31 87 5 0 9 13 9 30 0 19 7 34 20 42 24 15 26 55 4 79 -10 11 -13 25 -9 38
9 28 33 27 37 -1 5 -34 33 -29 33 5 0 16 8 34 18 41 9 7 17 25 17 40 0 15 8
31 20 38 12 8 20 24 20 39 0 34 19 89 31 89 5 0 9 13 9 30 0 19 7 34 20 42 12
8 20 24 20 40 0 17 8 33 20 40 11 7 20 24 20 38 0 17 15 39 45 68 29 27 42 48
38 58 -8 21 56 87 80 80 11 -2 27 6 41 21 15 16 30 23 40 20 10 -4 31 10 60
40 29 30 50 44 60 40 10 -4 25 4 40 20 15 16 30 24 40 20 11 -4 24 3 38 18 14
16 28 23 39 20 11 -4 32 10 62 41 30 30 51 45 61 41 10 -4 25 4 40 20 15 16
30 24 40 20 10 -4 31 10 60 40 29 30 50 44 60 40 10 -4 25 4 40 20 15 16 30
24 40 20 10 -4 25 4 40 20 15 16 30 24 40 20 10 -4 31 10 60 40 29 30 50 44
60 40 10 -4 25 4 40 20 15 16 30 24 40 20 10 -4 25 4 40 20 15 16 30 24 40 20
10 -4 31 10 60 40 29 30 50 44 60 40 10 -4 25 4 40 20 15 16 30 24 40 20 10
-4 31 10 60 40 29 30 50 44 60 40 10 -4 25 4 40 20 15 16 30 24 40 20 10 -4
25 4 40 20 15 16 30 24 40 20 10 -4 31 10 60 40 29 30 50 44 60 40 10 -4 25 4
40 20 15 16 30 24 40 20 10 -4 31 10 60 40 29 30 50 44 60 40 10 -4 25 4 40
20 15 16 30 24 40 20 10 -4 25 4 40 20 15 16 30 24 40 20 11 -4 24 3 38 18 14
16 28 23 39 20 11 -4 32 10 62 41 30 30 51 45 61 41 10 -4 25 4 40 20 15 16
30 24 40 20 10 -4 31 10 60 40 29 30 50 44 60 40 10 -4 25 4 40 20 15 16 30
24 40 20 11 -4 24 3 38 18 14 16 28 23 39 20 11 -4 32 10 62 41 30 30 51 45
61 41 10 -4 25 4 40 20 15 16 30 24 40 20 11 -4 24 3 38 18 14 16 28 23 39 20
11 -4 32 10 62 41 30 30 51 45 61 41 10 -4 25 4 40 20 15 16 30 24 40 20 10
-4 31 10 60 40 29 30 50 44 60 40 10 -4 25 4 40 20 15 16 30 24 40 20 10 -4
24 2 37 17 30 35 216 34 249 -2z"/>
<path d="M13655 8340 c-9 -15 -92 -67 -180 -115 -16 -9 -48 -27 -70 -40 -22
-14 -51 -30 -65 -37 -14 -7 -45 -26 -70 -43 -25 -17 -56 -36 -70 -43 -14 -7
-43 -23 -65 -37 -22 -13 -53 -31 -70 -40 -16 -8 -48 -27 -70 -40 -22 -13 -53
-31 -70 -40 -16 -9 -48 -27 -70 -40 -22 -14 -53 -32 -70 -41 -16 -8 -48 -26
-70 -40 -22 -13 -53 -31 -70 -40 -16 -8 -48 -26 -70 -40 -22 -13 -51 -30 -65
-37 -14 -7 -43 -24 -65 -38 -42 -27 -73 -44 -140 -78 -22 -12 -47 -25 -55 -30
-8 -5 -26 -14 -40 -20 -96 -45 -137 -79 -127 -106 4 -8 13 -15 21 -15 14 0
136 -61 231 -116 22 -12 59 -32 82 -44 23 -12 57 -31 75 -43 18 -12 44 -28 58
-35 14 -7 43 -23 65 -37 22 -13 54 -31 70 -40 17 -9 48 -27 70 -40 22 -13 54
-31 70 -40 17 -8 48 -27 70 -40 22 -14 54 -32 70 -41 17 -8 48 -26 70 -39 22
-14 51 -30 65 -37 14 -6 32 -17 40 -24 8 -6 40 -25 70 -41 30 -16 75 -42 100
-58 25 -17 56 -35 70 -42 14 -7 43 -24 65 -37 22 -14 54 -32 70 -40 17 -9 48
-27 70 -40 22 -14 54 -32 70 -41 17 -8 48 -27 70 -40 22 -14 54 -32 70 -41 17
-8 47 -25 67 -37 146 -87 244 -144 266 -155 15 -7 34 -17 42 -22 8 -5 44 -27
78 -47 35 -21 80 -48 100 -60 21 -12 51 -30 67 -38 17 -9 48 -27 70 -41 22
-13 54 -31 70 -40 17 -8 47 -25 67 -37 20 -12 82 -48 137 -81 56 -32 103 -62
106 -66 3 -5 19 -11 35 -15 16 -4 33 -12 37 -18 5 -7 19 -18 33 -25 14 -7 43
-23 65 -37 22 -13 54 -31 70 -39 17 -9 48 -27 70 -40 22 -14 54 -32 70 -41 17
-8 48 -27 70 -40 22 -13 54 -31 70 -40 17 -9 48 -27 70 -40 22 -14 51 -30 65
-37 14 -7 45 -26 70 -43 25 -17 60 -37 78 -44 17 -7 32 -16 32 -20 0 -4 12
-12 28 -19 15 -6 45 -23 67 -36 22 -14 54 -32 70 -40 17 -9 48 -27 70 -40 22
-14 54 -32 70 -41 17 -8 48 -27 70 -40 22 -14 51 -29 65 -35 14 -6 32 -17 40
-25 14 -13 114 -70 170 -97 14 -7 46 -27 71 -44 25 -17 56 -35 69 -39 13 -4
44 -22 69 -39 25 -17 57 -37 71 -44 14 -7 43 -23 65 -37 22 -13 54 -31 70 -39
17 -9 48 -27 70 -41 22 -13 54 -32 70 -40 17 -9 46 -26 66 -38 20 -12 63 -37
95 -55 33 -18 66 -37 74 -42 8 -5 59 -35 114 -67 54 -32 115 -68 135 -80 20
-12 50 -29 66 -37 17 -9 48 -27 70 -40 22 -14 54 -32 70 -40 17 -9 48 -27 70
-41 22 -13 51 -30 65 -37 14 -7 40 -23 58 -35 18 -12 53 -31 77 -43 25 -12 45
-25 45 -30 0 -4 12 -11 26 -14 14 -4 46 -21 72 -39 26 -18 58 -38 72 -45 14
-7 43 -23 65 -37 22 -13 54 -32 70 -40 17 -9 48 -27 70 -40 22 -14 51 -30 65
-37 14 -7 33 -21 42 -31 10 -9 22 -17 28 -17 5 0 35 -17 67 -39 32 -21 84 -56
117 -77 32 -21 64 -43 71 -48 43 -32 59 32 20 84 -14 19 -25 42 -25 51 0 10
-4 21 -10 24 -5 3 -26 41 -45 83 -20 42 -40 84 -46 92 -5 8 -14 26 -19 40 -6
14 -15 32 -20 40 -6 8 -13 22 -16 30 -5 15 -32 75 -64 145 -59 128 -70 153
-70 162 0 6 -6 16 -14 22 -8 7 -17 27 -20 45 -4 19 -13 39 -21 46 -8 7 -15 19
-15 27 0 9 -9 32 -19 52 -11 20 -29 57 -40 84 -12 26 -30 66 -40 90 -55 121
-75 166 -92 203 -11 22 -19 45 -19 51 0 6 -6 16 -14 22 -8 7 -17 27 -20 45 -4
19 -13 39 -21 46 -8 7 -17 27 -21 46 -3 18 -12 38 -20 45 -8 6 -14 16 -14 22
0 6 -9 30 -20 54 -11 24 -28 62 -39 86 -35 79 -73 162 -92 203 -10 22 -19 45
-19 51 0 6 -6 16 -14 22 -8 7 -17 27 -20 45 -4 19 -13 39 -21 46 -8 7 -17 27
-21 46 -3 18 -12 38 -20 45 -7 6 -16 26 -20 45 -3 18 -12 38 -19 44 -8 6 -17
26 -20 43 -4 18 -13 39 -20 47 -7 8 -16 29 -20 47 -3 17 -13 37 -21 44 -8 6
-14 19 -14 28 0 22 -47 66 -80 76 -14 4 -32 13 -40 20 -8 6 -40 26 -70 44 -30
17 -62 36 -70 41 -8 6 -26 15 -40 21 -14 5 -41 20 -62 32 -20 12 -66 39 -102
60 -36 21 -68 42 -71 46 -3 5 -19 12 -35 16 -17 4 -30 11 -30 16 0 5 -15 16
-32 24 -18 8 -51 26 -73 40 -22 13 -53 31 -70 40 -16 9 -48 27 -70 40 -22 13
-53 31 -70 39 -16 9 -48 27 -70 41 -22 13 -53 32 -70 40 -16 9 -46 26 -66 38
-20 12 -82 49 -139 82 -56 33 -118 70 -138 82 -20 12 -50 29 -67 37 -16 9 -48
27 -70 40 -22 14 -53 32 -70 40 -16 9 -48 27 -70 41 -22 13 -53 31 -70 40 -16
9 -48 27 -70 40 -22 13 -53 32 -70 41 -69 37 -92 51 -138 81 -26 18 -59 36
-72 39 -14 3 -25 10 -25 15 0 5 -15 15 -32 24 -47 21 -160 85 -178 99 -8 7
-26 18 -40 24 -14 7 -43 23 -65 37 -22 13 -53 31 -70 39 -16 9 -48 27 -70 41
-22 13 -51 30 -65 36 -14 7 -32 18 -40 25 -8 6 -41 25 -72 42 -32 17 -78 44
-103 61 -25 17 -57 34 -70 37 -14 3 -28 10 -31 15 -2 5 -34 25 -70 46 -36 21
-82 48 -102 60 -21 12 -50 29 -67 37 -16 9 -48 27 -70 40 -22 14 -53 32 -70
41 -16 8 -46 26 -66 38 -92 55 -147 87 -153 87 -3 0 -28 15 -54 33 -26 18 -58
38 -72 45 -14 7 -43 24 -65 37 -22 14 -51 30 -65 37 -14 7 -33 21 -42 31 -20
19 -73 23 -83 7z m175 -617 c12 -13 27 -20 36 -16 10 4 25 -4 40 -20 15 -16
30 -24 40 -20 10 4 31 -10 60 -40 29 -30 50 -44 60 -40 10 4 25 -4 40 -20 15
-16 30 -24 40 -20 10 4 31 -11 61 -41 30 -31 51 -45 62 -41 11 3 25 -4 39 -20
14 -15 27 -22 38 -18 10 4 25 -4 40 -20 15 -16 30 -24 40 -20 10 4 25 -4 40
-20 15 -16 30 -24 40 -20 10 4 31 -10 60 -40 29 -30 50 -44 60 -40 10 4 25 -4
40 -20 15 -16 30 -24 40 -20 10 4 31 -10 60 -40 29 -30 50 -44 60 -40 10 4 25
-4 40 -20 15 -16 30 -24 40 -20 10 4 31 -11 61 -41 30 -31 51 -45 62 -41 11 3
25 -4 39 -20 14 -15 27 -22 38 -18 10 4 25 -4 40 -20 15 -16 30 -24 40 -20 10
4 25 -4 40 -20 15 -16 30 -24 40 -20 10 4 31 -10 60 -40 29 -30 50 -44 60 -40
10 4 25 -4 40 -20 15 -16 30 -24 40 -20 10 4 31 -10 60 -40 29 -30 50 -44 60
-40 10 4 25 -4 40 -20 15 -16 30 -24 40 -20 10 4 25 -4 40 -20 15 -16 30 -24
40 -20 10 4 31 -10 60 -40 29 -30 50 -44 60 -40 10 4 25 -4 40 -20 15 -16 30
-24 40 -20 10 4 25 -4 40 -20 15 -16 30 -24 40 -20 10 4 31 -10 60 -40 29 -30
50 -44 60 -40 10 4 25 -4 40 -20 15 -16 30 -24 40 -20 10 4 31 -11 61 -41 30
-31 51 -45 62 -41 11 3 25 -4 39 -20 14 -15 27 -22 38 -18 10 4 25 -4 40 -20
15 -16 30 -24 40 -20 10 4 31 -10 60 -40 29 -30 50 -44 60 -40 10 4 25 -4 40
-20 15 -16 30 -24 40 -20 10 4 25 -4 40 -20 15 -16 30 -24 40 -20 10 4 31 -10
60 -40 29 -30 50 -44 60 -40 10 4 25 -4 40 -20 15 -16 30 -24 40 -20 10 4 31
-10 60 -40 28 -29 50 -44 60 -40 22 8 204 -177 204 -208 0 -14 9 -30 21 -37
14 -9 19 -20 16 -33 -3 -13 6 -30 29 -53 37 -37 54 -73 54 -114 0 -16 8 -32
20 -40 12 -7 20 -23 20 -40 0 -16 8 -32 20 -40 12 -7 20 -23 20 -38 0 -14 6
-32 14 -40 8 -8 18 -36 22 -62 4 -28 14 -52 25 -60 11 -7 19 -25 19 -40 0 -16
8 -32 20 -40 12 -7 20 -23 20 -40 0 -16 8 -32 20 -40 23 -14 29 -129 8 -150
-20 -20 -53 -14 -77 14 -14 16 -28 23 -40 19 -11 -3 -25 4 -39 20 -14 15 -27
22 -38 18 -10 -4 -25 4 -40 20 -15 16 -30 24 -40 20 -10 -4 -25 4 -40 20 -15
16 -30 24 -43 20 -13 -3 -24 2 -33 16 -7 12 -23 21 -38 21 -17 0 -39 15 -68
45 -28 29 -48 42 -58 38 -10 -4 -25 4 -40 20 -15 16 -30 24 -43 20 -13 -3 -24
2 -33 16 -7 12 -23 21 -38 21 -17 0 -39 15 -68 45 -28 29 -48 42 -58 38 -10
-4 -25 4 -40 20 -15 16 -30 24 -40 20 -10 -4 -31 10 -60 40 -29 30 -50 44 -60
40 -10 -3 -25 4 -40 20 -15 16 -30 24 -43 20 -13 -3 -24 2 -33 16 -7 12 -23
21 -38 21 -17 0 -39 15 -68 45 -28 29 -48 42 -58 38 -10 -4 -25 4 -40 20 -15
16 -30 24 -43 20 -13 -3 -24 2 -33 16 -7 12 -23 21 -38 21 -17 0 -39 15 -67
44 -30 32 -48 43 -62 39 -13 -3 -24 2 -33 16 -8 13 -23 21 -40 21 -17 0 -33 8
-40 20 -7 11 -24 20 -38 20 -17 0 -39 15 -67 44 -30 32 -48 43 -62 39 -13 -3
-24 2 -33 16 -7 12 -23 21 -38 21 -17 0 -39 15 -67 44 -30 32 -48 43 -62 39
-13 -3 -24 2 -33 16 -8 13 -23 21 -40 21 -17 0 -33 8 -40 20 -7 11 -24 20 -38
20 -17 0 -39 15 -68 45 -28 29 -48 42 -58 38 -10 -4 -25 4 -40 20 -15 16 -30
24 -43 20 -13 -3 -24 2 -33 16 -7 12 -23 21 -38 21 -17 0 -39 15 -67 44 -30
32 -48 43 -62 39 -13 -3 -24 2 -33 16 -7 12 -23 21 -38 21 -17 0 -39 15 -68
45 -28 29 -48 42 -58 38 -10 -4 -25 4 -40 20 -15 16 -30 24 -43 20 -13 -3 -24
2 -33 16 -7 12 -23 21 -36 21 -13 0 -41 18 -68 44 -30 30 -51 42 -64 39 -12
-3 -23 3 -32 16 -8 13 -23 21 -40 21 -17 0 -33 8 -40 20 -7 11 -24 20 -38 20
-17 0 -39 15 -67 44 -30 32 -48 43 -62 39 -13 -3 -24 2 -33 16 -7 12 -23 21
-38 21 -17 0 -39 15 -67 44 -30 32 -48 43 -62 39 -13 -3 -24 2 -33 16 -7 12
-23 21 -38 21 -17 0 -39 15 -68 45 -28 29 -48 42 -58 38 -10 -4 -25 4 -40 20
-15 16 -30 24 -40 20 -10 -4 -25 4 -40 20 -15 16 -30 24 -43 20 -13 -3 -24 2
-33 16 -7 12 -23 21 -37 21 -17 0 -45 20 -89 65 -44 45 -70 64 -81 60 -11 -3
-26 4 -39 20 -13 15 -28 22 -37 18 -11 -4 -31 10 -62 41 -30 31 -51 45 -62 41
-11 -3 -25 4 -39 20 -13 15 -28 22 -37 19 -10 -4 -34 12 -69 47 l-54 54 74 73
c48 49 79 72 89 69 9 -4 25 4 39 20 15 16 30 24 40 20 10 -4 25 4 40 20 15 16
30 24 40 20 11 -4 24 3 38 18 14 16 28 23 39 20 12 -4 26 3 40 20 15 16 29 23
40 20 12 -4 26 3 39 18 31 35 217 35 250 0z m270 3 c0 -7 10 -20 23 -29 18
-12 20 -18 9 -28 -10 -11 -14 -10 -18 9 -4 12 -14 22 -25 22 -21 0 -33 15 -24
30 9 15 35 12 35 -4z"/>
<path d="M8895 7089 c-12 -12 -105 -72 -155 -100 -19 -11 -53 -31 -75 -44 -22
-13 -53 -31 -70 -40 -16 -8 -48 -27 -70 -40 -22 -14 -53 -32 -70 -41 -16 -8
-46 -25 -66 -37 -117 -70 -147 -87 -157 -87 -5 0 -12 -6 -15 -14 -3 -7 -17
-16 -31 -20 -14 -3 -47 -21 -73 -39 -46 -30 -69 -44 -138 -81 -16 -9 -48 -28
-70 -41 -22 -13 -53 -31 -70 -40 -16 -9 -48 -27 -70 -40 -22 -13 -53 -31 -70
-40 -16 -9 -46 -26 -67 -38 -20 -12 -66 -39 -102 -60 -36 -21 -68 -42 -71 -46
-3 -5 -19 -12 -35 -16 -17 -4 -30 -10 -30 -15 0 -4 -20 -18 -45 -30 -24 -12
-59 -31 -77 -43 -18 -12 -44 -28 -58 -35 -14 -7 -43 -23 -65 -37 -22 -13 -49
-29 -60 -34 -11 -6 -42 -24 -70 -41 -27 -16 -63 -37 -80 -45 -16 -9 -46 -26
-67 -38 -20 -12 -65 -39 -100 -60 -34 -20 -70 -42 -78 -47 -8 -6 -26 -15 -40
-21 -14 -5 -41 -20 -61 -32 -20 -12 -67 -40 -104 -62 -37 -22 -83 -50 -103
-62 -21 -12 -50 -29 -67 -37 -16 -9 -48 -27 -70 -41 -22 -13 -53 -32 -70 -40
-16 -9 -48 -27 -70 -41 -22 -13 -53 -31 -70 -40 -16 -8 -48 -26 -70 -39 -22
-14 -54 -32 -72 -42 -27 -15 -120 -70 -271 -160 -20 -12 -50 -29 -67 -38 -16
-8 -48 -27 -70 -40 -22 -14 -53 -32 -70 -41 -16 -8 -46 -25 -67 -37 -104 -62
-149 -87 -157 -87 -5 0 -11 -6 -14 -14 -3 -8 -19 -17 -36 -21 -17 -4 -33 -10
-36 -15 -3 -4 -50 -34 -106 -66 -55 -33 -117 -69 -137 -81 -20 -12 -50 -29
-67 -37 -16 -9 -48 -27 -70 -41 -22 -13 -53 -32 -70 -40 -16 -9 -48 -27 -70
-41 -22 -13 -53 -31 -70 -40 -16 -8 -48 -26 -70 -40 -22 -13 -53 -31 -70 -40
-54 -28 -89 -49 -135 -79 -25 -16 -56 -35 -70 -42 -14 -7 -43 -24 -65 -37 -22
-14 -53 -32 -70 -40 -16 -9 -48 -27 -70 -40 -22 -14 -53 -32 -70 -41 -16 -8
-48 -27 -70 -40 -22 -14 -53 -32 -70 -41 -16 -8 -48 -26 -70 -40 -22 -13 -53
-31 -70 -40 -16 -8 -47 -25 -67 -37 -20 -12 -82 -49 -138 -82 -56 -33 -118
-70 -138 -82 -20 -12 -50 -29 -67 -37 -16 -9 -48 -27 -70 -41 -22 -13 -53 -31
-70 -40 -16 -9 -48 -27 -70 -40 -22 -13 -53 -31 -70 -40 -16 -8 -48 -27 -70
-40 -22 -14 -53 -32 -70 -41 -16 -8 -48 -26 -70 -40 -22 -13 -53 -31 -70 -39
-16 -9 -48 -27 -70 -40 -22 -13 -53 -31 -70 -39 -16 -9 -37 -20 -45 -25 -8 -5
-26 -14 -40 -20 -30 -14 -139 -72 -160 -86 -8 -6 -31 -15 -50 -20 -35 -11 -57
-54 -28 -56 7 -1 344 0 748 1 669 1 737 3 760 18 14 9 36 23 50 30 14 7 43 24
65 37 22 14 51 30 65 37 14 7 28 18 32 24 4 7 19 15 33 18 15 4 47 21 73 39
26 18 58 38 72 45 14 7 43 23 65 37 22 13 57 31 78 40 20 10 37 21 37 25 0 4
12 13 28 19 15 7 45 23 67 36 22 14 54 32 70 41 17 8 48 26 70 39 65 39 108
63 143 80 17 8 32 20 32 25 0 6 5 10 11 10 10 0 92 46 227 127 20 12 51 29 67
38 17 9 48 27 70 40 22 13 54 31 70 40 17 8 48 27 70 40 22 14 54 32 70 41 17
8 48 26 70 40 22 13 54 31 70 40 51 27 88 49 135 79 25 16 70 42 100 58 30 15
62 34 70 41 8 7 26 18 40 24 14 7 43 23 65 37 22 13 54 31 70 40 17 9 48 27
70 40 22 13 54 32 70 40 17 9 48 27 70 41 22 13 55 31 73 39 17 8 32 19 32 24
0 5 12 12 26 15 14 4 46 21 72 39 26 18 58 38 72 45 14 7 43 23 65 37 22 13
56 31 75 40 19 9 37 19 40 23 3 4 16 13 30 20 14 7 43 23 65 37 22 13 54 32
70 40 17 9 48 27 70 41 22 13 54 31 70 40 17 8 48 26 70 40 22 13 54 31 70 40
17 8 46 25 66 37 88 53 173 103 202 120 18 10 50 28 72 42 22 13 54 31 70 40
17 8 48 27 70 40 22 13 54 31 70 40 17 9 48 27 70 40 22 14 54 32 70 41 17 8
46 25 67 37 20 12 66 40 103 62 37 22 84 50 104 62 20 12 50 29 66 37 17 9 48
27 70 41 22 13 54 31 70 40 17 9 48 27 70 40 22 13 54 32 70 40 17 9 48 27 70
41 22 13 54 31 70 40 17 8 47 25 67 37 127 76 219 127 227 127 6 0 14 6 18 13
4 7 19 18 33 25 14 7 43 23 65 37 22 13 54 31 70 40 17 8 48 27 70 40 22 13
54 31 70 40 17 9 46 26 67 38 20 12 62 37 95 55 32 18 65 37 73 43 8 5 29 16
45 25 17 8 48 26 70 39 22 13 72 40 112 59 40 20 75 41 78 46 3 6 17 10 29 10
53 0 59 74 7 87 -26 6 -104 45 -125 62 -6 5 -22 12 -36 16 -14 4 -32 13 -40
20 -8 7 -43 28 -78 47 -87 46 -110 59 -162 93 -25 16 -56 36 -70 43 -14 7 -43
24 -65 37 -22 14 -54 32 -72 40 -17 8 -34 19 -38 25 -8 13 -37 12 -50 -1z"/>
</g>
</svg>
