<?xml version="1.0" standalone="no"?>
<!DOCTYPE svg PUBLIC "-//W3C//DTD SVG 20010904//EN"
 "http://www.w3.org/TR/2001/REC-SVG-20010904/DTD/svg10.dtd">
<svg version="1.0" xmlns="http://www.w3.org/2000/svg"
 width="512.000000pt" height="512.000000pt" viewBox="0 0 512.000000 512.000000"
 preserveAspectRatio="xMidYMid meet">
<g transform="translate(0.000000,512.000000) scale(0.100000,-0.100000)"
fill="#000000" stroke="none">
<path d="M1058 4010 c-159 -170 -288 -312 -288 -317 1 -12 113 -98 220 -169
216 -141 441 -249 875 -419 363 -142 452 -191 569 -315 l66 -70 0 313 c0 172
-5 351 -10 397 -30 244 -116 399 -278 501 -80 51 -119 68 -377 171 -110 44
-265 111 -344 149 -79 38 -144 69 -145 68 0 0 -130 -139 -288 -309z"/>
<path d="M3675 4259 c-66 -32 -223 -100 -350 -150 -355 -142 -457 -200 -537
-306 -118 -155 -151 -343 -146 -822 l3 -274 30 43 c74 108 243 211 521 320
583 230 846 361 1093 549 44 34 82 65 85 69 4 7 -451 504 -552 603 l-27 26
-120 -58z"/>
<path d="M639 3508 c-23 -40 -57 -99 -75 -130 l-33 -58 22 -14 c18 -11 762
-440 1770 -1019 92 -54 170 -97 174 -97 9 0 -7 130 -28 220 -33 142 -91 240
-199 335 -86 75 -184 127 -400 208 -524 198 -871 376 -1127 579 l-62 49 -42
-73z"/>
<path d="M4434 3557 c-109 -90 -333 -232 -518 -326 -169 -86 -286 -137 -576
-251 -256 -100 -341 -139 -429 -200 -153 -103 -237 -267 -259 -507 -5 -46 -5
-83 -2 -83 3 0 55 29 115 63 160 93 642 370 1280 737 308 177 562 324 564 326
5 5 -9 31 -93 174 l-53 91 -29 -24z"/>
<path d="M283 3268 c-18 -23 -85 -149 -82 -152 2 -2 47 -28 99 -58 52 -30 165
-96 250 -145 85 -50 555 -322 1045 -605 490 -284 987 -572 1105 -640 643 -374
1165 -676 1322 -767 l177 -101 184 2 185 3 -527 304 c-718 416 -2760 1597
-3281 1899 -234 135 -434 252 -446 259 -17 11 -23 11 -31 1z"/>
<path d="M4780 3251 c-25 -15 -503 -292 -1063 -616 l-1018 -588 91 -54 c50
-29 93 -53 96 -53 4 0 2025 1169 2033 1175 4 5 -78 153 -87 158 -4 2 -27 -8
-52 -22z"/>
<path d="M1205 1810 l-480 -278 -142 -314 c-79 -172 -143 -314 -143 -316 0 -2
3 -1 8 1 4 3 189 110 412 239 223 129 591 342 818 473 324 188 410 241 400
251 -17 15 -379 224 -387 223 -3 0 -222 -126 -486 -279z"/>
<path d="M3236 1981 c-103 -60 -192 -113 -197 -118 -5 -5 221 -142 534 -323
298 -172 655 -378 792 -458 138 -80 265 -153 283 -164 17 -11 32 -18 32 -16 0
2 -64 144 -143 316 l-142 314 -475 275 c-261 151 -479 277 -485 279 -5 2 -95
-45 -199 -105z"/>
<path d="M1675 1454 c-308 -178 -687 -397 -841 -487 l-281 -162 183 -3 183 -2
745 431 c410 237 746 435 746 439 0 5 -24 21 -52 38 -29 16 -69 39 -88 50
l-35 20 -560 -324z"/>
</g>
</svg>
