<?xml version="1.0" standalone="no"?>
<!DOCTYPE svg PUBLIC "-//W3C//DTD SVG 20010904//EN"
 "http://www.w3.org/TR/2001/REC-SVG-20010904/DTD/svg10.dtd">
<svg version="1.0" xmlns="http://www.w3.org/2000/svg"
 width="2048.000000pt" height="2048.000000pt" viewBox="0 0 2048.000000 2048.000000"
 preserveAspectRatio="xMidYMid meet">
<g transform="translate(0.000000,2048.000000) scale(0.100000,-0.100000)"
fill="#000000" stroke="none">
<path d="M9938 19070 c-42 -5 -90 -16 -107 -24 -17 -9 -35 -16 -42 -16 -20 0
-165 -75 -208 -107 -39 -30 -191 -185 -191 -195 0 -6 -9 -21 -20 -35 -11 -14
-20 -33 -20 -42 0 -23 -48 -91 -65 -91 -7 0 -27 24 -44 53 -51 88 -232 256
-277 257 -6 0 -17 6 -23 14 -7 8 -27 18 -44 22 -17 3 -41 13 -53 21 -12 8 -44
18 -70 23 -27 5 -74 14 -104 20 -127 27 -415 -25 -491 -87 -8 -7 -19 -13 -24
-13 -12 0 -80 -46 -139 -94 -58 -47 -161 -174 -188 -231 -10 -22 -23 -47 -28
-55 -18 -31 -43 -117 -47 -167 -6 -69 -20 -70 -84 -11 -105 97 -256 180 -353
194 -23 4 -66 13 -96 20 -69 18 -151 18 -220 0 -30 -7 -76 -17 -102 -20 -26
-4 -50 -11 -53 -16 -3 -5 -25 -14 -48 -21 -23 -6 -49 -17 -57 -23 -8 -7 -22
-16 -32 -19 -91 -32 -328 -266 -328 -324 0 -6 -6 -16 -14 -22 -8 -7 -18 -27
-22 -44 -3 -18 -11 -37 -16 -44 -23 -28 -50 -171 -52 -268 -1 -97 -2 -100 -24
-103 -16 -2 -29 4 -39 17 -8 12 -20 21 -28 21 -8 0 -35 11 -61 25 -26 14 -56
25 -66 25 -10 0 -33 8 -51 17 -45 25 -336 26 -382 1 -16 -8 -49 -19 -72 -23
-23 -3 -47 -13 -54 -21 -6 -8 -19 -14 -29 -14 -9 0 -29 -9 -43 -20 -14 -11
-29 -20 -34 -20 -48 0 -321 -286 -323 -338 0 -4 -12 -29 -25 -57 -14 -27 -25
-58 -25 -68 0 -10 -8 -32 -17 -50 -29 -53 -26 -346 5 -404 25 -47 29 -91 9
-99 -8 -3 -60 5 -118 17 -68 14 -122 19 -159 16 -116 -11 -204 -27 -225 -41
-12 -8 -38 -18 -58 -21 -20 -4 -41 -13 -48 -21 -6 -8 -16 -14 -22 -14 -57 0
-327 -253 -327 -306 0 -8 -7 -17 -15 -20 -8 -4 -15 -11 -15 -18 0 -6 -7 -24
-16 -41 -82 -155 -100 -435 -40 -605 23 -64 65 -147 82 -161 8 -6 14 -16 14
-22 0 -6 7 -18 16 -28 35 -39 13 -49 -104 -49 -82 0 -121 -5 -165 -20 -31 -11
-63 -20 -71 -20 -7 0 -19 -6 -25 -14 -7 -8 -23 -17 -37 -20 -135 -34 -392
-330 -420 -484 -4 -20 -14 -50 -23 -67 -23 -44 -23 -356 0 -400 9 -16 20 -48
24 -70 3 -22 13 -47 20 -55 7 -8 16 -26 20 -39 4 -13 20 -42 36 -65 16 -22 37
-52 47 -65 9 -13 40 -49 69 -79 59 -62 58 -82 -6 -82 -31 0 -118 -27 -161 -51
-8 -4 -40 -20 -70 -35 -62 -31 -247 -209 -277 -267 -111 -213 -127 -279 -121
-498 3 -126 7 -161 21 -182 9 -15 17 -35 17 -46 0 -11 15 -48 33 -82 17 -33
38 -73 46 -87 56 -108 279 -302 347 -302 59 0 68 -67 12 -89 -51 -20 -218
-199 -233 -251 -4 -14 -12 -31 -18 -38 -16 -20 -56 -123 -63 -162 -4 -19 -13
-60 -20 -90 -16 -64 -18 -171 -4 -220 6 -19 15 -64 20 -98 6 -35 17 -73 24
-85 8 -12 17 -36 21 -54 3 -17 13 -37 21 -44 8 -6 14 -17 14 -23 0 -11 10 -27
67 -105 26 -35 134 -144 163 -164 14 -9 40 -28 59 -42 19 -14 40 -25 47 -25 6
0 17 -6 23 -14 7 -8 24 -17 39 -20 15 -4 41 -13 57 -21 94 -43 281 -65 354
-41 91 30 112 4 71 -88 -62 -140 -51 -450 20 -576 5 -8 23 -42 40 -75 47 -87
116 -169 205 -241 65 -53 186 -124 211 -124 11 0 29 -7 41 -15 12 -8 51 -19
87 -24 36 -5 70 -12 76 -16 21 -13 156 -14 215 -1 33 8 82 17 109 21 27 4 65
15 85 26 20 10 42 19 49 19 8 0 25 9 39 20 14 11 31 20 37 20 7 0 31 18 55 41
69 66 85 55 98 -73 10 -101 34 -189 59 -218 7 -8 16 -27 19 -42 4 -16 11 -28
16 -28 5 0 14 -10 20 -22 35 -81 192 -229 283 -269 12 -5 28 -13 36 -18 41
-26 114 -53 163 -61 31 -5 65 -14 76 -19 29 -16 250 -14 297 3 22 7 60 16 86
20 25 4 51 13 58 20 6 8 26 17 44 20 19 4 39 13 46 21 7 8 18 15 25 15 32 0
161 116 225 203 36 48 62 57 68 22 2 -11 13 -39 23 -62 10 -23 19 -48 19 -56
0 -8 7 -20 15 -27 8 -7 15 -18 15 -25 0 -43 210 -256 285 -290 17 -7 33 -17
37 -21 13 -12 148 -64 167 -64 10 0 36 -8 57 -17 55 -24 305 -23 352 1 17 9
41 16 53 16 19 0 39 7 129 49 130 61 266 182 320 286 51 97 70 102 109 30 62
-115 153 -224 226 -270 17 -11 33 -25 38 -31 4 -7 20 -15 36 -19 16 -3 35 -13
42 -21 6 -8 17 -14 23 -14 6 0 34 -11 61 -25 28 -13 60 -25 71 -25 12 0 41 -7
65 -16 64 -23 292 -24 336 -1 18 10 42 17 54 17 45 0 183 70 282 144 66 49
177 170 177 194 0 5 7 15 15 22 8 7 19 29 25 49 18 66 90 108 90 53 0 -40 151
-211 235 -266 55 -36 134 -76 152 -76 9 0 24 -6 32 -14 9 -7 45 -19 81 -26 36
-6 85 -16 110 -20 64 -12 149 -12 190 1 19 6 66 14 104 20 38 5 80 16 92 24
13 8 30 15 39 15 91 0 367 237 394 338 15 54 91 52 91 -3 0 -12 9 -32 20 -45
11 -13 20 -26 20 -30 0 -20 95 -127 152 -170 34 -27 71 -56 80 -64 10 -9 29
-18 42 -22 14 -3 30 -12 37 -20 6 -8 17 -14 23 -14 7 0 29 -9 49 -19 21 -11
57 -22 80 -26 23 -4 64 -13 91 -21 91 -26 345 1 421 44 11 6 36 18 55 27 36
15 55 27 135 83 64 45 75 38 75 -44 0 -209 179 -483 389 -595 30 -16 59 -33
65 -38 6 -5 30 -14 53 -20 23 -6 45 -15 47 -20 3 -5 27 -12 53 -15 27 -4 83
-14 127 -22 64 -13 89 -14 140 -4 33 7 88 17 121 24 33 6 72 19 87 29 59 41
103 -9 62 -71 -41 -61 -17 -371 34 -435 5 -7 12 -25 16 -41 4 -16 16 -41 27
-54 10 -14 19 -29 19 -34 0 -37 238 -278 275 -278 7 0 18 -6 24 -14 7 -8 25
-18 41 -21 16 -3 34 -13 40 -20 7 -8 35 -18 63 -21 33 -5 59 -15 78 -33 l28
-26 -10 -80 c-7 -49 -9 -190 -6 -367 l4 -287 -71 -27 c-39 -15 -78 -34 -87
-41 -8 -7 -19 -13 -24 -13 -32 0 -210 -154 -239 -208 -5 -9 -24 -35 -41 -57
-18 -22 -36 -51 -40 -65 -4 -14 -13 -32 -20 -40 -7 -8 -18 -34 -24 -57 -7 -23
-16 -45 -21 -48 -5 -3 -12 -27 -16 -53 -3 -26 -12 -61 -19 -78 -7 -17 -16 -64
-20 -105 -3 -41 -13 -101 -20 -135 -8 -33 -17 -96 -21 -140 -4 -43 -11 -89
-15 -102 -5 -13 -16 -81 -24 -152 -8 -71 -19 -139 -24 -152 -4 -13 -11 -61
-15 -108 -4 -47 -13 -110 -21 -140 -7 -30 -16 -84 -20 -120 -3 -35 -12 -78
-20 -96 -7 -17 -16 -60 -20 -95 -4 -35 -13 -75 -20 -89 -7 -14 -16 -54 -20
-89 -4 -35 -13 -78 -20 -95 -7 -17 -16 -57 -20 -90 -4 -32 -12 -75 -19 -95 -7
-20 -17 -63 -21 -96 -4 -33 -13 -74 -20 -91 -7 -17 -16 -59 -20 -94 -4 -35
-13 -77 -20 -94 -7 -17 -16 -58 -20 -91 -4 -33 -14 -76 -21 -96 -7 -20 -15
-63 -19 -95 -4 -33 -13 -73 -20 -89 -7 -17 -15 -57 -19 -89 -4 -31 -14 -72
-21 -89 -7 -18 -16 -61 -20 -96 -4 -35 -13 -78 -20 -95 -7 -17 -16 -57 -20
-90 -4 -32 -12 -75 -19 -95 -7 -20 -16 -62 -20 -94 -4 -32 -13 -73 -21 -90 -7
-18 -16 -58 -20 -91 -4 -32 -13 -75 -20 -96 -7 -21 -16 -64 -20 -96 -4 -33
-13 -73 -20 -90 -7 -17 -16 -60 -20 -95 -4 -35 -13 -75 -20 -89 -7 -14 -16
-52 -20 -85 -4 -33 -14 -73 -22 -89 -50 -97 14 -244 117 -267 52 -12 2907 -11
2949 1 20 5 53 30 78 57 l45 48 -5 90 c-2 53 -10 102 -19 120 -9 17 -19 56
-23 89 -4 32 -13 75 -20 96 -7 21 -17 64 -21 96 -4 32 -13 72 -19 89 -7 16
-16 57 -20 90 -4 33 -13 74 -20 90 -7 17 -15 57 -19 89 -4 32 -13 75 -20 95
-7 20 -17 63 -21 96 -4 33 -13 74 -20 91 -7 17 -16 59 -20 94 -4 35 -13 77
-20 94 -7 17 -16 58 -20 91 -4 33 -13 74 -20 91 -7 17 -16 59 -20 94 -4 35
-13 77 -20 94 -8 18 -17 61 -21 96 -3 36 -12 76 -19 90 -7 14 -16 54 -20 90
-4 36 -13 80 -21 98 -7 17 -16 60 -20 95 -4 34 -12 73 -19 87 -7 14 -16 57
-20 95 -4 39 -13 81 -20 95 -7 14 -16 51 -20 84 -4 32 -13 75 -20 96 -7 21
-16 64 -20 96 -4 33 -13 73 -20 90 -7 17 -16 59 -20 94 -4 35 -13 77 -20 94
-7 17 -16 65 -20 106 -4 41 -13 100 -20 130 -7 30 -16 91 -20 135 -4 44 -13
103 -20 130 -7 28 -16 82 -20 120 -3 39 -12 102 -20 140 -13 63 -26 145 -56
360 -15 104 -62 255 -100 315 -5 8 -13 25 -19 38 -44 101 -259 321 -316 322
-6 0 -17 6 -23 14 -7 8 -25 18 -41 21 -15 3 -45 15 -67 26 l-38 19 -5 368 c-6
425 -8 413 70 428 106 20 255 107 350 204 61 62 150 188 150 212 0 9 7 21 15
28 8 7 15 19 15 26 0 8 10 40 21 72 17 46 22 82 23 185 2 150 7 159 68 131 60
-27 336 -28 385 -1 18 9 42 17 55 17 13 0 46 11 73 25 28 13 53 25 57 25 19 1
171 112 218 160 76 77 166 216 188 290 6 19 17 53 25 75 34 92 29 405 -7 460
-7 11 -17 36 -21 55 -4 19 -16 46 -26 59 -11 13 -19 28 -19 34 0 6 -11 23 -25
37 -14 15 -28 43 -31 62 l-6 35 123 6 c76 5 130 12 143 21 12 7 37 17 56 21
19 4 41 12 48 17 12 10 48 32 102 60 28 15 34 20 124 108 89 86 195 249 196
300 0 9 6 25 14 36 50 71 51 450 1 528 -7 11 -16 35 -20 53 -3 17 -13 37 -21
44 -8 6 -14 17 -14 23 0 32 -126 183 -187 223 -52 34 -33 93 29 93 16 0 46 9
68 20 22 11 44 20 50 20 11 0 62 34 88 58 7 6 18 12 23 12 14 0 136 126 167
173 15 22 35 52 44 66 20 29 38 68 38 80 0 5 6 14 14 20 8 7 18 31 21 54 4 23
15 53 24 66 24 37 24 382 0 426 -9 17 -19 46 -23 66 -4 21 -13 42 -21 49 -8 7
-15 20 -15 30 0 9 -9 29 -20 43 -11 14 -20 29 -20 35 0 10 -81 114 -115 147
-69 68 -189 145 -225 145 -45 0 -38 72 10 88 35 13 42 18 130 100 94 88 200
250 200 307 0 9 7 26 15 39 39 59 40 403 1 489 -8 18 -17 46 -21 64 -3 17 -12
37 -20 43 -7 6 -16 22 -19 35 -24 97 -254 329 -357 360 -13 4 -30 13 -38 19
-13 11 -61 25 -163 48 -65 15 -66 29 -4 91 59 61 113 136 122 172 3 13 12 29
20 36 7 6 17 27 20 48 4 20 13 45 20 56 33 51 34 407 1 472 -8 15 -18 44 -22
63 -4 19 -12 41 -17 48 -12 14 -40 64 -61 107 -19 41 -170 195 -232 237 -49
33 -91 55 -188 97 -78 33 -262 52 -339 35 -24 -5 -28 -2 -28 16 0 29 23 82 43
99 10 7 17 22 17 34 0 11 9 34 19 51 55 90 59 453 6 529 -8 12 -15 27 -15 35
0 44 -97 202 -177 288 -91 96 -302 224 -372 224 -12 0 -35 7 -52 15 -22 12
-63 16 -159 16 -131 1 -151 -2 -206 -26 -17 -8 -50 -16 -75 -17 -54 -4 -61 16
-30 86 26 56 31 268 7 314 -7 15 -16 47 -20 71 -4 24 -13 56 -20 70 -7 14 -25
51 -40 81 -49 99 -149 222 -219 268 -22 15 -47 32 -55 37 -8 6 -24 18 -34 28
-10 9 -24 17 -32 17 -7 0 -19 6 -25 14 -7 8 -25 18 -41 21 -15 3 -45 15 -66
26 -21 10 -50 19 -64 19 -14 0 -43 7 -65 15 -48 17 -231 20 -272 4 -15 -6 -52
-15 -82 -20 -47 -9 -109 -33 -151 -60 -8 -5 -30 -16 -47 -24 -18 -9 -33 -20
-33 -25 0 -14 -46 -31 -65 -24 -12 5 -15 25 -15 90 0 53 -6 98 -15 121 -8 19
-15 45 -15 56 0 36 -81 187 -141 262 -70 89 -171 174 -248 211 -31 14 -72 34
-91 44 -20 10 -51 21 -70 25 -19 4 -55 14 -80 22 -60 20 -282 20 -336 -1 -22
-8 -54 -17 -73 -20 -79 -14 -227 -102 -305 -180 -40 -41 -81 -64 -93 -52 -3 3
-9 33 -13 68 -9 66 -39 161 -59 181 -6 6 -11 15 -11 20 0 59 -268 327 -327
327 -6 0 -16 6 -22 14 -7 8 -25 18 -41 21 -15 3 -45 15 -66 26 -21 10 -51 19
-66 19 -15 0 -53 7 -85 15 -73 19 -176 19 -239 0 -27 -8 -63 -15 -79 -15 -17
0 -48 -9 -70 -20 -22 -11 -45 -20 -51 -20 -24 0 -157 -77 -204 -117 -51 -45
-105 -105 -136 -151 l-36 -54 -23 22 c-13 12 -29 36 -35 53 -51 139 -192 313
-294 361 -20 9 -36 21 -36 26 0 6 -6 10 -13 10 -7 0 -28 9 -48 19 -19 10 -51
24 -70 29 -19 6 -52 17 -74 25 -50 19 -255 28 -357 17z m331 -546 c12 -14 27
-21 36 -18 11 5 37 -15 81 -59 42 -43 70 -64 80 -60 9 3 47 -27 109 -89 88
-89 95 -98 95 -135 0 -43 -20 -69 -45 -59 -9 3 -25 -5 -39 -21 -15 -16 -30
-24 -40 -20 -10 4 -25 -4 -40 -20 -15 -16 -30 -24 -40 -20 -10 4 -25 -4 -40
-20 -15 -16 -30 -24 -40 -20 -10 4 -25 -4 -40 -20 -15 -16 -30 -24 -40 -20
-10 4 -25 -4 -40 -20 -20 -22 -30 -25 -60 -20 -35 6 -66 -10 -66 -34 0 -5 -34
-9 -75 -9 -41 0 -75 4 -75 9 0 24 -31 40 -66 34 -30 -5 -40 -2 -60 20 -15 16
-30 24 -40 20 -10 -4 -31 10 -60 40 -29 30 -50 44 -60 40 -10 -4 -25 4 -40 20
-14 16 -30 24 -39 21 -10 -4 -41 19 -89 67 l-74 74 94 94 c61 61 99 91 108 88
10 -4 38 17 80 60 61 62 67 65 100 59 30 -6 39 -3 57 18 32 37 335 38 368 0z
m-1601 -79 c19 -21 28 -24 60 -19 31 5 40 2 59 -20 14 -16 28 -23 39 -19 10 4
25 -4 40 -20 15 -16 30 -24 40 -20 10 4 31 -10 60 -40 29 -30 50 -44 60 -40
10 4 25 -4 40 -20 14 -16 30 -24 39 -21 29 12 43 -14 43 -81 0 -67 -14 -93
-43 -82 -9 4 -38 -18 -79 -60 -43 -43 -70 -64 -80 -60 -10 4 -32 -10 -60 -40
-29 -30 -50 -44 -60 -40 -10 4 -25 -4 -40 -20 -15 -16 -30 -24 -40 -20 -11 4
-24 -3 -38 -18 -34 -39 -292 -39 -326 0 -14 15 -27 22 -38 18 -10 -4 -25 4
-40 21 -21 22 -31 25 -62 20 -31 -5 -40 -2 -59 19 -20 24 -27 25 -78 20 -52
-6 -59 -4 -82 21 -15 16 -31 25 -40 22 -21 -8 -43 11 -43 37 0 12 33 53 84
104 57 57 83 89 80 100 -7 24 179 208 201 199 9 -3 24 5 38 20 19 22 28 25 59
20 32 -5 41 -2 60 19 20 23 29 25 103 25 74 0 83 -2 103 -25z m3000 -80 c19
-21 28 -24 60 -19 31 5 40 2 59 -20 14 -15 29 -23 38 -20 26 10 285 -253 285
-289 0 -26 2 -28 29 -22 24 5 33 2 43 -14 20 -32 38 -26 38 14 0 36 15 46 38
23 28 -28 -14 -128 -54 -128 -6 0 -18 -7 -25 -16 -10 -12 -23 -14 -51 -10 -32
5 -41 2 -60 -20 -20 -22 -29 -25 -60 -20 -31 5 -41 2 -62 -20 -15 -17 -30 -25
-40 -21 -10 4 -25 -4 -40 -20 -15 -16 -30 -24 -40 -20 -11 4 -24 -2 -38 -18
-33 -38 -334 -37 -367 1 -12 14 -27 21 -36 17 -11 -4 -31 10 -61 40 -28 30
-50 44 -60 40 -10 -4 -37 17 -79 60 -44 44 -71 64 -82 61 -34 -9 -123 96 -123
143 0 44 18 67 43 57 9 -3 23 3 34 15 9 12 27 21 38 21 32 0 42 12 48 59 7 57
18 66 49 41 34 -26 44 -25 71 6 19 22 28 25 59 20 32 -5 41 -2 60 20 20 22 29
25 60 20 32 -5 41 -2 60 19 19 22 30 25 83 25 53 0 64 -3 83 -25z m-524 -21
c11 -29 6 -44 -14 -44 -14 0 -20 7 -20 23 0 37 23 51 34 21z m-37 -108 c-4
-10 -18 -16 -36 -16 -47 0 -50 24 -6 48 24 13 51 -7 42 -32z m-3919 -231 c20
-23 27 -25 80 -20 53 5 60 3 80 -20 19 -21 28 -24 60 -19 31 5 40 2 60 -20 19
-22 28 -25 60 -20 32 5 40 2 60 -21 19 -22 28 -25 57 -19 47 8 65 -8 65 -59 0
-39 -6 -46 -213 -253 l-213 -212 -202 0 c-194 0 -203 1 -217 21 -23 33 -129
33 -160 -1 -14 -15 -29 -22 -39 -19 -20 8 -86 -58 -86 -87 0 -11 -17 -39 -37
-61 -21 -22 -52 -58 -69 -79 -35 -44 -64 -45 -64 -1 0 14 -4 25 -8 25 -16 0
-52 -50 -52 -72 0 -13 -24 -46 -64 -85 -61 -60 -64 -65 -59 -102 5 -33 2 -42
-16 -53 -12 -7 -21 -23 -21 -37 0 -17 -20 -44 -65 -88 -41 -41 -62 -69 -58
-78 8 -22 -15 -45 -46 -45 -16 0 -31 -8 -39 -21 -12 -19 -21 -20 -118 -18 -99
3 -105 2 -120 -19 -14 -21 -23 -23 -78 -20 l-62 2 -59 -62 c-40 -43 -65 -62
-77 -59 -25 7 -168 -136 -161 -161 3 -12 -9 -31 -36 -55 -27 -24 -41 -45 -41
-62 0 -14 -9 -30 -20 -37 -18 -12 -20 -24 -20 -119 0 -102 -12 -169 -31 -169
-5 0 -9 -13 -9 -28 0 -18 -9 -37 -24 -50 -21 -17 -24 -27 -19 -57 6 -35 2 -40
-68 -111 -53 -53 -81 -74 -99 -74 -14 0 -31 -9 -38 -20 -7 -12 -23 -20 -40
-20 -17 0 -32 -8 -40 -21 -9 -13 -20 -19 -32 -16 -26 7 -370 -336 -370 -369 0
-13 -7 -27 -16 -32 -14 -8 -16 -50 -15 -354 l0 -346 -24 -20 c-14 -12 -22 -28
-19 -39 4 -13 -44 -67 -180 -201 -125 -124 -183 -188 -179 -198 3 -10 -11 -31
-39 -58 l-44 -44 3 -142 c3 -130 5 -145 23 -157 12 -9 20 -26 20 -44 0 -16 4
-29 10 -29 21 0 29 -88 29 -333 0 -244 -1 -258 -20 -270 -11 -7 -19 -23 -19
-39 0 -17 -8 -33 -20 -40 -12 -8 -20 -24 -20 -40 0 -17 -8 -33 -20 -40 -12 -8
-20 -24 -20 -40 0 -17 -8 -33 -20 -40 -31 -20 -27 -72 8 -88 l27 -12 -24 -11
c-19 -9 -26 -8 -36 6 -33 45 -80 -17 -76 -101 3 -82 46 -136 75 -97 7 9 19 12
34 9 24 -7 14 -34 -13 -34 -34 0 -22 -51 23 -95 29 -28 43 -49 39 -59 -4 -11
21 -42 79 -98 59 -58 83 -88 80 -101 -3 -12 11 -32 40 -60 31 -30 44 -50 44
-69 0 -16 4 -28 9 -28 21 0 31 -72 31 -229 0 -155 1 -167 20 -179 15 -9 20
-23 20 -60 0 -37 4 -50 21 -60 14 -9 19 -20 16 -33 -4 -14 8 -32 40 -64 29
-28 44 -49 40 -59 -8 -21 58 -86 81 -80 11 3 43 -22 100 -80 57 -59 87 -83 98
-79 10 4 25 -4 40 -20 21 -23 28 -25 80 -20 51 6 58 4 81 -21 15 -17 31 -25
42 -21 11 3 25 -4 40 -20 14 -17 28 -24 40 -20 11 3 25 -4 39 -20 13 -15 28
-22 37 -19 21 9 47 -16 42 -38 -4 -13 14 -37 59 -81 40 -38 63 -68 62 -80 -4
-25 338 -368 359 -360 9 3 24 -5 38 -19 32 -34 137 -34 161 1 14 19 22 21 75
16 54 -5 61 -3 80 19 33 38 375 38 408 0 12 -14 27 -21 36 -18 11 5 37 -14 80
-59 43 -43 71 -64 82 -61 12 3 47 -25 111 -90 84 -86 92 -97 92 -132 0 -45
-57 -111 -85 -100 -9 3 -24 -4 -38 -20 -19 -22 -28 -25 -59 -20 -32 5 -41 2
-60 -19 -14 -16 -28 -23 -39 -20 -12 4 -26 -3 -40 -20 -15 -16 -29 -23 -40
-20 -12 4 -26 -3 -41 -20 -12 -14 -29 -25 -38 -24 -30 3 -39 -1 -45 -21 -6
-18 -15 -20 -101 -20 -52 0 -94 4 -94 9 0 23 -31 40 -65 34 -33 -5 -39 -1
-150 108 -81 80 -114 119 -111 132 3 12 -17 38 -60 80 -44 41 -64 68 -60 79 6
24 -139 169 -160 161 -10 -4 -32 11 -59 40 -31 31 -50 44 -64 40 -12 -3 -24 3
-34 18 -25 35 -130 36 -162 1 -21 -23 -29 -24 -79 -19 -52 5 -59 3 -80 -20
-20 -22 -30 -25 -60 -20 -35 6 -66 -10 -66 -34 0 -5 -34 -9 -75 -9 -41 0 -75
4 -75 9 0 24 -31 40 -66 34 -30 -5 -40 -2 -60 20 -15 16 -30 24 -40 20 -23 -9
-124 94 -124 127 0 14 -9 31 -20 38 -19 11 -20 23 -20 182 0 97 -4 170 -9 170
-16 0 -34 70 -28 106 5 30 1 39 -40 78 -29 28 -44 50 -40 60 8 21 -137 166
-161 160 -11 -4 -37 16 -79 60 -60 62 -64 64 -102 59 -33 -5 -42 -2 -53 16
-10 16 -23 21 -59 21 -36 0 -50 5 -66 24 -18 20 -28 23 -60 20 -37 -5 -41 -2
-120 78 -45 46 -87 96 -92 112 -25 65 -9 336 20 336 5 0 9 13 9 29 0 18 8 34
23 45 20 14 20 17 6 28 -8 7 -18 21 -22 31 -3 9 -14 17 -22 17 -11 0 -15 7
-13 22 4 31 31 34 43 6 6 -13 17 -24 26 -26 19 -3 92 66 84 79 -8 12 14 89 25
89 6 0 10 13 10 28 0 20 12 39 42 67 l43 39 -3 85 c-4 87 -10 102 -41 94 -21
-5 -45 21 -38 42 4 9 -11 31 -40 59 -29 29 -44 50 -40 60 4 10 -16 37 -60 80
-43 43 -64 70 -60 80 4 10 -16 37 -58 79 -48 47 -65 71 -65 90 0 15 -4 27 -9
27 -17 0 -31 64 -31 146 0 98 9 125 55 171 20 20 32 40 28 49 -7 20 17 46 39
41 24 -7 248 216 242 241 -4 11 17 38 60 80 45 42 63 67 59 78 -4 11 9 30 37
57 l43 40 -2 106 c-2 91 -5 107 -22 119 -14 10 -19 25 -19 60 0 36 -5 50 -20
60 -13 8 -20 23 -20 42 0 17 -4 30 -9 30 -28 0 -44 368 -20 452 11 39 93 122
113 115 10 -4 25 4 40 20 15 16 30 24 40 20 10 -4 25 4 40 20 15 16 30 24 40
20 10 -4 31 10 60 40 28 29 50 44 60 40 21 -8 207 178 199 199 -4 10 11 32 40
59 32 32 44 50 40 64 -3 13 2 24 16 33 20 12 21 22 21 145 0 73 -4 133 -9 133
-29 0 -46 309 -21 375 16 41 136 159 155 151 10 -3 24 4 38 20 19 22 28 25 59
20 32 -5 41 -2 60 19 22 25 25 26 121 22 95 -4 100 -3 122 21 14 14 29 22 38
19 21 -8 317 289 317 318 0 11 20 39 44 62 41 39 43 44 39 86 -5 39 -3 46 16
52 11 3 21 12 22 18 0 7 0 74 -1 149 -1 128 0 138 19 150 12 7 21 23 21 38 0
33 62 95 85 87 9 -4 24 3 37 18 14 16 28 23 39 20 12 -4 26 3 39 18 34 39 415
40 449 1 27 -31 44 -30 75 2 20 23 30 26 60 21 33 -5 40 -2 79 39 24 25 51 44
64 44 30 0 163 134 156 159 -3 11 9 30 36 54 27 24 41 45 41 62 0 14 9 30 20
37 12 8 20 24 20 40 0 17 8 33 20 40 12 8 20 24 20 40 0 17 8 33 20 40 11 7
20 24 20 38 1 32 102 135 125 126 9 -3 24 4 37 19 20 23 27 25 80 20 53 -5 60
-3 80 20 17 19 31 25 63 25 32 0 46 -6 63 -25z m5160 -79 c5 -26 -12 -40 -42
-32 -28 7 -36 40 -13 50 23 10 52 1 55 -18z m800 -1 c19 -22 28 -25 58 -19 33
6 38 3 129 -88 67 -67 95 -102 95 -119 0 -14 9 -30 21 -37 14 -9 19 -20 16
-33 -4 -15 12 -36 59 -82 44 -41 64 -68 60 -79 -6 -24 139 -169 160 -161 10 4
32 -11 60 -40 40 -42 47 -45 80 -40 30 5 40 2 60 -21 31 -33 48 -33 77 0 21
25 25 25 100 20 73 -5 79 -4 99 19 33 38 213 38 246 0 19 -21 28 -24 60 -19
31 5 40 2 59 -20 14 -16 28 -23 38 -20 21 8 90 -59 82 -80 -4 -9 8 -29 28 -49
47 -47 55 -73 55 -175 0 -76 2 -89 20 -100 15 -9 20 -23 20 -60 0 -37 5 -50
21 -60 12 -8 19 -21 17 -33 -2 -14 45 -68 170 -194 l173 -173 55 5 c50 5 58 3
78 -18 22 -24 27 -25 142 -22 116 3 119 2 142 -22 15 -16 30 -24 41 -20 11 3
25 -4 39 -20 13 -15 28 -22 37 -19 23 9 63 -33 74 -75 5 -20 10 -162 10 -315
1 -273 1 -279 22 -294 17 -12 20 -22 16 -53 -5 -38 -4 -38 190 -233 131 -131
200 -193 210 -189 9 3 25 -5 39 -20 15 -16 30 -24 40 -20 10 4 25 -4 41 -21
21 -22 30 -26 59 -20 33 6 38 2 109 -68 l75 -75 0 -197 c0 -183 -1 -197 -20
-216 -11 -11 -20 -31 -20 -45 0 -14 -9 -30 -20 -37 -15 -10 -20 -24 -20 -60 0
-35 -5 -50 -19 -60 -32 -22 -34 -182 -3 -204 14 -9 22 -26 22 -43 0 -16 7 -31
15 -35 8 -3 15 -16 15 -29 0 -20 48 -87 62 -87 17 0 14 52 -3 63 -26 16 -25
47 1 47 11 0 20 -5 20 -10 0 -6 11 -20 25 -32 31 -27 34 -74 5 -83 -22 -7 -28
-35 -7 -35 6 0 96 -85 200 -189 l187 -189 0 -159 c0 -156 -1 -160 -24 -180
-20 -18 -23 -28 -19 -61 4 -31 1 -42 -14 -53 -33 -24 -35 -47 -8 -71 30 -26
32 -44 6 -53 -10 -3 -22 -17 -25 -31 -9 -33 -48 -30 -56 4 -7 32 -25 24 -26
-12 0 -16 -8 -34 -17 -41 -9 -7 -17 -23 -17 -36 0 -15 -16 -39 -45 -67 -28
-26 -42 -48 -39 -57 8 -21 -14 -45 -40 -45 -27 0 -90 64 -83 85 4 10 -16 36
-59 77 -45 43 -64 69 -60 81 3 12 -16 37 -60 79 -44 43 -64 70 -64 86 0 14
-11 33 -26 45 -47 37 -54 70 -54 270 0 174 9 247 31 247 5 0 9 13 9 29 0 35
19 91 31 91 5 0 9 13 9 29 0 18 8 35 19 43 17 12 20 28 22 119 l2 105 -58 56
c-34 32 -59 65 -61 79 -1 13 -3 28 -3 33 -1 5 -14 6 -30 3 -34 -7 -51 8 -51
43 0 33 -213 252 -236 243 -20 -8 -46 17 -41 39 3 11 -7 30 -29 52 -53 53 -55
63 -54 392 l2 302 -62 58 c-41 40 -60 64 -57 76 7 24 -218 249 -240 241 -9 -3
-25 5 -39 20 -15 16 -30 24 -40 20 -10 -4 -25 4 -40 20 -20 21 -30 25 -59 20
-33 -5 -40 -2 -81 40 -29 30 -50 44 -60 40 -22 -8 -84 55 -84 87 0 14 -8 30
-20 38 -15 9 -20 23 -20 60 0 37 -4 50 -21 60 -19 12 -20 21 -18 118 2 99 1
106 -20 120 -15 11 -21 23 -18 35 4 14 -9 33 -40 64 -29 27 -44 49 -40 59 9
23 -177 206 -202 199 -13 -3 -24 2 -33 16 -8 13 -23 21 -40 21 -17 0 -33 8
-40 20 -12 18 -24 20 -125 20 -103 0 -112 2 -118 20 -7 23 -6 23 -103 20 l-72
-2 -115 114 c-85 84 -115 119 -115 138 0 14 -9 31 -20 38 -11 7 -20 23 -20 37
0 17 -14 38 -41 62 -26 24 -39 43 -36 54 7 25 -218 250 -240 242 -9 -3 -25 5
-39 20 -15 16 -30 24 -40 20 -10 -4 -25 4 -40 21 -32 34 -96 32 -120 -3 -14
-20 -23 -22 -80 -19 -57 2 -66 0 -80 -20 -25 -36 -290 -34 -322 3 -13 15 -28
22 -37 18 -11 -4 -31 10 -61 40 -29 30 -50 44 -60 40 -22 -8 -167 135 -160
159 5 23 -99 129 -120 121 -25 -9 -44 17 -44 62 0 53 18 70 65 61 29 -6 38 -3
57 19 20 23 29 26 60 21 31 -5 41 -2 62 20 15 17 30 25 40 21 10 -4 25 4 40
20 22 24 29 25 81 20 51 -5 58 -3 77 19 33 38 213 37 246 -1z m-3759 -160 c40
-87 227 -265 278 -265 6 0 16 -6 22 -14 7 -8 27 -18 44 -21 18 -4 39 -13 47
-21 9 -7 40 -17 70 -23 30 -5 73 -14 95 -20 52 -14 198 -14 250 0 22 6 60 14
85 19 51 10 156 52 173 69 6 6 15 11 20 11 45 0 243 182 267 245 17 45 71 11
87 -54 36 -152 267 -374 448 -430 17 -6 49 -17 73 -25 94 -35 427 -29 485 8
12 8 36 17 54 21 17 3 37 13 44 21 6 8 16 14 22 14 19 0 122 74 169 122 75 77
100 69 112 -37 5 -46 33 -133 51 -155 6 -8 17 -30 25 -47 7 -18 16 -33 21 -33
4 0 10 -8 13 -18 13 -40 219 -232 250 -232 8 0 19 -6 25 -14 7 -8 25 -18 41
-21 16 -3 34 -12 40 -20 6 -7 30 -17 53 -20 23 -4 56 -15 72 -24 43 -23 356
-23 400 1 17 8 49 19 72 23 23 3 47 13 53 20 6 8 24 17 40 20 15 3 36 15 46
26 9 10 22 19 27 19 6 0 21 10 33 21 42 39 54 20 54 -80 0 -54 6 -106 14 -128
8 -21 17 -54 20 -74 4 -21 13 -42 21 -49 8 -7 15 -20 15 -30 0 -9 9 -29 20
-43 11 -14 20 -30 20 -35 0 -14 109 -149 151 -188 46 -42 173 -124 191 -124 9
0 21 -7 28 -15 7 -8 28 -17 49 -21 20 -3 45 -12 57 -19 66 -42 405 -37 466 6
71 50 85 23 58 -109 -27 -137 -17 -316 24 -392 7 -14 16 -38 20 -55 4 -16 13
-37 21 -45 7 -8 16 -26 20 -39 7 -23 38 -72 65 -104 79 -91 210 -207 235 -207
7 0 18 -6 24 -14 7 -8 25 -18 41 -21 16 -3 34 -13 40 -20 7 -8 28 -18 49 -21
20 -4 50 -13 68 -21 21 -8 75 -13 158 -13 137 0 149 -5 123 -54 -52 -98 -78
-151 -78 -161 0 -6 -9 -41 -21 -77 -36 -116 -13 -390 40 -478 5 -8 23 -44 40
-80 100 -214 296 -363 569 -430 53 -14 53 -15 -12 -84 -63 -66 -124 -155 -142
-205 -7 -20 -19 -49 -28 -66 -9 -16 -16 -40 -16 -52 0 -13 -7 -40 -16 -62 -42
-105 3 -423 77 -541 5 -8 14 -26 20 -40 11 -27 110 -152 149 -189 41 -39 170
-121 190 -121 22 0 50 -25 50 -45 0 -15 -27 -45 -40 -45 -10 0 -54 -29 -113
-74 -40 -31 -131 -140 -159 -190 -41 -75 -78 -162 -78 -183 0 -11 -7 -38 -17
-59 -24 -56 -24 -322 0 -378 10 -21 17 -48 17 -60 0 -12 8 -37 19 -56 10 -19
22 -46 26 -59 18 -60 146 -213 207 -249 52 -31 34 -75 -37 -87 -22 -4 -57 -16
-77 -26 -21 -11 -42 -19 -47 -19 -44 0 -291 -227 -291 -268 0 -5 -6 -12 -14
-15 -8 -3 -17 -19 -21 -36 -3 -16 -12 -35 -20 -41 -8 -6 -17 -26 -21 -43 -3
-17 -13 -41 -20 -52 -7 -11 -16 -40 -20 -65 -3 -25 -13 -70 -20 -100 -18 -70
-18 -163 0 -226 8 -27 17 -68 20 -92 4 -23 15 -59 26 -80 11 -20 20 -44 20
-53 0 -9 9 -24 20 -34 11 -10 20 -23 20 -30 0 -6 11 -22 25 -35 56 -52 34 -75
-80 -84 -77 -6 -190 -30 -207 -43 -7 -6 -27 -14 -45 -17 -17 -4 -37 -14 -44
-22 -6 -8 -17 -14 -25 -14 -7 0 -19 -6 -26 -13 -7 -8 -25 -20 -38 -27 -29 -15
-36 -21 -107 -93 -69 -69 -96 -103 -127 -161 -14 -27 -30 -54 -34 -60 -44 -61
-96 -295 -83 -376 14 -85 -7 -97 -112 -60 -77 27 -202 27 -280 0 -31 -11 -65
-20 -75 -20 -11 0 -31 -9 -46 -21 -60 -48 -80 -3 -47 109 25 81 26 128 7 202
-7 30 -16 77 -20 103 -3 27 -13 58 -21 70 -8 12 -15 27 -15 34 0 16 -15 49
-45 98 -13 22 -29 50 -34 62 -11 23 -159 175 -202 206 -26 19 -59 39 -99 59
-14 6 -32 17 -40 23 -48 36 -346 97 -396 81 -11 -3 -59 -10 -109 -16 -49 -6
-99 -17 -110 -24 -11 -7 -33 -16 -49 -20 -17 -4 -42 -16 -57 -27 -15 -10 -30
-19 -33 -19 -4 0 -31 -18 -61 -40 -78 -58 -95 -55 -95 18 0 32 -9 83 -20 115
-11 31 -20 65 -20 76 0 10 -7 24 -15 31 -8 7 -15 16 -15 21 0 12 -18 51 -38
80 -9 14 -29 43 -43 65 -48 71 -197 204 -229 204 -5 0 -10 4 -10 9 0 10 -122
71 -142 71 -8 0 -23 6 -34 14 -68 48 -423 44 -530 -5 -22 -11 -45 -19 -51 -19
-73 0 -319 -211 -377 -324 -29 -54 -76 -73 -76 -30 0 51 -90 166 -229 294 -28
25 -96 70 -108 70 -6 0 -16 6 -22 14 -7 8 -27 18 -44 21 -18 4 -41 12 -52 19
-52 32 -261 60 -348 46 -45 -7 -111 -16 -146 -21 -35 -5 -74 -15 -87 -24 -13
-8 -30 -15 -38 -15 -19 0 -50 -14 -101 -45 -22 -13 -51 -30 -65 -37 -14 -7
-32 -20 -41 -28 -9 -8 -35 -32 -57 -53 -90 -83 -162 -189 -177 -260 -10 -51
-61 -35 -97 32 -36 66 -169 200 -228 228 -14 7 -32 17 -40 22 -30 20 -127 61
-144 61 -9 0 -31 8 -49 18 -46 25 -396 26 -442 1 -16 -9 -46 -19 -66 -23 -21
-4 -42 -13 -48 -20 -7 -8 -23 -17 -36 -20 -89 -22 -325 -246 -325 -308 0 -47
-76 -64 -86 -20 -6 25 -46 101 -69 130 -23 30 -151 158 -170 169 -11 7 -40 26
-65 43 -25 16 -52 30 -61 30 -9 0 -22 7 -29 15 -7 8 -28 17 -49 21 -20 4 -49
14 -66 23 -46 24 -386 23 -432 -1 -18 -10 -40 -18 -50 -18 -10 0 -40 -11 -68
-25 -27 -13 -53 -25 -58 -25 -33 -1 -196 -141 -256 -220 -33 -43 -63 -38 -73
13 -4 21 -15 48 -23 60 -8 12 -15 27 -15 33 0 43 -154 229 -234 283 -22 14
-51 34 -65 43 -25 17 -51 31 -81 42 -8 3 -22 10 -30 15 -16 10 -92 36 -150 51
-45 12 -302 12 -355 0 -59 -13 -145 -45 -191 -72 -62 -35 -122 -76 -129 -88
-7 -12 -42 -13 -49 -2 -3 5 -12 55 -21 113 -9 57 -23 114 -31 126 -8 12 -14
28 -14 35 0 44 -104 193 -199 285 -72 71 -239 172 -284 173 -10 0 -30 8 -44
18 -24 15 -52 17 -213 16 -217 0 -224 4 -170 101 38 68 54 230 35 360 -16 115
-23 139 -68 235 -47 101 -177 259 -253 307 -72 45 -126 73 -143 73 -17 0 -51
24 -51 35 0 16 22 55 31 55 19 0 110 80 169 148 52 61 76 97 99 152 6 14 16
33 22 43 57 100 85 407 45 499 -9 21 -16 48 -16 60 0 13 -8 39 -19 58 -10 19
-22 46 -26 59 -11 37 -90 145 -151 209 -69 72 -67 85 13 93 34 3 68 11 75 16
7 6 32 16 56 22 23 7 42 16 42 20 0 5 10 11 23 15 72 18 307 250 307 303 0 6
6 16 14 22 8 7 18 25 21 41 3 16 12 34 20 40 7 6 17 30 20 53 4 23 15 56 23
72 24 44 24 312 0 375 -9 25 -20 61 -24 80 -3 19 -15 46 -25 59 -11 13 -19 32
-19 41 0 10 -7 23 -16 31 -18 15 -54 82 -54 102 0 11 27 15 118 20 144 8 254
43 363 115 14 9 44 29 65 43 42 28 135 125 162 168 9 15 20 31 26 36 22 20
106 206 106 233 0 11 7 39 15 62 23 64 20 242 -4 313 -49 142 -37 177 47 139
56 -25 218 -37 302 -23 118 21 178 42 305 108 68 36 238 194 250 234 4 11 10
19 14 19 8 0 44 68 90 171 12 25 21 55 21 66 0 11 7 40 15 63 10 27 15 80 15
147 0 112 14 140 46 94 8 -11 21 -21 28 -21 7 0 25 -9 39 -20 14 -11 31 -20
39 -20 7 0 30 -9 51 -20 86 -46 447 -49 510 -5 12 8 28 15 36 15 49 0 222 111
306 195 92 93 175 233 190 320 4 22 10 45 15 50 4 6 10 27 14 48 9 50 26 48
86 -12 50 -50 148 -121 167 -121 6 0 16 -7 23 -15 7 -8 28 -18 49 -21 20 -4
45 -13 56 -20 49 -32 339 -41 445 -14 209 53 463 238 504 367 4 12 13 27 21
33 8 7 15 20 15 29 0 59 65 78 89 26z m-4325 -1411 c17 -45 -4 -78 -32 -51
-13 13 -13 21 -4 42 13 29 27 32 36 9z m11763 -4087 c-3 -9 15 -36 44 -67 l50
-52 31 15 c33 16 61 12 55 -7 -2 -6 -15 -12 -29 -14 -53 -6 -43 -46 28 -115
46 -44 64 -68 64 -87 0 -14 8 -30 20 -38 12 -7 20 -23 20 -40 0 -16 8 -32 20
-40 19 -11 20 -23 20 -157 0 -134 -1 -146 -20 -157 -11 -7 -20 -24 -20 -38 0
-17 -15 -39 -44 -67 -29 -28 -43 -49 -40 -60 3 -13 -32 -54 -120 -141 -86 -84
-123 -127 -119 -138 4 -10 -11 -31 -40 -59 -32 -32 -44 -50 -40 -64 3 -13 -2
-24 -16 -33 -31 -19 -32 -186 -1 -206 15 -9 20 -23 20 -60 0 -36 5 -50 20 -60
12 -7 20 -23 20 -40 0 -16 8 -32 20 -40 13 -8 20 -23 20 -42 0 -17 4 -30 10
-30 19 0 29 -80 28 -250 l0 -175 -43 -42 c-29 -29 -42 -49 -38 -61 5 -22 -21
-47 -42 -38 -9 3 -31 -11 -57 -39 -29 -30 -51 -45 -68 -45 -15 0 -31 -9 -38
-21 -9 -13 -20 -19 -32 -16 -14 4 -39 -15 -90 -65 -74 -73 -87 -108 -52 -134
14 -10 15 -15 4 -26 -11 -11 -16 -10 -26 5 -24 31 -61 21 -114 -33 -35 -35
-48 -56 -45 -70 3 -12 -3 -23 -16 -32 -13 -8 -21 -23 -21 -40 0 -32 -17 -80
-32 -89 -19 -12 -12 -59 11 -75 20 -15 21 -21 21 -277 l0 -262 -74 -73 c-50
-48 -81 -72 -97 -72 -14 0 -30 -9 -37 -21 -12 -18 -22 -20 -90 -19 -102 3
-100 3 -107 -20 -6 -18 -15 -20 -78 -20 -61 0 -74 -3 -85 -20 -7 -12 -23 -20
-40 -20 -16 0 -32 -8 -40 -20 -8 -13 -23 -20 -43 -20 l-31 0 7 -46 c9 -60 -4
-74 -66 -74 -44 0 -52 -4 -98 -51 -31 -31 -48 -56 -44 -65 3 -10 -11 -32 -40
-59 -32 -32 -44 -50 -40 -64 3 -13 -2 -24 -16 -33 -17 -10 -21 -23 -21 -60 0
-37 -5 -51 -20 -60 -11 -7 -20 -24 -20 -38 0 -19 -34 -58 -133 -157 l-132
-131 -101 0 -101 0 -121 122 c-121 122 -142 152 -142 207 0 16 -4 29 -10 29
-14 0 -32 77 -30 129 3 65 2 69 -20 76 -14 5 -20 15 -20 38 0 22 -7 36 -21 45
-12 8 -19 21 -17 33 4 29 -295 329 -321 322 -12 -3 -24 4 -34 17 -15 22 -21
22 -186 21 -107 -1 -171 2 -171 8 0 24 -31 40 -66 34 -30 -5 -40 -2 -60 20
-14 16 -30 24 -39 20 -21 -7 -130 101 -122 121 4 10 -17 38 -60 80 -42 42 -63
70 -60 80 8 21 -259 287 -280 279 -9 -3 -24 5 -39 20 -15 16 -30 24 -42 20
-13 -3 -25 3 -36 18 -24 35 -88 37 -120 2 -22 -24 -29 -26 -81 -20 -51 5 -58
4 -78 -20 -21 -23 -26 -24 -99 -19 -76 5 -108 -5 -108 -35 0 -5 -7 -9 -15 -9
-8 0 -15 4 -15 9 0 29 -30 38 -105 33 l-76 -5 -45 46 c-28 30 -50 44 -60 40
-10 -4 -37 17 -80 60 -42 43 -70 64 -80 60 -9 -3 -41 21 -88 69 l-74 73 53 53
c33 33 58 50 67 47 10 -4 39 18 81 61 44 44 71 65 81 61 10 -4 25 4 40 20 15
16 30 24 40 20 10 -4 24 2 37 17 21 24 24 24 204 24 180 0 183 0 204 -24 12
-14 27 -21 36 -18 21 8 130 -99 122 -120 -4 -10 23 -43 79 -98 58 -57 84 -88
81 -100 -7 -24 178 -209 200 -201 9 4 29 -9 55 -36 l39 -43 145 0 c135 -1 146
1 159 20 14 19 26 20 218 21 l203 1 22 -25 c15 -17 29 -24 41 -20 11 3 25 -4
39 -20 13 -15 28 -22 37 -19 22 9 45 -14 45 -45 0 -15 8 -31 20 -39 15 -9 20
-23 20 -60 0 -36 5 -50 20 -60 17 -10 20 -23 20 -82 0 -39 4 -70 10 -70 11 0
33 -77 25 -89 -3 -5 16 -30 41 -55 30 -28 45 -50 41 -60 -8 -21 218 -247 240
-239 9 3 24 -5 39 -20 15 -16 30 -24 42 -20 13 3 25 -3 35 -17 24 -34 340 -34
364 0 13 19 22 21 55 17 33 -4 43 -1 63 20 14 15 29 23 38 20 22 -8 288 258
280 279 -4 10 11 32 40 59 31 31 44 50 40 64 -3 11 3 24 15 32 12 9 22 32 26
61 4 26 14 54 22 62 8 8 14 25 14 37 0 29 143 174 165 166 9 -4 25 4 39 20 15
16 30 24 40 20 10 -4 31 10 60 40 28 29 50 44 60 40 21 -8 247 218 239 239 -4
10 11 32 40 59 31 31 44 50 40 64 -3 12 3 24 18 35 21 14 22 21 20 123 -1 59
-6 110 -11 113 -29 18 -45 388 -20 456 11 29 161 184 178 184 24 0 22 21 -3
30 -34 13 -32 53 2 58 17 3 26 -3 33 -23 10 -25 30 -26 30 -2 0 7 9 20 19 29
11 9 17 24 15 35 -4 13 15 37 60 81 45 42 63 67 59 78 -4 11 9 30 37 57 l43
40 -2 106 c-2 91 -5 107 -22 119 -10 7 -19 21 -19 30 0 10 -9 35 -20 57 -11
22 -20 53 -20 70 0 19 -7 35 -20 43 -13 8 -20 23 -20 42 0 17 -4 30 -9 30 -21
0 -30 75 -30 240 1 171 10 250 29 250 6 0 10 12 10 28 0 19 13 39 45 70 29 28
42 48 38 58 -4 11 8 29 36 55 27 25 41 48 41 64 0 14 9 30 20 37 11 7 20 24
20 37 0 15 18 42 52 77 l53 52 34 -33 c19 -20 31 -40 28 -48z m-12967 28 c0
-27 -24 -39 -39 -21 -18 22 4 72 24 56 8 -7 15 -23 15 -35z m6888 -2410 c20
-23 27 -25 80 -20 53 5 60 3 80 -20 13 -15 28 -22 37 -19 11 5 37 -15 81 -59
43 -44 70 -64 80 -60 10 4 31 -11 60 -40 28 -29 50 -44 60 -40 19 7 84 -56 84
-82 0 -26 -65 -89 -84 -82 -10 4 -32 -11 -60 -40 -29 -30 -50 -44 -60 -40 -10
4 -25 -4 -40 -20 -15 -16 -30 -24 -40 -20 -11 4 -24 -3 -38 -18 -14 -16 -28
-23 -39 -20 -11 4 -32 -10 -62 -41 l-46 -47 -76 5 c-75 5 -105 -4 -105 -33 0
-5 -7 -9 -15 -9 -8 0 -15 4 -15 9 0 27 -31 39 -86 34 -51 -5 -58 -4 -80 20
-15 16 -30 24 -40 20 -10 -4 -25 4 -40 20 -15 16 -30 24 -40 20 -10 -4 -31 10
-60 40 -29 30 -50 44 -60 40 -10 -4 -25 4 -40 20 -14 16 -30 24 -39 20 -29
-10 -85 56 -85 101 0 35 7 46 75 114 48 48 80 72 89 69 10 -4 38 17 80 60 44
44 70 64 81 59 9 -3 24 4 37 19 20 23 27 25 80 20 53 -5 60 -3 80 20 19 22 30
25 83 25 53 0 64 -3 83 -25z m-2959 -81 c13 -15 27 -21 37 -17 10 4 25 -4 40
-20 15 -16 30 -24 40 -20 10 4 31 -10 60 -40 29 -30 50 -44 60 -40 10 4 31
-11 60 -40 28 -29 50 -44 59 -40 21 8 47 -17 41 -40 -3 -11 4 -26 20 -39 l24
-21 -55 -55 c-35 -35 -60 -52 -70 -49 -9 4 -30 -10 -57 -38 -28 -29 -49 -43
-59 -40 -11 4 -33 -11 -62 -41 -42 -43 -48 -46 -81 -40 -29 6 -38 3 -59 -20
-16 -17 -31 -25 -41 -21 -11 4 -24 -3 -38 -18 -30 -35 -192 -39 -203 -5 -6 20
-15 24 -45 21 -9 -1 -26 10 -38 24 -13 15 -28 22 -37 19 -11 -5 -43 20 -101
79 -55 56 -90 84 -100 80 -9 -3 -41 21 -89 69 -68 69 -75 79 -75 115 0 43 18
67 43 57 9 -3 25 5 40 22 16 17 31 25 41 21 10 -4 25 4 40 20 15 16 30 24 40
20 10 -4 25 4 40 20 15 16 30 24 40 20 11 -4 25 3 39 19 19 22 28 25 59 20 32
-5 41 -2 59 18 32 37 296 37 328 0z m1520 -40 c13 -15 27 -21 37 -17 10 4 25
-4 40 -20 15 -16 30 -24 40 -20 10 4 25 -4 40 -20 15 -16 30 -24 40 -20 10 4
31 -10 60 -40 28 -29 50 -44 59 -40 10 3 35 -14 69 -48 l54 -54 -74 -73 c-47
-48 -79 -72 -88 -69 -10 4 -38 -17 -80 -60 -43 -44 -70 -64 -80 -60 -10 4 -25
-4 -40 -20 -15 -16 -30 -24 -40 -20 -11 4 -25 -3 -38 -18 -12 -14 -29 -25 -38
-24 -30 3 -39 -1 -45 -21 -11 -33 -133 -29 -163 5 -19 21 -28 24 -60 19 -31
-5 -40 -2 -59 20 -14 16 -28 23 -39 19 -10 -4 -25 4 -40 20 -15 16 -30 24 -40
20 -10 -4 -37 16 -80 60 -41 43 -70 64 -80 60 -30 -11 -124 96 -124 143 0 44
19 70 45 61 9 -4 31 11 59 40 29 29 50 44 60 40 10 -4 31 10 60 40 29 30 50
44 60 40 10 -4 25 4 40 20 15 16 30 24 40 20 10 -4 24 2 37 17 20 23 25 24
184 24 159 0 164 -1 184 -24z m-721 -83 c9 -5 25 -12 35 -15 12 -4 17 -14 15
-28 -4 -31 -51 -33 -56 -3 -2 11 -14 28 -25 37 -25 20 -2 26 31 9z m6204
-3687 c35 -9 68 -21 73 -28 6 -7 20 -16 31 -20 36 -11 121 -104 163 -177 48
-82 67 -148 86 -294 8 -60 19 -123 24 -140 6 -16 13 -66 16 -110 4 -44 13
-101 20 -127 8 -26 17 -80 20 -120 3 -40 13 -93 22 -117 9 -24 16 -77 17 -118
l1 -74 -552 0 c-304 0 -557 2 -563 6 -15 9 -12 44 9 105 10 30 22 87 26 125 3
39 13 93 20 120 8 28 17 84 20 125 3 41 12 98 20 125 7 28 16 88 20 135 4 47
11 95 16 108 5 12 13 51 19 85 5 34 19 80 30 102 11 21 20 44 20 50 0 5 28 43
63 84 123 147 233 192 379 155z m-569 -1785 c23 -32 941 -32 964 0 36 52 123
-11 123 -89 0 -34 5 -48 20 -58 18 -11 20 -23 20 -100 0 -76 2 -89 20 -100 17
-10 20 -23 20 -80 0 -56 3 -69 20 -80 18 -11 20 -23 20 -100 0 -76 2 -89 20
-100 18 -11 20 -23 20 -100 0 -78 2 -89 21 -100 18 -12 20 -22 19 -90 -3 -102
-3 -100 20 -107 18 -6 20 -15 20 -78 0 -62 3 -74 21 -85 18 -12 20 -22 19 -90
-3 -102 -3 -100 20 -107 18 -6 20 -15 20 -78 0 -61 3 -74 20 -85 18 -11 20
-23 20 -100 0 -78 2 -89 21 -100 18 -12 20 -22 19 -90 -3 -102 -3 -100 20
-107 19 -6 20 -15 20 -154 0 -154 -7 -179 -43 -165 -10 3 -24 -4 -38 -20 l-23
-26 -941 0 -941 0 -23 26 c-14 16 -28 23 -38 20 -36 -14 -43 11 -42 158 0 153
10 238 28 244 6 2 11 25 11 51 0 52 17 111 31 111 5 0 9 21 10 48 0 69 15 146
28 150 6 2 11 25 12 50 0 69 15 146 28 150 6 2 11 25 11 51 0 52 17 111 31
111 5 0 9 21 10 48 0 69 15 146 28 150 6 2 11 25 11 51 0 52 17 111 31 111 5
0 9 31 9 69 0 69 15 131 31 131 5 0 9 21 10 48 0 69 15 146 28 150 6 2 11 25
11 51 0 52 17 111 31 111 5 0 9 31 9 69 0 69 15 131 31 131 5 0 9 12 9 26 0
62 93 117 123 73z"/>
<path d="M6479 17232 c-37 -38 -55 -72 -39 -72 5 0 14 9 20 20 6 11 17 20 25
20 8 0 15 6 15 14 0 7 9 16 21 19 12 3 19 11 17 18 -8 23 -22 18 -59 -19z"/>
</g>
</svg>
