<?xml version="1.0" standalone="no"?>
<!DOCTYPE svg PUBLIC "-//W3C//DTD SVG 20010904//EN"
 "http://www.w3.org/TR/2001/REC-SVG-20010904/DTD/svg10.dtd">
<svg version="1.0" xmlns="http://www.w3.org/2000/svg"
 width="512.000000pt" height="512.000000pt" viewBox="0 0 512.000000 512.000000"
 preserveAspectRatio="xMidYMid meet">
<g transform="translate(0.000000,512.000000) scale(0.100000,-0.100000)"
fill="#000000" stroke="none">
<path d="M2429 4750 c-21 -11 -52 -37 -71 -59 l-35 -41 -33 35 c-61 62 -163
80 -239 40 -38 -19 -87 -72 -102 -109 -7 -17 -13 -32 -14 -34 -1 -1 -24 10
-51 25 -130 73 -291 -8 -311 -156 l-5 -39 -34 14 c-138 58 -296 -63 -282 -215
l5 -48 -56 0 c-61 0 -120 -24 -158 -65 -51 -54 -68 -153 -38 -225 8 -19 15
-37 15 -38 0 -1 -18 -5 -41 -8 -90 -12 -169 -109 -169 -206 0 -46 28 -122 49
-135 18 -12 13 -23 -14 -30 -37 -9 -96 -65 -116 -111 -10 -22 -19 -62 -19 -89
0 -80 34 -135 119 -193 2 -1 -12 -20 -31 -41 -121 -134 -20 -352 163 -352 25
0 26 -1 21 -55 -14 -167 153 -283 301 -208 30 15 47 10 47 -14 0 -9 11 -36 25
-59 67 -114 232 -134 326 -40 l26 26 13 -30 c18 -43 82 -97 132 -110 78 -22
168 6 215 65 l26 32 46 -47 c47 -49 94 -70 157 -70 48 0 132 47 160 90 l26 38
34 -38 c83 -92 237 -86 318 11 26 30 28 31 41 13 8 -11 15 -22 15 -27 0 -16
94 -66 134 -72 36 -5 89 5 147 29 13 6 18 -1 23 -30 5 -25 23 -51 55 -84 39
-39 58 -50 102 -59 33 -7 68 -7 91 -2 l36 9 -5 -32 c-12 -75 41 -167 119 -207
l38 -19 0 -94 0 -93 -48 -30 c-69 -43 -89 -89 -118 -278 -13 -85 -60 -321
-104 -525 -62 -286 -78 -376 -70 -391 11 -19 22 -19 392 -17 339 3 382 5 391
19 8 12 -11 116 -71 395 -45 209 -91 440 -102 514 -11 74 -25 149 -31 167 -16
50 -63 108 -103 127 l-36 17 0 98 0 99 28 7 c66 16 132 103 132 172 0 31 0 31
63 35 124 8 198 77 205 192 3 46 0 74 -12 96 -19 40 -16 46 31 53 21 4 55 21
76 38 92 76 107 202 35 292 -16 21 -28 39 -27 40 68 36 89 51 113 85 57 81 43
207 -30 272 -19 16 -40 30 -46 30 -7 0 4 17 24 38 50 52 68 93 68 154 -1 93
-52 169 -134 199 l-34 12 26 39 c30 46 40 128 22 182 -23 72 -90 126 -174 141
-29 6 -36 11 -30 24 45 110 3 225 -101 276 -46 23 -65 27 -108 22 l-52 -5 3
46 c5 70 -38 148 -102 187 -58 35 -140 41 -195 13 -42 -22 -41 -22 -41 5 -1
37 -35 100 -73 134 -74 65 -176 69 -260 10 -16 -10 -29 -18 -31 -16 -1 2 -8
19 -16 37 -54 137 -229 170 -341 66 l-25 -24 -31 43 c-57 81 -179 112 -264 67z
m-10 -369 c86 -44 169 -35 240 26 l40 34 15 -28 c33 -64 101 -103 180 -103 62
0 101 12 133 42 l22 20 16 -38 c47 -112 174 -164 281 -115 l42 19 5 -41 c7
-55 52 -115 107 -144 36 -20 57 -24 106 -21 l61 3 0 -55 c0 -114 88 -210 193
-210 35 0 34 3 14 -46 -18 -44 -14 -115 10 -162 21 -42 75 -90 113 -103 39
-12 39 -13 13 -46 -28 -36 -43 -99 -35 -148 6 -41 56 -135 72 -135 5 0 16 -7
25 -14 16 -12 15 -16 -20 -53 -75 -79 -82 -191 -15 -279 29 -38 29 -40 -1 -48
-42 -10 -103 -87 -116 -147 -10 -47 -10 -61 7 -110 l19 -56 -45 -12 c-85 -23
-142 -88 -157 -178 l-6 -38 -67 -1 c-65 0 -67 1 -63 22 2 12 -3 47 -12 77 -17
57 -70 118 -122 137 -43 17 -131 12 -173 -10 l-39 -19 -6 31 c-10 49 -46 98
-95 129 -82 52 -194 37 -263 -37 l-31 -33 -40 44 c-75 87 -207 95 -295 19 -23
-19 -44 -44 -47 -55 -7 -20 -9 -19 -44 14 -20 20 -53 43 -73 52 -81 33 -188 8
-243 -57 l-26 -31 -31 38 c-73 88 -210 100 -300 25 l-33 -28 -20 36 c-49 88
-171 127 -267 84 l-44 -19 -17 46 c-31 87 -105 141 -192 141 -42 0 -46 2 -40
21 13 41 6 117 -14 157 -19 38 -65 85 -93 95 -9 3 -3 15 19 38 75 79 83 183
20 272 -10 16 -18 29 -16 31 2 1 19 8 37 16 94 37 147 170 107 267 -21 49 -20
50 25 56 57 7 106 42 138 95 22 38 27 59 27 112 l0 65 42 -3 c110 -10 222 89
223 195 0 32 0 32 28 17 40 -21 135 -18 181 6 47 23 85 67 101 115 11 33 14
35 28 22 35 -31 83 -47 137 -47 69 0 122 26 166 80 l32 39 19 -25 c11 -13 37
-33 57 -43z m1317 -2899 c12 -9 27 -27 33 -40 11 -20 51 -226 51 -259 0 -10
-35 -13 -140 -13 l-139 0 4 28 c9 46 35 217 35 224 0 4 14 23 31 43 25 28 38
35 68 35 20 0 46 -8 57 -18z"/>
</g>
</svg>
